<?xml version="1.0" encoding="UTF-8" standalone="no"?>
<svg
   id="_ÎÓÈ_1"
   data-name="—ÎÓÈ_1"
   viewBox="0 0 419.99999 96.999997"
   version="1.1"
   sodipodi:docname="truth-01b-pipe-03.svg"
   width="420"
   height="97"
   inkscape:version="1.1.2 (0a00cf5339, 2022-02-04, custom)"
   xmlns:inkscape="http://www.inkscape.org/namespaces/inkscape"
   xmlns:sodipodi="http://sodipodi.sourceforge.net/DTD/sodipodi-0.dtd"
   xmlns="http://www.w3.org/2000/svg"
   xmlns:svg="http://www.w3.org/2000/svg">
  <sodipodi:namedview
     id="namedview109"
     pagecolor="#505050"
     bordercolor="#ffffff"
     borderopacity="1"
     inkscape:pageshadow="0"
     inkscape:pageopacity="0"
     inkscape:pagecheckerboard="1"
     showgrid="false"
     fit-margin-top="0"
     fit-margin-left="0"
     fit-margin-right="0"
     fit-margin-bottom="0"
     inkscape:zoom="1.3738417"
     inkscape:cx="241.29417"
     inkscape:cy="-39.66978"
     inkscape:window-width="1920"
     inkscape:window-height="1003"
     inkscape:window-x="0"
     inkscape:window-y="0"
     inkscape:window-maximized="1"
     inkscape:current-layer="_ÎÓÈ_1" />
  <defs
     id="defs20">
    <style
       id="style2">.cls-1{fill:url(#radial-gradient);}.cls-2{fill:url(#linear-gradient);}.cls-3{fill:#4a78a0;}.cls-4{fill:#53a5f8;}.cls-5{fill:#fff;}</style>
    <radialGradient
       id="radial-gradient"
       cx="290.48001"
       cy="78.370003"
       r="137.45"
       gradientTransform="translate(-0.33)"
       gradientUnits="userSpaceOnUse">
      <stop
         offset="0"
         stop-color="#1a0825"
         id="stop4" />
      <stop
         offset="1"
         stop-color="#2a023f"
         id="stop6" />
    </radialGradient>
    <linearGradient
       id="linear-gradient"
       x1="79.510002"
       y1="78.370003"
       x2="117.82"
       y2="78.370003"
       gradientUnits="userSpaceOnUse">
      <stop
         offset="0"
         stop-color="#4a78a0"
         id="stop9" />
      <stop
         offset="0.09"
         stop-color="#4a6fa0"
         id="stop11" />
      <stop
         offset="0.49"
         stop-color="#4a47a0"
         id="stop13" />
      <stop
         offset="0.8"
         stop-color="#4a2fa0"
         id="stop15" />
      <stop
         offset="1"
         stop-color="#4a26a0"
         id="stop17" />
    </linearGradient>
  </defs>
  <g
     id="g1240"
     transform="translate(-56.14925,-33.870274)">
    <g
       id="g1119"
       transform="translate(-13.605938,4.0005289)">
      <path
         class="cls-1"
         d="M 98.67,113.36 H 460.3 c 0,0 19.8,-3 19.7,-35 -0.1,-32 -19.7,-35 -19.7,-35 H 98.67"
         id="path22"
         style="fill:url(#radial-gradient)" />
      <ellipse
         class="cls-2"
         cx="98.669998"
         cy="78.370003"
         rx="19.16"
         ry="34.98"
         id="ellipse24"
         style="fill:url(#linear-gradient)" />
      <path
         class="cls-3"
         d="m 155.36,43.39 h 18.11 a 13.46,13.46 0 0 0 -18.11,0 z"
         id="path26" />
      <path
         class="cls-3"
         d="m 155.36,113.36 a 13.49,13.49 0 0 0 18.11,0 z"
         id="path28" />
      <path
         class="cls-4"
         d="m 195.21,43.39 a 14.33,14.33 0 0 0 -9.06,-3.5 h -21.74 a 14.33,14.33 0 0 1 9.06,3.5 21.41,21.41 0 0 1 1.81,1.66 c 6.5,6.66 10.87,19.08 10.87,33.32 0,14.24 -4.37,26.67 -10.87,33.32 a 21.56,21.56 0 0 1 -1.81,1.67 14.32,14.32 0 0 1 -9.06,3.49 h 21.74 a 14.32,14.32 0 0 0 9.06,-3.49 c 3.93,-3.2 7.23,-8.41 9.48,-14.89 a 61.85,61.85 0 0 0 3.2,-20.1 c 0,-15.53 -5.2,-28.9 -12.68,-34.98 z"
         id="path30" />
      <path
         class="cls-3"
         d="m 258.06,43.39 h 18.11 a 13.46,13.46 0 0 0 -18.11,0 z"
         id="path32" />
      <path
         class="cls-3"
         d="m 258.06,113.36 a 13.49,13.49 0 0 0 18.11,0 z"
         id="path34" />
      <path
         class="cls-4"
         d="m 297.91,43.39 a 14.29,14.29 0 0 0 -9.05,-3.5 h -21.74 a 14.31,14.31 0 0 1 9.05,3.5 21.51,21.51 0 0 1 1.83,1.66 c 6.49,6.66 10.87,19.08 10.87,33.32 0,14.24 -4.39,26.63 -10.87,33.32 a 21.66,21.66 0 0 1 -1.82,1.67 14.3,14.3 0 0 1 -9.05,3.49 h 21.74 a 14.27,14.27 0 0 0 9.05,-3.49 c 3.94,-3.2 7.24,-8.41 9.49,-14.89 a 61.85,61.85 0 0 0 3.2,-20.1 C 310.6,62.84 305.4,49.47 297.91,43.39 Z"
         id="path36" />
      <path
         class="cls-3"
         d="m 349.3,43.39 h 18.11 a 13.46,13.46 0 0 0 -18.11,0 z"
         id="path38" />
      <path
         class="cls-3"
         d="m 349.3,113.36 a 13.49,13.49 0 0 0 18.11,0 z"
         id="path40" />
      <path
         class="cls-4"
         d="m 389.15,43.39 a 14.29,14.29 0 0 0 -9,-3.5 h -21.79 a 14.29,14.29 0 0 1 9.05,3.5 20.07,20.07 0 0 1 1.82,1.66 c 6.5,6.66 10.87,19.08 10.87,33.32 0,14.24 -4.37,26.67 -10.87,33.32 a 20.21,20.21 0 0 1 -1.82,1.67 14.27,14.27 0 0 1 -9.05,3.49 h 21.74 a 14.27,14.27 0 0 0 9,-3.49 c 3.94,-3.2 7.24,-8.41 9.49,-14.89 a 61.85,61.85 0 0 0 3.2,-20.1 c 0.05,-15.53 -5.15,-28.9 -12.64,-34.98 z"
         id="path42" />
    </g>
    <g
       id="g1191">
      <g
         id="g1137"
         transform="translate(-14.518126,63.933481)">
        <path
           class="cls-5"
           d="m 132.57,0.00311707 a 3.73,3.73 0 0 1 3.37,1.84000003 10,10 0 0 1 1.14,5.26 10.1,10.1 0 0 1 -1.14,5.2799999 4,4 0 0 1 -6.73,0 10,10 0 0 1 -1.15,-5.2799999 9.94,9.94 0 0 1 1.15,-5.26 3.72,3.72 0 0 1 3.36,-1.84000003 z m 0,1.35000003 a 2.23,2.23 0 0 0 -2,1.35 9.87,9.87 0 0 0 -0.73,4.4 19.7,19.7 0 0 0 0.16,2.65 6,6 0 0 0 0.5,1.7899999 2.3,2.3 0 0 0 0.85,1 2.2,2.2 0 0 0 1.22,0.32 2,2 0 0 0 1.48,-0.59 3.86,3.86 0 0 0 0.94,-1.86 13.64,13.64 0 0 0 0.32,-3.3099999 15.82,15.82 0 0 0 -0.28,-3.33 3.6,3.6 0 0 0 -0.89,-1.84 2.22,2.22 0 0 0 -1.57,-0.58 z m 2,0.49 0.43,1.46 -4.38,8.8699999 -0.62,-1.16 z"
           id="path44" />
        <path
           class="cls-5"
           d="m 146,0 v 13.37 h -1.68 V 1.82 l -3.16,1.92 -0.73,-1.2 4.1,-2.54 z m 2.88,12.4 v 1.37 H 141 V 12.4 Z"
           id="path46" />
        <path
           class="cls-5"
           d="m 158,0 v 13.37 h -1.68 V 1.82 l -3.16,1.92 -0.73,-1.2 4.1,-2.54 z m 2.88,12.4 v 1.37 H 153 V 12.4 Z"
           id="path48" />
        <path
           class="cls-5"
           d="m 170,0 v 13.37 h -1.68 V 1.82 l -3.16,1.92 -0.73,-1.2 4.1,-2.54 z m 2.88,12.4 v 1.37 H 165 V 12.4 Z"
           id="path50" />
        <path
           class="cls-5"
           d="m 226.62,0.0032816 a 3.74,3.74 0 0 1 3.38,1.84 10,10 0 0 1 1.14,5.26 10.1,10.1 0 0 1 -1.14,5.2800004 4,4 0 0 1 -6.74,0 10.1,10.1 0 0 1 -1.14,-5.2800004 10,10 0 0 1 1.14,-5.26 3.73,3.73 0 0 1 3.36,-1.84 z m 0,1.35 a 2.21,2.21 0 0 0 -2,1.35 9.7,9.7 0 0 0 -0.74,4.4 18,18 0 0 0 0.17,2.65 6,6 0 0 0 0.49,1.7900004 2.3,2.3 0 0 0 0.85,1 2.21,2.21 0 0 0 1.23,0.32 2,2 0 0 0 1.47,-0.59 3.86,3.86 0 0 0 0.94,-1.86 13.57,13.57 0 0 0 0.33,-3.3100004 15.73,15.73 0 0 0 -0.29,-3.33 3.6,3.6 0 0 0 -0.89,-1.84 2.18,2.18 0 0 0 -1.56,-0.58 z m 2,0.49 0.44,1.47 -4.38,8.8700004 -0.62,-1.17 z"
           id="path60" />
        <path
           class="cls-5"
           d="m 240.09,0 v 13.37 h -1.68 V 1.82 l -3.16,1.92 -0.73,-1.2 4.1,-2.54 z M 243,12.4 v 1.37 h -8 V 12.4 Z"
           id="path62" />
        <path
           class="cls-5"
           d="m 252.09,0 v 13.37 h -1.68 V 1.82 l -3.16,1.92 -0.73,-1.2 4.1,-2.54 z M 255,12.4 v 1.37 h -8 V 12.4 Z"
           id="path64" />
        <path
           class="cls-5"
           d="M 264.08,0 V 13.37 H 262.4 V 1.82 l -3.16,1.92 -0.73,-1.2 4.1,-2.54 z M 267,12.4 v 1.37 h -8 V 12.4 Z"
           id="path66" />
        <path
           class="cls-5"
           d="m 323.85,0.00288498 a 3.74,3.74 0 0 1 3.37,1.84000002 10,10 0 0 1 1.14,5.26 10.1,10.1 0 0 1 -1.14,5.28 4,4 0 0 1 -6.74,0 10.1,10.1 0 0 1 -1.14,-5.28 10,10 0 0 1 1.14,-5.26 3.74,3.74 0 0 1 3.37,-1.84000002 z m 0,1.35000002 a 2.21,2.21 0 0 0 -2,1.35 9.73,9.73 0 0 0 -0.73,4.4 18.18,18.18 0 0 0 0.16,2.65 6,6 0 0 0 0.49,1.79 2.3,2.3 0 0 0 0.85,1 2.21,2.21 0 0 0 1.23,0.32 2,2 0 0 0 1.47,-0.59 3.86,3.86 0 0 0 0.94,-1.86 13.57,13.57 0 0 0 0.33,-3.31 15.73,15.73 0 0 0 -0.29,-3.33 3.6,3.6 0 0 0 -0.89,-1.84 2.18,2.18 0 0 0 -1.56,-0.58 z m 2,0.49 0.44,1.47 -4.38,8.87 -0.62,-1.17 z"
           id="path76" />
        <path
           class="cls-5"
           d="m 337.32,0 v 13.37 h -1.68 V 1.82 l -3.16,1.92 -0.73,-1.2 4.1,-2.54 z m 2.88,12.4 v 1.37 h -7.95 V 12.4 Z"
           id="path78" />
        <path
           class="cls-5"
           d="m 349.32,0 v 13.37 h -1.68 V 1.82 l -3.16,1.92 -0.73,-1.2 4.1,-2.54 z m 2.88,12.4 v 1.37 h -7.95 V 12.4 Z"
           id="path80" />
        <path
           class="cls-5"
           d="m 359.84,0.0032816 a 3.74,3.74 0 0 1 3.38,1.84 10.15,10.15 0 0 1 1.13,5.26 10.21,10.21 0 0 1 -1.13,5.2800004 4,4 0 0 1 -6.74,0 10.1,10.1 0 0 1 -1.14,-5.2800004 10,10 0 0 1 1.14,-5.26 3.72,3.72 0 0 1 3.36,-1.84 z m 0,1.35 a 2.23,2.23 0 0 0 -2,1.35 9.87,9.87 0 0 0 -0.73,4.4 19.7,19.7 0 0 0 0.16,2.65 6.33,6.33 0 0 0 0.5,1.7900004 2.3,2.3 0 0 0 0.85,1 2.2,2.2 0 0 0 1.22,0.32 2,2 0 0 0 1.48,-0.59 3.86,3.86 0 0 0 0.94,-1.86 13.57,13.57 0 0 0 0.33,-3.3100004 15.73,15.73 0 0 0 -0.29,-3.33 3.6,3.6 0 0 0 -0.89,-1.84 2.2,2.2 0 0 0 -1.57,-0.58 z m 2,0.49 0.43,1.47 -4.38,8.8700004 -0.62,-1.17 z"
           id="path82" />
        <path
           class="cls-5"
           d="m 421.67,0.00288569 a 3.73,3.73 0 0 1 3.33,1.84000001 10,10 0 0 1 1.18,5.25 10.1,10.1 0 0 1 -1.18,5.2900003 4,4 0 0 1 -6.74,0 10.1,10.1 0 0 1 -1.1,-5.2900003 10,10 0 0 1 1.14,-5.26 3.75,3.75 0 0 1 3.37,-1.83000001 z m 0,1.35000001 a 2.22,2.22 0 0 0 -2,1.35 9.73,9.73 0 0 0 -0.73,4.4 18.18,18.18 0 0 0 0.16,2.65 6.35,6.35 0 0 0 0.49,1.7900003 2.32,2.32 0 0 0 0.86,1 2.2,2.2 0 0 0 1.22,0.32 2,2 0 0 0 1.47,-0.59 3.86,3.86 0 0 0 0.95,-1.86 14.16,14.16 0 0 0 0.32,-3.3100003 16.53,16.53 0 0 0 -0.28,-3.33 3.68,3.68 0 0 0 -0.89,-1.84 2.22,2.22 0 0 0 -1.57,-0.58 z m 2,0.49 0.44,1.47 -4.38,8.8700003 -0.62,-1.17 z"
           id="path92" />
        <path
           class="cls-5"
           d="m 435.14,0 v 13.37 h -1.68 V 1.87 l -3.16,1.92 -0.73,-1.2 4.1,-2.54 z M 438,12.4 v 1.37 h -7.95 V 12.4 Z"
           id="path94" />
        <path
           class="cls-5"
           d="m 447.14,0 v 13.37 h -1.68 V 1.87 l -3.16,1.92 -0.73,-1.2 4.1,-2.54 z M 450,12.4 v 1.37 h -7.95 V 12.4 Z"
           id="path96" />
        <path
           class="cls-5"
           d="m 457.67,0.00288569 a 3.73,3.73 0 0 1 3.33,1.84000001 10,10 0 0 1 1.18,5.25 10.1,10.1 0 0 1 -1.18,5.2900003 4,4 0 0 1 -6.74,0 10.1,10.1 0 0 1 -1.1,-5.2900003 10,10 0 0 1 1.14,-5.26 3.75,3.75 0 0 1 3.37,-1.83000001 z m 0,1.35000001 a 2.22,2.22 0 0 0 -2,1.35 9.73,9.73 0 0 0 -0.73,4.4 18.18,18.18 0 0 0 0.16,2.65 6.35,6.35 0 0 0 0.49,1.7900003 2.37,2.37 0 0 0 0.85,1 2.26,2.26 0 0 0 1.23,0.32 2,2 0 0 0 1.47,-0.59 3.78,3.78 0 0 0 0.94,-1.86 13.57,13.57 0 0 0 0.33,-3.3100003 15.73,15.73 0 0 0 -0.29,-3.33 3.52,3.52 0 0 0 -0.89,-1.84 2.18,2.18 0 0 0 -1.56,-0.58 z m 2,0.49 0.44,1.47 -4.38,8.8700003 -0.62,-1.17 z"
           id="path98" />
      </g>
      <g
         id="g1155"
         transform="translate(-14.711866,87.488471)">
        <path
           class="cls-5"
           d="m 134,0 v 13.37 h -1.68 V 1.82 l -3.16,1.92 -0.73,-1.2 4.1,-2.54 z m 2.88,12.4 v 1.37 H 129 V 12.4 Z"
           id="path52" />
        <path
           class="cls-5"
           d="m 144.57,0.00311707 a 3.73,3.73 0 0 1 3.37,1.84000003 10,10 0 0 1 1.14,5.26 10.1,10.1 0 0 1 -1.14,5.2799999 4,4 0 0 1 -6.73,0 10,10 0 0 1 -1.15,-5.2799999 9.94,9.94 0 0 1 1.15,-5.26 3.72,3.72 0 0 1 3.36,-1.84000003 z m 0,1.35000003 a 2.23,2.23 0 0 0 -2,1.35 9.87,9.87 0 0 0 -0.73,4.4 19.7,19.7 0 0 0 0.16,2.65 6,6 0 0 0 0.5,1.7899999 2.3,2.3 0 0 0 0.85,1 2.2,2.2 0 0 0 1.22,0.32 2,2 0 0 0 1.48,-0.59 3.86,3.86 0 0 0 0.94,-1.86 13.64,13.64 0 0 0 0.32,-3.3099999 15.82,15.82 0 0 0 -0.28,-3.33 3.6,3.6 0 0 0 -0.89,-1.84 2.22,2.22 0 0 0 -1.57,-0.58 z m 2,0.49 0.43,1.46 -4.38,8.8699999 -0.62,-1.16 z"
           id="path54" />
        <path
           class="cls-5"
           d="m 156.57,0.00311707 a 3.73,3.73 0 0 1 3.37,1.84000003 10,10 0 0 1 1.14,5.26 10.1,10.1 0 0 1 -1.14,5.2799999 4,4 0 0 1 -6.73,0 10,10 0 0 1 -1.15,-5.2799999 9.94,9.94 0 0 1 1.15,-5.26 3.72,3.72 0 0 1 3.36,-1.84000003 z m 0,1.35000003 a 2.23,2.23 0 0 0 -2,1.35 9.87,9.87 0 0 0 -0.73,4.4 19.7,19.7 0 0 0 0.16,2.65 6,6 0 0 0 0.5,1.7899999 2.3,2.3 0 0 0 0.85,1 2.2,2.2 0 0 0 1.22,0.32 2,2 0 0 0 1.48,-0.59 3.86,3.86 0 0 0 0.94,-1.86 13.64,13.64 0 0 0 0.32,-3.3099999 15.82,15.82 0 0 0 -0.28,-3.33 3.6,3.6 0 0 0 -0.89,-1.84 2.22,2.22 0 0 0 -1.57,-0.58 z m 2,0.49 0.43,1.46 -4.38,8.8699999 -0.62,-1.16 z"
           id="path56" />
        <path
           class="cls-5"
           d="m 168.57,0.00311707 a 3.73,3.73 0 0 1 3.37,1.84000003 10,10 0 0 1 1.14,5.26 10.1,10.1 0 0 1 -1.14,5.2799999 4,4 0 0 1 -6.73,0 10,10 0 0 1 -1.15,-5.2799999 9.94,9.94 0 0 1 1.15,-5.26 3.72,3.72 0 0 1 3.36,-1.84000003 z m 0,1.35000003 a 2.23,2.23 0 0 0 -2,1.35 9.87,9.87 0 0 0 -0.73,4.4 19.7,19.7 0 0 0 0.16,2.65 6,6 0 0 0 0.5,1.7899999 2.24,2.24 0 0 0 0.85,1 2.2,2.2 0 0 0 1.22,0.32 2,2 0 0 0 1.48,-0.59 3.86,3.86 0 0 0 0.94,-1.86 14.16,14.16 0 0 0 0.32,-3.3099999 15.82,15.82 0 0 0 -0.28,-3.33 3.6,3.6 0 0 0 -0.89,-1.84 2.22,2.22 0 0 0 -1.57,-0.58 z m 2,0.49 0.43,1.46 -4.38,8.8699999 -0.62,-1.16 z"
           id="path58" />
        <path
           class="cls-5"
           d="m 226.62,0.0032816 a 3.74,3.74 0 0 1 3.38,1.84 10,10 0 0 1 1.14,5.26 10.1,10.1 0 0 1 -1.14,5.2800004 4,4 0 0 1 -6.74,0 10.1,10.1 0 0 1 -1.14,-5.2800004 10,10 0 0 1 1.14,-5.26 3.73,3.73 0 0 1 3.36,-1.84 z m 0,1.35 a 2.21,2.21 0 0 0 -2,1.35 9.7,9.7 0 0 0 -0.74,4.4 18,18 0 0 0 0.17,2.65 6,6 0 0 0 0.49,1.7900004 2.3,2.3 0 0 0 0.85,1 2.21,2.21 0 0 0 1.23,0.32 2,2 0 0 0 1.47,-0.59 3.86,3.86 0 0 0 0.94,-1.86 13.57,13.57 0 0 0 0.33,-3.3100004 15.73,15.73 0 0 0 -0.29,-3.33 3.6,3.6 0 0 0 -0.89,-1.84 2.18,2.18 0 0 0 -1.56,-0.58 z m 2,0.49 0.44,1.47 -4.38,8.8700004 -0.62,-1.17 z"
           id="path68" />
        <path
           class="cls-5"
           d="m 240.09,0 v 13.37 h -1.68 V 1.82 l -3.16,1.92 -0.73,-1.2 4.1,-2.54 z M 243,12.4 v 1.37 h -8 V 12.4 Z"
           id="path70" />
        <path
           class="cls-5"
           d="m 250.62,0.0032816 a 3.74,3.74 0 0 1 3.38,1.84 10,10 0 0 1 1.14,5.26 10.1,10.1 0 0 1 -1.14,5.2800004 4,4 0 0 1 -6.74,0 10.1,10.1 0 0 1 -1.14,-5.2800004 10,10 0 0 1 1.14,-5.26 3.73,3.73 0 0 1 3.36,-1.84 z m 0,1.35 a 2.21,2.21 0 0 0 -2,1.35 9.7,9.7 0 0 0 -0.74,4.4 18,18 0 0 0 0.17,2.65 6,6 0 0 0 0.49,1.7900004 2.3,2.3 0 0 0 0.85,1 2.21,2.21 0 0 0 1.23,0.32 2,2 0 0 0 1.47,-0.59 3.86,3.86 0 0 0 0.94,-1.86 13.57,13.57 0 0 0 0.33,-3.3100004 15.73,15.73 0 0 0 -0.29,-3.33 3.6,3.6 0 0 0 -0.89,-1.84 2.18,2.18 0 0 0 -1.56,-0.58 z m 2,0.49 0.44,1.47 -4.38,8.8700004 -0.62,-1.17 z"
           id="path72" />
        <path
           class="cls-5"
           d="M 262.61,0.00396599 A 3.73,3.73 0 0 1 266,1.843966 a 10,10 0 0 1 1.14,5.26 10.1,10.1 0 0 1 -1.14,5.28 4,4 0 0 1 -6.73,0 10.09,10.09 0 0 1 -1.15,-5.28 10,10 0 0 1 1.15,-5.26 3.72,3.72 0 0 1 3.34,-1.84000001 z m 0,1.35000001 a 2.23,2.23 0 0 0 -2,1.35 9.87,9.87 0 0 0 -0.73,4.4 19.7,19.7 0 0 0 0.16,2.65 6.33,6.33 0 0 0 0.5,1.79 2.3,2.3 0 0 0 0.85,1 2.2,2.2 0 0 0 1.22,0.32 2,2 0 0 0 1.48,-0.59 3.86,3.86 0 0 0 0.94,-1.86 13.64,13.64 0 0 0 0.32,-3.31 15.82,15.82 0 0 0 -0.28,-3.33 3.6,3.6 0 0 0 -0.89,-1.84 2.2,2.2 0 0 0 -1.57,-0.58 z m 2,0.49 0.44,1.47 -4.38,8.87 -0.62,-1.17 z"
           id="path74" />
        <path
           class="cls-5"
           d="m 323.85,0.00288498 a 3.74,3.74 0 0 1 3.37,1.84000002 10,10 0 0 1 1.14,5.26 10.1,10.1 0 0 1 -1.14,5.28 4,4 0 0 1 -6.74,0 10.1,10.1 0 0 1 -1.14,-5.28 10,10 0 0 1 1.14,-5.26 3.74,3.74 0 0 1 3.37,-1.84000002 z m 0,1.35000002 a 2.21,2.21 0 0 0 -2,1.35 9.73,9.73 0 0 0 -0.73,4.4 18.18,18.18 0 0 0 0.16,2.65 6,6 0 0 0 0.49,1.79 2.3,2.3 0 0 0 0.85,1 2.21,2.21 0 0 0 1.23,0.32 2,2 0 0 0 1.47,-0.59 3.86,3.86 0 0 0 0.94,-1.86 13.57,13.57 0 0 0 0.33,-3.31 15.73,15.73 0 0 0 -0.29,-3.33 3.6,3.6 0 0 0 -0.89,-1.84 2.18,2.18 0 0 0 -1.56,-0.58 z m 2,0.49 0.44,1.47 -4.38,8.87 -0.62,-1.17 z"
           id="path84" />
        <path
           class="cls-5"
           d="m 337.32,0 v 13.37 h -1.68 V 1.82 l -3.16,1.92 -0.73,-1.2 4.1,-2.54 z m 2.88,12.4 v 1.37 h -7.95 V 12.4 Z"
           id="path86" />
        <path
           class="cls-5"
           d="m 347.85,0.00288498 a 3.74,3.74 0 0 1 3.37,1.84000002 10,10 0 0 1 1.14,5.26 10.1,10.1 0 0 1 -1.14,5.28 4,4 0 0 1 -6.74,0 10.1,10.1 0 0 1 -1.14,-5.28 10,10 0 0 1 1.14,-5.26 3.74,3.74 0 0 1 3.37,-1.84000002 z m 0,1.35000002 a 2.21,2.21 0 0 0 -2,1.35 9.73,9.73 0 0 0 -0.73,4.4 18.18,18.18 0 0 0 0.16,2.65 6,6 0 0 0 0.49,1.79 2.3,2.3 0 0 0 0.85,1 2.21,2.21 0 0 0 1.23,0.32 2,2 0 0 0 1.47,-0.59 3.86,3.86 0 0 0 0.94,-1.86 13.57,13.57 0 0 0 0.33,-3.31 15.73,15.73 0 0 0 -0.29,-3.33 3.6,3.6 0 0 0 -0.89,-1.84 2.18,2.18 0 0 0 -1.56,-0.58 z m 2,0.49 0.44,1.47 -4.38,8.87 -0.62,-1.17 z"
           id="path88" />
        <path
           class="cls-5"
           d="m 359.84,0.0032816 a 3.74,3.74 0 0 1 3.38,1.84 10.15,10.15 0 0 1 1.13,5.26 10.21,10.21 0 0 1 -1.13,5.2800004 4,4 0 0 1 -6.74,0 10.1,10.1 0 0 1 -1.14,-5.2800004 10,10 0 0 1 1.14,-5.26 3.72,3.72 0 0 1 3.36,-1.84 z m 0,1.35 a 2.23,2.23 0 0 0 -2,1.35 9.87,9.87 0 0 0 -0.73,4.4 19.7,19.7 0 0 0 0.16,2.65 6.33,6.33 0 0 0 0.5,1.7900004 2.3,2.3 0 0 0 0.85,1 2.2,2.2 0 0 0 1.22,0.32 2,2 0 0 0 1.48,-0.59 3.86,3.86 0 0 0 0.94,-1.86 13.57,13.57 0 0 0 0.33,-3.3100004 15.73,15.73 0 0 0 -0.29,-3.33 3.6,3.6 0 0 0 -0.89,-1.84 2.2,2.2 0 0 0 -1.57,-0.58 z m 2,0.49 0.43,1.47 -4.38,8.8700004 -0.62,-1.17 z"
           id="path90" />
        <path
           class="cls-5"
           d="m 421.67,0.00288569 a 3.73,3.73 0 0 1 3.33,1.84000001 10,10 0 0 1 1.18,5.25 10.1,10.1 0 0 1 -1.18,5.2900003 4,4 0 0 1 -6.74,0 10.1,10.1 0 0 1 -1.1,-5.2900003 10,10 0 0 1 1.14,-5.26 3.75,3.75 0 0 1 3.37,-1.83000001 z m 0,1.35000001 a 2.22,2.22 0 0 0 -2,1.35 9.73,9.73 0 0 0 -0.73,4.4 18.18,18.18 0 0 0 0.16,2.65 6.35,6.35 0 0 0 0.49,1.7900003 2.32,2.32 0 0 0 0.86,1 2.2,2.2 0 0 0 1.22,0.32 2,2 0 0 0 1.47,-0.59 3.86,3.86 0 0 0 0.95,-1.86 14.16,14.16 0 0 0 0.32,-3.3100003 16.53,16.53 0 0 0 -0.28,-3.33 3.68,3.68 0 0 0 -0.89,-1.84 2.22,2.22 0 0 0 -1.57,-0.58 z m 2,0.49 0.44,1.47 -4.38,8.8700003 -0.62,-1.17 z"
           id="path100" />
        <path
           class="cls-5"
           d="m 433.67,0.00288569 a 3.73,3.73 0 0 1 3.33,1.84000001 10,10 0 0 1 1.18,5.25 10.1,10.1 0 0 1 -1.18,5.2900003 4,4 0 0 1 -6.74,0 10.1,10.1 0 0 1 -1.1,-5.2900003 10,10 0 0 1 1.14,-5.26 3.75,3.75 0 0 1 3.37,-1.83000001 z m 0,1.35000001 a 2.22,2.22 0 0 0 -2,1.35 9.73,9.73 0 0 0 -0.73,4.4 18.18,18.18 0 0 0 0.16,2.65 6.35,6.35 0 0 0 0.49,1.7900003 2.32,2.32 0 0 0 0.86,1 2.2,2.2 0 0 0 1.22,0.32 2,2 0 0 0 1.47,-0.59 3.86,3.86 0 0 0 0.95,-1.86 14.16,14.16 0 0 0 0.32,-3.3100003 16.53,16.53 0 0 0 -0.28,-3.33 3.68,3.68 0 0 0 -0.89,-1.84 2.22,2.22 0 0 0 -1.57,-0.58 z m 2,0.49 0.44,1.47 -4.38,8.8700003 -0.62,-1.17 z"
           id="path102" />
        <path
           class="cls-5"
           d="m 447.14,0 v 13.37 h -1.68 V 1.87 l -3.16,1.92 -0.73,-1.2 4.1,-2.54 z M 450,12.4 v 1.37 h -7.95 V 12.4 Z"
           id="path104" />
        <path
           class="cls-5"
           d="m 457.67,0.00288569 a 3.73,3.73 0 0 1 3.33,1.84000001 10,10 0 0 1 1.18,5.25 10.1,10.1 0 0 1 -1.18,5.2900003 4,4 0 0 1 -6.74,0 10.1,10.1 0 0 1 -1.1,-5.2900003 10,10 0 0 1 1.14,-5.26 3.75,3.75 0 0 1 3.37,-1.83000001 z m 0,1.35000001 a 2.22,2.22 0 0 0 -2,1.35 9.73,9.73 0 0 0 -0.73,4.4 18.18,18.18 0 0 0 0.16,2.65 6.35,6.35 0 0 0 0.49,1.7900003 2.37,2.37 0 0 0 0.85,1 2.26,2.26 0 0 0 1.23,0.32 2,2 0 0 0 1.47,-0.59 3.78,3.78 0 0 0 0.94,-1.86 13.57,13.57 0 0 0 0.33,-3.3100003 15.73,15.73 0 0 0 -0.29,-3.33 3.52,3.52 0 0 0 -0.89,-1.84 2.18,2.18 0 0 0 -1.56,-0.58 z m 2,0.49 0.44,1.47 -4.38,8.8700003 -0.62,-1.17 z"
           id="path106" />
      </g>
    </g>
  </g>
</svg>
