<?xml version="1.0" encoding="UTF-8" standalone="no"?>
<svg
   viewBox="0 0 923.23 605.85"
   version="1.1"
   id="svg467"
   sodipodi:docname="truth-document-events-23 (1).svg"
   inkscape:version="1.1.2 (0a00cf5339, 2022-02-04, custom)"
   xmlns:inkscape="http://www.inkscape.org/namespaces/inkscape"
   xmlns:sodipodi="http://sodipodi.sourceforge.net/DTD/sodipodi-0.dtd"
   xmlns:xlink="http://www.w3.org/1999/xlink"
   xmlns="http://www.w3.org/2000/svg"
   xmlns:svg="http://www.w3.org/2000/svg">
  <sodipodi:namedview
     id="namedview469"
     pagecolor="#505050"
     bordercolor="#ffffff"
     borderopacity="1"
     inkscape:pageshadow="0"
     inkscape:pageopacity="0"
     inkscape:pagecheckerboard="1"
     showgrid="false"
     inkscape:zoom="0.83916777"
     inkscape:cx="490.36678"
     inkscape:cy="292.55175"
     inkscape:window-width="1920"
     inkscape:window-height="1003"
     inkscape:window-x="0"
     inkscape:window-y="0"
     inkscape:window-maximized="1"
     inkscape:current-layer="svg467" />
  <defs
     id="defs95">
    <style
       id="style2">.cls-1{isolation:isolate;}.cls-2{fill:url(#_ÂÁ_Ï_ÌÌ_È_ËÂÌÚ_60);}.cls-3{fill:#fff;}.cls-19,.cls-20,.cls-4,.cls-5{stroke:#9cf5fe;}.cls-11,.cls-14,.cls-16,.cls-18,.cls-19,.cls-20,.cls-24,.cls-25,.cls-26,.cls-27,.cls-4,.cls-5,.cls-9{stroke-miterlimit:10;}.cls-4{fill:url(#linear-gradient);}.cls-5{fill:url(#linear-gradient-2);}.cls-21,.cls-22,.cls-23,.cls-6,.cls-7,.cls-8{mix-blend-mode:lighten;}.cls-13,.cls-21,.cls-6{opacity:0.5;}.cls-6{fill:url(#radial-gradient);}.cls-22,.cls-7{opacity:0.15;}.cls-7{fill:url(#_ÂÁ_Ï_ÌÌ_È_ËÂÌÚ_126);}.cls-23,.cls-8{opacity:0.2;}.cls-8{fill:url(#radial-gradient-2);}.cls-12,.cls-9{fill:#53a5f8;}.cls-9{stroke:#000;opacity:0.1;}.cls-10{opacity:0.8;}.cls-11{fill:url(#radial-gradient-3);stroke:url(#radial-gradient-4);}.cls-14{fill:url(#radial-gradient-5);stroke:url(#radial-gradient-6);}.cls-15{opacity:0.3;}.cls-16{fill:url(#radial-gradient-7);stroke:url(#radial-gradient-8);}.cls-17{opacity:0.22;}.cls-18{fill:url(#radial-gradient-9);stroke:url(#radial-gradient-10);}.cls-19{fill:url(#linear-gradient-3);}.cls-20{fill:url(#linear-gradient-4);}.cls-21{fill:url(#radial-gradient-11);}.cls-22{fill:url(#_ÂÁ_Ï_ÌÌ_È_ËÂÌÚ_126-2);}.cls-23{fill:url(#radial-gradient-12);}.cls-24{fill:url(#radial-gradient-13);stroke:url(#radial-gradient-14);}.cls-25{fill:url(#radial-gradient-15);stroke:url(#radial-gradient-16);}.cls-26{fill:url(#radial-gradient-17);stroke:url(#radial-gradient-18);}.cls-27{fill:url(#radial-gradient-19);stroke:url(#radial-gradient-20);}</style>
    <radialGradient
       id="_ÂÁ_Ï_ÌÌ_È_ËÂÌÚ_60"
       cx="459.05"
       cy="378.97"
       r="391.57"
       gradientTransform="translate(0 -149.66) scale(1 1.23)"
       gradientUnits="userSpaceOnUse">
      <stop
         offset="0"
         stop-color="#31024a"
         id="stop4" />
      <stop
         offset="1"
         stop-color="#2a023f"
         id="stop6" />
    </radialGradient>
    <linearGradient
       id="linear-gradient"
       x1="550.58"
       y1="498.85"
       x2="649.93"
       y2="498.85"
       gradientUnits="userSpaceOnUse">
      <stop
         offset="0"
         stop-color="#4a78a0"
         id="stop9" />
      <stop
         offset="0.09"
         stop-color="#4a6fa0"
         id="stop11" />
      <stop
         offset="0.49"
         stop-color="#4a47a0"
         id="stop13" />
      <stop
         offset="0.8"
         stop-color="#4a2fa0"
         id="stop15" />
      <stop
         offset="1"
         stop-color="#4a26a0"
         id="stop17" />
    </linearGradient>
    <linearGradient
       id="linear-gradient-2"
       x1="550.58"
       y1="459.94"
       x2="649.93"
       y2="459.94"
       xlink:href="#linear-gradient" />
    <radialGradient
       id="radial-gradient"
       cx="600.61"
       cy="439.55"
       r="317.93"
       gradientTransform="translate(0 46.5) scale(1 0.9)"
       gradientUnits="userSpaceOnUse">
      <stop
         offset="0"
         stop-color="#fe4dfe"
         id="stop21" />
      <stop
         offset="0.22"
         stop-color="#3874da"
         id="stop23" />
      <stop
         offset="0.26"
         stop-color="#3c7cdf"
         id="stop25" />
      <stop
         offset="0.44"
         stop-color="#53a5f8"
         id="stop27" />
      <stop
         offset="0.5"
         stop-color="#4c88d7"
         id="stop29" />
      <stop
         offset="0.58"
         stop-color="#435fab"
         id="stop31" />
      <stop
         offset="0.67"
         stop-color="#3b3d86"
         id="stop33" />
      <stop
         offset="0.75"
         stop-color="#352369"
         id="stop35" />
      <stop
         offset="0.84"
         stop-color="#301154"
         id="stop37" />
      <stop
         offset="0.92"
         stop-color="#2e0648"
         id="stop39" />
      <stop
         offset="1"
         stop-color="#2d0244"
         id="stop41" />
    </radialGradient>
    <radialGradient
       id="_ÂÁ_Ï_ÌÌ_È_ËÂÌÚ_126"
       cx="599.63"
       cy="196.36"
       r="96.42"
       gradientUnits="userSpaceOnUse">
      <stop
         offset="0"
         stop-color="#fc2ffd"
         id="stop44" />
      <stop
         offset="0.28"
         stop-color="#be22c6"
         id="stop46" />
      <stop
         offset="0.78"
         stop-color="#560b69"
         id="stop48" />
      <stop
         offset="1"
         stop-color="#2d0244"
         id="stop50" />
    </radialGradient>
    <radialGradient
       id="radial-gradient-2"
       cx="-3709.7"
       cy="-1967.55"
       r="106.72"
       gradientTransform="matrix(0.87, 0.5, -0.87, 0.5, 2108.97, 3218.68)"
       gradientUnits="userSpaceOnUse">
      <stop
         offset="0"
         stop-color="#fc2ffd"
         id="stop53" />
      <stop
         offset="0.11"
         stop-color="#d727dc"
         id="stop55" />
      <stop
         offset="0.27"
         stop-color="#a41cae"
         id="stop57" />
      <stop
         offset="0.44"
         stop-color="#791388"
         id="stop59" />
      <stop
         offset="0.59"
         stop-color="#580b6a"
         id="stop61" />
      <stop
         offset="0.74"
         stop-color="#400655"
         id="stop63" />
      <stop
         offset="0.88"
         stop-color="#320348"
         id="stop65" />
      <stop
         offset="1"
         stop-color="#2d0244"
         id="stop67" />
    </radialGradient>
    <radialGradient
       id="radial-gradient-3"
       cx="600.26"
       cy="358.04"
       r="41.2"
       gradientTransform="translate(0 179.02) scale(1 0.5)"
       gradientUnits="userSpaceOnUse">
      <stop
         offset="0"
         stop-color="#3e068d"
         id="stop70" />
      <stop
         offset="0.85"
         stop-color="#2a023f"
         id="stop72" />
    </radialGradient>
    <radialGradient
       id="radial-gradient-4"
       cx="600.26"
       cy="358.04"
       r="41.67"
       xlink:href="#_ÂÁ_Ï_ÌÌ_È_ËÂÌÚ_60" />
    <radialGradient
       id="radial-gradient-5"
       cx="600.26"
       cy="286.31"
       r="41.2"
       gradientTransform="matrix(1,0,0,0.5,0,143.15)"
       xlink:href="#radial-gradient-3" />
    <radialGradient
       id="radial-gradient-6"
       cx="600.26"
       cy="286.31"
       r="41.67"
       xlink:href="#_ÂÁ_Ï_ÌÌ_È_ËÂÌÚ_60" />
    <radialGradient
       id="radial-gradient-7"
       cx="600.26"
       cy="214.57"
       r="41.2"
       gradientTransform="matrix(1,0,0,0.5,0,107.29)"
       xlink:href="#radial-gradient-3" />
    <radialGradient
       id="radial-gradient-8"
       cx="600.26"
       cy="214.57"
       r="41.67"
       xlink:href="#_ÂÁ_Ï_ÌÌ_È_ËÂÌÚ_60" />
    <radialGradient
       id="radial-gradient-9"
       cx="600.24"
       cy="134.98"
       r="41.2"
       gradientTransform="matrix(1,0,0,0.5,0,67.49)"
       xlink:href="#radial-gradient-3" />
    <radialGradient
       id="radial-gradient-10"
       cx="600.24"
       cy="134.98"
       r="41.67"
       xlink:href="#_ÂÁ_Ï_ÌÌ_È_ËÂÌÚ_60" />
    <linearGradient
       id="linear-gradient-3"
       x1="247.55"
       y1="498.85"
       x2="346.9"
       y2="498.85"
       xlink:href="#linear-gradient" />
    <linearGradient
       id="linear-gradient-4"
       x1="247.55"
       y1="459.94"
       x2="346.9"
       y2="459.94"
       xlink:href="#linear-gradient" />
    <radialGradient
       id="radial-gradient-11"
       cx="297.58"
       cy="436.68"
       r="317.93"
       xlink:href="#radial-gradient" />
    <radialGradient
       id="_ÂÁ_Ï_ÌÌ_È_ËÂÌÚ_126-2"
       cx="296.6"
       cy="193.76"
       r="96.42"
       xlink:href="#_ÂÁ_Ï_ÌÌ_È_ËÂÌÚ_126" />
    <radialGradient
       id="radial-gradient-12"
       cx="-3887.26"
       cy="-1795.18"
       r="106.72"
       xlink:href="#radial-gradient-2" />
    <radialGradient
       id="radial-gradient-13"
       cx="297.23"
       cy="355.45"
       r="41.2"
       gradientTransform="matrix(1,0,0,0.5,0,177.72)"
       xlink:href="#radial-gradient-3" />
    <radialGradient
       id="radial-gradient-14"
       cx="297.23"
       cy="355.45"
       r="41.67"
       xlink:href="#_ÂÁ_Ï_ÌÌ_È_ËÂÌÚ_60" />
    <radialGradient
       id="radial-gradient-15"
       cx="297.23"
       cy="283.71"
       r="41.2"
       gradientTransform="matrix(1,0,0,0.5,0,141.86)"
       xlink:href="#radial-gradient-3" />
    <radialGradient
       id="radial-gradient-16"
       cx="297.23"
       cy="283.71"
       r="41.67"
       xlink:href="#_ÂÁ_Ï_ÌÌ_È_ËÂÌÚ_60" />
    <radialGradient
       id="radial-gradient-17"
       cx="297.23"
       cy="211.98"
       r="41.2"
       gradientTransform="matrix(1,0,0,0.5,0,105.99)"
       xlink:href="#radial-gradient-3" />
    <radialGradient
       id="radial-gradient-18"
       cx="297.23"
       cy="211.98"
       r="41.67"
       xlink:href="#_ÂÁ_Ï_ÌÌ_È_ËÂÌÚ_60" />
    <radialGradient
       id="radial-gradient-19"
       cx="297.21"
       cy="132.39"
       r="41.2"
       gradientTransform="matrix(1,0,0,0.5,0,66.19)"
       xlink:href="#radial-gradient-3" />
    <radialGradient
       id="radial-gradient-20"
       cx="297.21"
       cy="132.39"
       r="41.67"
       xlink:href="#_ÂÁ_Ï_ÌÌ_È_ËÂÌÚ_60" />
    <radialGradient
       inkscape:collect="always"
       xlink:href="#_ÂÁ_Ï_ÌÌ_È_ËÂÌÚ_60"
       id="radialGradient1468"
       gradientUnits="userSpaceOnUse"
       gradientTransform="matrix(1,0,0,1.23,0,-149.66)"
       cx="459.05"
       cy="378.97"
       r="391.57" />
    <linearGradient
       inkscape:collect="always"
       xlink:href="#linear-gradient"
       id="linearGradient1470"
       gradientUnits="userSpaceOnUse"
       x1="550.58"
       y1="498.85"
       x2="649.93"
       y2="498.85" />
    <radialGradient
       inkscape:collect="always"
       xlink:href="#radial-gradient"
       id="radialGradient1472"
       gradientUnits="userSpaceOnUse"
       gradientTransform="matrix(1,0,0,0.9,0,46.5)"
       cx="600.61"
       cy="439.55"
       r="317.93" />
    <radialGradient
       inkscape:collect="always"
       xlink:href="#_ÂÁ_Ï_ÌÌ_È_ËÂÌÚ_126"
       id="radialGradient1474"
       gradientUnits="userSpaceOnUse"
       cx="599.63"
       cy="196.36"
       r="96.42" />
    <radialGradient
       inkscape:collect="always"
       xlink:href="#radial-gradient-2"
       id="radialGradient1476"
       gradientUnits="userSpaceOnUse"
       gradientTransform="matrix(0.87,0.5,-0.87,0.5,2108.97,3218.68)"
       cx="-3709.7"
       cy="-1967.55"
       r="106.72" />
    <radialGradient
       inkscape:collect="always"
       xlink:href="#radial-gradient-3"
       id="radialGradient1478"
       gradientUnits="userSpaceOnUse"
       gradientTransform="matrix(1,0,0,0.5,0,179.02)"
       cx="600.26"
       cy="358.04"
       r="41.2" />
  </defs>
  <g
     id="Layer_2"
     data-name="Layer 2"
     style="isolation:isolate"
     transform="matrix(0.98382745,0,0,0.88265095,14.155638,26.496903)"
     sodipodi:insensitive="true">
    <rect
       class="cls-2"
       x="-16.49"
       y="-32.939999"
       width="951.07001"
       height="695.66998"
       id="rect97"
       style="fill:url(#radialGradient1468)" />
  </g>
  <path
     class="cls-3"
     d="M 32.84,37.85 A 33.13,33.13 0 0 1 38,37.49 c 3.2,0 5.29,0.59 6.9,1.81 a 7.43,7.43 0 0 1 2.85,6.34 8.53,8.53 0 0 1 -2.79,6.82 c -1.77,1.48 -4.48,2.18 -7.77,2.18 a 31.75,31.75 0 0 1 -4.32,-0.25 z m 3.8,13.75 a 8.88,8.88 0 0 0 1.33,0.06 c 3.45,0 5.72,-1.87 5.72,-5.9 0,-3.5 -2,-5.34 -5.32,-5.34 a 7.91,7.91 0 0 0 -1.73,0.15 z"
     id="path100"
     style="isolation:isolate" />
  <path
     class="cls-3"
     d="m 62.14,48.23 a 6.12,6.12 0 0 1 -6.45,6.51 6,6 0 0 1 -6.31,-6.3 c 0,-3.95 2.6,-6.48 6.53,-6.48 a 5.94,5.94 0 0 1 6.23,6.27 z m -8.84,0.12 c 0,2.09 0.88,3.67 2.5,3.67 1.62,0 2.42,-1.48 2.42,-3.69 0,-1.8 -0.69,-3.66 -2.42,-3.66 -1.73,0 -2.5,1.87 -2.5,3.68 z"
     id="path102"
     style="isolation:isolate" />
  <path
     class="cls-3"
     d="m 73.75,54.16 a 8.86,8.86 0 0 1 -3.4,0.57 c -4,0 -6.47,-2.42 -6.47,-6.26 0,-3.58 2.44,-6.5 7,-6.5 a 8.72,8.72 0 0 1 2.9,0.48 l -0.59,2.83 a 5.05,5.05 0 0 0 -2.13,-0.39 3.16,3.16 0 0 0 -3.28,3.42 3.19,3.19 0 0 0 3.34,3.44 5.9,5.9 0 0 0 2.2,-0.39 z"
     id="path104"
     style="isolation:isolate" />
  <path
     class="cls-3"
     d="m 87.42,50.55 c 0,1.59 0,2.9 0.1,3.92 h -3.3 L 84.05,52.74 H 84 a 4.34,4.34 0 0 1 -3.82,2 c -2.48,0 -4.29,-1.55 -4.29,-5.31 v -7.2 h 3.81 v 6.58 c 0,1.79 0.57,2.86 1.91,2.86 a 2,2 0 0 0 1.89,-1.34 2,2 0 0 0 0.14,-0.81 v -7.29 h 3.81 z"
     id="path106"
     style="isolation:isolate" />
  <path
     class="cls-3"
     d="m 90.47,46.14 c 0,-1.52 0,-2.81 -0.1,-3.91 h 3.22 l 0.16,1.66 h 0.08 a 4.25,4.25 0 0 1 3.69,-1.89 3.45,3.45 0 0 1 3.35,2.1 v 0 a 5.23,5.23 0 0 1 1.59,-1.5 4.42,4.42 0 0 1 2.32,-0.6 c 2.34,0 4.12,1.65 4.12,5.31 v 7.2 h -3.7 v -6.69 c 0,-1.77 -0.57,-2.8 -1.8,-2.8 a 1.85,1.85 0 0 0 -1.75,1.33 3.06,3.06 0 0 0 -0.14,1 v 7.16 h -3.7 v -6.9 c 0,-1.54 -0.55,-2.59 -1.76,-2.59 a 1.93,1.93 0 0 0 -1.78,1.37 2.58,2.58 0 0 0 -0.15,1 v 7.12 h -3.7 z"
     id="path108"
     style="isolation:isolate" />
  <path
     class="cls-3"
     d="m 114.9,49.57 c 0.12,1.58 1.68,2.33 3.45,2.33 a 10.1,10.1 0 0 0 3.37,-0.52 l 0.51,2.58 a 12,12 0 0 1 -4.43,0.77 c -4.14,0 -6.53,-2.41 -6.53,-6.23 0,-3.1 1.94,-6.54 6.17,-6.54 4,0 5.46,3.08 5.46,6.11 a 7.14,7.14 0 0 1 -0.13,1.5 z m 4.47,-2.6 a 2.2,2.2 0 0 0 -2.13,-2.48 2.53,2.53 0 0 0 -2.37,2.51 z"
     id="path110"
     style="isolation:isolate" />
  <path
     class="cls-3"
     d="m 125.17,46.14 c 0,-1.52 0,-2.81 -0.1,-3.91 h 3.3 l 0.18,1.7 h 0.08 a 4.42,4.42 0 0 1 3.78,-2 c 2.5,0 4.38,1.66 4.38,5.27 v 7.24 H 133 v -6.75 c 0,-1.58 -0.56,-2.66 -1.94,-2.66 a 2.06,2.06 0 0 0 -1.93,1.44 2.92,2.92 0 0 0 -0.13,0.94 v 7.06 h -3.81 z"
     id="path112"
     style="isolation:isolate" />
  <path
     class="cls-3"
     d="m 143.92,38.74 v 3.49 h 2.73 V 45 h -2.73 v 4.43 c 0,1.48 0.36,2.16 1.5,2.16 a 5,5 0 0 0 1.13,-0.12 v 2.89 a 7.94,7.94 0 0 1 -2.47,0.33 4,4 0 0 1 -2.86,-1.06 A 5,5 0 0 1 140.2,50 v -5 h -1.63 v -2.77 h 1.63 V 39.6 Z"
     id="path114"
     style="isolation:isolate" />
  <path
     class="cls-3"
     d="m 164,47.34 h -6.19 v 4 h 6.92 v 3.12 H 154 V 37.62 h 10.37 v 3.12 h -6.56 v 3.51 H 164 Z"
     id="path116"
     style="isolation:isolate" />
  <path
     class="cls-3"
     d="m 169.79,42.23 1.64,5.69 c 0.3,1 0.51,2 0.7,3 h 0.08 c 0.19,-1 0.4,-1.93 0.68,-3 l 1.57,-5.69 h 4 l -4.56,12.24 h -3.79 l -4.45,-12.24 z"
     id="path118"
     style="isolation:isolate" />
  <path
     class="cls-3"
     d="m 182.76,49.57 c 0.11,1.58 1.67,2.33 3.44,2.33 a 10.1,10.1 0 0 0 3.37,-0.52 l 0.51,2.58 a 12,12 0 0 1 -4.43,0.77 c -4.14,0 -6.52,-2.41 -6.52,-6.23 0,-3.1 1.93,-6.54 6.16,-6.54 4,0 5.47,3.08 5.47,6.11 a 7.7,7.7 0 0 1 -0.14,1.5 z m 4.46,-2.6 a 2.2,2.2 0 0 0 -2.13,-2.48 2.53,2.53 0 0 0 -2.37,2.51 z"
     id="path120"
     style="isolation:isolate" />
  <path
     class="cls-3"
     d="m 193,46.14 c 0,-1.52 0,-2.81 -0.09,-3.91 h 3.29 l 0.18,1.7 h 0.08 a 4.42,4.42 0 0 1 3.78,-2 c 2.5,0 4.38,1.66 4.38,5.27 v 7.24 h -3.81 v -6.75 c 0,-1.58 -0.56,-2.66 -1.94,-2.66 a 2,2 0 0 0 -1.87,1.44 2.66,2.66 0 0 0 -0.14,0.94 v 7.06 H 193 Z"
     id="path122"
     style="isolation:isolate" />
  <path
     class="cls-3"
     d="m 211.76,38.74 v 3.49 h 2.74 V 45 h -2.74 v 4.43 c 0,1.48 0.37,2.16 1.51,2.16 a 5,5 0 0 0 1.13,-0.12 v 2.89 a 7.94,7.94 0 0 1 -2.47,0.33 4,4 0 0 1 -2.86,-1.06 5,5 0 0 1 -1,-3.63 v -5 h -1.63 v -2.77 h 1.63 V 39.6 Z"
     id="path124"
     style="isolation:isolate" />
  <path
     class="cls-3"
     d="m 216.68,51.15 a 7.39,7.39 0 0 0 3.26,0.91 c 1.15,0 1.64,-0.38 1.64,-1 0,-0.62 -0.39,-0.94 -1.79,-1.41 -2.54,-0.84 -3.5,-2.22 -3.49,-3.66 0,-2.3 1.94,-4 5,-4 a 8.06,8.06 0 0 1 3.45,0.71 l -0.66,2.62 a 6.23,6.23 0 0 0 -2.65,-0.69 c -0.93,0 -1.46,0.37 -1.46,1 0,0.63 0.48,0.89 2,1.41 2.33,0.79 3.3,2 3.31,3.76 0,2.29 -1.78,4 -5.28,4 a 8.71,8.71 0 0 1 -4,-0.86 z"
     id="path126"
     style="isolation:isolate" />
  <g
     id="g3018"
     transform="translate(-248.8913,36.557819)">
    <path
       class="cls-3"
       d="m 721.77,487.46 a 8.88,8.88 0 0 1 -3.41,0.57 c -4,0 -6.47,-2.42 -6.47,-6.26 0,-3.57 2.45,-6.5 7,-6.5 a 8.77,8.77 0 0 1 2.9,0.48 l -0.59,2.83 a 5.22,5.22 0 0 0 -2.13,-0.39 3.44,3.44 0 0 0 0.06,6.87 5.6,5.6 0 0 0 2.19,-0.4 z"
       id="path154"
       style="isolation:isolate" />
    <path
       class="cls-3"
       d="m 735.44,483.85 c 0,1.59 0,2.9 0.1,3.92 h -3.3 l -0.18,-1.73 H 732 a 4.32,4.32 0 0 1 -3.81,2 c -2.49,0 -4.3,-1.56 -4.3,-5.32 v -7.19 h 3.81 v 6.57 c 0,1.79 0.58,2.86 1.92,2.86 a 2,2 0 0 0 1.89,-1.33 2.25,2.25 0 0 0 0.14,-0.81 v -7.29 h 3.81 z"
       id="path156"
       style="isolation:isolate" />
    <path
       class="cls-3"
       d="m 738.49,479.57 c 0,-1.8 0,-3 -0.1,-4 h 3.27 l 0.14,2.26 h 0.09 a 3.59,3.59 0 0 1 3.3,-2.54 3.35,3.35 0 0 1 0.81,0.07 v 3.58 a 4.77,4.77 0 0 0 -1,-0.11 2.44,2.44 0 0 0 -2.6,1.93 4.43,4.43 0 0 0 -0.07,0.85 v 6.19 h -3.81 z"
       id="path158"
       style="isolation:isolate" />
    <path
       class="cls-3"
       d="m 747.94,479.57 c 0,-1.8 0,-3 -0.1,-4 h 3.27 l 0.14,2.26 h 0.09 a 3.59,3.59 0 0 1 3.3,-2.54 3.35,3.35 0 0 1 0.81,0.07 v 3.58 a 4.74,4.74 0 0 0 -1,-0.11 2.44,2.44 0 0 0 -2.61,1.93 4.43,4.43 0 0 0 -0.07,0.85 v 6.19 h -3.81 z"
       id="path160"
       style="isolation:isolate" />
    <path
       class="cls-3"
       d="m 760.17,482.88 c 0.11,1.58 1.67,2.33 3.45,2.33 a 10.3,10.3 0 0 0 3.36,-0.52 l 0.52,2.57 a 11.79,11.79 0 0 1 -4.43,0.77 c -4.15,0 -6.53,-2.41 -6.53,-6.22 0,-3.11 1.94,-6.55 6.17,-6.55 4,0 5.46,3.08 5.46,6.11 a 7.09,7.09 0 0 1 -0.14,1.51 z m 4.47,-2.61 a 2.22,2.22 0 0 0 -2.14,-2.48 2.52,2.52 0 0 0 -2.36,2.48 z"
       id="path162"
       style="isolation:isolate" />
    <path
       class="cls-3"
       d="m 770.44,479.44 c 0,-1.52 -0.05,-2.81 -0.1,-3.9 h 3.3 l 0.17,1.69 h 0.08 a 4.44,4.44 0 0 1 3.79,-2 c 2.49,0 4.37,1.67 4.37,5.27 v 7.24 h -3.81 V 481 c 0,-1.58 -0.56,-2.65 -1.93,-2.65 a 2,2 0 0 0 -1.93,1.43 2.67,2.67 0 0 0 -0.13,0.94 v 7.06 h -3.81 z"
       id="path164"
       style="isolation:isolate" />
    <path
       class="cls-3"
       d="m 789.18,472.05 v 3.49 h 2.74 v 2.8 h -2.74 v 4.43 c 0,1.48 0.37,2.16 1.5,2.16 a 5.14,5.14 0 0 0 1.13,-0.11 v 2.89 a 8.29,8.29 0 0 1 -2.46,0.32 4,4 0 0 1 -2.87,-1.06 5,5 0 0 1 -1,-3.62 v -5 h -1.62 v -2.8 h 1.62 v -2.63 z"
       id="path166"
       style="isolation:isolate" />
    <path
       class="cls-3"
       d="m 799.06,487.77 c 0.06,-0.81 0.1,-2.26 0.1,-3.65 V 470 H 803 v 7 0 a 4.27,4.27 0 0 1 3.69,-1.74 c 2.94,0 5.08,2.43 5,6.18 0,4.41 -2.79,6.61 -5.6,6.61 a 4,4 0 0 1 -3.65,-2 h -0.06 l -0.16,1.7 z m 3.91,-5.19 a 3.48,3.48 0 0 0 0.06,0.67 2.34,2.34 0 0 0 2.24,1.81 c 1.62,0 2.63,-1.26 2.63,-3.46 0,-1.9 -0.85,-3.4 -2.62,-3.4 a 2.33,2.33 0 0 0 -2.23,1.87 3.22,3.22 0 0 0 -0.08,0.71 z"
       id="path168"
       style="isolation:isolate" />
    <path
       class="cls-3"
       d="m 821.08,487.77 -0.23,-1.21 h -0.08 a 4.41,4.41 0 0 1 -3.49,1.49 3.74,3.74 0 0 1 -4,-3.75 c 0,-3.18 2.85,-4.69 7.18,-4.69 v -0.15 c 0,-0.65 -0.35,-1.58 -2.24,-1.58 a 7,7 0 0 0 -3.37,0.91 l -0.7,-2.43 a 9.86,9.86 0 0 1 4.76,-1.1 c 4.07,0 5.36,2.41 5.36,5.28 v 4.27 a 18.13,18.13 0 0 0 0.19,3 z m -0.46,-5.78 c -2,0 -3.55,0.47 -3.55,1.92 a 1.37,1.37 0 0 0 1.51,1.47 2.08,2.08 0 0 0 2,-1.41 2.7,2.7 0 0 0 0.07,-0.65 z"
       id="path170"
       style="isolation:isolate" />
    <path
       class="cls-3"
       d="m 827.32,470 h 3.8 v 17.75 h -3.8 z"
       id="path172"
       style="isolation:isolate" />
    <path
       class="cls-3"
       d="m 841.15,487.77 -0.22,-1.21 h -0.08 a 4.41,4.41 0 0 1 -3.5,1.49 3.73,3.73 0 0 1 -4,-3.75 c 0,-3.18 2.85,-4.69 7.18,-4.69 v -0.15 c 0,-0.65 -0.35,-1.58 -2.24,-1.58 a 7,7 0 0 0 -3.37,0.91 l -0.7,-2.43 a 9.84,9.84 0 0 1 4.75,-1.1 c 4.07,0 5.36,2.41 5.36,5.28 v 4.27 a 16.92,16.92 0 0 0 0.2,3 z m -0.46,-5.78 c -2,0 -3.55,0.47 -3.55,1.92 a 1.38,1.38 0 0 0 1.51,1.47 2.08,2.08 0 0 0 2,-1.41 2.28,2.28 0 0 0 0.07,-0.65 z"
       id="path174"
       style="isolation:isolate" />
    <path
       class="cls-3"
       d="m 847.39,479.44 c 0,-1.52 0,-2.81 -0.1,-3.9 h 3.3 l 0.18,1.69 h 0.08 a 4.41,4.41 0 0 1 3.78,-2 c 2.49,0 4.37,1.67 4.37,5.27 v 7.24 h -3.8 V 481 c 0,-1.58 -0.57,-2.65 -1.94,-2.65 a 2.07,2.07 0 0 0 -1.93,1.43 2.92,2.92 0 0 0 -0.13,0.94 v 7.06 h -3.81 z"
       id="path176"
       style="isolation:isolate" />
    <path
       class="cls-3"
       d="m 871.22,487.46 a 8.88,8.88 0 0 1 -3.41,0.57 c -3.95,0 -6.47,-2.42 -6.47,-6.26 0,-3.57 2.45,-6.5 7,-6.5 a 8.77,8.77 0 0 1 2.9,0.48 l -0.59,2.83 a 5.22,5.22 0 0 0 -2.13,-0.39 3.44,3.44 0 0 0 0.06,6.87 5.6,5.6 0 0 0 2.19,-0.4 z"
       id="path178"
       style="isolation:isolate" />
    <path
       class="cls-3"
       d="m 876,482.88 c 0.12,1.58 1.67,2.33 3.45,2.33 a 10.37,10.37 0 0 0 3.37,-0.52 l 0.51,2.57 a 11.79,11.79 0 0 1 -4.43,0.77 c -4.15,0 -6.53,-2.41 -6.53,-6.22 0,-3.11 1.94,-6.55 6.17,-6.55 4,0 5.46,3.08 5.46,6.11 a 8,8 0 0 1 -0.13,1.51 z m 4.47,-2.61 a 2.22,2.22 0 0 0 -2.14,-2.48 2.53,2.53 0 0 0 -2.36,2.48 z"
       id="path180"
       style="isolation:isolate" />
    <path
       class="cls-3"
       d="m 742.46,500.5 a 19.17,19.17 0 0 0 -2.52,10.11 19.45,19.45 0 0 0 2.52,10.07 h -2.65 A 17.57,17.57 0 0 1 737,510.61 17.85,17.85 0 0 1 739.85,500.5 Z"
       id="path182"
       style="isolation:isolate" />
    <path
       class="cls-3"
       d="m 747.47,505.54 1,5 c 0.25,1.26 0.49,2.62 0.7,4 h 0.05 c 0.23,-1.38 0.6,-2.78 0.9,-4 l 1.28,-5 h 3 l 1.22,4.87 c 0.33,1.4 0.66,2.76 0.89,4.15 h 0.06 c 0.17,-1.38 0.41,-2.76 0.7,-4.17 l 1,-4.85 H 762 l -3.74,12.23 h -3.56 l -1.15,-4.29 c -0.32,-1.2 -0.54,-2.3 -0.8,-3.82 v 0 a 29.27,29.27 0 0 1 -0.78,3.8 l -1.23,4.31 h -3.56 l -3.57,-12.23 z"
       id="path184"
       style="isolation:isolate" />
    <path
       class="cls-3"
       d="m 767.73,502.14 a 1.88,1.88 0 0 1 -2,1.9 1.9,1.9 0 1 1 2,-1.9 z m -3.91,15.63 v -12.23 h 3.8 v 12.23 z"
       id="path186"
       style="isolation:isolate" />
    <path
       class="cls-3"
       d="m 774.91,502.05 v 3.49 h 2.73 v 2.8 h -2.73 v 4.43 c 0,1.48 0.36,2.16 1.5,2.16 a 5.14,5.14 0 0 0 1.13,-0.11 v 2.89 a 8.32,8.32 0 0 1 -2.47,0.32 3.94,3.94 0 0 1 -2.86,-1.06 5,5 0 0 1 -1,-3.62 v -5 h -1.63 v -2.8 h 1.63 v -2.63 z"
       id="path188"
       style="isolation:isolate" />
    <path
       class="cls-3"
       d="m 779.84,500 h 3.81 v 7 h 0.05 a 4.24,4.24 0 0 1 1.49,-1.26 4.18,4.18 0 0 1 2,-0.49 c 2.43,0 4.28,1.68 4.28,5.37 v 7.14 h -3.81 v -6.72 c 0,-1.61 -0.55,-2.71 -2,-2.71 a 2,2 0 0 0 -1.91,1.34 2.49,2.49 0 0 0 -0.12,0.83 v 7.26 h -3.81 z"
       id="path190"
       style="isolation:isolate" />
    <path
       class="cls-3"
       d="m 799.54,500 h 3.81 v 7 0 a 4.24,4.24 0 0 1 1.49,-1.26 4.18,4.18 0 0 1 2,-0.49 c 2.43,0 4.28,1.68 4.28,5.37 v 7.14 h -3.8 v -6.72 c 0,-1.61 -0.56,-2.71 -2,-2.71 a 2,2 0 0 0 -1.91,1.34 2.49,2.49 0 0 0 -0.12,0.83 v 7.26 h -3.81 z"
       id="path192"
       style="isolation:isolate" />
    <path
       class="cls-3"
       d="m 818.11,502.14 a 1.89,1.89 0 0 1 -2.05,1.9 1.9,1.9 0 1 1 2.05,-1.9 z m -3.92,15.63 V 505.54 H 818 v 12.23 z"
       id="path194"
       style="isolation:isolate" />
    <path
       class="cls-3"
       d="m 821,514.46 a 7.53,7.53 0 0 0 3.27,0.91 c 1.14,0 1.63,-0.39 1.63,-1 0,-0.61 -0.38,-0.94 -1.79,-1.42 -2.54,-0.84 -3.5,-2.22 -3.49,-3.65 0,-2.3 1.94,-4 5,-4 a 8.19,8.19 0 0 1 3.44,0.71 l -0.66,2.63 a 6.22,6.22 0 0 0 -2.65,-0.7 c -0.93,0 -1.46,0.37 -1.46,1 0,0.63 0.48,0.89 2,1.41 2.33,0.79 3.3,2 3.31,3.77 0,2.28 -1.78,4 -5.28,4 a 8.71,8.71 0 0 1 -4,-0.86 z"
       id="path196"
       style="isolation:isolate" />
    <path
       class="cls-3"
       d="m 836.13,502.05 v 3.49 h 2.74 v 2.8 h -2.74 v 4.43 c 0,1.48 0.37,2.16 1.5,2.16 a 5.14,5.14 0 0 0 1.13,-0.11 v 2.89 a 8.29,8.29 0 0 1 -2.46,0.32 4,4 0 0 1 -2.87,-1.06 5,5 0 0 1 -1.05,-3.62 v -5 h -1.62 v -2.8 h 1.62 v -2.63 z"
       id="path198"
       style="isolation:isolate" />
    <path
       class="cls-3"
       d="m 853,511.53 a 6.13,6.13 0 0 1 -6.45,6.52 6,6 0 0 1 -6.32,-6.31 c 0,-3.94 2.61,-6.48 6.54,-6.48 a 5.94,5.94 0 0 1 6.23,6.27 z m -8.85,0.13 c 0,2.08 0.88,3.67 2.5,3.67 1.62,0 2.43,-1.49 2.43,-3.69 0,-1.81 -0.7,-3.66 -2.42,-3.66 -1.72,0 -2.5,1.86 -2.5,3.68 z"
       id="path200"
       style="isolation:isolate" />
    <path
       class="cls-3"
       d="m 855.36,509.57 c 0,-1.8 0,-3 -0.1,-4 h 3.27 l 0.14,2.26 h 0.09 a 3.59,3.59 0 0 1 3.3,-2.54 3.39,3.39 0 0 1 0.82,0.07 v 3.58 a 4.84,4.84 0 0 0 -1,-0.11 2.45,2.45 0 0 0 -2.61,1.93 4.43,4.43 0 0 0 -0.07,0.85 v 6.19 h -3.81 z"
       id="path202"
       style="isolation:isolate" />
    <path
       class="cls-3"
       d="m 868.16,505.54 1.82,6 c 0.21,0.72 0.45,1.63 0.62,2.27 h 0.07 c 0.17,-0.66 0.37,-1.56 0.55,-2.27 l 1.5,-6 h 4.06 l -2.78,8.05 c -1.76,4.86 -2.93,6.8 -4.31,8 a 6.72,6.72 0 0 1 -3.66,1.67 l -0.82,-3.2 a 5.67,5.67 0 0 0 1.66,-0.65 4.42,4.42 0 0 0 1.57,-1.53 1.12,1.12 0 0 0 0.21,-0.54 1.63,1.63 0 0 0 -0.17,-0.63 L 864,505.54 Z"
       id="path204"
       style="isolation:isolate" />
    <path
       class="cls-3"
       d="m 877.73,520.68 a 21.39,21.39 0 0 0 0,-20.18 h 2.65 a 17.33,17.33 0 0 1 2.85,10.08 17.76,17.76 0 0 1 -2.85,10.1 z"
       id="path206"
       style="isolation:isolate" />
  </g>
  <g
     id="g3205"
     transform="translate(102.3987,-1.732181)">
    <ellipse
       class="cls-8"
       cx="600.26001"
       cy="380.04999"
       rx="130.7"
       ry="75.459999"
       id="ellipse252"
       style="isolation:isolate;fill:url(#radialGradient1476)" />
    <g
       id="g3094">
      <path
         class="cls-4"
         d="m 550.58,521.17 c 0,0 48.82,37.35 99.35,0 v -61.23 h -99.35 z"
         id="path128"
         style="isolation:isolate;fill:url(#linearGradient1470)" />
      <ellipse
         class="cls-5"
         cx="600.26001"
         cy="459.94"
         rx="49.68"
         ry="20.200001"
         id="ellipse130"
         style="isolation:isolate;fill:url(#linear-gradient-2)" />
      <path
         class="cls-3"
         d="m 670.83,476.7 a 102.27,102.27 0 0 0 4.31,-16.46 l 0.38,-2.09 0.31,-2.1 c 0.19,-1.4 0.43,-2.79 0.55,-4.2 l 0.44,-4.23 0.24,-4.24 c 0,-0.7 0.09,-1.41 0.11,-2.12 v -2.12 -4.24 l -0.19,-4.25 c 0,-1.41 -0.12,-2.82 -0.29,-4.23 -0.29,-2.82 -0.52,-5.64 -1,-8.43 l -0.69,-4.19 -1,-4.14 c -0.33,-1.37 -0.6,-2.77 -1,-4.13 l -0.27,-0.87 -0.15,-0.5 -0.31,-1 -0.61,-2 c 1.32,0.71 2.64,1.44 4,2.2 l -0.68,-2.23 q -2.49,-1.38 -4.94,-2.63 -1.3,2.54 -2.64,5 l 0.63,2.07 c 0.72,-1.26 1.43,-2.56 2.13,-3.88 l 0.61,2 0.3,1 0.15,0.5 0.26,0.86 c 0.38,1.34 0.65,2.71 1,4.07 l 0.93,4.09 0.68,4.13 c 0.52,2.75 0.74,5.54 1,8.32 0.17,1.38 0.23,2.78 0.29,4.18 l 0.18,4.19 v 4.19 2.09 c 0,0.7 -0.08,1.4 -0.11,2.1 l -0.24,4.18 -0.43,4.17 c -0.12,1.4 -0.36,2.78 -0.55,4.16 l -0.23,1.98 -0.37,2.06 a 101.79,101.79 0 0 1 -4.22,16.16 z"
         id="path132"
         style="isolation:isolate" />
      <path
         class="cls-3"
         d="m 677.17,191.93 a 46.72,46.72 0 0 0 2.47,-7.83 58.11,58.11 0 0 0 1.26,-8.1 56.91,56.91 0 0 0 -1,-16.26 17.4,17.4 0 0 0 -0.47,-2 l -0.14,-0.53 -0.14,-0.51 -0.28,-1 a 18.42,18.42 0 0 0 -0.65,-2 41.34,41.34 0 0 1 4,2.25 c -0.22,-0.77 -0.4,-1.56 -0.66,-2.32 -1.73,-0.94 -3.44,-1.78 -5.11,-2.54 q -1.17,2.61 -2.45,4.94 c 0.23,0.66 0.37,1.34 0.56,2 a 36.74,36.74 0 0 0 2.16,-3.82 18.82,18.82 0 0 1 0.63,2 l 0.27,1 0.13,0.5 0.14,0.52 a 16.39,16.39 0 0 1 0.46,1.93 55.12,55.12 0 0 1 1,15.8 57.81,57.81 0 0 1 -1.22,7.84 45.07,45.07 0 0 1 -2.37,7.52 z"
         id="path134"
         style="isolation:isolate" />
      <path
         class="cls-3"
         d="m 674.6,347.36 a 44.12,44.12 0 0 0 3.52,-32.5 17,17 0 0 0 -0.63,-2 l -0.19,-0.53 -0.18,-0.51 -0.35,-1 a 16.28,16.28 0 0 0 -0.84,-2 c 0.7,0.27 1.44,0.55 2.14,0.87 l 2,1 c -0.29,-0.76 -0.51,-1.55 -0.86,-2.28 -1.82,-0.8 -3.61,-1.48 -5.34,-2.07 -0.61,1.82 -1.28,3.53 -2,5.14 a 18.21,18.21 0 0 1 0.71,1.91 c 0.34,-0.64 0.67,-1.29 1,-2 0.33,-0.71 0.56,-1.32 0.83,-2 a 16.53,16.53 0 0 1 0.81,1.89 l 0.34,1 0.17,0.49 0.18,0.51 a 14.75,14.75 0 0 1 0.61,1.92 42.53,42.53 0 0 1 -3.34,31.25 z"
         id="path136"
         style="isolation:isolate" />
      <path
         class="cls-3"
         d="m 673.72,269.7 a 37.33,37.33 0 0 0 3.38,-7.7 43.27,43.27 0 0 0 1.77,-8.2 41.82,41.82 0 0 0 -1.45,-16.65 15.56,15.56 0 0 0 -0.68,-2 l -0.19,-0.53 -0.19,-0.5 -0.37,-1 a 17.91,17.91 0 0 0 -0.88,-2 c 0.71,0.27 1.45,0.53 2.16,0.84 0.71,0.31 1.37,0.65 2.07,1 -0.31,-0.75 -0.53,-1.55 -0.91,-2.27 -1.84,-0.76 -3.64,-1.41 -5.38,-2 -0.57,1.83 -1.2,3.56 -1.88,5.17 a 16.88,16.88 0 0 1 0.75,1.89 c 0.33,-0.63 0.65,-1.29 1,-2 0.35,-0.71 0.53,-1.33 0.78,-2 a 16.52,16.52 0 0 1 0.85,1.87 l 0.36,1 0.18,0.48 0.19,0.51 a 17.88,17.88 0 0 1 0.65,1.91 40.54,40.54 0 0 1 -3.52,31.29 z"
         id="path138"
         style="isolation:isolate" />
      <path
         class="cls-3"
         d="m 714.92,177.92 c 0,1.59 0.05,2.91 0.1,3.92 h -3.3 l -0.17,-1.72 h -0.08 a 4.35,4.35 0 0 1 -3.81,2 c -2.49,0 -4.3,-1.56 -4.3,-5.32 v -7.19 h 3.81 v 6.57 c 0,1.79 0.57,2.86 1.91,2.86 a 2,2 0 0 0 1.89,-1.33 2.06,2.06 0 0 0 0.14,-0.81 v -7.29 h 3.81 z"
         id="path140"
         style="isolation:isolate" />
      <path
         class="cls-3"
         d="m 718,173.52 c 0,-1.53 0,-2.82 -0.09,-3.91 h 3.29 l 0.18,1.69 h 0.08 a 4.44,4.44 0 0 1 3.78,-2 c 2.5,0 4.38,1.67 4.38,5.27 v 7.24 h -3.81 v -6.78 c 0,-1.57 -0.56,-2.65 -1.93,-2.65 a 2,2 0 0 0 -1.93,1.43 2.66,2.66 0 0 0 -0.14,0.94 v 7.06 H 718 Z"
         id="path142"
         style="isolation:isolate" />
      <path
         class="cls-3"
         d="m 733.06,181.84 v -9.43 h -1.61 v -2.8 h 1.61 v -0.47 a 5.63,5.63 0 0 1 1.54,-4.1 5,5 0 0 1 3.39,-1.22 7.27,7.27 0 0 1 2,0.26 l -0.15,2.92 a 4.1,4.1 0 0 0 -1.23,-0.18 c -1.25,0 -1.78,1 -1.78,2.17 v 0.62 h 2.45 v 2.8 h -2.42 v 9.43 z"
         id="path144"
         style="isolation:isolate" />
      <path
         class="cls-3"
         d="m 753,175.6 a 6.13,6.13 0 0 1 -6.45,6.52 6,6 0 0 1 -6.32,-6.31 c 0,-3.94 2.61,-6.48 6.54,-6.48 a 5.94,5.94 0 0 1 6.23,6.27 z m -8.85,0.13 c 0,2.09 0.88,3.67 2.5,3.67 1.62,0 2.43,-1.48 2.43,-3.69 0,-1.81 -0.7,-3.66 -2.42,-3.66 -1.72,0 -2.54,1.87 -2.54,3.68 z"
         id="path146"
         style="isolation:isolate" />
      <path
         class="cls-3"
         d="m 755.32,164.1 h 3.81 v 17.74 h -3.81 z"
         id="path148"
         style="isolation:isolate" />
      <path
         class="cls-3"
         d="m 774.05,164.1 v 14.09 c 0,1.39 0,2.83 0.1,3.65 h -3.39 l -0.16,-1.79 h -0.05 a 4.27,4.27 0 0 1 -3.83,2.07 c -2.88,0 -5.22,-2.48 -5.22,-6.28 0,-4.11 2.56,-6.51 5.48,-6.51 a 3.69,3.69 0 0 1 3.21,1.39 v 0 -6.62 z m -3.81,10.7 a 4.08,4.08 0 0 0 0,-0.69 2.25,2.25 0 0 0 -2.2,-1.86 c -1.75,0 -2.63,1.55 -2.63,3.47 0,1.92 1,3.37 2.6,3.37 a 2.24,2.24 0 0 0 2.2,-1.83 3.87,3.87 0 0 0 0.08,-0.86 z"
         id="path150"
         style="isolation:isolate" />
      <path
         class="cls-3"
         d="m 714.92,254.54 c 0,1.59 0.05,2.9 0.1,3.92 h -3.3 l -0.17,-1.73 h -0.08 a 4.33,4.33 0 0 1 -3.81,2 c -2.49,0 -4.3,-1.55 -4.3,-5.31 v -7.2 h 3.81 v 6.58 c 0,1.79 0.57,2.86 1.91,2.86 a 2,2 0 0 0 1.89,-1.34 2,2 0 0 0 0.14,-0.8 v -7.3 h 3.81 z"
         id="path208"
         style="isolation:isolate" />
      <path
         class="cls-3"
         d="m 718,250.13 c 0,-1.52 0,-2.81 -0.09,-3.91 h 3.29 l 0.18,1.7 h 0.08 a 4.42,4.42 0 0 1 3.78,-2 c 2.5,0 4.38,1.67 4.38,5.27 v 7.24 h -3.81 v -6.78 c 0,-1.58 -0.56,-2.66 -1.93,-2.66 a 2.06,2.06 0 0 0 -1.93,1.44 2.66,2.66 0 0 0 -0.14,0.94 v 7.06 H 718 Z"
         id="path210"
         style="isolation:isolate" />
      <path
         class="cls-3"
         d="M 733.06,258.46 V 249 h -1.61 v -2.81 h 1.61 v -0.46 a 5.63,5.63 0 0 1 1.54,-4.1 5,5 0 0 1 3.39,-1.22 7.27,7.27 0 0 1 2,0.26 l -0.15,2.91 a 4.14,4.14 0 0 0 -1.23,-0.17 c -1.25,0 -1.78,1 -1.78,2.16 v 0.62 h 2.45 V 249 h -2.42 v 9.43 z"
         id="path212"
         style="isolation:isolate" />
      <path
         class="cls-3"
         d="m 753,252.22 a 6.12,6.12 0 0 1 -6.45,6.51 6,6 0 0 1 -6.32,-6.3 c 0,-4 2.61,-6.48 6.54,-6.48 a 5.94,5.94 0 0 1 6.23,6.27 z m -8.85,0.12 c 0,2.09 0.88,3.68 2.5,3.68 1.62,0 2.43,-1.49 2.43,-3.7 0,-1.8 -0.7,-3.65 -2.42,-3.65 -1.72,0 -2.54,1.86 -2.54,3.67 z"
         id="path214"
         style="isolation:isolate" />
      <path
         class="cls-3"
         d="m 755.32,240.71 h 3.81 v 17.75 h -3.81 z"
         id="path216"
         style="isolation:isolate" />
      <path
         class="cls-3"
         d="m 774.05,240.71 v 14.09 c 0,1.39 0,2.84 0.1,3.66 h -3.39 l -0.16,-1.79 h -0.05 a 4.26,4.26 0 0 1 -3.83,2.06 c -2.88,0 -5.22,-2.48 -5.22,-6.28 0,-4.11 2.56,-6.5 5.48,-6.5 a 3.71,3.71 0 0 1 3.21,1.38 v 0 -6.62 z m -3.81,10.71 a 4,4 0 0 0 0,-0.69 2.25,2.25 0 0 0 -2.2,-1.86 c -1.75,0 -2.63,1.54 -2.63,3.47 0,1.93 1,3.36 2.6,3.36 a 2.25,2.25 0 0 0 2.2,-1.82 3.93,3.93 0 0 0 0.08,-0.86 z"
         id="path218"
         style="isolation:isolate" />
      <path
         class="cls-3"
         d="m 714.92,330.32 c 0,1.59 0.05,2.9 0.1,3.92 h -3.3 l -0.17,-1.73 h -0.08 a 4.33,4.33 0 0 1 -3.81,2 c -2.49,0 -4.3,-1.55 -4.3,-5.31 V 322 h 3.81 v 6.58 c 0,1.79 0.57,2.86 1.91,2.86 a 2,2 0 0 0 1.92,-1.34 2,2 0 0 0 0.14,-0.8 V 322 h 3.81 z"
         id="path222"
         style="isolation:isolate" />
      <path
         class="cls-3"
         d="m 718,325.91 c 0,-1.52 0,-2.81 -0.09,-3.91 h 3.29 l 0.18,1.7 h 0.08 a 4.42,4.42 0 0 1 3.78,-2 c 2.5,0 4.38,1.67 4.38,5.27 v 7.24 h -3.81 v -6.78 c 0,-1.58 -0.56,-2.66 -1.93,-2.66 a 2.06,2.06 0 0 0 -1.93,1.44 2.66,2.66 0 0 0 -0.14,0.94 v 7.06 H 718 Z"
         id="path224"
         style="isolation:isolate" />
      <path
         class="cls-3"
         d="m 733.06,334.24 v -9.43 h -1.61 V 322 h 1.61 v -0.46 a 5.63,5.63 0 0 1 1.54,-4.1 5,5 0 0 1 3.39,-1.22 7.27,7.27 0 0 1 2,0.26 l -0.15,2.91 a 4.14,4.14 0 0 0 -1.23,-0.17 c -1.25,0 -1.78,1 -1.78,2.16 V 322 h 2.45 v 2.81 h -2.42 v 9.43 z"
         id="path226"
         style="isolation:isolate" />
      <path
         class="cls-3"
         d="m 753,328 a 6.12,6.12 0 0 1 -6.45,6.51 6,6 0 0 1 -6.32,-6.3 c 0,-3.95 2.61,-6.48 6.54,-6.48 A 5.94,5.94 0 0 1 753,328 Z m -8.85,0.12 c 0,2.09 0.88,3.68 2.5,3.68 1.62,0 2.43,-1.49 2.43,-3.7 0,-1.8 -0.7,-3.65 -2.42,-3.65 -1.72,0 -2.54,1.86 -2.54,3.67 z"
         id="path228"
         style="isolation:isolate" />
      <path
         class="cls-3"
         d="m 755.32,316.49 h 3.81 v 17.75 h -3.81 z"
         id="path230"
         style="isolation:isolate" />
      <path
         class="cls-3"
         d="m 774.05,316.49 v 14.09 c 0,1.39 0,2.84 0.1,3.66 h -3.39 l -0.16,-1.79 h -0.05 a 4.26,4.26 0 0 1 -3.83,2.06 c -2.88,0 -5.22,-2.48 -5.22,-6.28 0,-4.11 2.56,-6.5 5.48,-6.5 a 3.71,3.71 0 0 1 3.21,1.38 v 0 -6.62 z m -3.81,10.71 a 3.94,3.94 0 0 0 0,-0.69 2.25,2.25 0 0 0 -2.2,-1.86 c -1.75,0 -2.63,1.54 -2.63,3.47 0,1.93 1,3.36 2.6,3.36 a 2.25,2.25 0 0 0 2.2,-1.82 3.93,3.93 0 0 0 0.08,-0.86 z"
         id="path232"
         style="isolation:isolate" />
      <path
         class="cls-3"
         d="m 714.92,440.52 c 0,1.59 0.05,2.9 0.1,3.92 h -3.3 l -0.17,-1.73 h -0.08 a 4.33,4.33 0 0 1 -3.81,2 c -2.49,0 -4.3,-1.55 -4.3,-5.32 v -7.19 h 3.81 v 6.58 c 0,1.79 0.57,2.86 1.91,2.86 a 2,2 0 0 0 1.92,-1.34 2,2 0 0 0 0.14,-0.81 v -7.29 h 3.81 z"
         id="path236"
         style="isolation:isolate" />
      <path
         class="cls-3"
         d="m 718,436.11 c 0,-1.52 0,-2.81 -0.09,-3.91 h 3.29 l 0.18,1.7 h 0.08 a 4.42,4.42 0 0 1 3.78,-2 c 2.5,0 4.38,1.66 4.38,5.26 v 7.25 h -3.81 v -6.78 c 0,-1.58 -0.56,-2.66 -1.93,-2.66 a 2,2 0 0 0 -1.93,1.44 2.66,2.66 0 0 0 -0.14,0.94 v 7.06 H 718 Z"
         id="path238"
         style="isolation:isolate" />
      <path
         class="cls-3"
         d="M 733.06,444.44 V 435 h -1.61 v -2.8 h 1.61 v -0.46 a 5.63,5.63 0 0 1 1.54,-4.1 4.94,4.94 0 0 1 3.39,-1.22 7.27,7.27 0 0 1 2,0.26 l -0.15,2.91 a 4.14,4.14 0 0 0 -1.23,-0.17 c -1.25,0 -1.78,1 -1.78,2.16 v 0.62 h 2.45 v 2.8 h -2.42 v 9.43 z"
         id="path240"
         style="isolation:isolate" />
      <path
         class="cls-3"
         d="m 753,438.2 a 6.12,6.12 0 0 1 -6.45,6.51 6,6 0 0 1 -6.32,-6.3 c 0,-4 2.61,-6.48 6.54,-6.48 a 5.94,5.94 0 0 1 6.23,6.27 z m -8.85,0.12 c 0,2.09 0.88,3.67 2.5,3.67 1.62,0 2.43,-1.48 2.43,-3.69 0,-1.8 -0.7,-3.66 -2.42,-3.66 -1.72,0 -2.54,1.87 -2.54,3.68 z"
         id="path242"
         style="isolation:isolate" />
      <path
         class="cls-3"
         d="m 755.32,426.69 h 3.81 v 17.75 h -3.81 z"
         id="path244"
         style="isolation:isolate" />
      <path
         class="cls-3"
         d="m 774.05,426.69 v 14.09 c 0,1.39 0,2.84 0.1,3.66 h -3.39 l -0.16,-1.8 h -0.05 a 4.25,4.25 0 0 1 -3.83,2.07 c -2.88,0 -5.22,-2.48 -5.22,-6.28 0,-4.11 2.56,-6.5 5.48,-6.5 a 3.71,3.71 0 0 1 3.21,1.38 v 0 -6.62 z m -3.81,10.7 a 3.89,3.89 0 0 0 0,-0.68 2.24,2.24 0 0 0 -2.2,-1.86 c -1.75,0 -2.63,1.54 -2.63,3.47 0,1.93 1,3.36 2.6,3.36 a 2.25,2.25 0 0 0 2.2,-1.82 4,4 0 0 0 0.08,-0.86 z"
         id="path246"
         style="isolation:isolate" />
      <path
         class="cls-6"
         d="M 653.49,80.9 H 547.73 v 313.16 h 0.06 c -0.35,7.28 4.76,14.63 15.43,20.19 20.65,10.77 54.13,10.77 74.79,0 10.32,-5.38 15.49,-12.44 15.48,-19.5 v 0 z"
         id="path248"
         style="isolation:isolate;fill:url(#radialGradient1472)" />
      <path
         class="cls-7"
         d="m 652.52,140.07 c 0,43.68 -7.88,182 -51.56,182 -43.68,0 -54.21,-115.51 -54.21,-159.19 0,-43.68 3.77,-92.19 47.44,-92.19 43.67,0 58.33,25.71 58.33,69.38 z"
         id="path250"
         style="isolation:isolate;fill:url(#radialGradient1474)" />
      <ellipse
         class="cls-9"
         cx="600.84998"
         cy="393.78"
         rx="52.880001"
         ry="30.530001"
         id="ellipse254"
         style="isolation:isolate" />
      <g
         class="cls-10"
         id="g260"
         style="isolation:isolate">
        <path
           class="cls-11"
           d="m 637.34,339.93 c -10.22,-5.07 -23.66,-7.61 -37.09,-7.61 -13.43,0 -26.86,2.54 -37.09,7.61 -9.79,4.87 -15.16,11.3 -15.16,18.07 0,6.77 5.39,13.25 15.18,18.11 20.46,10.15 53.73,10.14 74.18,0 9.8,-4.86 15.19,-11.29 15.19,-18.11 0,-6.82 -5.41,-13.2 -15.21,-18.07 z"
           id="path256"
           style="fill:url(#radialGradient1478);stroke:url(#radial-gradient-4)" />
        <path
           class="cls-12"
           d="m 638,339 c -20.79,-10.32 -54.61,-10.32 -75.4,0 -10.18,5.05 -15.79,11.8 -15.79,19 0,4.13 1.84,8.1 5.33,11.7 5.95,8.58 20.59,24 48.87,24 a 56.83,56.83 0 0 0 46.87,-23.46 c 3.87,-3.74 5.92,-7.93 5.92,-12.28 -0.05,-7.12 -5.66,-13.88 -15.8,-18.96 z m -0.61,37.12 c -20.45,10.14 -53.72,10.15 -74.18,0 C 553.37,371.29 548,364.85 548,358 c 0,-6.85 5.39,-13.24 15.18,-18.11 10.23,-5.07 23.66,-7.61 37.09,-7.61 13.43,0 26.87,2.54 37.09,7.61 9.8,4.87 15.19,11.3 15.19,18.11 0,6.81 -5.41,13.29 -15.21,18.15 z"
           id="path258" />
      </g>
      <g
         class="cls-13"
         id="g266"
         style="isolation:isolate">
        <path
           class="cls-14"
           d="m 637.34,268.19 c -10.22,-5.07 -23.66,-7.6 -37.09,-7.6 -13.43,0 -26.86,2.53 -37.09,7.6 -9.79,4.87 -15.18,11.3 -15.18,18.12 0,6.82 5.39,13.25 15.18,18.1 20.46,10.16 53.73,10.15 74.18,0 9.8,-4.85 15.19,-11.28 15.19,-18.1 0,-6.82 -5.39,-13.25 -15.19,-18.12 z"
           id="path262"
           style="fill:url(#radial-gradient-5);stroke:url(#radial-gradient-6)" />
        <path
           class="cls-12"
           d="m 638,267.29 c -20.79,-10.31 -54.61,-10.31 -75.4,0 -10.18,5.06 -15.79,11.81 -15.79,19 0,4.13 1.84,8.1 5.33,11.69 5.95,8.59 20.59,24.05 48.87,24.05 a 56.83,56.83 0 0 0 46.87,-23.46 c 3.87,-3.74 5.92,-7.93 5.92,-12.28 -0.05,-7.19 -5.66,-13.94 -15.8,-19 z m -0.61,37.12 c -20.45,10.15 -53.72,10.16 -74.18,0 -9.79,-4.85 -15.18,-11.29 -15.18,-18.1 0,-6.81 5.39,-13.25 15.18,-18.12 10.23,-5.07 23.66,-7.6 37.09,-7.6 13.43,0 26.87,2.53 37.09,7.6 9.8,4.87 15.19,11.3 15.19,18.12 0,6.82 -5.44,13.25 -15.24,18.1 z"
           id="path264" />
      </g>
      <g
         class="cls-15"
         id="g272"
         style="isolation:isolate">
        <path
           class="cls-16"
           d="m 637.34,196.46 c -10.22,-5.07 -23.66,-7.61 -37.09,-7.61 -13.43,0 -26.86,2.54 -37.09,7.61 -9.79,4.87 -15.18,11.3 -15.18,18.11 0,6.81 5.39,13.25 15.18,18.11 20.46,10.15 53.73,10.14 74.18,0 9.8,-4.86 15.19,-11.29 15.19,-18.11 0,-6.82 -5.39,-13.24 -15.19,-18.11 z"
           id="path268"
           style="fill:url(#radial-gradient-7);stroke:url(#radial-gradient-8)" />
        <path
           class="cls-12"
           d="m 638,195.56 c -20.79,-10.32 -54.61,-10.32 -75.4,0 -10.18,5.05 -15.79,11.8 -15.79,19 0,4.13 1.84,8.1 5.33,11.7 5.95,8.58 20.59,24 48.87,24 a 56.83,56.83 0 0 0 46.87,-23.46 c 3.87,-3.74 5.92,-7.93 5.92,-12.28 -0.05,-7.15 -5.66,-13.91 -15.8,-18.96 z m -0.61,37.12 c -20.45,10.14 -53.72,10.15 -74.18,0 -9.79,-4.86 -15.18,-11.3 -15.18,-18.11 0,-6.81 5.39,-13.24 15.18,-18.11 10.23,-5.07 23.66,-7.61 37.09,-7.61 13.43,0 26.87,2.54 37.09,7.61 9.8,4.87 15.19,11.3 15.19,18.11 0,6.81 -5.44,13.25 -15.24,18.11 z"
           id="path270" />
      </g>
      <g
         class="cls-17"
         id="g278"
         style="isolation:isolate">
        <path
           class="cls-18"
           d="m 637.33,116.87 c -10.22,-5.07 -23.66,-7.61 -37.09,-7.61 -13.43,0 -26.86,2.54 -37.09,7.61 -9.79,4.87 -15.15,11.3 -15.15,18.13 0,6.83 5.39,13.25 15.18,18.11 20.46,10.15 53.73,10.14 74.18,0 9.8,-4.86 15.19,-11.29 15.19,-18.11 0,-6.82 -5.42,-13.26 -15.22,-18.13 z"
           id="path274"
           style="fill:url(#radial-gradient-9);stroke:url(#radial-gradient-10)" />
        <path
           class="cls-12"
           d="m 637.94,116 c -20.79,-10.32 -54.61,-10.32 -75.4,0 -10.18,5 -15.79,11.8 -15.79,19 0,4.13 1.84,8.1 5.33,11.7 5.95,8.58 20.59,24 48.87,24 a 56.83,56.83 0 0 0 46.87,-23.46 c 3.87,-3.74 5.92,-7.93 5.92,-12.28 0,-7.18 -5.61,-13.96 -15.8,-18.96 z m -0.61,37.12 c -20.45,10.14 -53.72,10.15 -74.18,0 C 553.36,148.23 548,141.79 548,135 c 0,-6.79 5.39,-13.24 15.18,-18.11 10.23,-5.07 23.66,-7.61 37.09,-7.61 13.43,0 26.87,2.54 37.09,7.61 9.8,4.87 16.41,11.3 16.41,18.11 0,6.81 -6.64,13.23 -16.44,18.09 z"
           id="path276" />
      </g>
    </g>
  </g>
  <g
     id="g3047"
     transform="translate(-18.780229,38.458862)">
    <path
       class="cls-3"
       d="m 66.09,482.32 a 8.92,8.92 0 0 1 -3.41,0.57 c -4,0 -6.47,-2.42 -6.47,-6.26 0,-3.58 2.45,-6.5 7,-6.5 a 8.81,8.81 0 0 1 2.9,0.48 l -0.59,2.83 a 5.05,5.05 0 0 0 -2.13,-0.39 3.4301312,3.4301312 0 0 0 0.06,6.86 5.8,5.8 0 0 0 2.19,-0.39 z"
       id="path284"
       style="isolation:isolate" />
    <path
       class="cls-3"
       d="m 79.76,478.71 c 0,1.59 0,2.9 0.1,3.92 h -3.3 L 76.38,480.9 H 76.3 a 4.33,4.33 0 0 1 -3.81,2 c -2.49,0 -4.3,-1.55 -4.3,-5.31 v -7.2 H 72 V 477 c 0,1.79 0.58,2.86 1.92,2.86 a 2,2 0 0 0 1.89,-1.34 2.18,2.18 0 0 0 0.14,-0.81 v -7.29 h 3.81 z"
       id="path286"
       style="isolation:isolate" />
    <path
       class="cls-3"
       d="m 82.81,474.43 c 0,-1.8 0,-3 -0.1,-4 H 86 l 0.13,2.27 h 0.1 a 3.58,3.58 0 0 1 3.3,-2.54 3.35,3.35 0 0 1 0.81,0.07 v 3.58 a 4.21,4.21 0 0 0 -1,-0.11 2.44,2.44 0 0 0 -2.6,1.93 4.36,4.36 0 0 0 -0.07,0.85 v 6.19 h -3.86 z"
       id="path288"
       style="isolation:isolate" />
    <path
       class="cls-3"
       d="m 92.26,474.43 c 0,-1.8 0,-3 -0.1,-4 h 3.27 l 0.13,2.27 h 0.1 a 3.58,3.58 0 0 1 3.3,-2.54 3.35,3.35 0 0 1 0.81,0.07 v 3.58 a 4.21,4.21 0 0 0 -1,-0.11 2.44,2.44 0 0 0 -2.6,1.93 4.36,4.36 0 0 0 -0.07,0.85 v 6.19 h -3.84 z"
       id="path290"
       style="isolation:isolate" />
    <path
       class="cls-3"
       d="m 104.49,477.73 c 0.11,1.58 1.67,2.33 3.45,2.33 a 10,10 0 0 0 3.36,-0.52 l 0.52,2.58 a 12,12 0 0 1 -4.43,0.77 c -4.15,0 -6.53,-2.41 -6.53,-6.23 0,-3.1 1.94,-6.54 6.17,-6.54 4,0 5.46,3.08 5.46,6.11 a 7,7 0 0 1 -0.14,1.5 z m 4.46,-2.6 a 2.2,2.2 0 0 0 -2.13,-2.48 2.52,2.52 0 0 0 -2.36,2.48 z"
       id="path292"
       style="isolation:isolate" />
    <path
       class="cls-3"
       d="m 114.76,474.3 c 0,-1.52 -0.05,-2.81 -0.1,-3.91 H 118 l 0.17,1.7 h 0.08 a 4.44,4.44 0 0 1 3.78,-2 c 2.5,0 4.38,1.67 4.38,5.27 v 7.24 h -3.81 v -6.78 c 0,-1.58 -0.56,-2.66 -1.93,-2.66 a 2,2 0 0 0 -1.93,1.44 2.67,2.67 0 0 0 -0.13,0.94 v 7.06 h -3.81 z"
       id="path294"
       style="isolation:isolate" />
    <path
       class="cls-3"
       d="m 133.5,466.9 v 3.49 h 2.74 v 2.81 h -2.74 v 4.43 c 0,1.48 0.37,2.16 1.5,2.16 a 5,5 0 0 0 1.13,-0.12 v 2.89 a 7.91,7.91 0 0 1 -2.46,0.33 4,4 0 0 1 -2.87,-1.06 5.06,5.06 0 0 1 -1.05,-3.63 v -5 h -1.62 v -2.81 h 1.62 v -2.63 z"
       id="path296"
       style="isolation:isolate" />
    <path
       class="cls-3"
       d="m 143.38,482.63 c 0.06,-0.81 0.1,-2.27 0.1,-3.66 v -14.09 h 3.81 v 7 h 0.05 a 4.28,4.28 0 0 1 3.69,-1.73 c 2.94,0 5.08,2.43 5.05,6.17 0,4.41 -2.8,6.61 -5.6,6.61 a 4,4 0 0 1 -3.66,-2 v 0 l -0.16,1.71 z m 3.91,-5.19 a 3.3,3.3 0 0 0 0.06,0.66 2.32,2.32 0 0 0 2.24,1.81 c 1.62,0 2.63,-1.25 2.63,-3.45 0,-1.91 -0.85,-3.41 -2.62,-3.41 a 2.34,2.34 0 0 0 -2.24,1.88 3.86,3.86 0 0 0 -0.07,0.7 z"
       id="path298"
       style="isolation:isolate" />
    <path
       class="cls-3"
       d="m 165.4,482.63 -0.23,-1.22 h -0.08 a 4.37,4.37 0 0 1 -3.49,1.49 3.74,3.74 0 0 1 -4,-3.74 c 0,-3.19 2.85,-4.7 7.18,-4.69 v -0.16 c 0,-0.65 -0.35,-1.58 -2.24,-1.57 a 7,7 0 0 0 -3.37,0.91 l -0.7,-2.44 a 10,10 0 0 1 4.75,-1.09 c 4.08,0 5.37,2.41 5.37,5.28 v 4.26 a 18.18,18.18 0 0 0 0.19,3 z m -0.47,-5.79 c -2,0 -3.54,0.47 -3.54,1.93 a 1.37,1.37 0 0 0 1.51,1.46 2.07,2.07 0 0 0 2,-1.4 2.32,2.32 0 0 0 0.07,-0.65 z"
       id="path300"
       style="isolation:isolate" />
    <path
       class="cls-3"
       d="m 171.64,464.88 h 3.8 v 17.75 h -3.8 z"
       id="path302"
       style="isolation:isolate" />
    <path
       class="cls-3"
       d="m 185.47,482.63 -0.22,-1.22 h -0.08 a 4.38,4.38 0 0 1 -3.5,1.49 3.73,3.73 0 0 1 -3.95,-3.74 c 0,-3.19 2.85,-4.7 7.18,-4.69 v -0.16 c 0,-0.65 -0.35,-1.58 -2.24,-1.57 a 7,7 0 0 0 -3.37,0.91 l -0.7,-2.44 a 10,10 0 0 1 4.75,-1.09 c 4.07,0 5.36,2.41 5.36,5.28 v 4.26 a 17,17 0 0 0 0.2,3 z m -0.46,-5.79 c -2,0 -3.55,0.47 -3.55,1.93 a 1.37,1.37 0 0 0 1.51,1.46 2.08,2.08 0 0 0 2,-1.4 2.32,2.32 0 0 0 0.07,-0.65 z"
       id="path304"
       style="isolation:isolate" />
    <path
       class="cls-3"
       d="m 191.71,474.3 c 0,-1.52 -0.05,-2.81 -0.1,-3.91 h 3.3 l 0.18,1.7 h 0.08 a 4.41,4.41 0 0 1 3.78,-2 c 2.49,0 4.37,1.67 4.37,5.27 v 7.24 h -3.81 v -6.78 c 0,-1.58 -0.56,-2.66 -1.93,-2.66 a 2.05,2.05 0 0 0 -1.93,1.44 2.67,2.67 0 0 0 -0.13,0.94 v 7.06 h -3.81 z"
       id="path306"
       style="isolation:isolate" />
    <path
       class="cls-3"
       d="m 215.54,482.32 a 8.88,8.88 0 0 1 -3.41,0.57 c -3.95,0 -6.47,-2.42 -6.47,-6.26 0,-3.58 2.45,-6.5 7,-6.5 a 8.77,8.77 0 0 1 2.9,0.48 l -0.59,2.83 a 5.05,5.05 0 0 0 -2.13,-0.39 3.4301312,3.4301312 0 0 0 0.06,6.86 5.8,5.8 0 0 0 2.19,-0.39 z"
       id="path308"
       style="isolation:isolate" />
    <path
       class="cls-3"
       d="m 220.29,477.73 c 0.11,1.58 1.67,2.33 3.45,2.33 a 10.1,10.1 0 0 0 3.37,-0.52 l 0.51,2.58 a 12,12 0 0 1 -4.43,0.77 c -4.15,0 -6.53,-2.41 -6.53,-6.23 0,-3.1 1.94,-6.54 6.17,-6.54 4,0 5.46,3.08 5.46,6.11 a 7.9,7.9 0 0 1 -0.13,1.5 z m 4.47,-2.6 a 2.22,2.22 0 0 0 -2.14,-2.48 2.53,2.53 0 0 0 -2.36,2.48 z"
       id="path310"
       style="isolation:isolate" />
    <path
       class="cls-3"
       d="m 86.78,495.35 a 19.24,19.24 0 0 0 -2.52,10.12 19.51,19.51 0 0 0 2.52,10.07 h -2.65 a 17.63,17.63 0 0 1 -2.85,-10.08 17.82,17.82 0 0 1 2.85,-10.11 z"
       id="path312"
       style="isolation:isolate" />
    <path
       class="cls-3"
       d="m 91.79,500.39 1,5 c 0.25,1.26 0.49,2.62 0.7,4 v 0 c 0.23,-1.39 0.6,-2.78 0.9,-4 l 1.28,-5.05 h 3 l 1.22,4.88 c 0.33,1.39 0.66,2.76 0.89,4.15 h 0.06 c 0.17,-1.38 0.41,-2.77 0.7,-4.17 l 1,-4.86 h 3.72 l -3.74,12.24 h -3.47 l -1.15,-4.29 c -0.32,-1.21 -0.54,-2.3 -0.8,-3.82 v 0 a 29.63,29.63 0 0 1 -0.78,3.8 L 95,512.63 h -3.52 l -3.57,-12.24 z"
       id="path314"
       style="isolation:isolate" />
    <path
       class="cls-3"
       d="m 112.05,497 a 1.88,1.88 0 0 1 -2,1.9 1.91,1.91 0 1 1 2,-1.9 z m -3.91,15.63 v -12.24 h 3.8 v 12.24 z"
       id="path316"
       style="isolation:isolate" />
    <path
       class="cls-3"
       d="m 119.23,496.9 v 3.49 H 122 v 2.81 h -2.73 v 4.43 c 0,1.48 0.36,2.16 1.5,2.16 a 5,5 0 0 0 1.13,-0.12 v 2.89 a 7.94,7.94 0 0 1 -2.47,0.33 4,4 0 0 1 -2.86,-1.06 5,5 0 0 1 -1,-3.63 v -5 h -1.63 v -2.81 h 1.63 v -2.63 z"
       id="path318"
       style="isolation:isolate" />
    <path
       class="cls-3"
       d="M 124.16,494.88 H 128 v 7 0 a 4.31,4.31 0 0 1 3.47,-1.75 c 2.43,0 4.28,1.68 4.28,5.37 v 7.14 H 132 v -6.72 c 0,-1.61 -0.55,-2.71 -2,-2.71 a 2,2 0 0 0 -1.91,1.34 2.45,2.45 0 0 0 -0.12,0.83 v 7.26 h -3.81 z"
       id="path320"
       style="isolation:isolate" />
    <path
       class="cls-3"
       d="m 143.86,494.88 h 3.81 v 7 h 0.05 a 4.31,4.31 0 0 1 3.47,-1.75 c 2.43,0 4.28,1.68 4.28,5.37 v 7.14 h -3.81 v -6.72 c 0,-1.61 -0.55,-2.71 -2,-2.71 a 2,2 0 0 0 -1.91,1.34 2.45,2.45 0 0 0 -0.12,0.83 v 7.26 h -3.81 z"
       id="path322"
       style="isolation:isolate" />
    <path
       class="cls-3"
       d="m 162.43,497 a 1.89,1.89 0 0 1 -2.05,1.9 1.91,1.91 0 1 1 2.05,-1.9 z m -3.92,15.63 v -12.24 h 3.81 v 12.24 z"
       id="path324"
       style="isolation:isolate" />
    <path
       class="cls-3"
       d="m 165.34,509.31 a 7.39,7.39 0 0 0 3.26,0.91 c 1.15,0 1.64,-0.38 1.64,-1 0,-0.62 -0.39,-0.94 -1.79,-1.41 -2.54,-0.84 -3.5,-2.22 -3.49,-3.66 0,-2.3 1.94,-4 5,-4 a 8,8 0 0 1 3.44,0.71 l -0.66,2.62 a 6.23,6.23 0 0 0 -2.65,-0.69 c -0.93,0 -1.46,0.37 -1.46,1 0,0.63 0.48,0.89 2,1.41 2.33,0.79 3.3,2 3.31,3.76 0,2.29 -1.78,4 -5.28,4 a 8.71,8.71 0 0 1 -4,-0.86 z"
       id="path326"
       style="isolation:isolate" />
    <path
       class="cls-3"
       d="m 180.45,496.9 v 3.49 h 2.74 v 2.81 h -2.74 v 4.43 c 0,1.48 0.37,2.16 1.5,2.16 a 5,5 0 0 0 1.13,-0.12 v 2.89 a 7.91,7.91 0 0 1 -2.46,0.33 4,4 0 0 1 -2.87,-1.06 5.06,5.06 0 0 1 -1.05,-3.63 v -5 h -1.62 v -2.81 h 1.62 v -2.63 z"
       id="path328"
       style="isolation:isolate" />
    <path
       class="cls-3"
       d="m 197.32,506.39 a 6.11,6.11 0 0 1 -6.44,6.51 6,6 0 0 1 -6.32,-6.3 c 0,-4 2.61,-6.48 6.54,-6.48 a 5.93,5.93 0 0 1 6.22,6.27 z m -8.84,0.12 c 0,2.09 0.88,3.67 2.5,3.67 1.62,0 2.43,-1.48 2.43,-3.69 0,-1.8 -0.7,-3.66 -2.42,-3.66 -1.72,0 -2.51,1.87 -2.51,3.68 z"
       id="path330"
       style="isolation:isolate" />
    <path
       class="cls-3"
       d="m 199.68,504.43 c 0,-1.8 0,-3 -0.1,-4 h 3.27 l 0.14,2.27 h 0.09 a 3.59,3.59 0 0 1 3.3,-2.54 3.43,3.43 0 0 1 0.82,0.07 v 3.58 a 4.27,4.27 0 0 0 -1,-0.11 2.45,2.45 0 0 0 -2.61,1.93 4.36,4.36 0 0 0 -0.07,0.85 v 6.19 h -3.81 z"
       id="path332"
       style="isolation:isolate" />
    <path
       class="cls-3"
       d="m 212.48,500.39 1.82,6 c 0.21,0.71 0.45,1.63 0.61,2.27 H 215 c 0.17,-0.66 0.37,-1.57 0.55,-2.28 l 1.5,-6 h 4.06 l -2.83,8.06 c -1.76,4.85 -2.93,6.79 -4.31,8 a 6.79,6.79 0 0 1 -3.66,1.67 l -0.82,-3.21 a 5.62,5.62 0 0 0 1.66,-0.64 4.31,4.31 0 0 0 1.56,-1.53 1,1 0 0 0 0.22,-0.55 1.67,1.67 0 0 0 -0.17,-0.63 l -4.48,-11.19 z"
       id="path334"
       style="isolation:isolate" />
    <path
       class="cls-3"
       d="m 222.05,515.54 a 19.55,19.55 0 0 0 2.53,-10.11 19.31,19.31 0 0 0 -2.53,-10.08 h 2.65 a 17.36,17.36 0 0 1 2.85,10.09 17.76,17.76 0 0 1 -2.85,10.1 z"
       id="path336"
       style="isolation:isolate" />
  </g>
  <g
     id="g3269"
     transform="translate(-20.346255,-0.442181)">
    <path
       class="cls-19"
       d="m 247.55,521.17 c 0,0 48.82,37.35 99.35,0 v -61.23 h -99.35 z"
       id="path280"
       style="isolation:isolate;fill:url(#linear-gradient-3)" />
    <ellipse
       class="cls-20"
       cx="297.23001"
       cy="459.94"
       rx="49.68"
       ry="20.200001"
       id="ellipse282"
       style="isolation:isolate;fill:url(#linear-gradient-4)" />
    <path
       class="cls-3"
       d="m 371.28,225.57 a 39.34,39.34 0 0 1 5.14,15.26 38.46,38.46 0 0 1 -1.48,16.06 16.71,16.71 0 0 1 -0.68,1.91 l -0.2,0.51 -0.19,0.47 -0.37,1 a 15.8,15.8 0 0 1 -0.88,1.86 c -0.24,-0.7 -0.48,-1.37 -0.75,-2 -0.27,-0.63 -0.61,-1.34 -0.93,-2 a 18,18 0 0 1 -0.78,1.87 c 0.64,1.63 1.24,3.36 1.78,5.2 1.75,-0.51 3.56,-1.13 5.41,-1.86 a 22.46,22.46 0 0 0 0.95,-2.26 c -0.7,0.34 -1.39,0.67 -2.08,1 -0.69,0.33 -1.46,0.55 -2.18,0.8 a 17.06,17.06 0 0 0 0.92,-1.93 l 0.39,-1 0.19,-0.5 0.21,-0.53 a 17.38,17.38 0 0 0 0.7,-2 39.93,39.93 0 0 0 1.55,-16.79 42.1,42.1 0 0 0 -1.86,-8.23 36.5,36.5 0 0 0 -3.53,-7.72 z"
       id="path338"
       style="isolation:isolate" />
    <path
       class="cls-3"
       d="m 366.58,396.69 a 58.31,58.31 0 0 1 2.77,6.87 c 0.42,1.17 0.78,2.36 1.12,3.55 0.34,1.19 0.67,2.4 1,3.61 a 83.26,83.26 0 0 1 2.27,14.73 81.41,81.41 0 0 1 -3.29,29.48 l -1.09,3.57 -0.29,0.77 -0.2,0.48 -0.38,1 -0.77,1.92 c -0.59,-1.37 -1.2,-2.71 -1.82,-4 l -0.79,2 q 1.14,2.49 2.21,5.14 2.55,-1 5.16,-2.22 l 0.87,-2.18 c -1.4,0.67 -2.79,1.29 -4.17,1.89 l 0.79,-2 0.39,-1 0.2,-0.49 0.3,-0.79 1.11,-3.63 a 83.21,83.21 0 0 0 3.35,-30.05 85.39,85.39 0 0 0 -2.31,-15 c -0.29,-1.23 -0.6,-2.46 -1,-3.67 -0.4,-1.21 -0.71,-2.43 -1.14,-3.63 A 59.56,59.56 0 0 0 368,396 Z"
       id="path340"
       style="isolation:isolate" />
    <path
       class="cls-3"
       d="m 370.21,151.62 a 32.1,32.1 0 0 1 7.25,15.14 27.45,27.45 0 0 1 -2.31,16.54 l -1,1.9 -0.29,0.48 -0.26,0.45 -0.52,0.88 c -0.37,0.57 -0.77,1.13 -1.15,1.7 a 31.74,31.74 0 0 0 -1.05,-4.22 c -0.33,0.58 -0.68,1.15 -1.07,1.7 a 38.49,38.49 0 0 1 0.94,5.4 41.31,41.31 0 0 0 5.65,-1 c 0.47,-0.67 0.9,-1.37 1.32,-2.09 a 35.85,35.85 0 0 1 -4.49,1.11 c 0.39,-0.59 0.81,-1.18 1.19,-1.78 l 0.55,-0.92 0.27,-0.46 0.3,-0.5 1,-2 a 29.05,29.05 0 0 0 2.46,-17.46 31.91,31.91 0 0 0 -2.76,-8.48 33.11,33.11 0 0 0 -4.89,-7.48 z"
       id="path342"
       style="isolation:isolate" />
    <path
       class="cls-3"
       d="m 371.83,299.56 a 40.91,40.91 0 0 1 2.67,7.44 48.58,48.58 0 0 1 0.28,23.73 16.06,16.06 0 0 1 -0.53,1.92 l -0.15,0.52 -0.16,0.49 -0.3,1 a 17.21,17.21 0 0 1 -0.71,1.93 c -0.31,-0.67 -0.58,-1.32 -0.94,-2 -0.36,-0.68 -0.71,-1.29 -1.07,-1.91 -0.21,0.65 -0.37,1.32 -0.63,2 q 1.17,2.37 2.24,5 c 1.7,-0.67 3.44,-1.45 5.22,-2.32 0.3,-0.75 0.49,-1.54 0.75,-2.31 -0.68,0.39 -1.35,0.77 -2,1.12 -0.65,0.35 -1.4,0.67 -2.08,1 a 16,16 0 0 0 0.73,-2 l 0.32,-1 0.15,-0.51 0.17,-0.53 a 18.81,18.81 0 0 0 0.54,-2 50,50 0 0 0 1.16,-16.39 52.12,52.12 0 0 0 -1.44,-8.12 42.85,42.85 0 0 0 -2.81,-7.8 z"
       id="path344"
       style="isolation:isolate" />
    <path
       class="cls-21"
       d="M 350.46,78.31 H 244.7 v 313.15 h 0.06 c -0.35,7.29 4.76,14.63 15.43,20.19 20.65,10.77 54.13,10.77 74.78,0 10.33,-5.39 15.49,-12.44 15.49,-19.5 v 0 z"
       id="path346"
       style="isolation:isolate;fill:url(#radial-gradient-11)" />
    <path
       class="cls-22"
       d="m 349.48,137.48 c 0,43.68 -7.87,182 -51.55,182 -43.68,0 -54.22,-115.51 -54.22,-159.18 0,-43.67 3.78,-92.19 47.45,-92.19 43.67,0 58.32,25.69 58.32,69.37 z"
       id="path348"
       style="isolation:isolate;fill:url(#_%C3%82%C3%81_%C3%8F_%C3%8C%C3%8C_%C3%88_%C3%8B%C3%82%C3%8C%C3%9A_126-2)" />
    <ellipse
       class="cls-23"
       cx="297.23001"
       cy="377.45999"
       rx="130.7"
       ry="75.459999"
       id="ellipse350"
       style="isolation:isolate;fill:url(#radial-gradient-12)" />
    <ellipse
       class="cls-9"
       cx="297.82001"
       cy="391.19"
       rx="52.880001"
       ry="30.530001"
       id="ellipse352"
       style="isolation:isolate" />
    <g
       class="cls-10"
       id="g358"
       style="isolation:isolate">
      <path
         class="cls-24"
         d="m 334.31,337.34 c -10.22,-5.08 -23.66,-7.61 -37.09,-7.61 -13.43,0 -26.86,2.53 -37.09,7.61 -9.79,4.86 -15.13,11.29 -15.13,18.11 0,6.82 5.39,13.25 15.18,18.1 20.46,10.16 53.73,10.15 74.18,0 9.8,-4.85 15.19,-11.28 15.19,-18.1 0,-6.82 -5.44,-13.25 -15.24,-18.11 z"
         id="path354"
         style="fill:url(#radial-gradient-13);stroke:url(#radial-gradient-14)" />
      <path
         class="cls-12"
         d="m 334.92,336.43 c -20.79,-10.31 -54.61,-10.31 -75.4,0 -10.18,5.06 -15.79,11.81 -15.79,19 0,4.13 1.84,8.1 5.33,11.69 5.95,8.59 20.59,24.05 48.87,24.05 a 56.83,56.83 0 0 0 46.87,-23.46 c 3.87,-3.74 5.92,-7.93 5.92,-12.28 0,-7.18 -5.61,-13.94 -15.8,-19 z m -0.61,37.12 c -20.45,10.15 -53.72,10.16 -74.18,0 -9.79,-4.85 -15.18,-11.29 -15.18,-18.1 0,-6.81 5.39,-13.25 15.18,-18.11 10.23,-5.08 23.66,-7.61 37.09,-7.61 13.43,0 26.87,2.53 37.09,7.61 9.8,4.86 15.19,11.29 15.19,18.11 0,6.82 -5.39,13.25 -15.19,18.1 z"
         id="path356" />
    </g>
    <g
       class="cls-13"
       id="g364"
       style="isolation:isolate">
      <path
         class="cls-25"
         d="m 334.31,265.6 c -10.22,-5.07 -23.66,-7.61 -37.09,-7.61 -13.43,0 -26.86,2.54 -37.09,7.61 -9.79,4.87 -15.18,11.3 -15.18,18.11 0,6.81 5.39,13.25 15.18,18.11 20.46,10.15 53.73,10.14 74.18,0 9.8,-4.86 15.19,-11.29 15.19,-18.11 0,-6.82 -5.39,-13.24 -15.19,-18.11 z"
         id="path360"
         style="fill:url(#radial-gradient-15);stroke:url(#radial-gradient-16)" />
      <path
         class="cls-12"
         d="m 334.92,264.7 c -20.79,-10.32 -54.61,-10.32 -75.4,0 -10.18,5.05 -15.79,11.8 -15.79,19 0,4.13 1.84,8.1 5.33,11.7 5.95,8.58 20.59,24 48.87,24 A 56.83,56.83 0 0 0 344.8,296 c 3.87,-3.74 5.92,-7.93 5.92,-12.28 0,-7.21 -5.61,-13.97 -15.8,-19.02 z m -0.61,37.12 c -20.45,10.14 -53.72,10.15 -74.18,0 C 250.34,297 245,290.52 245,283.71 c 0,-6.81 5.39,-13.24 15.18,-18.11 10.23,-5.07 23.66,-7.61 37.09,-7.61 13.43,0 26.87,2.54 37.09,7.61 9.8,4.87 15.19,11.3 15.19,18.11 0,6.81 -5.44,13.29 -15.24,18.11 z"
         id="path362" />
    </g>
    <g
       class="cls-15"
       id="g370"
       style="isolation:isolate">
      <path
         class="cls-26"
         d="m 334.31,193.87 c -10.22,-5.08 -23.66,-7.61 -37.09,-7.61 -13.43,0 -26.86,2.53 -37.09,7.61 -9.79,4.86 -15.13,11.29 -15.13,18.13 0,6.84 5.39,13.25 15.18,18.1 20.46,10.16 53.73,10.15 74.18,0 9.8,-4.85 15.19,-11.28 15.19,-18.1 0,-6.82 -5.44,-13.27 -15.24,-18.13 z"
         id="path366"
         style="fill:url(#radial-gradient-17);stroke:url(#radial-gradient-18)" />
      <path
         class="cls-12"
         d="m 334.92,193 c -20.79,-10.31 -54.61,-10.31 -75.4,0 -10.18,5.06 -15.79,11.81 -15.79,19 0,4.13 1.84,8.1 5.33,11.69 5.95,8.59 20.59,24.05 48.87,24.05 a 56.83,56.83 0 0 0 46.87,-23.46 c 3.87,-3.74 5.92,-7.93 5.92,-12.28 0,-7.23 -5.61,-14 -15.8,-19 z m -0.61,37.12 c -20.45,10.15 -53.72,10.16 -74.18,0 C 250.34,225.23 245,218.79 245,212 c 0,-6.79 5.39,-13.25 15.18,-18.11 10.23,-5.08 23.66,-7.61 37.09,-7.61 13.43,0 26.87,2.53 37.09,7.61 9.8,4.86 15.19,11.29 15.19,18.11 0,6.82 -5.44,13.23 -15.24,18.08 z"
         id="path368" />
    </g>
    <g
       class="cls-17"
       id="g376"
       style="isolation:isolate">
      <path
         class="cls-27"
         d="m 334.29,114.28 c -10.22,-5.08 -23.66,-7.61 -37.09,-7.61 -13.43,0 -26.86,2.53 -37.09,7.61 -9.79,4.86 -15.18,11.29 -15.18,18.11 0,6.82 5.39,13.25 15.18,18.11 20.46,10.15 53.73,10.14 74.18,0 9.8,-4.86 15.19,-11.29 15.19,-18.11 0,-6.82 -5.39,-13.25 -15.19,-18.11 z"
         id="path372"
         style="fill:url(#radial-gradient-19);stroke:url(#radial-gradient-20)" />
      <path
         class="cls-12"
         d="m 334.9,113.37 c -20.79,-10.31 -54.61,-10.31 -75.4,0 -10.18,5.06 -15.79,11.81 -15.79,19 0,4.13 1.84,8.1 5.33,11.69 6,8.59 20.59,24 48.87,24 a 56.83,56.83 0 0 0 46.87,-23.46 c 3.87,-3.74 5.92,-7.93 5.92,-12.28 0,-7.13 -5.61,-13.89 -15.8,-18.95 z m -0.61,37.13 c -20.45,10.14 -53.72,10.15 -74.18,0 -9.79,-4.86 -15.18,-11.3 -15.18,-18.11 0,-6.81 5.39,-13.25 15.18,-18.11 10.23,-5.08 23.66,-7.61 37.09,-7.61 13.43,0 26.87,2.53 37.09,7.61 9.8,4.86 16.41,11.29 16.41,18.11 0,6.82 -6.61,13.25 -16.41,18.11 z"
         id="path374" />
    </g>
    <path
       class="cls-3"
       d="m 166.77,124.6 v 14.09 c 0,1.39 0,2.84 0.1,3.66 h -3.38 l -0.16,-1.8 h -0.05 a 4.26,4.26 0 0 1 -3.83,2.07 c -2.89,0 -5.23,-2.48 -5.23,-6.28 0,-4.11 2.57,-6.5 5.48,-6.5 a 3.73,3.73 0 0 1 3.22,1.38 H 163 V 124.6 Z M 163,135.31 a 3.94,3.94 0 0 0 -0.05,-0.69 2.27,2.27 0 0 0 -2.21,-1.86 c -1.74,0 -2.62,1.54 -2.62,3.47 0,1.93 1,3.36 2.59,3.36 a 2.25,2.25 0 0 0 2.2,-1.82 3.44,3.44 0 0 0 0.09,-0.86 z"
       id="path378"
       style="isolation:isolate" />
    <path
       class="cls-3"
       d="m 172.75,137.45 c 0.12,1.58 1.68,2.33 3.45,2.33 a 10.1,10.1 0 0 0 3.37,-0.52 l 0.51,2.58 a 12,12 0 0 1 -4.43,0.77 c -4.15,0 -6.53,-2.42 -6.53,-6.23 0,-3.11 1.94,-6.54 6.17,-6.54 4,0 5.46,3.08 5.46,6.11 a 7.9,7.9 0 0 1 -0.13,1.5 z m 4.47,-2.6 a 2.21,2.21 0 0 0 -2.13,-2.48 2.53,2.53 0 0 0 -2.37,2.48 z"
       id="path380"
       style="isolation:isolate" />
    <path
       class="cls-3"
       d="m 182.92,142.35 c 0.05,-0.81 0.1,-2.27 0.1,-3.66 V 124.6 h 3.81 v 7 0 a 4.32,4.32 0 0 1 3.7,-1.73 c 2.94,0 5.07,2.43 5,6.17 0,4.41 -2.79,6.61 -5.59,6.61 a 4,4 0 0 1 -3.66,-2 h -0.05 l -0.16,1.71 z m 3.91,-5.2 a 3.4,3.4 0 0 0 0.06,0.67 2.32,2.32 0 0 0 2.24,1.81 c 1.62,0 2.62,-1.26 2.62,-3.45 0,-1.91 -0.85,-3.41 -2.61,-3.41 a 2.34,2.34 0 0 0 -2.24,1.88 3.14,3.14 0 0 0 -0.07,0.7 z"
       id="path382"
       style="isolation:isolate" />
    <path
       class="cls-3"
       d="m 201.89,126.72 a 2,2 0 1 1 -2,-1.91 1.89,1.89 0 0 1 2,1.91 z M 198,142.35 v -12.24 h 3.81 v 12.24 z"
       id="path384"
       style="isolation:isolate" />
    <path
       class="cls-3"
       d="m 209.06,126.62 v 3.49 h 2.74 v 2.81 h -2.74 v 4.43 c 0,1.48 0.37,2.16 1.5,2.16 a 5,5 0 0 0 1.13,-0.12 v 2.89 a 8,8 0 0 1 -2.47,0.33 4,4 0 0 1 -2.86,-1.06 5,5 0 0 1 -1.06,-3.63 v -5 h -1.62 v -2.81 h 1.62 v -2.63 z"
       id="path386"
       style="isolation:isolate" />
    <path
       class="cls-3"
       d="m 158.48,216.73 a 9.12,9.12 0 0 1 -3.41,0.57 c -3.95,0 -6.47,-2.42 -6.47,-6.27 0,-3.57 2.45,-6.5 7,-6.5 a 8.83,8.83 0 0 1 2.91,0.49 l -0.6,2.82 a 5.13,5.13 0 0 0 -2.12,-0.39 3.44,3.44 0 0 0 0.06,6.87 5.6,5.6 0 0 0 2.19,-0.4 z"
       id="path388"
       style="isolation:isolate" />
    <path
       class="cls-3"
       d="m 160.57,208.83 c 0,-1.79 0,-3 -0.1,-4 h 3.27 l 0.14,2.26 H 164 a 3.59,3.59 0 0 1 3.3,-2.54 3,3 0 0 1 0.82,0.08 v 3.57 a 4.92,4.92 0 0 0 -1,-0.11 2.46,2.46 0 0 0 -2.61,1.94 4.25,4.25 0 0 0 -0.07,0.84 V 217 h -3.81 z"
       id="path390"
       style="isolation:isolate" />
    <path
       class="cls-3"
       d="m 172.8,212.14 c 0.12,1.58 1.68,2.33 3.45,2.33 a 10.37,10.37 0 0 0 3.37,-0.52 l 0.51,2.57 a 11.79,11.79 0 0 1 -4.43,0.78 c -4.15,0 -6.53,-2.42 -6.53,-6.23 0,-3.11 1.94,-6.55 6.17,-6.55 4,0 5.46,3.09 5.46,6.11 a 7.94,7.94 0 0 1 -0.13,1.51 z m 4.47,-2.61 a 2.21,2.21 0 0 0 -2.13,-2.48 2.53,2.53 0 0 0 -2.37,2.48 z"
       id="path392"
       style="isolation:isolate" />
    <path
       class="cls-3"
       d="m 194.92,199.29 v 14.09 c 0,1.39 0.05,2.83 0.1,3.65 h -3.38 l -0.16,-1.79 v 0 a 4.28,4.28 0 0 1 -3.83,2.07 c -2.89,0 -5.23,-2.48 -5.23,-6.28 0,-4.11 2.57,-6.51 5.48,-6.51 a 3.71,3.71 0 0 1 3.22,1.39 h 0.05 v -6.62 z m -3.8,10.7 a 4.08,4.08 0 0 0 -0.05,-0.69 2.27,2.27 0 0 0 -2.21,-1.86 c -1.74,0 -2.62,1.55 -2.62,3.48 0,1.93 1,3.36 2.59,3.36 a 2.24,2.24 0 0 0 2.2,-1.83 3.34,3.34 0 0 0 0.09,-0.86 z"
       id="path394"
       style="isolation:isolate" />
    <path
       class="cls-3"
       d="m 201.89,201.4 a 1.89,1.89 0 0 1 -2,1.9 1.9,1.9 0 1 1 2,-1.9 z M 198,217 v -12.2 h 3.81 V 217 Z"
       id="path396"
       style="isolation:isolate" />
    <path
       class="cls-3"
       d="m 209.06,201.31 v 3.49 h 2.74 v 2.8 h -2.74 v 4.4 c 0,1.47 0.37,2.15 1.5,2.15 a 5.14,5.14 0 0 0 1.13,-0.11 v 2.89 a 7.86,7.86 0 0 1 -2.46,0.33 4,4 0 0 1 -2.87,-1.07 5,5 0 0 1 -1,-3.62 v -5 h -1.62 v -2.8 h 1.62 v -2.63 z"
       id="path398"
       style="isolation:isolate" />
    <path
       class="cls-3"
       d="m 130.16,276.44 v 3.49 h 2.74 v 2.8 h -2.74 v 4.43 c 0,1.48 0.37,2.16 1.51,2.16 a 5.21,5.21 0 0 0 1.13,-0.11 v 2.89 a 8.32,8.32 0 0 1 -2.47,0.32 4,4 0 0 1 -2.86,-1.06 5,5 0 0 1 -1.06,-3.63 v -5 h -1.62 v -2.8 h 1.62 v -2.63 z"
       id="path400"
       style="isolation:isolate" />
    <path
       class="cls-3"
       d="m 135.1,284 c 0,-1.8 0,-3 -0.1,-4 h 3.26 l 0.14,2.26 h 0.1 a 3.58,3.58 0 0 1 3.3,-2.54 3.35,3.35 0 0 1 0.81,0.07 v 3.58 a 4.77,4.77 0 0 0 -1,-0.11 2.44,2.44 0 0 0 -2.6,1.93 4.36,4.36 0 0 0 -0.07,0.85 v 6.19 h -3.84 z"
       id="path402"
       style="isolation:isolate" />
    <path
       class="cls-3"
       d="m 151.28,292.16 -0.22,-1.22 H 151 a 4.37,4.37 0 0 1 -3.49,1.49 3.73,3.73 0 0 1 -4,-3.74 c 0,-3.18 2.85,-4.7 7.18,-4.69 v -0.16 c 0,-0.65 -0.35,-1.58 -2.24,-1.57 a 7,7 0 0 0 -3.37,0.91 l -0.7,-2.43 a 9.84,9.84 0 0 1 4.75,-1.1 c 4.08,0 5.36,2.41 5.36,5.28 v 4.27 a 18,18 0 0 0 0.2,3 z m -0.46,-5.79 c -2,0 -3.54,0.48 -3.54,1.93 a 1.37,1.37 0 0 0 1.51,1.47 2.06,2.06 0 0 0 2,-1.41 2.32,2.32 0 0 0 0.07,-0.65 z"
       id="path404"
       style="isolation:isolate" />
    <path
       class="cls-3"
       d="m 157.52,283.83 c 0,-1.52 0,-2.81 -0.1,-3.9 h 3.3 l 0.18,1.69 h 0.1 a 4.42,4.42 0 0 1 3.78,-2 c 2.5,0 4.38,1.67 4.38,5.27 v 7.24 h -3.81 v -6.78 c 0,-1.58 -0.56,-2.66 -1.94,-2.66 a 2.05,2.05 0 0 0 -1.92,1.44 2.66,2.66 0 0 0 -0.14,0.94 v 7.06 h -3.81 z"
       id="path406"
       style="isolation:isolate" />
    <path
       class="cls-3"
       d="m 172.16,288.85 a 7.45,7.45 0 0 0 3.26,0.91 c 1.15,0 1.64,-0.39 1.64,-1 0,-0.61 -0.39,-0.94 -1.8,-1.41 -2.54,-0.84 -3.5,-2.22 -3.48,-3.66 0,-2.29 1.94,-4 5,-4 a 8.25,8.25 0 0 1 3.45,0.71 l -0.67,2.62 a 6.19,6.19 0 0 0 -2.65,-0.69 c -0.92,0 -1.46,0.37 -1.46,1 0,0.63 0.49,0.89 2,1.41 2.32,0.79 3.29,2 3.31,3.77 0,2.28 -1.78,4 -5.29,4 a 8.74,8.74 0 0 1 -4,-0.86 z"
       id="path408"
       style="isolation:isolate" />
    <path
       class="cls-3"
       d="m 183.46,292.16 v -9.43 h -1.61 v -2.8 h 1.61 v -0.47 a 5.63,5.63 0 0 1 1.54,-4.1 5,5 0 0 1 3.39,-1.22 7.27,7.27 0 0 1 2,0.26 l -0.15,2.92 a 3.81,3.81 0 0 0 -1.23,-0.18 c -1.25,0 -1.78,1 -1.78,2.17 v 0.62 h 2.45 v 2.8 h -2.42 v 9.43 z"
       id="path410"
       style="isolation:isolate" />
    <path
       class="cls-3"
       d="m 194.23,287.27 c 0.11,1.57 1.67,2.32 3.45,2.32 a 10.31,10.31 0 0 0 3.36,-0.51 l 0.52,2.57 a 12,12 0 0 1 -4.44,0.77 c -4.14,0 -6.52,-2.41 -6.52,-6.22 0,-3.11 1.94,-6.55 6.17,-6.55 4,0 5.46,3.08 5.46,6.11 a 7.17,7.17 0 0 1 -0.14,1.51 z m 4.46,-2.61 a 2.2,2.2 0 0 0 -2.13,-2.48 2.51,2.51 0 0 0 -2.36,2.48 z"
       id="path412"
       style="isolation:isolate" />
    <path
       class="cls-3"
       d="m 204.5,284 c 0,-1.8 0,-3 -0.1,-4 h 3.27 l 0.13,2.26 h 0.1 a 3.58,3.58 0 0 1 3.3,-2.54 3.35,3.35 0 0 1 0.81,0.07 v 3.58 a 4.77,4.77 0 0 0 -1,-0.11 2.44,2.44 0 0 0 -2.6,1.93 4.36,4.36 0 0 0 -0.07,0.85 v 6.19 h -3.84 z"
       id="path414"
       style="isolation:isolate" />
    <path
       class="cls-3"
       d="m 166.77,347 v 14.09 c 0,1.39 0,2.84 0.1,3.66 h -3.38 l -0.16,-1.8 h -0.05 a 4.26,4.26 0 0 1 -3.83,2.07 c -2.89,0 -5.23,-2.48 -5.23,-6.28 0,-4.11 2.57,-6.5 5.48,-6.5 a 3.7,3.7 0 0 1 3.22,1.38 H 163 V 347 Z m -3.8,10.7 a 4.08,4.08 0 0 0 -0.05,-0.69 2.26,2.26 0 0 0 -2.21,-1.85 c -1.74,0 -2.62,1.54 -2.62,3.47 0,1.93 1,3.36 2.59,3.36 a 2.26,2.26 0 0 0 2.21,-1.82 4,4 0 0 0 0.08,-0.87 z"
       id="path416"
       style="isolation:isolate" />
    <path
       class="cls-3"
       d="m 172.75,359.82 c 0.12,1.58 1.68,2.33 3.45,2.33 a 10.1,10.1 0 0 0 3.37,-0.52 l 0.51,2.57 a 11.79,11.79 0 0 1 -4.43,0.78 c -4.15,0 -6.53,-2.42 -6.53,-6.23 0,-3.11 1.94,-6.54 6.17,-6.54 4,0 5.46,3.08 5.46,6.11 a 7.9,7.9 0 0 1 -0.13,1.5 z m 4.47,-2.6 a 2.21,2.21 0 0 0 -2.13,-2.48 2.52,2.52 0 0 0 -2.37,2.48 z"
       id="path418"
       style="isolation:isolate" />
    <path
       class="cls-3"
       d="m 182.92,364.72 c 0.05,-0.81 0.1,-2.27 0.1,-3.66 V 347 h 3.81 v 7 0 a 4.28,4.28 0 0 1 3.69,-1.73 c 2.94,0 5.07,2.43 5,6.17 0,4.41 -2.79,6.61 -5.59,6.61 a 4,4 0 0 1 -3.66,-2 h -0.05 l -0.16,1.71 z m 3.91,-5.2 a 3.4,3.4 0 0 0 0.06,0.67 2.32,2.32 0 0 0 2.24,1.81 c 1.62,0 2.62,-1.26 2.62,-3.46 0,-1.9 -0.85,-3.4 -2.61,-3.4 a 2.34,2.34 0 0 0 -2.24,1.86 3.77,3.77 0 0 0 -0.07,0.7 z"
       id="path420"
       style="isolation:isolate" />
    <path
       class="cls-3"
       d="m 201.89,349.09 a 1.89,1.89 0 0 1 -2,1.9 1.91,1.91 0 1 1 2,-1.9 z M 198,364.72 v -12.24 h 3.81 v 12.24 z"
       id="path422"
       style="isolation:isolate" />
    <path
       class="cls-3"
       d="m 209.06,349 v 3.49 h 2.74 v 2.81 h -2.74 v 4.43 c 0,1.47 0.37,2.15 1.5,2.15 a 5.25,5.25 0 0 0 1.14,-0.11 v 2.89 a 8,8 0 0 1 -2.47,0.33 4,4 0 0 1 -2.86,-1.06 5,5 0 0 1 -1.06,-3.63 v -5 h -1.62 v -2.81 h 1.62 v -2.63 z"
       id="path424"
       style="isolation:isolate" />
    <path
       class="cls-3"
       d="m 402.89,175.85 v -9.43 h -1.62 v -2.81 h 1.62 v -0.46 a 5.63,5.63 0 0 1 1.54,-4.1 4.91,4.91 0 0 1 3.38,-1.23 7.76,7.76 0 0 1 2,0.26 l -0.16,2.92 a 4.14,4.14 0 0 0 -1.23,-0.17 c -1.25,0 -1.77,1 -1.77,2.16 v 0.62 h 2.45 v 2.81 h -2.4 v 9.43 z"
       id="path426"
       style="isolation:isolate" />
    <path
       class="cls-3"
       d="m 422.79,169.61 a 6.12,6.12 0 0 1 -6.45,6.51 6,6 0 0 1 -6.32,-6.3 c 0,-3.95 2.61,-6.48 6.54,-6.48 a 5.94,5.94 0 0 1 6.23,6.27 z m -8.85,0.12 c 0,2.09 0.89,3.67 2.51,3.67 1.62,0 2.42,-1.48 2.42,-3.69 0,-1.8 -0.7,-3.66 -2.42,-3.66 -1.72,0 -2.51,1.87 -2.51,3.68 z"
       id="path428"
       style="isolation:isolate" />
    <path
       class="cls-3"
       d="M 425.15,158.1 H 429 v 17.75 h -3.81 z"
       id="path430"
       style="isolation:isolate" />
    <path
       class="cls-3"
       d="m 443.87,158.1 v 14.09 c 0,1.39 0.05,2.84 0.1,3.66 h -3.38 l -0.16,-1.8 h -0.05 a 4.26,4.26 0 0 1 -3.83,2.07 c -2.89,0 -5.23,-2.48 -5.23,-6.28 0,-4.11 2.57,-6.5 5.48,-6.5 a 3.7,3.7 0 0 1 3.22,1.38 h 0.05 v -6.62 z m -3.8,10.7 a 4.08,4.08 0 0 0 -0.05,-0.69 2.26,2.26 0 0 0 -2.21,-1.85 c -1.74,0 -2.62,1.54 -2.62,3.47 0,1.93 1,3.36 2.59,3.36 a 2.24,2.24 0 0 0 2.2,-1.82 3.47,3.47 0 0 0 0.09,-0.87 z"
       id="path432"
       style="isolation:isolate" />
    <path
       class="cls-3"
       d="m 402.89,253 v -9.43 h -1.62 v -2.8 h 1.62 v -0.47 a 5.63,5.63 0 0 1 1.54,-4.1 4.94,4.94 0 0 1 3.38,-1.22 7.35,7.35 0 0 1 2,0.26 l -0.16,2.92 a 3.81,3.81 0 0 0 -1.23,-0.18 c -1.25,0 -1.77,1 -1.77,2.16 v 0.63 h 2.45 v 2.8 h -2.4 V 253 Z"
       id="path436"
       style="isolation:isolate" />
    <path
       class="cls-3"
       d="m 422.79,246.75 a 6.12,6.12 0 0 1 -6.45,6.51 A 6,6 0 0 1 410,247 c 0,-4 2.61,-6.48 6.54,-6.48 a 5.94,5.94 0 0 1 6.25,6.23 z m -8.85,0.12 c 0,2.09 0.89,3.68 2.51,3.68 1.62,0 2.42,-1.49 2.42,-3.69 0,-1.81 -0.7,-3.66 -2.42,-3.66 -1.72,0 -2.51,1.86 -2.51,3.67 z"
       id="path438"
       style="isolation:isolate" />
    <path
       class="cls-3"
       d="M 425.15,235.24 H 429 V 253 h -3.81 z"
       id="path440"
       style="isolation:isolate" />
    <path
       class="cls-3"
       d="m 443.87,235.24 v 14.09 c 0,1.39 0.05,2.84 0.1,3.66 h -3.38 l -0.16,-1.79 h -0.05 a 4.27,4.27 0 0 1 -3.83,2.06 c -2.89,0 -5.23,-2.47 -5.23,-6.28 0,-4.11 2.57,-6.5 5.48,-6.5 a 3.73,3.73 0 0 1 3.22,1.38 h 0.05 v -6.62 z m -3.8,10.76 a 4.08,4.08 0 0 0 -0.05,-0.69 2.27,2.27 0 0 0 -2.21,-1.86 c -1.74,0 -2.62,1.54 -2.62,3.47 0,1.93 1,3.36 2.59,3.36 a 2.24,2.24 0 0 0 2.2,-1.82 3.39,3.39 0 0 0 0.09,-0.86 z"
       id="path442"
       style="isolation:isolate" />
    <path
       class="cls-3"
       d="m 402.89,330.13 v -9.43 h -1.62 v -2.8 h 1.62 v -0.46 a 5.65,5.65 0 0 1 1.54,-4.11 4.94,4.94 0 0 1 3.38,-1.22 7.35,7.35 0 0 1 2,0.26 l -0.16,2.92 a 4.1,4.1 0 0 0 -1.23,-0.18 c -1.25,0 -1.77,1 -1.77,2.17 v 0.62 h 2.45 v 2.8 h -2.4 v 9.43 z"
       id="path446"
       style="isolation:isolate" />
    <path
       class="cls-3"
       d="m 422.79,323.89 a 6.13,6.13 0 0 1 -6.45,6.52 6,6 0 0 1 -6.34,-6.31 c 0,-3.94 2.61,-6.48 6.54,-6.48 a 5.94,5.94 0 0 1 6.25,6.27 z m -8.85,0.13 c 0,2.09 0.89,3.67 2.51,3.67 1.62,0 2.42,-1.48 2.42,-3.69 0,-1.8 -0.7,-3.66 -2.42,-3.66 -1.72,0 -2.51,1.87 -2.51,3.66 z"
       id="path448"
       style="isolation:isolate" />
    <path
       class="cls-3"
       d="M 425.15,312.39 H 429 v 17.74 h -3.81 z"
       id="path450"
       style="isolation:isolate" />
    <path
       class="cls-3"
       d="m 443.87,312.39 v 14.09 c 0,1.39 0.05,2.83 0.1,3.65 h -3.38 l -0.16,-1.79 h -0.05 a 4.28,4.28 0 0 1 -3.83,2.07 c -2.89,0 -5.23,-2.48 -5.23,-6.28 0,-4.11 2.57,-6.51 5.48,-6.51 A 3.71,3.71 0 0 1 440,319 h 0.05 v -6.62 z m -3.8,10.7 a 4.08,4.08 0 0 0 -0.05,-0.69 2.27,2.27 0 0 0 -2.21,-1.86 c -1.74,0 -2.62,1.55 -2.62,3.48 0,1.93 1,3.36 2.59,3.36 a 2.24,2.24 0 0 0 2.2,-1.83 3.34,3.34 0 0 0 0.09,-0.86 z"
       id="path452"
       style="isolation:isolate" />
    <path
       class="cls-3"
       d="m 402.89,439.18 v -9.43 h -1.62 v -2.81 h 1.62 v -0.46 a 5.63,5.63 0 0 1 1.54,-4.1 4.91,4.91 0 0 1 3.38,-1.23 7.76,7.76 0 0 1 2,0.26 l -0.16,2.92 a 4.14,4.14 0 0 0 -1.23,-0.17 c -1.25,0 -1.77,1 -1.77,2.16 v 0.62 h 2.45 v 2.81 h -2.4 v 9.43 z"
       id="path456"
       style="isolation:isolate" />
    <path
       class="cls-3"
       d="m 422.79,432.94 a 6.12,6.12 0 0 1 -6.45,6.51 6,6 0 0 1 -6.32,-6.3 c 0,-3.95 2.61,-6.48 6.54,-6.48 a 5.94,5.94 0 0 1 6.23,6.27 z m -8.85,0.12 c 0,2.09 0.89,3.67 2.51,3.67 1.62,0 2.42,-1.48 2.42,-3.69 0,-1.8 -0.7,-3.66 -2.42,-3.66 -1.72,0 -2.51,1.87 -2.51,3.68 z"
       id="path458"
       style="isolation:isolate" />
    <path
       class="cls-3"
       d="M 425.15,421.43 H 429 v 17.75 h -3.81 z"
       id="path460"
       style="isolation:isolate" />
    <path
       class="cls-3"
       d="m 443.87,421.43 v 14.09 c 0,1.39 0.05,2.84 0.1,3.66 h -3.38 l -0.16,-1.8 h -0.05 a 4.26,4.26 0 0 1 -3.83,2.07 c -2.89,0 -5.23,-2.48 -5.23,-6.28 0,-4.11 2.57,-6.5 5.48,-6.5 a 3.7,3.7 0 0 1 3.22,1.38 h 0.05 v -6.62 z m -3.8,10.7 a 4.08,4.08 0 0 0 -0.05,-0.69 2.26,2.26 0 0 0 -2.21,-1.85 c -1.74,0 -2.62,1.54 -2.62,3.47 0,1.93 1,3.36 2.59,3.36 a 2.24,2.24 0 0 0 2.2,-1.82 3.47,3.47 0 0 0 0.09,-0.87 z"
       id="path462"
       style="isolation:isolate" />
  </g>
</svg>
