<svg xmlns="http://www.w3.org/2000/svg" xmlns:xlink="http://www.w3.org/1999/xlink" viewBox="0 0 579.37 907.79"><defs><style>.cls-1{isolation:isolate;}.cls-2{fill:url(#_ÂÁ_Ï_ÌÌ_È_ËÂÌÚ_60);}.cls-3{mix-blend-mode:lighten;opacity:0.5;fill:url(#_ÂÁ_Ï_ÌÌ_È_ËÂÌÚ_138);}.cls-4{fill:#53a5f8;}.cls-5{fill:url(#linear-gradient);}.cls-6{fill:#4a78a0;}.cls-7{fill:#a7f4fe;}.cls-8{fill:#fff;}.cls-9{opacity:0.8;}.cls-10,.cls-14,.cls-15,.cls-16,.cls-17,.cls-18,.cls-19,.cls-20{stroke-miterlimit:10;}.cls-10{fill:url(#radial-gradient);stroke:url(#radial-gradient-2);}.cls-11{fill:#31a200;}.cls-12{fill:#231f20;}.cls-13{fill:#666;}.cls-14{fill:url(#radial-gradient-3);stroke:url(#radial-gradient-4);}.cls-15{fill:url(#radial-gradient-5);stroke:url(#radial-gradient-6);}.cls-16{fill:url(#radial-gradient-7);stroke:url(#radial-gradient-8);}.cls-17{fill:url(#radial-gradient-9);stroke:url(#radial-gradient-10);}.cls-18{fill:url(#radial-gradient-11);stroke:url(#radial-gradient-12);}.cls-19{fill:url(#radial-gradient-13);stroke:url(#radial-gradient-14);}.cls-20{fill:url(#radial-gradient-15);stroke:url(#radial-gradient-16);}</style><radialGradient id="_ÂÁ_Ï_ÌÌ_È_ËÂÌÚ_60" cx="402.97" cy="-106.69" r="2423.64" gradientTransform="translate(0 1302.51) scale(1 2.71)" gradientUnits="userSpaceOnUse"><stop offset="0" stop-color="#31024a"/><stop offset="1" stop-color="#2a023f"/></radialGradient><radialGradient id="_ÂÁ_Ï_ÌÌ_È_ËÂÌÚ_138" cx="472.63" cy="718.77" r="334.94" gradientTransform="translate(0 -1099.66) scale(1 2.55)" gradientUnits="userSpaceOnUse"><stop offset="0" stop-color="#fe4dfe"/><stop offset="0.22" stop-color="#3874da"/><stop offset="0.26" stop-color="#3c7cdf"/><stop offset="0.44" stop-color="#53a5f8"/><stop offset="0.5" stop-color="#4c88d7"/><stop offset="0.58" stop-color="#435fab"/><stop offset="0.67" stop-color="#3b3d86"/><stop offset="0.75" stop-color="#352369"/><stop offset="0.84" stop-color="#301154"/><stop offset="0.92" stop-color="#2e0648"/><stop offset="1" stop-color="#2d0244"/></radialGradient><linearGradient id="linear-gradient" x1="30.53" y1="844.87" x2="70.05" y2="844.87" gradientUnits="userSpaceOnUse"><stop offset="0" stop-color="#4a78a0"/><stop offset="0.09" stop-color="#4a6fa0"/><stop offset="0.49" stop-color="#4a47a0"/><stop offset="0.8" stop-color="#4a2fa0"/><stop offset="1" stop-color="#4a26a0"/></linearGradient><radialGradient id="radial-gradient" cx="473.25" cy="616.58" r="45.29" gradientTransform="translate(0 308.29) scale(1 0.5)" gradientUnits="userSpaceOnUse"><stop offset="0" stop-color="#3e068d"/><stop offset="0.85" stop-color="#2a023f"/></radialGradient><radialGradient id="radial-gradient-2" cx="473.25" cy="616.58" r="45.76" gradientTransform="matrix(1, 0, 0, 1, 0, 0)" xlink:href="#_ÂÁ_Ï_ÌÌ_È_ËÂÌÚ_60"/><radialGradient id="radial-gradient-3" cx="473.25" cy="379.99" r="45.29" gradientTransform="translate(0 190) scale(1 0.5)" xlink:href="#radial-gradient"/><radialGradient id="radial-gradient-4" cx="473.25" cy="379.99" r="45.76" gradientTransform="matrix(1, 0, 0, 1, 0, 0)" xlink:href="#_ÂÁ_Ï_ÌÌ_È_ËÂÌÚ_60"/><radialGradient id="radial-gradient-5" cx="473.25" cy="301.13" r="45.29" gradientTransform="translate(0 150.57) scale(1 0.5)" xlink:href="#radial-gradient"/><radialGradient id="radial-gradient-6" cx="473.25" cy="301.13" r="45.76" gradientTransform="matrix(1, 0, 0, 1, 0, 0)" xlink:href="#_ÂÁ_Ï_ÌÌ_È_ËÂÌÚ_60"/><radialGradient id="radial-gradient-7" cx="473.25" cy="222.27" r="45.29" gradientTransform="translate(0 111.13) scale(1 0.5)" xlink:href="#radial-gradient"/><radialGradient id="radial-gradient-8" cx="473.25" cy="222.27" r="45.76" gradientTransform="matrix(1, 0, 0, 1, 0, 0)" xlink:href="#_ÂÁ_Ï_ÌÌ_È_ËÂÌÚ_60"/><radialGradient id="radial-gradient-9" cx="473.25" cy="143.41" r="45.29" gradientTransform="translate(0 71.7) scale(1 0.5)" xlink:href="#radial-gradient"/><radialGradient id="radial-gradient-10" cx="473.25" cy="143.41" r="45.76" gradientTransform="matrix(1, 0, 0, 1, 0, 0)" xlink:href="#_ÂÁ_Ï_ÌÌ_È_ËÂÌÚ_60"/><radialGradient id="radial-gradient-11" cx="473.25" cy="59.24" r="45.29" gradientTransform="translate(0 29.62) scale(1 0.5)" xlink:href="#radial-gradient"/><radialGradient id="radial-gradient-12" cx="473.25" cy="59.24" r="45.76" gradientTransform="matrix(1, 0, 0, 1, 0, 0)" xlink:href="#_ÂÁ_Ï_ÌÌ_È_ËÂÌÚ_60"/><radialGradient id="radial-gradient-13" cx="473.25" cy="458.86" r="45.29" gradientTransform="translate(0 229.43) scale(1 0.5)" xlink:href="#radial-gradient"/><radialGradient id="radial-gradient-14" cx="473.25" cy="458.86" r="45.76" gradientTransform="matrix(1, 0, 0, 1, 0, 0)" xlink:href="#_ÂÁ_Ï_ÌÌ_È_ËÂÌÚ_60"/><radialGradient id="radial-gradient-15" cx="473.25" cy="537.72" r="45.29" gradientTransform="translate(0 268.86) scale(1 0.5)" xlink:href="#radial-gradient"/><radialGradient id="radial-gradient-16" cx="473.25" cy="537.72" r="45.76" gradientTransform="matrix(1, 0, 0, 1, 0, 0)" xlink:href="#_ÂÁ_Ï_ÌÌ_È_ËÂÌÚ_60"/></defs><g class="cls-1"><g id="_ÎÓÈ_1" data-name="—ÎÓÈ_1"><rect class="cls-2" x="-37.17" y="-76.15" width="880.28" height="1026.47"/><path class="cls-3" d="M530.77-60.69H414.5v663h.07c-.39,22.66,5.23,45.5,17,62.8,22.7,33.49,59.51,33.49,82.22,0,11.35-16.75,17-38.69,17-60.64h0Z"/><path class="cls-4" d="M50.29,879.85H412.94s19.86-3,19.76-35-19.76-35-19.76-35H50.29"/><path class="cls-4" d="M414.13,879.85h95.66s5.24-3,5.21-35-5.21-35-5.21-35H414.13"/><ellipse class="cls-5" cx="50.29" cy="844.87" rx="19.76" ry="34.98"/><path class="cls-6" d="M106.37,809.88h18.11a13.49,13.49,0,0,0-18.11,0Z"/><path class="cls-6" d="M106.37,879.85a13.46,13.46,0,0,0,18.11,0Z"/><path class="cls-7" d="M146.22,809.88a14.27,14.27,0,0,0-9.05-3.49H115.43a14.3,14.3,0,0,1,9,3.49,21.66,21.66,0,0,1,1.82,1.67c6.49,6.65,10.87,19.08,10.87,33.32s-4.38,26.66-10.87,33.32a23.34,23.34,0,0,1-1.82,1.66,14.31,14.31,0,0,1-9,3.5h21.74a14.29,14.29,0,0,0,9.05-3.5c3.94-3.2,7.24-8.41,9.49-14.88a61.89,61.89,0,0,0,3.2-20.1C158.91,829.34,153.71,816,146.22,809.88Z"/><path class="cls-6" d="M203.35,809.88h18.11a13.49,13.49,0,0,0-18.11,0Z"/><path class="cls-6" d="M203.35,879.85a13.46,13.46,0,0,0,18.11,0Z"/><path class="cls-7" d="M243.2,809.88a14.32,14.32,0,0,0-9.06-3.49H212.4a14.32,14.32,0,0,1,9.06,3.49,21.56,21.56,0,0,1,1.81,1.67c6.5,6.65,10.87,19.08,10.87,33.32s-4.37,26.66-10.87,33.32a23.23,23.23,0,0,1-1.81,1.66,14.33,14.33,0,0,1-9.06,3.5h21.74a14.33,14.33,0,0,0,9.06-3.5c3.93-3.2,7.23-8.41,9.48-14.88a61.89,61.89,0,0,0,3.2-20.1C255.88,829.34,250.68,816,243.2,809.88Z"/><path class="cls-6" d="M300.32,809.88h18.11a13.49,13.49,0,0,0-18.11,0Z"/><path class="cls-6" d="M300.32,879.85a13.46,13.46,0,0,0,18.11,0Z"/><path class="cls-7" d="M340.17,809.88a14.3,14.3,0,0,0-9.05-3.49H309.37a14.3,14.3,0,0,1,9.06,3.49,20.11,20.11,0,0,1,1.81,1.67c6.5,6.65,10.88,19.08,10.88,33.32s-4.38,26.66-10.88,33.32a21.55,21.55,0,0,1-1.81,1.66,14.31,14.31,0,0,1-9.06,3.5h21.75a14.31,14.31,0,0,0,9.05-3.5c3.93-3.2,7.24-8.41,9.48-14.88a61.62,61.62,0,0,0,3.21-20.1C352.86,829.34,347.66,816,340.17,809.88Z"/><path class="cls-8" d="M106.86,827.16v31.48h-4V831.45L95.46,836l-1.72-2.83,9.66-6Zm6.78,29.19v3.23H94.92v-3.23Z"/><path class="cls-8" d="M197.17,826.64A8.75,8.75,0,0,1,205.1,831q2.68,4.32,2.69,12.38t-2.69,12.42a9.41,9.41,0,0,1-15.85,0q-2.7-4.35-2.7-12.42t2.7-12.38A8.74,8.74,0,0,1,197.17,826.64Zm0,3.18q-3,0-4.71,3.17t-1.72,10.37a44.36,44.36,0,0,0,.38,6.24,14.55,14.55,0,0,0,1.16,4.2,5.67,5.67,0,0,0,2,2.37,5.38,5.38,0,0,0,2.89.75,4.81,4.81,0,0,0,3.47-1.39,9.08,9.08,0,0,0,2.21-4.39,32.35,32.35,0,0,0,.77-7.78,36.88,36.88,0,0,0-.67-7.84,8.44,8.44,0,0,0-2.1-4.34A5.1,5.1,0,0,0,197.17,829.82ZM202,831l1,3.46-10.31,20.88-1.46-2.76Z"/><path class="cls-8" d="M292.71,827.16a8.74,8.74,0,0,1,7.93,4.33q2.69,4.34,2.69,12.39t-2.69,12.42a9.41,9.41,0,0,1-15.85,0q-2.7-4.35-2.7-12.42t2.7-12.39A8.73,8.73,0,0,1,292.71,827.16Zm0,3.18q-3,0-4.71,3.17t-1.72,10.37a44.36,44.36,0,0,0,.38,6.24,14.65,14.65,0,0,0,1.16,4.2,5.64,5.64,0,0,0,2,2.36,5.3,5.3,0,0,0,2.89.76,4.81,4.81,0,0,0,3.47-1.39,9.08,9.08,0,0,0,2.21-4.39,32.4,32.4,0,0,0,.77-7.78,36.81,36.81,0,0,0-.67-7.84,8.48,8.48,0,0,0-2.1-4.35A5.14,5.14,0,0,0,292.71,830.34Zm4.78,1.15,1,3.46-10.31,20.89-1.46-2.76Z"/><path class="cls-8" d="M389.92,827.16a8.76,8.76,0,0,1,7.93,4.33q2.68,4.34,2.69,12.39t-2.69,12.42a9.41,9.41,0,0,1-15.85,0q-2.7-4.35-2.7-12.42t2.7-12.39A8.75,8.75,0,0,1,389.92,827.16Zm0,3.18q-3,0-4.71,3.17t-1.72,10.37a44.36,44.36,0,0,0,.38,6.24,14.65,14.65,0,0,0,1.16,4.2,5.68,5.68,0,0,0,2,2.37,5.32,5.32,0,0,0,2.88.75,4.81,4.81,0,0,0,3.47-1.39,9.08,9.08,0,0,0,2.21-4.39,32.4,32.4,0,0,0,.77-7.78,36.81,36.81,0,0,0-.67-7.84,8.48,8.48,0,0,0-2.1-4.35A5.12,5.12,0,0,0,389.92,830.34Zm4.78,1.15,1,3.46-10.31,20.89L384,853.08Z"/><path class="cls-6" d="M397.35,879.85a13.46,13.46,0,0,0,18.11,0Z"/><path class="cls-7" d="M436.2,809.88a14.3,14.3,0,0,0-9.06-3.49H405.4a14.32,14.32,0,0,1,9.06,3.49,21.56,21.56,0,0,1,1.81,1.67c6.5,6.65,10.87,19.08,10.87,33.32s-4.37,26.66-10.87,33.32a23.23,23.23,0,0,1-1.81,1.66,14.33,14.33,0,0,1-9.06,3.5h21.74a14.31,14.31,0,0,0,9.06-3.5c3.93-3.2,7.23-8.41,9.48-14.88a61.89,61.89,0,0,0,3.2-20.1C448.88,829.34,443.68,816,436.2,809.88Z"/><path class="cls-6" d="M396.35,809.88h18.11a13.49,13.49,0,0,0-18.11,0Z"/><path class="cls-8" d="M478.69,853.07a5.47,5.47,0,0,1-2.78-.71,5.23,5.23,0,0,1-1.94-1.94,5.75,5.75,0,0,1,0-5.57,5.25,5.25,0,0,1,1.94-1.92,5.57,5.57,0,0,1,2.78-.69,5.51,5.51,0,0,1,2.79.7,5.19,5.19,0,0,1,1.94,1.95,5.82,5.82,0,0,1,0,5.57,5.08,5.08,0,0,1-1.94,1.91A5.51,5.51,0,0,1,478.69,853.07Z"/><g class="cls-9"><path class="cls-10" d="M514,596.67c-11.23-5.58-26-8.36-40.77-8.36s-29.53,2.78-40.78,8.36c-10.76,5.35-16.69,12.42-16.69,19.91s5.93,14.57,16.69,19.91c22.49,11.16,59.07,11.15,81.55,0,10.78-5.34,16.7-12.41,16.7-19.91S524.8,602,514,596.67Z"/><path class="cls-4" d="M514.69,595.68c-22.85-11.34-60-11.34-82.89,0-11.19,5.56-17.36,13-17.36,20.9,0,4.54,2,8.91,5.86,12.86,6.54,9.44,22.64,26.43,53.73,26.43,28.28,0,44.4-16.1,51.52-25.79,4.26-4.11,6.51-8.71,6.51-13.5C532.06,608.66,525.89,601.24,514.69,595.68ZM514,636.49c-22.48,11.15-59.06,11.16-81.55,0-10.76-5.34-16.69-12.42-16.69-19.91s5.93-14.56,16.69-19.91c11.25-5.58,26-8.36,40.78-8.36s29.54,2.78,40.77,8.36c10.78,5.35,16.7,12.42,16.7,19.91S524.8,631.15,514,636.49Z"/></g><path class="cls-11" d="M508.67,748.33a30.74,30.74,0,1,1-30.74-30.74A30.73,30.73,0,0,1,508.67,748.33Z"/><circle class="cls-12" cx="477.93" cy="748.33" r="14.01"/><path class="cls-13" d="M477.93,786.35c-37.53,0-67.24-34.43-68.49-35.9a3.31,3.31,0,0,1,0-4.25c1.25-1.47,31-35.9,68.49-35.9s67.24,34.43,68.49,35.9a3.28,3.28,0,0,1,0,4.25C545.17,751.92,515.46,786.35,477.93,786.35Zm-61.53-38c7,7.38,32.21,31.46,61.53,31.46s54.52-24.07,61.54-31.46c-7-7.39-32.21-31.46-61.54-31.46S423.43,740.94,416.4,748.33Z"/><path class="cls-8" d="M474.27,623.54a5.47,5.47,0,0,1-2.78-.71,5.31,5.31,0,0,1-1.94-1.94,5.47,5.47,0,0,1-.72-2.79,5.38,5.38,0,0,1,.72-2.78,5.18,5.18,0,0,1,1.94-1.92,5.57,5.57,0,0,1,2.78-.69,5.51,5.51,0,0,1,2.79.7,5.16,5.16,0,0,1,1.94,1.94,5.57,5.57,0,0,1,.71,2.79,5.45,5.45,0,0,1-.71,2.78,5,5,0,0,1-1.94,1.92A5.61,5.61,0,0,1,474.27,623.54Z"/><g class="cls-9"><path class="cls-14" d="M514,360.08c-11.23-5.57-26-8.36-40.77-8.36s-29.53,2.79-40.78,8.36c-10.76,5.35-16.69,12.42-16.69,19.92s5.93,14.56,16.69,19.9c22.49,11.16,59.07,11.15,81.55,0,10.78-5.34,16.7-12.41,16.7-19.9S524.8,365.43,514,360.08Z"/><path class="cls-4" d="M514.69,359.09c-22.85-11.34-60-11.34-82.89,0-11.19,5.56-17.36,13-17.36,20.91,0,4.53,2,8.9,5.86,12.85,6.54,9.44,22.64,26.44,53.73,26.44,28.28,0,44.4-16.11,51.52-25.8,4.26-4.11,6.51-8.71,6.51-13.49C532.06,372.08,525.89,364.65,514.69,359.09ZM514,399.9c-22.48,11.15-59.06,11.16-81.55,0-10.76-5.34-16.69-12.42-16.69-19.9s5.93-14.57,16.69-19.92c11.25-5.57,26-8.36,40.78-8.36s29.54,2.79,40.77,8.36c10.78,5.35,16.7,12.42,16.7,19.92S524.8,394.56,514,399.9Z"/></g><g class="cls-9"><path class="cls-15" d="M514,281.22c-11.23-5.58-26-8.36-40.77-8.36s-29.53,2.78-40.78,8.36c-10.76,5.35-16.69,12.42-16.69,19.91s5.93,14.57,16.69,19.91C455,332.2,491.54,332.19,514,321c10.78-5.34,16.7-12.41,16.7-19.91S524.8,286.57,514,281.22Z"/><path class="cls-4" d="M514.69,280.23c-22.85-11.34-60-11.34-82.89,0-11.19,5.55-17.36,13-17.36,20.9,0,4.54,2,8.91,5.86,12.86,6.54,9.44,22.64,26.43,53.73,26.43,28.28,0,44.4-16.1,51.52-25.79,4.26-4.11,6.51-8.71,6.51-13.5C532.06,293.21,525.89,285.78,514.69,280.23ZM514,321c-22.48,11.15-59.06,11.16-81.55,0-10.76-5.34-16.69-12.42-16.69-19.91s5.93-14.56,16.69-19.91c11.25-5.58,26-8.36,40.78-8.36s29.54,2.78,40.77,8.36c10.78,5.35,16.7,12.42,16.7,19.91S524.8,315.7,514,321Z"/></g><g class="cls-9"><path class="cls-16" d="M514,202.36c-11.23-5.58-26-8.37-40.77-8.37s-29.53,2.79-40.78,8.37c-10.76,5.35-16.69,12.42-16.69,19.91s5.93,14.57,16.69,19.91c22.49,11.16,59.07,11.15,81.55,0,10.78-5.34,16.7-12.41,16.7-19.91S524.8,207.71,514,202.36Z"/><path class="cls-4" d="M514.69,201.36c-22.85-11.34-60-11.34-82.89,0-11.19,5.56-17.36,13-17.36,20.91,0,4.54,2,8.9,5.86,12.85,6.54,9.45,22.64,26.44,53.73,26.44,28.28,0,44.4-16.11,51.52-25.79,4.26-4.11,6.51-8.72,6.51-13.5C532.06,214.35,525.89,206.92,514.69,201.36ZM514,242.18c-22.48,11.15-59.06,11.16-81.55,0-10.76-5.34-16.69-12.42-16.69-19.91s5.93-14.56,16.69-19.91c11.25-5.58,26-8.37,40.78-8.37s29.54,2.79,40.77,8.37c10.78,5.35,16.7,12.42,16.7,19.91S524.8,236.84,514,242.18Z"/></g><g class="cls-9"><path class="cls-17" d="M514,123.49c-11.23-5.57-26-8.36-40.77-8.36s-29.53,2.79-40.78,8.36c-10.76,5.35-16.69,12.42-16.69,19.92s5.93,14.56,16.69,19.9c22.49,11.16,59.07,11.15,81.55,0,10.78-5.34,16.7-12.41,16.7-19.9S524.8,128.84,514,123.49Z"/><path class="cls-4" d="M514.69,122.5c-22.85-11.34-60-11.34-82.89,0-11.19,5.56-17.36,13-17.36,20.91,0,4.53,2,8.9,5.86,12.85,6.54,9.44,22.64,26.44,53.73,26.44,28.28,0,44.4-16.11,51.52-25.8,4.26-4.11,6.51-8.71,6.51-13.49C532.06,135.49,525.89,128.06,514.69,122.5ZM514,163.31c-22.48,11.15-59.06,11.16-81.55,0-10.76-5.34-16.69-12.42-16.69-19.9s5.93-14.57,16.69-19.92c11.25-5.57,26-8.36,40.78-8.36s29.54,2.79,40.77,8.36c10.78,5.35,16.7,12.42,16.7,19.92S524.8,158,514,163.31Z"/></g><g class="cls-9"><path class="cls-18" d="M514,39.33C502.79,33.75,488,31,473.25,31s-29.53,2.79-40.78,8.37c-10.76,5.35-16.69,12.42-16.69,19.91s5.93,14.57,16.69,19.91C455,90.31,491.54,90.3,514,79.15c10.78-5.34,16.7-12.41,16.7-19.91S524.8,44.68,514,39.33Z"/><path class="cls-4" d="M514.69,38.34c-22.85-11.35-60-11.35-82.89,0-11.19,5.55-17.36,13-17.36,20.9,0,4.54,2,8.9,5.86,12.86,6.54,9.44,22.64,26.43,53.73,26.43,28.28,0,44.4-16.1,51.52-25.79,4.26-4.11,6.51-8.72,6.51-13.5C532.06,51.32,525.89,43.89,514.69,38.34ZM514,79.15c-22.48,11.15-59.06,11.16-81.55,0-10.76-5.34-16.69-12.42-16.69-19.91s5.93-14.56,16.69-19.91c11.25-5.58,26-8.37,40.78-8.37s29.54,2.79,40.77,8.37c10.78,5.35,16.7,12.42,16.7,19.91S524.8,73.81,514,79.15Z"/></g><g class="cls-9"><path class="cls-19" d="M514,439c-11.23-5.58-26-8.37-40.77-8.37s-29.53,2.79-40.78,8.37c-10.76,5.34-16.69,12.41-16.69,19.91s5.93,14.56,16.69,19.9c22.49,11.17,59.07,11.16,81.55,0,10.78-5.34,16.7-12.41,16.7-19.9S524.8,444.29,514,439Z"/><path class="cls-4" d="M514.69,438c-22.85-11.34-60-11.34-82.89,0-11.19,5.56-17.36,13-17.36,20.91,0,4.54,2,8.9,5.86,12.85,6.54,9.44,22.64,26.44,53.73,26.44,28.28,0,44.4-16.11,51.52-25.79,4.26-4.12,6.51-8.72,6.51-13.5C532.06,450.94,525.89,443.51,514.69,438ZM514,478.76c-22.48,11.16-59.06,11.17-81.55,0-10.76-5.34-16.69-12.42-16.69-19.9s5.93-14.57,16.69-19.91c11.25-5.58,26-8.37,40.78-8.37S502.79,433.37,514,439c10.78,5.34,16.7,12.41,16.7,19.91S524.8,473.42,514,478.76Z"/></g><g class="cls-9"><path class="cls-20" d="M514,517.81c-11.23-5.58-26-8.37-40.77-8.37s-29.53,2.79-40.78,8.37c-10.76,5.35-16.69,12.42-16.69,19.91s5.93,14.57,16.69,19.91c22.49,11.16,59.07,11.15,81.55,0,10.78-5.34,16.7-12.41,16.7-19.91S524.8,523.16,514,517.81Z"/><path class="cls-4" d="M514.69,516.82c-22.85-11.35-60-11.35-82.89,0-11.19,5.55-17.36,13-17.36,20.9,0,4.54,2,8.9,5.86,12.86C426.84,560,442.94,577,474,577c28.28,0,44.4-16.1,51.52-25.79,4.26-4.11,6.51-8.72,6.51-13.5C532.06,529.8,525.89,522.37,514.69,516.82ZM514,557.63c-22.48,11.15-59.06,11.16-81.55,0-10.76-5.34-16.69-12.42-16.69-19.91s5.93-14.56,16.69-19.91c11.25-5.58,26-8.37,40.78-8.37s29.54,2.79,40.77,8.37c10.78,5.35,16.7,12.42,16.7,19.91S524.8,552.29,514,557.63Z"/></g><path class="cls-8" d="M474.35,520.35a8.75,8.75,0,0,1,7.94,4.33Q485,529,485,537.06t-2.68,12.42a9.4,9.4,0,0,1-15.86,0q-2.7-4.34-2.7-12.42t2.7-12.38A8.75,8.75,0,0,1,474.35,520.35Zm0,3.18q-3,0-4.71,3.16t-1.72,10.37a44.16,44.16,0,0,0,.38,6.24,14.3,14.3,0,0,0,1.17,4.21,5.5,5.5,0,0,0,2,2.36,5.35,5.35,0,0,0,2.88.75,4.84,4.84,0,0,0,3.47-1.38,9.08,9.08,0,0,0,2.22-4.39,32.56,32.56,0,0,0,.76-7.79,36.94,36.94,0,0,0-.67-7.84,8.51,8.51,0,0,0-2.09-4.34A5.16,5.16,0,0,0,474.35,523.53Zm4.78,1.15,1,3.46L469.85,549l-1.46-2.75Z"/><path class="cls-8" d="M474.86,440.54a8.76,8.76,0,0,1,7.93,4.33q2.68,4.33,2.69,12.39t-2.69,12.42a9.41,9.41,0,0,1-15.85,0q-2.7-4.35-2.7-12.42t2.7-12.39A8.75,8.75,0,0,1,474.86,440.54Zm0,3.18c-2,0-3.57,1.06-4.71,3.17s-1.72,5.57-1.72,10.37a44.36,44.36,0,0,0,.38,6.24,14.55,14.55,0,0,0,1.16,4.2,5.73,5.73,0,0,0,2,2.37,5.38,5.38,0,0,0,2.89.75,4.81,4.81,0,0,0,3.47-1.39,9.08,9.08,0,0,0,2.21-4.39,32.4,32.4,0,0,0,.77-7.78,36.81,36.81,0,0,0-.67-7.84,8.52,8.52,0,0,0-2.1-4.35A5.12,5.12,0,0,0,474.86,443.72Zm4.78,1.15,1,3.47-10.31,20.88-1.46-2.76Z"/><path class="cls-8" d="M476.38,286.57a8.76,8.76,0,0,1,7.93,4.33q2.69,4.34,2.68,12.39t-2.68,12.42a9.41,9.41,0,0,1-15.86,0q-2.68-4.35-2.69-12.42t2.69-12.39A8.78,8.78,0,0,1,476.38,286.57Zm0,3.18q-3,0-4.71,3.17T470,303.29a44.51,44.51,0,0,0,.37,6.24,14.63,14.63,0,0,0,1.17,4.2,5.66,5.66,0,0,0,2,2.37,5.38,5.38,0,0,0,2.89.75,4.84,4.84,0,0,0,3.47-1.39,9.17,9.17,0,0,0,2.21-4.39,32.4,32.4,0,0,0,.77-7.78,37.48,37.48,0,0,0-.67-7.84,8.48,8.48,0,0,0-2.1-4.35A5.14,5.14,0,0,0,476.38,289.75Zm4.77,1.15,1,3.46-10.31,20.89-1.46-2.76Z"/><path class="cls-8" d="M476.38,361.24a8.76,8.76,0,0,1,7.93,4.33Q487,369.91,487,378t-2.68,12.42a9.41,9.41,0,0,1-15.86,0Q465.77,386,465.76,378t2.69-12.39A8.78,8.78,0,0,1,476.38,361.24Zm0,3.18q-3,0-4.71,3.17T470,378a42.89,42.89,0,0,0,.38,6.24,14.24,14.24,0,0,0,1.16,4.2,5.6,5.6,0,0,0,2,2.37,5.38,5.38,0,0,0,2.89.75,4.82,4.82,0,0,0,3.47-1.39,9.17,9.17,0,0,0,2.21-4.39,32.35,32.35,0,0,0,.77-7.78,37.55,37.55,0,0,0-.67-7.84,8.52,8.52,0,0,0-2.1-4.35A5.14,5.14,0,0,0,476.38,364.42Zm4.78,1.15,1,3.47-10.31,20.88-1.46-2.76Z"/><path class="cls-8" d="M475.12,128.3v31.47h-3.95V132.58l-7.44,4.52L462,134.28l9.65-6Zm6.78,29.19v3.23H463.18v-3.23Z"/><path class="cls-8" d="M476.3,206v31.47h-4V210.23l-7.44,4.52-1.72-2.82,9.66-6Zm6.78,29.19v3.23H464.36v-3.23Z"/><path class="cls-8" d="M475.66,42.09V73.57h-4V46.38l-7.44,4.52-1.72-2.83,9.65-6Zm6.78,29.2v3.22H463.72V71.29Z"/></g></g></svg>