<svg xmlns="http://www.w3.org/2000/svg" xmlns:xlink="http://www.w3.org/1999/xlink" viewBox="0 0 545.19 431.48"><defs><style>.cls-1{isolation:isolate;}.cls-2{fill:url(#_ÂÁ_Ï_ÌÌ_È_ËÂÌÚ_60);}.cls-3,.cls-4{fill:#fff;}.cls-4,.cls-8{stroke:#000;}.cls-10,.cls-13,.cls-15,.cls-17,.cls-20,.cls-4,.cls-8{stroke-miterlimit:10;}.cls-4{stroke-width:0.25px;}.cls-18,.cls-5,.cls-6,.cls-7{mix-blend-mode:lighten;}.cls-5,.cls-6{opacity:0.2;}.cls-5{fill:url(#_ÂÁ_Ï_ÌÌ_È_ËÂÌÚ_126);}.cls-6{fill:url(#radial-gradient);}.cls-12,.cls-7{opacity:0.5;}.cls-7{fill:url(#radial-gradient-2);}.cls-11,.cls-8{fill:#53a5f8;}.cls-8{opacity:0.1;}.cls-9{opacity:0.8;}.cls-10{fill:url(#radial-gradient-3);stroke:url(#radial-gradient-4);}.cls-13{fill:url(#radial-gradient-5);stroke:url(#radial-gradient-6);}.cls-14{opacity:0.3;}.cls-15{fill:url(#radial-gradient-7);stroke:url(#radial-gradient-8);}.cls-16{opacity:0.22;}.cls-17{fill:url(#radial-gradient-9);stroke:url(#radial-gradient-10);}.cls-18{opacity:0.7;fill:url(#linear-gradient);}.cls-19{opacity:0.81;}.cls-20{fill:url(#radial-gradient-11);stroke:url(#radial-gradient-12);}</style><radialGradient id="_ÂÁ_Ï_ÌÌ_È_ËÂÌÚ_60" cx="281.39" cy="-96.9" r="462.75" gradientUnits="userSpaceOnUse"><stop offset="0" stop-color="#31024a"/><stop offset="1" stop-color="#2a023f"/></radialGradient><radialGradient id="_ÂÁ_Ï_ÌÌ_È_ËÂÌÚ_126" cx="261.31" cy="200.88" r="79.12" gradientUnits="userSpaceOnUse"><stop offset="0" stop-color="#fc2ffd"/><stop offset="0.28" stop-color="#be22c6"/><stop offset="0.78" stop-color="#560b69"/><stop offset="1" stop-color="#2d0244"/></radialGradient><radialGradient id="radial-gradient" cx="-2939.48" cy="-754.26" r="106.72" gradientTransform="matrix(0.87, 0.5, -0.87, 0.5, 2157.36, 2191.05)" gradientUnits="userSpaceOnUse"><stop offset="0" stop-color="#fc2ffd"/><stop offset="0.11" stop-color="#d727dc"/><stop offset="0.27" stop-color="#a41cae"/><stop offset="0.44" stop-color="#791388"/><stop offset="0.59" stop-color="#580b6a"/><stop offset="0.74" stop-color="#400655"/><stop offset="0.88" stop-color="#320348"/><stop offset="1" stop-color="#2d0244"/></radialGradient><radialGradient id="radial-gradient-2" cx="264.96" cy="413.3" r="317.93" gradientUnits="userSpaceOnUse"><stop offset="0" stop-color="#fe4dfe"/><stop offset="0.22" stop-color="#3874da"/><stop offset="0.26" stop-color="#3c7cdf"/><stop offset="0.44" stop-color="#53a5f8"/><stop offset="0.5" stop-color="#4c88d7"/><stop offset="0.58" stop-color="#435fab"/><stop offset="0.67" stop-color="#3b3d86"/><stop offset="0.75" stop-color="#352369"/><stop offset="0.84" stop-color="#301154"/><stop offset="0.92" stop-color="#2e0648"/><stop offset="1" stop-color="#2d0244"/></radialGradient><radialGradient id="radial-gradient-3" cx="264.96" cy="322.16" r="41.2" gradientTransform="translate(0 161.08) scale(1 0.5)" gradientUnits="userSpaceOnUse"><stop offset="0" stop-color="#3e068d"/><stop offset="0.85" stop-color="#2a023f"/></radialGradient><radialGradient id="radial-gradient-4" cx="264.96" cy="322.16" r="41.67" xlink:href="#_ÂÁ_Ï_ÌÌ_È_ËÂÌÚ_60"/><radialGradient id="radial-gradient-5" cx="264.96" cy="248.04" r="41.2" gradientTransform="translate(0 124.02) scale(1 0.5)" xlink:href="#radial-gradient-3"/><radialGradient id="radial-gradient-6" cx="264.96" cy="248.04" r="41.67" xlink:href="#_ÂÁ_Ï_ÌÌ_È_ËÂÌÚ_60"/><radialGradient id="radial-gradient-7" cx="264.96" cy="173.92" r="41.2" gradientTransform="translate(0 86.96) scale(1 0.5)" xlink:href="#radial-gradient-3"/><radialGradient id="radial-gradient-8" cx="264.96" cy="173.92" r="41.67" xlink:href="#_ÂÁ_Ï_ÌÌ_È_ËÂÌÚ_60"/><radialGradient id="radial-gradient-9" cx="264.31" cy="99.8" r="41.2" gradientTransform="translate(0 49.9) scale(1 0.5)" xlink:href="#radial-gradient-3"/><radialGradient id="radial-gradient-10" cx="264.31" cy="99.8" r="41.67" xlink:href="#_ÂÁ_Ï_ÌÌ_È_ËÂÌÚ_60"/><linearGradient id="linear-gradient" x1="451.91" y1="170.85" x2="451.91" y2="268.3" gradientUnits="userSpaceOnUse"><stop offset="0" stop-color="#3874da"/><stop offset="1" stop-color="#2d0244"/></linearGradient><radialGradient id="radial-gradient-11" cx="451.91" cy="171.13" r="41.2" gradientTransform="translate(0 85.57) scale(1 0.5)" xlink:href="#radial-gradient-3"/><radialGradient id="radial-gradient-12" cx="451.91" cy="171.13" r="41.67" xlink:href="#_ÂÁ_Ï_ÌÌ_È_ËÂÌÚ_60"/></defs><g class="cls-1"><g id="Layer_2" data-name="Layer 2"><rect class="cls-2" x="-21.01" y="-16.03" width="587.21" height="463.55"/></g><g id="_ÎÓÈ_1" data-name="—ÎÓÈ_1"><path class="cls-3" d="M53.83,104.31l-4-16.85h4.08L55.2,94.4c.36,2,.71,4.19,1,5.89h0c.27-1.83.68-3.85,1.1-5.94l1.45-6.89h4l1.35,7.11c.36,2,.64,3.77.89,5.63h0c.26-1.88.62-3.83,1-5.85l1.36-6.89h3.87L67,104.31H62.88l-1.44-7.26c-.34-1.68-.6-3.27-.81-5.18h-.05c-.29,1.9-.56,3.49-1,5.2L58,104.31Z"/><path class="cls-3" d="M79.1,104.31l-.23-1.22h-.08a4.35,4.35,0,0,1-3.49,1.49,3.73,3.73,0,0,1-4-3.74c0-3.19,2.85-4.7,7.17-4.69V96c0-.65-.35-1.58-2.24-1.58a7.06,7.06,0,0,0-3.37.92l-.7-2.44A10,10,0,0,1,77,91.8c4.07,0,5.36,2.4,5.36,5.28v4.26a18.18,18.18,0,0,0,.19,3Zm-.46-5.79c-2,0-3.55.47-3.55,1.93a1.37,1.37,0,0,0,1.51,1.46,2.08,2.08,0,0,0,2-1.4,2.81,2.81,0,0,0,.07-.65Z"/><path class="cls-3" d="M85.34,96.11c0-1.8,0-3-.1-4H88.5l.14,2.27h.1A3.57,3.57,0,0,1,92,91.8a3.35,3.35,0,0,1,.81.07v3.58a4.21,4.21,0,0,0-1-.11,2.44,2.44,0,0,0-2.6,1.93,4.31,4.31,0,0,0-.08.85v6.19h-3.8Z"/><path class="cls-3" d="M112,98.07a6.11,6.11,0,0,1-6.44,6.51,6,6,0,0,1-6.32-6.3c0-4,2.6-6.48,6.53-6.48A5.93,5.93,0,0,1,112,98.07Zm-8.84.12c0,2.09.88,3.67,2.5,3.67s2.42-1.48,2.42-3.69c0-1.8-.69-3.66-2.41-3.66S103.11,96.38,103.11,98.19Z"/><path class="cls-3" d="M114.75,104.31V94.88h-1.62V92.07h1.62v-.46a5.63,5.63,0,0,1,1.54-4.1,4.91,4.91,0,0,1,3.38-1.22,7.29,7.29,0,0,1,2,.26l-.15,2.91a4.19,4.19,0,0,0-1.23-.17c-1.25,0-1.78,1-1.78,2.16v.62H121v2.81h-2.42v9.43Z"/><path class="cls-3" d="M132.26,91.45h0l-3.09,1.46-.63-2.85,4.31-2h3.13v16.25h-3.67Z"/><path class="cls-3" d="M141,100.07a4.32,4.32,0,0,1,2.9-4.09v-.06a4,4,0,0,1-2.35-3.57c0-2.75,2.47-4.56,5.72-4.56,3.81,0,5.39,2.2,5.39,4.16a4,4,0,0,1-2.37,3.59v.06a4.32,4.32,0,0,1,3,4.05c0,2.95-2.47,4.93-6.25,4.93C142.94,104.58,141,102.27,141,100.07Zm8.41-.15c0-1.41-1.07-2.26-2.56-2.66a2.46,2.46,0,0,0-2,2.41,2.24,2.24,0,0,0,2.31,2.29A2,2,0,0,0,149.45,99.92Zm-4.27-7.69c0,1.09,1,1.81,2.29,2.21a2.24,2.24,0,0,0,1.65-2.07,1.88,1.88,0,0,0-2-2A1.81,1.81,0,0,0,145.18,92.23Z"/><path class="cls-3" d="M160,91.45h0l-3.09,1.46-.63-2.85,4.31-2h3.13v16.25H160Z"/><path class="cls-3" d="M169.05,104.31V102l2.09-1.89c3.55-3.19,5.28-5,5.31-6.91,0-1.32-.77-2.37-2.66-2.37a5.93,5.93,0,0,0-3.47,1.34l-1.07-2.72a9,9,0,0,1,5.31-1.67c3.69,0,5.69,2.15,5.69,5.09,0,2.72-1.95,4.91-4.32,7l-1.5,1.25v.05h6.14v3.13Z"/><path class="cls-3" d="M52.56,179.93l-4-16.85h4.08L53.93,170c.36,2,.71,4.19,1,5.89H55c.27-1.83.67-3.84,1.1-5.94l1.44-6.89h4l1.34,7.11c.36,2,.65,3.77.89,5.63h0c.27-1.88.62-3.83,1-5.85l1.37-6.89h3.87l-4.35,16.85H61.6l-1.44-7.26c-.33-1.68-.59-3.27-.81-5.18H59.3c-.28,1.9-.55,3.5-1,5.2l-1.61,7.24Z"/><path class="cls-3" d="M82.93,173.69a6.12,6.12,0,0,1-6.45,6.51,6,6,0,0,1-6.32-6.3c0-4,2.61-6.48,6.54-6.48A5.94,5.94,0,0,1,82.93,173.69Zm-8.85.12c0,2.09.89,3.68,2.51,3.68S79,176,79,173.79c0-1.8-.7-3.65-2.42-3.65S74.08,172,74.08,173.81Z"/><path class="cls-3" d="M85.28,171.73c0-1.8,0-3-.1-4h3.27l.14,2.27h.09A3.59,3.59,0,0,1,92,167.42a3.35,3.35,0,0,1,.81.07v3.58a4.84,4.84,0,0,0-1-.11,2.45,2.45,0,0,0-2.61,1.93,5.31,5.31,0,0,0-.07.85v6.19H85.28Z"/><path class="cls-3" d="M94.71,162.18h3.81v17.75H94.71Z"/><path class="cls-3" d="M113.43,162.18v14.09c0,1.39,0,2.84.1,3.66h-3.38l-.16-1.79h0a4.26,4.26,0,0,1-3.83,2.06c-2.89,0-5.22-2.48-5.22-6.28,0-4.11,2.56-6.5,5.47-6.5a3.73,3.73,0,0,1,3.22,1.38h0v-6.62Zm-3.8,10.71a4,4,0,0,0,0-.69,2.27,2.27,0,0,0-2.21-1.86c-1.74,0-2.62,1.54-2.62,3.47s1,3.36,2.6,3.36a2.25,2.25,0,0,0,2.2-1.82,3.93,3.93,0,0,0,.08-.86Z"/><path class="cls-3" d="M123.46,179.93l-4-16.85h4.08l1.28,6.94c.36,2,.71,4.19,1,5.89h0c.27-1.83.67-3.84,1.1-5.94l1.44-6.89h4l1.34,7.11c.36,2,.65,3.77.89,5.63h0c.27-1.88.62-3.83,1-5.85l1.37-6.89H141l-4.35,16.85H132.5l-1.44-7.26c-.33-1.68-.59-3.27-.81-5.18h-.05c-.28,1.9-.55,3.5-1,5.2l-1.61,7.24Z"/><path class="cls-3" d="M148.72,179.93l-.22-1.22h-.08a4.38,4.38,0,0,1-3.5,1.49,3.73,3.73,0,0,1-3.95-3.74c0-3.19,2.85-4.7,7.18-4.69v-.16c0-.65-.35-1.58-2.24-1.57a7,7,0,0,0-3.37.91l-.7-2.43a9.81,9.81,0,0,1,4.75-1.1c4.07,0,5.36,2.41,5.36,5.28V177a16.92,16.92,0,0,0,.2,3Zm-.46-5.79c-2,0-3.55.47-3.55,1.93a1.38,1.38,0,0,0,1.51,1.47,2.09,2.09,0,0,0,2-1.41,2.32,2.32,0,0,0,.07-.65Z"/><path class="cls-3" d="M155,171.73c0-1.8,0-3-.1-4h3.27l.14,2.27h.09a3.59,3.59,0,0,1,3.3-2.54,3.35,3.35,0,0,1,.81.07v3.58a4.74,4.74,0,0,0-1-.11,2.44,2.44,0,0,0-2.61,1.93,4.36,4.36,0,0,0-.07.85v6.19H155Z"/><path class="cls-3" d="M173.88,167.07h0l-3.09,1.46-.62-2.85,4.3-2h3.14v16.25h-3.68Z"/><path class="cls-3" d="M52.56,255.55l-4-16.85h4.08l1.28,6.94c.36,2,.71,4.19,1,5.89H55c.27-1.83.67-3.84,1.1-5.94l1.44-6.89h4l1.34,7.11c.36,2,.65,3.77.89,5.63h0c.27-1.87.62-3.83,1-5.85l1.37-6.89h3.87l-4.35,16.85H61.6l-1.44-7.25c-.33-1.69-.59-3.28-.81-5.19H59.3c-.28,1.9-.55,3.5-1,5.2l-1.61,7.24Z"/><path class="cls-3" d="M82.93,249.31a6.12,6.12,0,0,1-6.45,6.51,6,6,0,0,1-6.32-6.3c0-4,2.61-6.48,6.54-6.48A5.94,5.94,0,0,1,82.93,249.31Zm-8.85.12c0,2.09.89,3.68,2.51,3.68S79,251.62,79,249.42c0-1.81-.7-3.66-2.42-3.66S74.08,247.62,74.08,249.43Z"/><path class="cls-3" d="M85.28,247.35c0-1.8,0-3-.1-4h3.27l.14,2.26h.09A3.59,3.59,0,0,1,92,243a3.35,3.35,0,0,1,.81.07v3.58a4.84,4.84,0,0,0-1-.11,2.45,2.45,0,0,0-2.61,1.93,5.31,5.31,0,0,0-.07.85v6.19H85.28Z"/><path class="cls-3" d="M94.71,237.8h3.81v17.75H94.71Z"/><path class="cls-3" d="M113.43,237.8v14.09c0,1.39,0,2.84.1,3.66h-3.38l-.16-1.79h0a4.26,4.26,0,0,1-3.83,2.06c-2.89,0-5.22-2.47-5.22-6.28,0-4.11,2.56-6.5,5.47-6.5a3.73,3.73,0,0,1,3.22,1.38h0V237.8Zm-3.8,10.71a4.08,4.08,0,0,0,0-.69,2.27,2.27,0,0,0-2.21-1.86c-1.74,0-2.62,1.54-2.62,3.47s1,3.36,2.6,3.36a2.25,2.25,0,0,0,2.2-1.82,3.93,3.93,0,0,0,.08-.86Z"/><path class="cls-3" d="M123.46,255.55l-4-16.85h4.08l1.28,6.94c.36,2,.71,4.19,1,5.89h0c.27-1.83.67-3.84,1.1-5.94l1.44-6.89h4l1.34,7.11c.36,2,.65,3.77.89,5.63h0c.27-1.87.62-3.83,1-5.85l1.37-6.89H141l-4.35,16.85H132.5l-1.44-7.25c-.33-1.69-.59-3.28-.81-5.19h-.05c-.28,1.9-.55,3.5-1,5.2l-1.61,7.24Z"/><path class="cls-3" d="M148.72,255.55l-.22-1.22h-.08a4.38,4.38,0,0,1-3.5,1.49,3.73,3.73,0,0,1-3.95-3.74c0-3.19,2.85-4.7,7.18-4.69v-.16c0-.65-.35-1.58-2.24-1.57a7,7,0,0,0-3.37.91l-.7-2.43a9.81,9.81,0,0,1,4.75-1.1c4.07,0,5.36,2.41,5.36,5.28v4.27a16.92,16.92,0,0,0,.2,3Zm-.46-5.79c-2,0-3.55.48-3.55,1.93a1.38,1.38,0,0,0,1.51,1.47,2.08,2.08,0,0,0,2-1.41,2.32,2.32,0,0,0,.07-.65Z"/><path class="cls-3" d="M155,247.35c0-1.8,0-3-.1-4h3.27l.14,2.26h.09a3.59,3.59,0,0,1,3.3-2.54,3.35,3.35,0,0,1,.81.07v3.58a4.74,4.74,0,0,0-1-.11,2.44,2.44,0,0,0-2.61,1.93,4.36,4.36,0,0,0-.07.85v6.19H155Z"/><path class="cls-3" d="M169.05,255.55v-2.3l2.09-1.89c3.55-3.19,5.28-5,5.31-6.91,0-1.32-.77-2.37-2.66-2.37a5.93,5.93,0,0,0-3.47,1.34l-1.07-2.72a9,9,0,0,1,5.31-1.67c3.69,0,5.69,2.15,5.69,5.09,0,2.73-1.95,4.91-4.32,7l-1.5,1.25v0h6.14v3.13Z"/><path class="cls-3" d="M102.51,330.39a18.56,18.56,0,0,1-5.62.95c-3.08,0-5.3-.77-6.85-2.26A8.3,8.3,0,0,1,87.66,323c0-5.61,4.1-8.79,9.62-8.79a12,12,0,0,1,4.68.8l-.79,3.06a9.22,9.22,0,0,0-3.92-.72c-3.18,0-5.59,1.79-5.59,5.45,0,3.48,2.19,5.52,5.31,5.52a5.36,5.36,0,0,0,1.86-.24v-3.54h-2.6v-3h6.28Z"/><path class="cls-3" d="M117,327.25c0,1.59.05,2.9.1,3.92h-3.3l-.17-1.73h-.08a4.34,4.34,0,0,1-3.82,2c-2.48,0-4.29-1.56-4.29-5.32v-7.19h3.8v6.57c0,1.79.58,2.86,1.92,2.86A2,2,0,0,0,113,327a2,2,0,0,0,.14-.8v-7.29H117Z"/><path class="cls-3" d="M120,313.42h3.81v17.75H120Z"/><path class="cls-3" d="M127.33,331.17v-9.43h-1.62v-2.8h1.62v-.47a5.66,5.66,0,0,1,1.53-4.1,5,5,0,0,1,3.39-1.22,7.22,7.22,0,0,1,2,.26l-.15,2.92a3.81,3.81,0,0,0-1.23-.18c-1.25,0-1.77,1-1.77,2.17v.62h2.44v2.8h-2.41v9.43Z"/><path class="cls-3" d="M142.38,331.17l-4-16.85h4.08l1.28,6.94c.36,2,.71,4.19,1,5.89h.05c.27-1.83.68-3.84,1.1-5.94l1.44-6.89h4.05l1.35,7.11c.36,2,.64,3.77.89,5.64h0c.26-1.88.62-3.84,1-5.86l1.36-6.89h3.87l-4.34,16.85h-4.12L150,323.92c-.34-1.69-.6-3.28-.81-5.19h-.05c-.29,1.9-.56,3.5-1,5.2l-1.61,7.24Z"/><path class="cls-3" d="M167.65,331.17l-.23-1.22h-.08a4.37,4.37,0,0,1-3.49,1.5,3.74,3.74,0,0,1-4-3.75c0-3.18,2.85-4.69,7.18-4.69v-.16c0-.65-.35-1.58-2.24-1.57a7.06,7.06,0,0,0-3.37.91l-.7-2.43a9.86,9.86,0,0,1,4.76-1.1c4.07,0,5.36,2.41,5.36,5.28v4.27a18.13,18.13,0,0,0,.19,3Zm-.46-5.78c-2,0-3.55.47-3.55,1.92a1.37,1.37,0,0,0,1.51,1.47,2.08,2.08,0,0,0,2-1.41,2.7,2.7,0,0,0,.07-.65Z"/><path class="cls-3" d="M173.89,323c0-1.8,0-3-.11-4h3.27l.14,2.26h.09a3.59,3.59,0,0,1,3.31-2.54,3.35,3.35,0,0,1,.81.07v3.58a4.84,4.84,0,0,0-1-.11,2.45,2.45,0,0,0-2.61,1.93,5.41,5.41,0,0,0-.07.85v6.19h-3.8Z"/><polygon class="cls-4" points="336.55 175.06 370.69 175.26 370.65 180.72 377.5 173.96 370.74 167.12 370.7 172.57 336.56 172.36 336.55 175.06"/><polygon class="cls-3" points="336.55 249.18 370.69 249.39 370.65 254.84 377.5 248.08 370.74 241.24 370.7 246.69 336.56 246.49 336.55 249.18"/><path class="cls-5" d="M340.39,161C340.39,204.63,305,280,261.31,280a79.08,79.08,0,0,1,0-158.16C305,121.87,340.39,117.28,340.39,161Z"/><ellipse class="cls-6" cx="264.96" cy="344.18" rx="130.7" ry="75.46"/><path class="cls-7" d="M317.84,11.84H212.07V358.62h.07c-.35,8.07,4.76,16.2,15.42,22.36,20.66,11.93,54.14,11.93,74.79,0,10.33-6,15.49-13.77,15.49-21.59h0Z"/><ellipse class="cls-8" cx="264.96" cy="362.26" rx="52.88" ry="30.53"/><g class="cls-9"><path class="cls-10" d="M302,304.05c-10.22-5.07-23.66-7.61-37.09-7.61s-26.86,2.54-37.09,7.61c-9.79,4.87-15.18,11.3-15.18,18.12s5.39,13.25,15.18,18.1c20.46,10.16,53.73,10.15,74.18,0,9.8-4.85,15.19-11.29,15.19-18.1S311.84,308.92,302,304.05Z"/><path class="cls-11" d="M302.65,303.15c-20.79-10.32-54.61-10.32-75.4,0-10.18,5.06-15.79,11.8-15.79,19,0,4.12,1.84,8.1,5.33,11.69,6,8.59,20.59,24.05,48.87,24.05,25.73,0,40.39-14.65,46.87-23.47,3.87-3.74,5.92-7.92,5.92-12.27C318.45,315,312.84,308.21,302.65,303.15ZM302,340.27c-20.45,10.15-53.72,10.16-74.18,0-9.79-4.85-15.18-11.29-15.18-18.1s5.39-13.25,15.18-18.12c10.23-5.07,23.66-7.61,37.09-7.61S291.82,299,302,304.05c9.8,4.87,15.19,11.3,15.19,18.12S311.84,335.42,302,340.27Z"/></g><g class="cls-12"><path class="cls-13" d="M302,229.93c-10.22-5.07-23.66-7.61-37.09-7.61s-26.86,2.54-37.09,7.61c-9.79,4.87-15.18,11.3-15.18,18.11s5.39,13.25,15.18,18.11c20.46,10.15,53.73,10.14,74.18,0,9.8-4.86,15.19-11.29,15.19-18.11S311.84,234.8,302,229.93Z"/><path class="cls-11" d="M302.65,229c-20.79-10.32-54.61-10.32-75.4,0-10.18,5.05-15.79,11.8-15.79,19,0,4.13,1.84,8.1,5.33,11.7,6,8.58,20.59,24,48.87,24a56.83,56.83,0,0,0,46.87-23.46c3.87-3.74,5.92-7.93,5.92-12.28C318.45,240.84,312.84,234.08,302.65,229ZM302,266.15c-20.45,10.14-53.72,10.15-74.18,0-9.79-4.86-15.18-11.3-15.18-18.11s5.39-13.24,15.18-18.11c10.23-5.07,23.66-7.61,37.09-7.61s26.87,2.54,37.09,7.61c9.8,4.87,15.19,11.3,15.19,18.11S311.84,261.29,302,266.15Z"/></g><g class="cls-14"><path class="cls-15" d="M302,155.81c-10.22-5.08-23.66-7.61-37.09-7.61s-26.86,2.53-37.09,7.61c-9.79,4.86-15.18,11.29-15.18,18.11s5.39,13.25,15.18,18.11c20.46,10.15,53.73,10.14,74.18,0,9.8-4.86,15.19-11.29,15.19-18.11S311.84,160.67,302,155.81Z"/><path class="cls-11" d="M302.65,154.9c-20.79-10.31-54.61-10.31-75.4,0-10.18,5.06-15.79,11.81-15.79,19,0,4.13,1.84,8.1,5.33,11.69,6,8.59,20.59,24,48.87,24a56.83,56.83,0,0,0,46.87-23.46c3.87-3.74,5.92-7.93,5.92-12.28C318.45,166.72,312.84,160,302.65,154.9ZM302,192c-20.45,10.14-53.72,10.15-74.18,0-9.79-4.86-15.18-11.3-15.18-18.11s5.39-13.25,15.18-18.11c10.23-5.08,23.66-7.61,37.09-7.61s26.87,2.53,37.09,7.61c9.8,4.86,15.19,11.29,15.19,18.11S311.84,187.17,302,192Z"/></g><g class="cls-16"><path class="cls-17" d="M301.4,81.68c-10.22-5.07-23.66-7.6-37.09-7.6s-26.86,2.53-37.09,7.6C217.43,86.55,212,93,212,99.8s5.39,13.25,15.18,18.1c20.46,10.16,53.73,10.15,74.18,0,9.8-4.85,15.19-11.28,15.19-18.1S311.2,86.55,301.4,81.68Z"/><path class="cls-11" d="M302,80.78c-20.79-10.32-54.61-10.32-75.4,0-10.18,5.06-15.79,11.8-15.79,19,0,4.12,1.84,8.1,5.33,11.69,5.95,8.59,20.59,24,48.87,24,25.73,0,40.39-14.65,46.87-23.47,3.87-3.74,5.92-7.92,5.92-12.27C317.81,92.59,312.2,85.84,302,80.78Zm-.61,37.12c-20.45,10.15-53.72,10.16-74.18,0C217.43,113.05,212,106.61,212,99.8s5.39-13.25,15.18-18.12c10.23-5.07,23.66-7.6,37.09-7.6s26.87,2.53,37.09,7.6c9.8,4.87,16.41,11.3,16.41,18.12S311.2,113.05,301.4,117.9Z"/></g><path class="cls-18" d="M503.69,177.6a17.91,17.91,0,0,1-4.2,5.52S487.54,197.67,451.91,198s-48.16-15.45-48.16-15.45c-.26-.27-.49-.54-.73-.81-3-3.38-3.95-7-4.6-10.88v71.73c0-.17,0-.34,0-.52h.14a13.54,13.54,0,0,0,1.06,5.2c2,5,7,9.57,14.43,13.27,20.87,10.35,54.81,10.35,75.67,0,7.46-3.7,12.41-8.3,14.45-13.28a13.66,13.66,0,0,0,1-5.19h.18V170.85C503.69,177.21,504.55,175.73,503.69,177.6Z"/><g class="cls-19"><path class="cls-20" d="M489,153c-10.22-5.07-23.66-7.61-37.09-7.61S425.05,148,414.82,153c-9.79,4.87-15.18,11.3-15.18,18.12s5.39,13.24,15.18,18.1c20.46,10.15,53.73,10.15,74.18,0,9.8-4.86,15.19-11.29,15.19-18.1S498.8,157.89,489,153Z"/><path class="cls-11" d="M489.61,152.12c-20.79-10.32-54.61-10.32-75.4,0-10.18,5-15.79,11.8-15.79,19,0,4.12,1.84,8.09,5.33,11.69,5.95,8.59,20.59,24,48.87,24a56.83,56.83,0,0,0,46.87-23.46c3.87-3.74,5.92-7.92,5.92-12.27C505.41,163.93,499.8,157.17,489.61,152.12ZM489,189.24c-20.45,10.15-53.72,10.15-74.18,0-9.79-4.86-15.18-11.29-15.18-18.1S405,157.89,414.82,153c10.23-5.07,23.66-7.61,37.09-7.61S478.78,148,489,153c9.8,4.87,15.19,11.3,15.19,18.12S498.8,184.38,489,189.24Z"/></g></g></g></svg>