<?xml version="1.0" encoding="UTF-8" standalone="no"?>
<svg
   id="_ÎÓÈ_1"
   data-name="—ÎÓÈ_1"
   viewBox="0 0 353.16 105.23"
   version="1.1"
   sodipodi:docname="truth-05-events-as-entity-09.svg"
   inkscape:version="1.1.2 (0a00cf5339, 2022-02-04, custom)"
   xmlns:inkscape="http://www.inkscape.org/namespaces/inkscape"
   xmlns:sodipodi="http://sodipodi.sourceforge.net/DTD/sodipodi-0.dtd"
   xmlns="http://www.w3.org/2000/svg"
   xmlns:svg="http://www.w3.org/2000/svg">
  <sodipodi:namedview
     id="namedview7257"
     pagecolor="#505050"
     bordercolor="#ffffff"
     borderopacity="1"
     inkscape:pageshadow="0"
     inkscape:pageopacity="0"
     inkscape:pagecheckerboard="1"
     showgrid="false"
     inkscape:snap-global="false"
     inkscape:zoom="2.896704"
     inkscape:cx="176.58"
     inkscape:cy="52.646041"
     inkscape:window-width="1920"
     inkscape:window-height="1003"
     inkscape:window-x="0"
     inkscape:window-y="0"
     inkscape:window-maximized="1"
     inkscape:current-layer="_ÎÓÈ_1" />
  <defs
     id="defs7118">
    <style
       id="style7116">.cls-1{fill:#fff;}.cls-2{fill:#2a023f;}.cls-3{fill:#1d1d1d;}</style>
  </defs>
  <rect
     class="cls-1"
     x="-3.78"
     y="-4.6199999"
     width="368.88"
     height="121.11"
     id="rect7120"
     sodipodi:insensitive="true" />
  <path
     class="cls-2"
     d="M136.55,80.9V19.55h15V25h-8V75.45h8V80.9Z"
     id="path7122" />
  <path
     class="cls-2"
     d="m 216.8,19.55 v 61.43 h -15 v -5.46 h 8 V 25 h -8 v -5.45 z"
     id="path7170" />
  <path
     class="cls-2"
     d="M 18.68,81.07 V 19.55 h 15 v 5.52 h -8 v 50.49 h 8 v 5.51 z"
     id="path7172" />
  <path
     class="cls-2"
     d="M 99.08,19.55 V 81.1 h -15 v -5.46 h 8 V 25.02 h -8 v -5.47 z"
     id="path7174" />
  <path
     class="cls-2"
     d="M 254.25,80.88 V 19.55 h 15 v 5.44 h -8 v 50.44 h 8 v 5.45 z"
     id="path7248" />
  <path
     class="cls-2"
     d="m 334.47,19.55 v 61.41 h -15 v -5.45 h 8 v -50.5 h -8 v -5.46 z"
     id="path7250" />
  <path
     class="cls-3"
     d="M103.08,53.83a43.52,43.52,0,0,1,13.47-2.92,47.67,47.67,0,0,1,7.07.13l.88.08.87.11c.58.08,1.17.15,1.74.26l.86.16c.28.05.57.1.85.17l.64.14,1.22-2.65a19.75,19.75,0,0,1,3,4.63,33.24,33.24,0,0,0-6.07,2l1.22-2.65-.6-.14-.8-.16-.81-.14c-.54-.11-1.09-.17-1.63-.25l-.82-.1-.83-.08a46.29,46.29,0,0,0-6.66-.12A40.83,40.83,0,0,0,104.06,55Z"
     id="path7252" />
  <path
     class="cls-3"
     d="M220.63,53.83a43.46,43.46,0,0,1,13.46-2.92,47.8,47.8,0,0,1,7.08.13l.88.08.87.11c.58.08,1.16.15,1.73.26l.86.16c.29.05.58.1.86.17L247,52l1.22-2.65a20,20,0,0,1,3,4.63,33.13,33.13,0,0,0-6.06,2l1.22-2.65-.61-.14L245,53l-.81-.14c-.53-.11-1.08-.17-1.63-.25l-.82-.1-.83-.08a46.23,46.23,0,0,0-6.66-.12A41,41,0,0,0,221.6,55Z"
     id="path7254" />
  <text
     xml:space="preserve"
     style="font-size:14.6667px;line-height:1.25;font-family:'Myriad Pro';-inkscape-font-specification:'Myriad Pro'"
     x="40.067085"
     y="80.908669"
     id="text14345"><tspan
       sodipodi:role="line"
       id="tspan14343"
       x="40.067085"
       y="80.908669"
       style="font-style:normal;font-variant:normal;font-weight:bold;font-stretch:normal;font-size:14.6667px;font-family:'Myriad Pro';-inkscape-font-specification:'Myriad Pro Bold'">1956</tspan></text>
  <text
     xml:space="preserve"
     style="font-size:14.6667px;line-height:1.25;font-family:'Myriad Pro';-inkscape-font-specification:'Myriad Pro'"
     x="160.14702"
     y="80.908669"
     id="text14345-6"><tspan
       sodipodi:role="line"
       x="160.14702"
       y="80.908669"
       style="font-style:normal;font-variant:normal;font-weight:bold;font-stretch:normal;font-size:14.6667px;font-family:'Myriad Pro';-inkscape-font-specification:'Myriad Pro Bold'"
       id="tspan56734">1985</tspan></text>
  <text
     xml:space="preserve"
     style="font-size:14.6667px;line-height:1.25;font-family:'Myriad Pro';-inkscape-font-specification:'Myriad Pro'"
     x="278.63431"
     y="80.908669"
     id="text14345-5"><tspan
       sodipodi:role="line"
       id="tspan14343-9"
       x="278.63431"
       y="80.908669"
       style="font-style:normal;font-variant:normal;font-weight:bold;font-stretch:normal;font-size:14.6667px;font-family:'Myriad Pro';-inkscape-font-specification:'Myriad Pro Bold'">2022</tspan></text>
  <text
     xml:space="preserve"
     style="font-weight:bold;font-size:14.6667px;line-height:1;font-family:'Myriad Pro';-inkscape-font-specification:'Myriad Pro Bold'"
     x="58.40284"
     y="29.963358"
     id="text48429"><tspan
       sodipodi:role="line"
       id="tspan48427"
       x="58.40284"
       y="29.963358"
       style="text-align:center;text-anchor:middle">John</tspan><tspan
       sodipodi:role="line"
       x="58.40284"
       y="44.630058"
       id="tspan48497"
       style="text-align:center;text-anchor:middle">is</tspan><tspan
       sodipodi:role="line"
       x="58.40284"
       y="59.296761"
       id="tspan48499"
       style="text-align:center;text-anchor:middle">born</tspan></text>
  <text
     xml:space="preserve"
     style="font-weight:bold;font-size:14.6667px;line-height:1;font-family:'Myriad Pro';-inkscape-font-specification:'Myriad Pro Bold'"
     x="177.64253"
     y="29.963358"
     id="text70008"><tspan
       sodipodi:role="line"
       id="tspan70006"
       x="177.64253"
       y="29.963358"
       style="text-align:center;text-anchor:middle">John</tspan><tspan
       sodipodi:role="line"
       x="177.64253"
       y="44.630054"
       id="tspan70010"
       style="text-align:center;text-anchor:middle">turns</tspan><tspan
       sodipodi:role="line"
       x="177.64253"
       y="59.296757"
       id="tspan70012"
       style="text-align:center;text-anchor:middle">29</tspan></text>
  <text
     xml:space="preserve"
     style="font-weight:bold;font-size:14.6667px;line-height:1;font-family:'Myriad Pro';-inkscape-font-specification:'Myriad Pro Bold'"
     x="295.68625"
     y="29.963358"
     id="text99902"><tspan
       sodipodi:role="line"
       id="tspan99900"
       x="295.68625"
       y="29.963358"
       style="text-align:center;text-anchor:middle">John</tspan><tspan
       sodipodi:role="line"
       x="295.68625"
       y="44.630058"
       id="tspan99904"
       style="text-align:center;text-anchor:middle">dies</tspan></text>
</svg>
