<?xml version="1.0" encoding="UTF-8" standalone="no"?>
<svg
   viewBox="0 0 1606.89 464.94"
   version="1.1"
   id="svg203"
   sodipodi:docname="truth-15-streams-views-caches-db.svg"
   inkscape:version="1.1.2 (0a00cf5339, 2022-02-04, custom)"
   xmlns:inkscape="http://www.inkscape.org/namespaces/inkscape"
   xmlns:sodipodi="http://sodipodi.sourceforge.net/DTD/sodipodi-0.dtd"
   xmlns="http://www.w3.org/2000/svg"
   xmlns:svg="http://www.w3.org/2000/svg">
  <sodipodi:namedview
     id="namedview205"
     pagecolor="#505050"
     bordercolor="#ffffff"
     borderopacity="1"
     inkscape:pageshadow="0"
     inkscape:pageopacity="0"
     inkscape:pagecheckerboard="1"
     showgrid="false"
     inkscape:zoom="0.8908693"
     inkscape:cx="430.47841"
     inkscape:cy="126.28115"
     inkscape:window-width="1920"
     inkscape:window-height="1003"
     inkscape:window-x="0"
     inkscape:window-y="0"
     inkscape:window-maximized="1"
     inkscape:current-layer="svg203"
     inkscape:snap-global="false" />
  <defs
     id="defs4">
    <style
       id="style2">.cls-1,.cls-5{fill:#a7f4fe;}.cls-1{stroke:#a0f5fe;}.cls-1,.cls-3,.cls-4,.cls-5,.cls-6,.cls-7,.cls-8{stroke-miterlimit:10;}.cls-1,.cls-8{stroke-width:0.75px;}.cls-2{fill:#481f5e;}.cls-3,.cls-4,.cls-6,.cls-7,.cls-8{fill:none;}.cls-3,.cls-5,.cls-6,.cls-7{stroke:#2f3fa1;}.cls-3,.cls-7{stroke-width:2px;}.cls-3,.cls-5,.cls-6{stroke-dasharray:12;}.cls-4,.cls-8{stroke:#63bdfe;}.cls-4{stroke-width:0.25px;}</style>
  </defs>
  <rect
     style="fill:#ffffff;stroke-miterlimit:0"
     id="rect1350"
     width="1612.4586"
     height="471.24075"
     x="0"
     y="0"
     sodipodi:insensitive="true" />
  <ellipse
     class="cls-1"
     cx="96.470001"
     cy="96.099998"
     rx="10.63"
     ry="11.03"
     id="ellipse6" />
  <ellipse
     class="cls-1"
     cx="96.470001"
     cy="149.50999"
     rx="10.63"
     ry="11.03"
     id="ellipse8" />
  <ellipse
     class="cls-1"
     cx="96.470001"
     cy="257"
     rx="10.63"
     ry="11.03"
     id="ellipse10" />
  <ellipse
     class="cls-1"
     cx="96.470001"
     cy="304.12"
     rx="10.63"
     ry="11.03"
     id="ellipse12" />
  <path
     class="cls-2"
     d="m 107.1,99.27 h 51.71 a 12.63,12.63 0 0 1 2.61,0.16 8.2,8.2 0 0 1 2.46,0.87 9.08,9.08 0 0 1 3.65,3.67 10,10 0 0 1 1.11,5.06 v 28.75 c 0,1.23 0,2.6 0.11,3.88 a 17.23,17.23 0 0 0 7.89,12.85 15.94,15.94 0 0 0 7.36,2.49 c 1.28,0.13 2.64,0.07 3.88,0.09 h 45.34 c 0.88,0 1.75,0 2.62,0 a 9.28,9.28 0 0 1 2.53,0.67 9.49,9.49 0 0 1 2.21,1.4 10,10 0 0 1 1.71,2 10.26,10.26 0 0 1 1.09,2.38 18.14,18.14 0 0 1 0.39,5.2 v 119.34 l 0.09,1.93 c 0.08,0.64 0.18,1.29 0.28,1.94 l 0.47,1.91 a 19.5,19.5 0 0 0 3.74,6.85 18.4,18.4 0 0 0 13.75,6.57 H 386.86 L 374.16,320 h 9 L 399,304.12 383.13,288.25 h -9 l 12.7,12.69 H 262.31 a 12.2,12.2 0 0 1 -9.17,-4.38 12.9,12.9 0 0 1 -2.49,-4.57 l -0.32,-1.27 -0.18,-1.3 -0.06,-1.34 V 168.21 c 0,-1.31 0,-2.62 -0.09,-3.9 a 15.79,15.79 0 0 0 -0.73,-3.79 14.27,14.27 0 0 0 -7.45,-8.46 15.37,15.37 0 0 0 -3.68,-1.13 30.94,30.94 0 0 0 -3.87,-0.22 h -46.42 c -0.94,0 -1.76,0 -2.65,0 a 10.18,10.18 0 0 1 -4.94,-1.57 11.29,11.29 0 0 1 -5.23,-8.65 c -0.06,-0.89 0,-1.7 0,-2.67 v -26.33 c 0,-1.31 0,-2.62 0,-3.92 a 18.18,18.18 0 0 0 -0.49,-3.83 15.22,15.22 0 0 0 -1.43,-3.58 14.31,14.31 0 0 0 -5.38,-5.4 13.74,13.74 0 0 0 -3.58,-1.4 17.64,17.64 0 0 0 -3.84,-0.41 h -53.14 z"
     id="path14" />
  <path
     class="cls-2"
     d="m 107.1,152.68 h 9.07 a 16.86,16.86 0 0 1 3.89,0.22 7.5,7.5 0 0 1 3.4,1.84 8.59,8.59 0 0 1 2.58,7.1 v 52.89 a 31.2,31.2 0 0 0 0.31,5.79 16.53,16.53 0 0 0 5.77,9.8 15.82,15.82 0 0 0 5.06,2.77 18.15,18.15 0 0 0 5.74,0.8 L 153,234 l 39.1,0.33 156.42,1.34 38.28,0.32 -12.8,12.57 9,0.08 16,-15.74 -15.74,-16 -9,-0.08 12.58,12.81 -38.28,-0.33 -156.38,-1.3 -39.1,-0.33 -9.44,-0.08 a 12,12 0 0 1 -3.87,-0.44 10.12,10.12 0 0 1 -3.43,-1.82 10.72,10.72 0 0 1 -3.8,-6.63 24.39,24.39 0 0 1 -0.15,-3.93 V 163 c 0,-1 0,-2 0,-2.93 a 13.63,13.63 0 0 0 -4.17,-10.3 12.34,12.34 0 0 0 -4.92,-2.83 20.59,20.59 0 0 0 -5.68,-0.61 H 107.1 Z"
     id="path16" />
  <path
     class="cls-2"
     d="m 107.1,260.17 h 102.73 a 26,26 0 0 0 6.11,-0.42 16.11,16.11 0 0 0 5.55,-2.46 16.8,16.8 0 0 0 6.73,-9.87 23.94,23.94 0 0 0 0.52,-6.1 V 110.66 c 0,-0.34 0,-0.69 0,-1 a 7,7 0 0 1 0.1,-1 10.89,10.89 0 0 1 1.28,-3.88 10.62,10.62 0 0 1 6.22,-5 12.66,12.66 0 0 1 4.07,-0.42 h 146.45 l -5,5 -7.7,7.64 h 9 L 399,96.1 383.14,80.23 h -9 l 7.76,7.77 5,5 H 239.92 a 18.61,18.61 0 0 0 -6,0.77 16.28,16.28 0 0 0 -9.24,7.53 16.87,16.87 0 0 0 -2,5.73 11,11 0 0 0 -0.17,1.52 c 0,0.51 -0.07,1 -0.07,1.54 v 131.17 a 18,18 0 0 1 -0.28,4.08 11,11 0 0 1 -4.47,6.67 10.54,10.54 0 0 1 -3.76,1.6 20,20 0 0 1 -4.09,0.21 H 107.1 Z"
     id="path18" />
  <path
     class="cls-2"
     d="m 107.06,307.29 h 114.35 a 19.51,19.51 0 0 0 3.66,-0.38 16.56,16.56 0 0 0 6.61,-3.07 17.67,17.67 0 0 0 6.85,-12.54 c 0,-0.61 0.09,-1.22 0.09,-1.84 V 149.15 a 18.68,18.68 0 0 1 0.35,-4.9 9.88,9.88 0 0 1 2.38,-4.27 9.42,9.42 0 0 1 4.15,-2.54 16.78,16.78 0 0 1 4.9,-0.38 h 136.46 l -12.7,12.69 h 9 L 399,133.88 383.14,118 h -9 l 12.7,12.69 h -136.9 c -1.23,0 -2.47,0 -3.68,0.08 a 14.73,14.73 0 0 0 -9.67,4.53 15.45,15.45 0 0 0 -3.61,6.26 23.88,23.88 0 0 0 -0.7,7.27 v 140.2 c 0,0.41 0,0.82 -0.05,1.23 a 11.58,11.58 0 0 1 -4.53,8.43 10.73,10.73 0 0 1 -4.45,2 12.54,12.54 0 0 1 -2.45,0.21 H 107.06 Z"
     id="path20" />
  <line
     class="cls-4"
     x1="578.04999"
     y1="90.75"
     x2="578.04999"
     y2="304.12"
     id="line24"
     style="stroke-width:4;stroke-miterlimit:10;stroke-dasharray:none" />
  <line
     class="cls-4"
     x1="638.47998"
     y1="90.75"
     x2="638.47998"
     y2="304.12"
     id="line26"
     style="stroke-width:4;stroke-miterlimit:10;stroke-dasharray:none" />
  <line
     class="cls-4"
     x1="702.23999"
     y1="90.75"
     x2="702.23999"
     y2="304.12"
     id="line28"
     style="stroke-width:4;stroke-miterlimit:10;stroke-dasharray:none" />
  <line
     class="cls-4"
     x1="523.32001"
     y1="133.88"
     x2="766.27002"
     y2="133.88"
     id="line30"
     style="stroke-width:4;stroke-miterlimit:10;stroke-dasharray:none" />
  <g
     id="g1359">
    <rect
       class="cls-3"
       x="523.32001"
       y="90.75"
       width="242.95"
       height="213.37"
       id="rect22"
       style="stroke-width:8;stroke-miterlimit:10;stroke-dasharray:16, 32;stroke-dashoffset:0" />
    <line
       class="cls-5"
       x1="523.32001"
       y1="176.89999"
       x2="766.27002"
       y2="176.55"
       id="line32"
       style="stroke-width:4;stroke-miterlimit:10;stroke-dasharray:16, 8;stroke-dashoffset:0" />
    <line
       class="cls-6"
       x1="523.32001"
       y1="223.52"
       x2="766.27002"
       y2="223.52"
       id="line34"
       style="stroke-width:4;stroke-miterlimit:10;stroke-dasharray:16, 8;stroke-dashoffset:0" />
    <line
       class="cls-6"
       x1="523.32001"
       y1="266.84"
       x2="766.27002"
       y2="266.84"
       id="line36"
       style="stroke-width:4;stroke-miterlimit:10;stroke-dasharray:16, 8;stroke-dashoffset:0" />
  </g>
  <g
     id="g1694">
    <line
       class="cls-8"
       x1="946.77002"
       y1="90.75"
       x2="946.77002"
       y2="304.12"
       id="line40"
       style="stroke-width:4;stroke-miterlimit:10;stroke-dasharray:none" />
    <line
       class="cls-8"
       x1="1009.36"
       y1="90.75"
       x2="1009.36"
       y2="304.12"
       id="line42"
       style="stroke-width:4;stroke-miterlimit:10;stroke-dasharray:none" />
    <line
       class="cls-8"
       x1="1071.95"
       y1="90.75"
       x2="1071.95"
       y2="304.12"
       id="line44"
       style="stroke-width:4;stroke-miterlimit:10;stroke-dasharray:none" />
    <line
       class="cls-8"
       x1="890.07001"
       y1="133.88"
       x2="1135.1899"
       y2="133.88"
       id="line46"
       style="stroke-width:4;stroke-miterlimit:10;stroke-dasharray:none" />
    <g
       id="g1683">
      <rect
         class="cls-7"
         x="890.07001"
         y="90.75"
         width="244.22"
         height="213.37"
         id="rect38"
         style="stroke-width:8;stroke-miterlimit:10;stroke-dasharray:none" />
      <line
         class="cls-5"
         x1="890.07001"
         y1="176.72"
         x2="1135.1899"
         y2="176.37"
         id="line48"
         style="stroke-width:4;stroke-miterlimit:10;stroke-dasharray:16, 8;stroke-dashoffset:0" />
      <line
         class="cls-6"
         x1="890.07001"
         y1="223.52"
         x2="1135.1899"
         y2="223.52"
         id="line50"
         style="stroke-width:4;stroke-miterlimit:10;stroke-dasharray:16, 8;stroke-dashoffset:0" />
      <line
         class="cls-6"
         x1="890.07001"
         y1="266.84"
         x2="1134.3"
         y2="266.84"
         id="line52"
         style="stroke-width:4;stroke-miterlimit:10;stroke-dasharray:16, 8;stroke-dashoffset:0" />
    </g>
  </g>
  <line
     class="cls-8"
     x1="1362.59"
     y1="130.7"
     x2="1362.59"
     y2="344.06"
     id="line56"
     style="stroke-width:4;stroke-miterlimit:10;stroke-dasharray:none" />
  <line
     class="cls-8"
     x1="1425.1801"
     y1="130.7"
     x2="1425.1801"
     y2="344.06"
     id="line58"
     style="stroke-width:4;stroke-miterlimit:10;stroke-dasharray:none" />
  <line
     class="cls-8"
     x1="1487.78"
     y1="130.7"
     x2="1487.78"
     y2="344.06"
     id="line60"
     style="stroke-width:4;stroke-miterlimit:10;stroke-dasharray:none" />
  <line
     class="cls-8"
     x1="1305.9"
     y1="173.83"
     x2="1551.01"
     y2="173.83"
     id="line62"
     style="stroke-width:4;stroke-miterlimit:10;stroke-dasharray:none" />
  <path
     d="m 187.58,381.18 a 10.46,10.46 0 0 0 4.57,1.27 c 1.61,0 2.3,-0.54 2.3,-1.41 0,-0.87 -0.55,-1.32 -2.52,-2 -3.56,-1.17 -4.9,-3.11 -4.88,-5.12 0,-3.21 2.71,-5.63 7,-5.63 a 11.32,11.32 0 0 1 4.83,1 l -0.93,3.67 a 8.63,8.63 0 0 0 -3.71,-1 c -1.3,0 -2,0.52 -2,1.38 0,0.86 0.68,1.25 2.78,2 3.25,1.1 4.61,2.77 4.63,5.27 0,3.2 -2.49,5.55 -7.4,5.55 a 12.22,12.22 0 0 1 -5.55,-1.2 z"
     id="path76" />
  <path
     d="m 208.73,363.8 v 4.88 h 3.84 v 3.93 h -3.84 v 6.21 c 0,2.07 0.52,3 2.11,3 a 6.85,6.85 0 0 0 1.58,-0.16 v 4.05 a 11.2,11.2 0 0 1 -3.45,0.45 5.53,5.53 0 0 1 -4,-1.48 c -1,-1 -1.47,-2.65 -1.47,-5.08 v -7 h -2.28 v -3.93 h 2.28 V 365 Z"
     id="path78" />
  <path
     d="m 215.64,374.33 c 0,-2.51 0,-4.17 -0.14,-5.65 h 4.57 l 0.2,3.18 h 0.13 a 5,5 0 0 1 4.6,-3.56 4.48,4.48 0 0 1 1.14,0.1 v 5 a 6.36,6.36 0 0 0 -1.44,-0.15 3.43,3.43 0 0 0 -3.65,2.7 6.15,6.15 0 0 0 -0.1,1.19 v 8.67 h -5.33 z"
     id="path80" />
  <path
     d="m 232.76,379 c 0.16,2.21 2.35,3.26 4.83,3.26 a 14.44,14.44 0 0 0 4.72,-0.72 l 0.72,3.6 a 16.74,16.74 0 0 1 -6.21,1.08 c -5.81,0 -9.14,-3.38 -9.14,-8.71 0,-4.36 2.72,-9.17 8.64,-9.17 5.55,0 7.65,4.32 7.65,8.55 a 10.48,10.48 0 0 1 -0.19,2.11 z m 6.26,-3.65 c 0,-1.28 -0.57,-3.47 -3,-3.47 -2.25,0 -3.16,2.06 -3.31,3.47 z"
     id="path82" />
  <path
     d="m 256.89,385.82 -0.32,-1.7 h -0.11 A 6.16,6.16 0 0 1 251.57,386.2 5.23,5.23 0 0 1 246,381 c 0,-4.46 4,-6.58 10,-6.57 v -0.22 c 0,-0.91 -0.49,-2.21 -3.13,-2.21 a 10,10 0 0 0 -4.73,1.28 l -1,-3.41 a 13.93,13.93 0 0 1 6.66,-1.53 c 5.71,0 7.51,3.37 7.51,7.39 v 6 a 25.52,25.52 0 0 0 0.27,4.15 z m -0.65,-8.1 c -2.8,0 -5,0.66 -5,2.69 a 1.93,1.93 0 0 0 2.12,2.06 2.9,2.9 0 0 0 2.75,-2 3.43,3.43 0 0 0 0.1,-0.91 z"
     id="path84" />
  <path
     d="m 265.62,374.16 c 0,-2.14 -0.07,-3.94 -0.14,-5.48 H 270 l 0.23,2.32 h 0.11 a 5.94,5.94 0 0 1 5.17,-2.7 4.85,4.85 0 0 1 4.69,2.94 h 0.07 a 7.09,7.09 0 0 1 2.23,-2.09 6.05,6.05 0 0 1 3.25,-0.85 c 3.27,0 5.76,2.31 5.76,7.43 v 10.09 h -5.18 v -9.31 c 0,-2.48 -0.8,-3.92 -2.52,-3.92 a 2.6,2.6 0 0 0 -2.45,1.86 4.59,4.59 0 0 0 -0.19,1.35 v 10 H 276 v -9.61 c 0,-2.16 -0.77,-3.62 -2.47,-3.62 a 2.73,2.73 0 0 0 -2.5,1.91 3.88,3.88 0 0 0 -0.2,1.35 v 10 h -5.18 z"
     id="path86" />
  <path
     d="m 295.7,381.18 a 10.41,10.41 0 0 0 4.56,1.27 c 1.61,0 2.3,-0.54 2.3,-1.41 0,-0.87 -0.55,-1.32 -2.51,-2 -3.57,-1.17 -4.91,-3.11 -4.89,-5.12 0,-3.21 2.72,-5.63 7,-5.63 a 11.27,11.27 0 0 1 4.82,1 L 306,373 a 8.68,8.68 0 0 0 -3.72,-1 c -1.3,0 -2,0.52 -2,1.38 0,0.86 0.68,1.25 2.78,2 3.25,1.1 4.61,2.77 4.63,5.27 0,3.2 -2.49,5.55 -7.4,5.55 a 12.28,12.28 0 0 1 -5.55,-1.2 z"
     id="path88" />
  <path
     d="m 979.35,380.84 a 12.65,12.65 0 0 1 -4.78,0.8 c -5.53,0 -9.06,-3.39 -9.06,-8.77 0,-5 3.43,-9.11 9.8,-9.11 a 12.25,12.25 0 0 1 4.06,0.68 l -0.83,4 a 7.07,7.07 0 0 0 -3,-0.55 4.8102105,4.8102105 0 0 0 0.09,9.62 8,8 0 0 0 3.07,-0.56 z"
     id="path104" />
  <path
     d="m 992.16,381.27 -0.31,-1.7 h -0.11 a 6.17,6.17 0 0 1 -4.9,2.08 5.23,5.23 0 0 1 -5.54,-5.24 c 0,-4.46 4,-6.58 10.06,-6.57 v -0.22 c 0,-0.91 -0.49,-2.21 -3.14,-2.2 a 9.77,9.77 0 0 0 -4.72,1.28 l -1,-3.41 a 13.76,13.76 0 0 1 6.66,-1.54 c 5.7,0 7.51,3.37 7.51,7.39 v 6 a 24.43,24.43 0 0 0 0.27,4.15 z m -0.64,-8.1 c -2.81,0 -5,0.66 -5,2.7 a 1.92,1.92 0 0 0 2.11,2.05 2.91,2.91 0 0 0 2.76,-2 3.43,3.43 0 0 0 0.1,-0.91 z"
     id="path106" />
  <path
     d="m 1013.75,380.84 a 12.59,12.59 0 0 1 -4.77,0.8 c -5.54,0 -9.06,-3.39 -9.06,-8.77 0,-5 3.42,-9.11 9.79,-9.11 a 12.31,12.31 0 0 1 4.07,0.68 l -0.83,4 a 7.14,7.14 0 0 0 -3,-0.55 4.8101663,4.8101663 0 0 0 0.08,9.62 8,8 0 0 0 3.07,-0.56 z"
     id="path108" />
  <path
     d="m 1016.68,356.42 h 5.32 v 9.78 h 0.07 a 6.08,6.08 0 0 1 2.09,-1.77 5.91,5.91 0 0 1 2.77,-0.68 c 3.4,0 6,2.36 6,7.52 v 10 h -5.33 v -9.41 c 0,-2.26 -0.78,-3.8 -2.75,-3.8 a 2.82,2.82 0 0 0 -2.68,1.88 3.38,3.38 0 0 0 -0.17,1.17 v 10.16 h -5.33 z"
     id="path110" />
  <path
     d="m 1041.29,374.41 c 0.16,2.21 2.35,3.26 4.83,3.26 a 14.44,14.44 0 0 0 4.72,-0.72 l 0.71,3.6 a 16.45,16.45 0 0 1 -6.2,1.09 c -5.81,0 -9.14,-3.38 -9.14,-8.72 0,-4.36 2.72,-9.17 8.64,-9.17 5.55,0 7.65,4.32 7.65,8.56 a 10.45,10.45 0 0 1 -0.19,2.1 z m 6.26,-3.64 c 0,-1.29 -0.57,-3.48 -3,-3.48 -2.25,0 -3.16,2.06 -3.31,3.48 z"
     id="path112" />
  <path
     d="m 1055.65,376.63 a 10.41,10.41 0 0 0 4.56,1.27 c 1.61,0 2.3,-0.54 2.3,-1.41 0,-0.87 -0.55,-1.32 -2.51,-2 -3.57,-1.17 -4.91,-3.1 -4.89,-5.12 0,-3.21 2.72,-5.63 7,-5.63 a 11.27,11.27 0 0 1 4.82,1 l -0.92,3.67 a 8.68,8.68 0 0 0 -3.72,-1 c -1.3,0 -2,0.52 -2,1.38 0,0.86 0.68,1.25 2.78,2 3.25,1.1 4.61,2.77 4.63,5.27 0,3.2 -2.49,5.56 -7.4,5.56 a 12.27,12.27 0 0 1 -5.55,-1.21 z"
     id="path114" />
  <path
     d="m 948,399.08 c -2,3.22 -3.54,7.9 -3.54,14.17 a 27.26,27.26 0 0 0 3.54,14.1 h -3.72 a 27,27 0 0 1 0,-28.27 z"
     id="path116" />
  <path
     d="m 951.55,400 a 43.29,43.29 0 0 1 7.2,-0.5 c 3.27,0 5.63,0.64 7.21,1.91 a 6.79,6.79 0 0 1 2.51,5.45 7.41,7.41 0 0 1 -2.16,5.59 c -1.82,1.71 -4.54,2.5 -7.66,2.5 a 11.6,11.6 0 0 1 -1.82,-0.12 v 8.45 h -5.28 z m 5.28,10.7 a 8.17,8.17 0 0 0 1.77,0.14 c 2.83,0 4.58,-1.43 4.58,-3.82 0,-2.18 -1.48,-3.47 -4.17,-3.47 a 10.55,10.55 0 0 0 -2.18,0.18 z"
     id="path118" />
  <path
     d="m 987.75,414.53 c 0,6.26 -4.44,9.12 -9,9.12 -5,0 -8.85,-3.29 -8.85,-8.82 0,-5.53 3.65,-9.08 9.15,-9.08 5.21,0 8.7,3.61 8.7,8.78 z m -12.39,0.18 c 0,2.92 1.24,5.14 3.51,5.14 2.07,0 3.39,-2.08 3.39,-5.17 0,-2.53 -1,-5.12 -3.39,-5.12 -2.39,0 -3.51,2.61 -3.51,5.15 z"
     id="path120" />
  <path
     d="m 991,418.63 a 10.46,10.46 0 0 0 4.57,1.27 c 1.61,0 2.29,-0.54 2.29,-1.41 0,-0.87 -0.54,-1.32 -2.51,-2 -3.56,-1.17 -4.9,-3.1 -4.88,-5.12 0,-3.21 2.71,-5.63 7,-5.63 a 11.32,11.32 0 0 1 4.83,1 l -0.93,3.67 a 8.63,8.63 0 0 0 -3.71,-1 c -1.3,0 -2,0.52 -2,1.38 0,0.86 0.68,1.25 2.78,2 3.26,1.1 4.62,2.77 4.64,5.27 0,3.2 -2.5,5.56 -7.41,5.56 a 12.19,12.19 0 0 1 -5.54,-1.21 z"
     id="path122" />
  <path
     d="m 1012.17,401.25 v 4.89 h 3.83 v 3.92 h -3.84 v 6.21 c 0,2.07 0.52,3 2.11,3 a 6.85,6.85 0 0 0 1.58,-0.16 v 4.05 a 11.19,11.19 0 0 1 -3.45,0.46 5.54,5.54 0 0 1 -4,-1.49 c -1,-1 -1.48,-2.65 -1.48,-5.08 v -7 h -2.27 v -3.92 h 2.35 v -3.69 z"
     id="path124" />
  <path
     d="m 1035.26,406.14 c -0.08,1.1 -0.15,2.55 -0.15,5.1 v 9.54 c 0,3.29 -0.66,6 -2.6,7.7 a 10.37,10.37 0 0 1 -6.94,2.1 13.55,13.55 0 0 1 -6.16,-1.31 l 1.05,-4 a 10.58,10.58 0 0 0 5,1.29 c 2.51,0 4.44,-1.35 4.44,-4.51 v -1.1 h -0.07 a 5.52,5.52 0 0 1 -4.62,2.21 c -4.23,0 -7.25,-3.44 -7.25,-8.34 0,-5.53 3.56,-9 7.77,-9 a 5.16,5.16 0 0 1 4.69,2.43 h 0.07 l 0.18,-2 z m -5.47,7 a 3.9,3.9 0 0 0 -0.11,-1 2.88,2.88 0 0 0 -2.86,-2.35 c -1.94,0 -3.49,1.77 -3.49,4.87 0,2.56 1.26,4.55 3.48,4.55 a 2.91,2.91 0 0 0 2.82,-2.15 5.5,5.5 0 0 0 0.16,-1.41 z"
     id="path126" />
  <path
     d="m 1039.31,411.78 c 0,-2.51 0,-4.17 -0.14,-5.64 h 4.57 l 0.2,3.17 h 0.13 a 5,5 0 0 1 4.62,-3.56 4.48,4.48 0 0 1 1.14,0.1 v 5 a 6.36,6.36 0 0 0 -1.44,-0.15 3.43,3.43 0 0 0 -3.65,2.7 6.15,6.15 0 0 0 -0.1,1.19 v 8.67 h -5.33 z"
     id="path128" />
  <path
     d="m 1056.43,416.41 c 0.16,2.21 2.35,3.26 4.83,3.26 A 14.44,14.44 0 0 0 1066,419 l 0.71,3.6 a 16.45,16.45 0 0 1 -6.2,1.09 c -5.81,0 -9.14,-3.38 -9.14,-8.72 0,-4.36 2.72,-9.17 8.64,-9.17 5.55,0 7.65,4.32 7.65,8.56 a 10.45,10.45 0 0 1 -0.19,2.1 z m 6.26,-3.64 c 0,-1.29 -0.57,-3.48 -3,-3.48 -2.25,0 -3.16,2.06 -3.31,3.48 z"
     id="path130" />
  <path
     d="m 1070.79,418.63 a 10.41,10.41 0 0 0 4.56,1.27 c 1.61,0 2.3,-0.54 2.3,-1.41 0,-0.87 -0.55,-1.32 -2.52,-2 -3.56,-1.17 -4.9,-3.1 -4.88,-5.12 0,-3.21 2.72,-5.63 7,-5.63 a 11.27,11.27 0 0 1 4.82,1 l -0.92,3.67 a 8.72,8.72 0 0 0 -3.72,-1 c -1.3,0 -2,0.52 -2,1.38 0,0.86 0.68,1.25 2.78,2 3.25,1.1 4.61,2.77 4.63,5.27 0,3.2 -2.49,5.56 -7.4,5.56 a 12.27,12.27 0 0 1 -5.55,-1.21 z"
     id="path132" />
  <path
     d="m 1085.08,427.35 a 27.38,27.38 0 0 0 3.53,-14.17 27,27 0 0 0 -3.53,-14.1 h 3.71 c 1.87,2.68 4,7.29 4,14.12 a 25,25 0 0 1 -4,14.15 z"
     id="path134" />
  <path
     d="m 607.09,367.83 2.31,8 c 0.41,1.45 0.71,2.8 1,4.17 h 0.11 c 0.27,-1.41 0.56,-2.69 1,-4.17 l 2.2,-8 h 5.6 L 612.86,385 h -5.31 l -6.23,-17.13 z"
     id="path136" />
  <path
     d="m 627.16,363.07 a 2.65,2.65 0 0 1 -2.87,2.66 2.67,2.67 0 1 1 2.87,-2.66 z M 621.67,385 V 367.83 H 627 V 385 Z"
     id="path138" />
  <path
     d="m 635.37,378.11 c 0.15,2.21 2.34,3.26 4.82,3.26 a 14.39,14.39 0 0 0 4.72,-0.73 l 0.72,3.6 a 16.5,16.5 0 0 1 -6.21,1.09 c -5.8,0 -9.14,-3.38 -9.14,-8.72 0,-4.36 2.72,-9.17 8.64,-9.17 5.55,0 7.65,4.32 7.65,8.56 a 10.65,10.65 0 0 1 -0.19,2.11 z m 6.25,-3.65 c 0,-1.29 -0.57,-3.48 -3,-3.48 -2.25,0 -3.16,2.06 -3.31,3.48 z"
     id="path140" />
  <path
     d="m 653.21,367.83 1.38,7 c 0.34,1.76 0.68,3.66 1,5.62 h 0.08 c 0.32,-1.94 0.84,-3.9 1.25,-5.58 l 1.8,-7.06 h 4.22 l 1.72,6.82 c 0.46,2 0.92,3.87 1.25,5.82 H 666 c 0.24,-1.94 0.59,-3.88 1,-5.85 l 1.46,-6.79 h 5.2 L 668.37,385 h -5 l -1.6,-6 c -0.45,-1.68 -0.76,-3.22 -1.12,-5.35 h -0.07 a 42.19,42.19 0 0 1 -1.09,5.32 l -1.72,6 h -5 l -5,-17.13 z"
     id="path142" />
  <path
     d="m 675.51,380.32 a 10.46,10.46 0 0 0 4.57,1.27 c 1.61,0 2.3,-0.54 2.3,-1.41 0,-0.87 -0.55,-1.32 -2.52,-2 -3.56,-1.18 -4.9,-3.11 -4.88,-5.12 0,-3.22 2.71,-5.64 7,-5.64 a 11.31,11.31 0 0 1 4.82,1 l -0.93,3.67 a 8.63,8.63 0 0 0 -3.71,-1 c -1.3,0 -2,0.52 -2,1.38 0,0.86 0.68,1.25 2.78,2 3.25,1.1 4.61,2.78 4.63,5.27 0,3.2 -2.49,5.56 -7.4,5.56 a 12.24,12.24 0 0 1 -5.55,-1.21 z"
     id="path144" />
  <path
     d="m 556.48,402.77 a 26.91,26.91 0 0 0 -3.54,14.17 27.26,27.26 0 0 0 3.54,14.1 h -3.71 a 27,27 0 0 1 0,-28.27 z"
     id="path146" />
  <path
     d="m 579.94,417.94 c -0.11,-2.86 -0.22,-6.27 -0.2,-9.72 h -0.1 c -0.75,3 -1.75,6.37 -2.63,9.15 l -2.89,9.2 H 570 l -2.54,-9.11 c -0.76,-2.78 -1.54,-6.13 -2.13,-9.24 h -0.07 c -0.12,3.2 -0.25,6.85 -0.39,9.79 L 564.4,427 h -4.94 L 561,403.37 h 7.11 l 2.3,7.88 c 0.75,2.71 1.48,5.67 2,8.44 h 0.12 c 0.64,-2.73 1.44,-5.85 2.24,-8.47 l 2.51,-7.85 h 7 l 1.21,23.63 h -5.18 z"
     id="path148" />
  <path
     d="m 599.27,427 -0.31,-1.7 h -0.12 a 6.13,6.13 0 0 1 -4.89,2.08 5.23,5.23 0 0 1 -5.54,-5.24 c 0,-4.46 4,-6.58 10.06,-6.57 v -0.22 c 0,-0.91 -0.49,-2.21 -3.14,-2.2 a 9.77,9.77 0 0 0 -4.72,1.28 l -1,-3.41 a 13.76,13.76 0 0 1 6.66,-1.54 c 5.7,0 7.51,3.37 7.51,7.39 v 6 a 24.43,24.43 0 0 0 0.27,4.15 z m -0.64,-8.1 c -2.81,0 -5,0.66 -5,2.7 a 1.92,1.92 0 0 0 2.11,2.05 2.91,2.91 0 0 0 2.76,-2 3.43,3.43 0 0 0 0.1,-0.91 z"
     id="path150" />
  <path
     d="m 613.66,404.94 v 4.89 h 3.84 v 3.92 h -3.84 V 420 c 0,2.07 0.52,3 2.11,3 a 6.85,6.85 0 0 0 1.58,-0.16 v 4.05 a 11.14,11.14 0 0 1 -3.45,0.46 5.54,5.54 0 0 1 -4,-1.49 c -1,-1 -1.47,-2.64 -1.47,-5.08 v -7 h -2.28 v -3.92 h 2.28 v -3.69 z"
     id="path152" />
  <path
     d="m 624.5,420.11 c 0.16,2.21 2.34,3.26 4.83,3.26 a 14.37,14.37 0 0 0 4.71,-0.73 l 0.72,3.6 a 16.46,16.46 0 0 1 -6.21,1.09 c -5.8,0 -9.13,-3.38 -9.13,-8.72 0,-4.36 2.71,-9.17 8.63,-9.17 5.56,0 7.65,4.32 7.65,8.56 a 9.93,9.93 0 0 1 -0.19,2.11 z m 6.25,-3.65 c 0,-1.29 -0.56,-3.48 -3,-3.48 -2.25,0 -3.16,2.06 -3.3,3.48 z"
     id="path154" />
  <path
     d="m 638.87,415.47 c 0,-2.51 0,-4.17 -0.14,-5.64 h 4.58 l 0.19,3.17 h 0.13 a 5,5 0 0 1 4.63,-3.56 4.48,4.48 0 0 1 1.14,0.1 v 5 a 6.5,6.5 0 0 0 -1.44,-0.15 3.42,3.42 0 0 0 -3.65,2.7 6.15,6.15 0 0 0 -0.1,1.19 V 427 h -5.34 z"
     id="path156" />
  <path
     d="m 657.59,405.07 a 2.82,2.82 0 1 1 -2.82,-2.67 2.64,2.64 0 0 1 2.82,2.67 z M 652.1,427 v -17.17 h 5.34 V 427 Z"
     id="path158" />
  <path
     d="m 671.44,427 -0.31,-1.7 H 671 a 6.17,6.17 0 0 1 -4.9,2.08 5.22,5.22 0 0 1 -5.53,-5.24 c 0,-4.46 4,-6.58 10,-6.57 v -0.22 c 0,-0.91 -0.49,-2.21 -3.14,-2.2 a 9.81,9.81 0 0 0 -4.72,1.28 l -1,-3.41 a 13.76,13.76 0 0 1 6.66,-1.54 c 5.7,0 7.51,3.37 7.51,7.39 v 6 a 24.43,24.43 0 0 0 0.27,4.15 z m -0.64,-8.1 c -2.8,0 -5,0.66 -5,2.7 a 1.92,1.92 0 0 0 2.11,2.05 2.91,2.91 0 0 0 2.76,-2 3.43,3.43 0 0 0 0.1,-0.91 z"
     id="path160" />
  <path
     d="m 680.17,402.11 h 5.34 V 427 h -5.34 z"
     id="path162" />
  <path
     d="m 695.28,405.07 a 2.63,2.63 0 0 1 -2.86,2.66 2.67,2.67 0 1 1 2.86,-2.66 z M 689.8,427 v -17.17 h 5.33 V 427 Z"
     id="path164" />
  <path
     d="m 698,423.9 5.39,-6.74 c 1,-1.14 1.74,-2 2.71,-3 v -0.08 h -7.51 v -4.22 h 14 V 413 l -5.17,6.49 c -0.93,1.1 -1.82,2.18 -2.79,3.14 v 0.08 h 8.23 V 427 H 698 Z"
     id="path166" />
  <path
     d="m 719.67,420.11 c 0.15,2.21 2.34,3.26 4.82,3.26 a 14.39,14.39 0 0 0 4.72,-0.73 l 0.72,3.6 a 16.5,16.5 0 0 1 -6.21,1.09 c -5.8,0 -9.14,-3.38 -9.14,-8.72 0,-4.36 2.72,-9.17 8.64,-9.17 5.55,0 7.65,4.32 7.65,8.56 a 10.65,10.65 0 0 1 -0.19,2.11 z m 6.25,-3.65 c 0,-1.29 -0.57,-3.48 -3,-3.48 -2.25,0 -3.16,2.06 -3.31,3.48 z"
     id="path168" />
  <path
     d="m 733.12,431 a 27.37,27.37 0 0 0 3.54,-14.17 27,27 0 0 0 -3.54,-14.1 h 3.71 c 1.87,2.68 4,7.29 4,14.12 a 25,25 0 0 1 -4,14.15 z"
     id="path170" />
  <path
     d="M 1377.42,359.29 V 379 c 0,1.94 0.06,4 0.13,5.11 h -4.73 l -0.22,-2.51 h -0.08 a 6,6 0 0 1 -5.36,2.9 c -4,0 -7.31,-3.47 -7.31,-8.8 0,-5.75 3.58,-9.1 7.66,-9.1 2.12,0 3.74,0.75 4.51,1.93 h 0.07 v -9.27 z m -5.33,15 a 5.17,5.17 0 0 0 -0.07,-1 3.18,3.18 0 0 0 -3.09,-2.61 c -2.44,0 -3.68,2.17 -3.68,4.87 0,2.88 1.42,4.7 3.64,4.7 a 3.13,3.13 0 0 0 3.08,-2.55 5.17,5.17 0 0 0 0.12,-1.21 z"
     id="path172" />
  <path
     d="m 1391.43,384.14 -0.31,-1.7 H 1391 a 6.17,6.17 0 0 1 -4.9,2.09 5.23,5.23 0 0 1 -5.54,-5.24 c 0,-4.47 4,-6.58 10.06,-6.57 v -0.22 c 0,-0.91 -0.49,-2.21 -3.14,-2.21 a 9.77,9.77 0 0 0 -4.72,1.28 l -1,-3.41 a 13.89,13.89 0 0 1 6.66,-1.53 c 5.7,0 7.51,3.37 7.51,7.39 v 6 a 24.35,24.35 0 0 0 0.27,4.15 z m -0.64,-8.1 c -2.81,0 -5,0.66 -5,2.7 a 1.92,1.92 0 0 0 2.11,2.05 2.91,2.91 0 0 0 2.76,-2 3.34,3.34 0 0 0 0.1,-0.91 z"
     id="path174" />
  <path
     d="M 1405.82,362.12 V 367 h 3.84 v 3.93 h -3.84 v 6.21 c 0,2.06 0.52,3 2.11,3 a 7.57,7.57 0 0 0 1.58,-0.15 v 4 a 11.19,11.19 0 0 1 -3.45,0.46 5.54,5.54 0 0 1 -4,-1.49 c -1,-1 -1.48,-2.64 -1.48,-5.07 v -7 h -2.27 V 367 h 2.27 v -3.68 z"
     id="path176" />
  <path
     d="m 1422.48,384.14 -0.32,-1.7 h -0.11 a 6.17,6.17 0 0 1 -4.89,2.09 5.23,5.23 0 0 1 -5.54,-5.24 c 0,-4.47 4,-6.58 10.05,-6.57 v -0.22 c 0,-0.91 -0.49,-2.21 -3.13,-2.21 a 9.82,9.82 0 0 0 -4.73,1.28 l -1,-3.41 a 13.93,13.93 0 0 1 6.66,-1.53 c 5.71,0 7.51,3.37 7.51,7.39 v 6 a 25.43,25.43 0 0 0 0.27,4.15 z m -0.65,-8.1 c -2.8,0 -5,0.66 -5,2.7 a 1.92,1.92 0 0 0 2.12,2.05 2.9,2.9 0 0 0 2.75,-2 3.34,3.34 0 0 0 0.1,-0.91 z"
     id="path178" />
  <path
     d="m 1431.07,384.14 c 0.07,-1.13 0.14,-3.17 0.14,-5.11 v -19.74 h 5.32 v 9.76 h 0.07 a 6,6 0 0 1 5.17,-2.42 c 4.12,0 7.11,3.4 7.07,8.65 0,6.17 -3.91,9.25 -7.83,9.25 a 5.61,5.61 0 0 1 -5.12,-2.77 h -0.08 l -0.22,2.38 z m 5.46,-7.27 a 4.52,4.52 0 0 0 0.1,0.94 3.25,3.25 0 0 0 3.13,2.53 c 2.26,0 3.68,-1.76 3.68,-4.84 0,-2.66 -1.19,-4.77 -3.67,-4.77 a 3.28,3.28 0 0 0 -3.13,2.63 5.08,5.08 0 0 0 -0.11,1 z"
     id="path180" />
  <path
     d="m 1461.89,384.14 -0.32,-1.7 h -0.11 a 6.17,6.17 0 0 1 -4.89,2.09 5.23,5.23 0 0 1 -5.54,-5.24 c 0,-4.47 4,-6.58 10,-6.57 v -0.22 c 0,-0.91 -0.49,-2.21 -3.13,-2.21 a 9.82,9.82 0 0 0 -4.73,1.28 l -1,-3.41 a 13.93,13.93 0 0 1 6.66,-1.53 c 5.71,0 7.51,3.37 7.51,7.39 v 6 a 25.43,25.43 0 0 0 0.27,4.15 z m -0.65,-8.1 c -2.8,0 -5,0.66 -5,2.7 a 1.92,1.92 0 0 0 2.12,2.05 2.9,2.9 0 0 0 2.75,-2 3.34,3.34 0 0 0 0.1,-0.91 z"
     id="path182" />
  <path
     d="m 1470.6,379.5 a 10.28,10.28 0 0 0 4.56,1.28 c 1.61,0 2.3,-0.55 2.3,-1.42 0,-0.87 -0.55,-1.32 -2.51,-2 -3.57,-1.17 -4.91,-3.11 -4.89,-5.12 0,-3.22 2.72,-5.63 7,-5.63 a 11.44,11.44 0 0 1 4.82,1 l -0.92,3.67 a 8.83,8.83 0 0 0 -3.72,-1 c -1.3,0 -2,0.51 -2,1.38 0,0.87 0.68,1.25 2.78,2 3.25,1.11 4.61,2.78 4.63,5.28 0,3.19 -2.49,5.55 -7.4,5.55 a 12.28,12.28 0 0 1 -5.55,-1.2 z"
     id="path184" />
  <path
     d="m 1489.91,377.29 c 0.16,2.21 2.35,3.26 4.83,3.26 a 14.17,14.17 0 0 0 4.72,-0.73 l 0.71,3.61 a 16.65,16.65 0 0 1 -6.2,1.08 c -5.81,0 -9.14,-3.38 -9.14,-8.72 0,-4.35 2.72,-9.16 8.64,-9.16 5.55,0 7.65,4.31 7.65,8.55 a 10.48,10.48 0 0 1 -0.19,2.11 z m 6.26,-3.65 c 0,-1.28 -0.57,-3.47 -3,-3.47 -2.25,0 -3.16,2.05 -3.31,3.47 z"
     id="path186" />
  <path
     d="m 1504.27,379.5 a 10.28,10.28 0 0 0 4.56,1.28 c 1.61,0 2.3,-0.55 2.3,-1.42 0,-0.87 -0.55,-1.32 -2.51,-2 -3.57,-1.17 -4.91,-3.11 -4.89,-5.12 0,-3.22 2.72,-5.63 7,-5.63 a 11.44,11.44 0 0 1 4.82,1 l -0.92,3.67 a 8.83,8.83 0 0 0 -3.72,-1 c -1.3,0 -2,0.51 -2,1.38 0,0.87 0.68,1.25 2.78,2 3.25,1.11 4.61,2.78 4.63,5.28 0,3.19 -2.49,5.55 -7.4,5.55 a 12.28,12.28 0 0 1 -5.55,-1.2 z"
     id="path188" />
  <path
     d="m 1393.57,402 a 30,30 0 0 0 0,28.27 h -3.72 a 24.59,24.59 0 0 1 -4,-14.11 24.9,24.9 0 0 1 4,-14.16 z"
     id="path190" />
  <path
     d="m 1409.66,426.14 -2.13,-4.26 c -0.85,-1.66 -1.44,-2.89 -2.09,-4.25 h -0.07 c -0.49,1.37 -1.07,2.6 -1.84,4.23 l -2,4.28 h -6.07 l 6.81,-11.94 -6.57,-11.65 h 6.13 l 2.07,4.3 c 0.69,1.43 1.2,2.6 1.76,3.92 h 0.09 c 0.57,-1.5 1,-2.55 1.61,-3.91 l 2,-4.31 h 6.09 l -6.65,11.51 7,12.08 z"
     id="path192" />
  <path
     d="m 1423.48,407 h -6.37 v -4.48 h 18.16 V 407 h -6.46 v 19.11 h -5.33 z"
     id="path194" />
  <path
     d="m 1438.1,402.87 a 48.26,48.26 0 0 1 7.2,-0.5 c 4.47,0 7.4,0.82 9.66,2.53 2.45,1.83 4,4.71 4,8.88 0,4.52 -1.64,7.64 -3.91,9.55 -2.48,2.07 -6.28,3.06 -10.88,3.06 a 45.23,45.23 0 0 1 -6.06,-0.35 z m 5.33,19.26 a 13,13 0 0 0 1.86,0.09 c 4.83,0 8,-2.63 8,-8.27 0,-4.9 -2.86,-7.48 -7.45,-7.48 a 11.15,11.15 0 0 0 -2.42,0.21 z"
     id="path196" />
  <path
     d="m 1462.46,402.87 a 43.4,43.4 0 0 1 6.89,-0.5 c 3.25,0 5.25,0.32 7,1.32 a 5.13,5.13 0 0 1 2.81,4.65 c 0,2.08 -1.22,4 -3.88,5 v 0.09 a 5.87,5.87 0 0 1 4.7,5.78 6.24,6.24 0 0 1 -2.45,5 c -1.73,1.39 -4.58,2.15 -9.28,2.15 a 40.47,40.47 0 0 1 -5.77,-0.35 z m 5.29,9 h 1.73 c 2.83,0 4.3,-1.17 4.3,-2.93 0,-1.76 -1.36,-2.73 -3.77,-2.73 a 11.45,11.45 0 0 0 -2.26,0.16 z m 0,10.44 a 14.12,14.12 0 0 0 2,0.09 c 2.42,0 4.55,-0.93 4.55,-3.42 0,-2.49 -2.12,-3.3 -4.78,-3.31 h -1.82 z"
     id="path198" />
  <path
     d="m 1482.49,430.22 a 30,30 0 0 0 0,-28.27 h 3.72 a 24.42,24.42 0 0 1 4,14.12 25.1,25.1 0 0 1 -4,14.15 z"
     id="path200" />
  <g
     id="g4899">
    <g
       id="g4879">
      <line
         class="cls-5"
         x1="1305.9"
         y1="216.67"
         x2="1551.01"
         y2="216.32001"
         id="line64"
         style="stroke-width:4;stroke-miterlimit:10;stroke-dasharray:16, 8;stroke-dashoffset:0" />
      <line
         class="cls-6"
         x1="1305.9"
         y1="263.47"
         x2="1551.01"
         y2="263.47"
         id="line66"
         style="stroke-width:4;stroke-miterlimit:10;stroke-dasharray:16, 8;stroke-dashoffset:0" />
      <line
         class="cls-6"
         x1="1305.9"
         y1="310.13"
         x2="1550.12"
         y2="310.13"
         id="line68"
         style="stroke-width:4;stroke-miterlimit:10;stroke-dasharray:16, 8;stroke-dashoffset:0" />
    </g>
    <g
       id="g4424">
      <g
         id="g1766">
        <polygon
           class="cls-7"
           points="1305.9,130.7 1273.77,57.95 1273.77,268.03 1305.9,344.06 "
           id="polygon70"
           style="stroke-width:8;stroke-miterlimit:10;stroke-dasharray:none" />
        <rect
           class="cls-7"
           x="1305.9"
           y="130.7"
           width="244.22"
           height="213.37"
           id="rect54"
           style="stroke-width:8;stroke-miterlimit:10;stroke-dasharray:none" />
        <polyline
           class="cls-7"
           points="1273.77 268.03 1305.9 130.7 1486.78 54.49"
           id="polyline72"
           style="stroke-width:8;stroke-miterlimit:10;stroke-dasharray:none" />
        <polyline
           class="cls-7"
           points="1272.77 54.49 1549.12 130.7 1486.78 54.49 1272.77 54.49 1305.9 344.06"
           id="polyline74"
           style="stroke-width:8;stroke-miterlimit:10;stroke-dasharray:none" />
      </g>
      <g
         id="g4409">
        <rect
           style="fill:#ffffff;stroke:none;stroke-width:8;stroke-linecap:square;stroke-miterlimit:10;stroke-dasharray:none;stroke-dashoffset:0;paint-order:markers stroke fill"
           id="rect1790"
           width="15.494534"
           height="12.474735"
           x="1265.9642"
           y="38.0457" />
        <g
           id="g2931">
          <rect
             style="fill:#ffffff;stroke:none;stroke-width:9.98556;stroke-linecap:square;stroke-miterlimit:10;stroke-dasharray:none;stroke-dashoffset:0;paint-order:markers stroke fill"
             id="rect1790-4"
             width="15.494534"
             height="19.435513"
             x="1298.1763"
             y="348.06036" />
          <rect
             style="fill:#ffffff;stroke:none;stroke-width:8;stroke-linecap:square;stroke-miterlimit:10;stroke-dasharray:none;stroke-dashoffset:0;stroke-opacity:1;paint-order:markers stroke fill"
             id="rect1790-90"
             width="15.494534"
             height="12.474735"
             x="820.74988"
             y="-1062.3986"
             transform="rotate(66.911481)" />
        </g>
        <g
           id="g4400">
          <rect
             style="fill:#ffffff;stroke:none;stroke-width:8;stroke-linecap:square;stroke-miterlimit:10;stroke-dasharray:none;stroke-dashoffset:0;paint-order:markers stroke fill"
             id="rect1790-9"
             width="15.494534"
             height="12.474735"
             x="1554.1387"
             y="128.36125" />
          <rect
             style="fill:#ffffff;stroke:none;stroke-width:8;stroke-linecap:square;stroke-miterlimit:10;stroke-dasharray:none;stroke-dashoffset:0;paint-order:markers stroke fill"
             id="rect1790-91"
             width="15.494534"
             height="12.474735"
             x="1066.3115"
             y="-1139.6656"
             transform="rotate(51.082616)" />
        </g>
      </g>
    </g>
  </g>
  <g
     id="_ÎÓÈ_1"
     data-name="—ÎÓÈ_1"
     transform="translate(187.95781,398.17509)">
    <path
       d="M 12.8,5.81 A 27,27 0 0 0 9.26,20 27.26,27.26 0 0 0 12.8,34.1 H 9.09 a 24.62,24.62 0 0 1 -4,-14.1 25,25 0 0 1 4,-14.16 z"
       id="path1094" />
    <path
       d="m 16.32,6.42 h 5.28 v 10.42 h 0.09 c 0.52,-0.89 1.08,-1.74 1.62,-2.57 l 5.34,-7.85 h 6.56 l -7.81,10 8.22,13.58 h -6.21 l -5.8,-10.17 -2,2.46 V 30 h -5.29 z"
       id="path1096" />
    <path
       d="M 47.36,30 47.05,28.3 H 46.94 A 6.17,6.17 0 0 1 42,30.39 5.22,5.22 0 0 1 36.47,25.15 c 0,-4.46 4,-6.58 10.05,-6.57 v -0.22 c 0,-0.91 -0.49,-2.21 -3.14,-2.2 a 9.92,9.92 0 0 0 -4.72,1.27 l -1,-3.4 a 13.76,13.76 0 0 1 6.66,-1.54 c 5.7,0 7.51,3.37 7.51,7.39 v 6 A 24.43,24.43 0 0 0 52.16,30 Z m -0.64,-8.1 c -2.8,0 -5,0.66 -5,2.7 a 1.92,1.92 0 0 0 2.11,2.05 2.91,2.91 0 0 0 2.76,-2 3.43,3.43 0 0 0 0.1,-0.91 z"
       id="path1098" />
    <path
       d="M 56.71,30 V 16.8 h -2.26 v -3.92 h 2.26 v -0.66 a 7.92,7.92 0 0 1 2.15,-5.74 7,7 0 0 1 4.75,-1.71 10.64,10.64 0 0 1 2.82,0.36 L 66.21,9.22 A 5.7,5.7 0 0 0 64.49,9 C 62.74,9 62,10.35 62,12 v 0.87 h 3.43 V 16.8 H 62.05 V 30 Z"
       id="path1100" />
    <path
       d="m 73.36,20.11 h 0.07 c 0.39,-0.72 0.82,-1.42 1.23,-2.06 l 3.47,-5.17 h 6.39 l -6.14,6.95 7,10.18 h -6.53 l -4.14,-7 -1.35,1.7 V 30 H 68 V 5.16 h 5.33 z"
       id="path1102" />
    <path
       d="M 96.92,30 96.61,28.3 H 96.5 a 6.17,6.17 0 0 1 -4.9,2.08 5.22,5.22 0 0 1 -5.53,-5.24 c 0,-4.46 4,-6.58 10.05,-6.57 v -0.22 c 0,-0.91 -0.49,-2.21 -3.14,-2.2 a 9.92,9.92 0 0 0 -4.72,1.27 l -1,-3.4 a 13.76,13.76 0 0 1 6.66,-1.54 c 5.7,0 7.51,3.37 7.51,7.39 v 6 a 24.43,24.43 0 0 0 0.27,4.15 z m -0.64,-8.1 c -2.8,0 -5,0.66 -5,2.7 a 1.92,1.92 0 0 0 2.11,2.05 2.91,2.91 0 0 0 2.76,-2 3.43,3.43 0 0 0 0.1,-0.91 z"
       id="path1104" />
    <path
       d="m 104.73,34.09 a 27.37,27.37 0 0 0 3.54,-14.17 27,27 0 0 0 -3.54,-14.11 h 3.72 a 24.45,24.45 0 0 1 4,14.13 25.13,25.13 0 0 1 -4,14.15 z"
       id="path1106" />
  </g>
</svg>
