<?xml version="1.0" encoding="UTF-8" standalone="no"?>
<svg
   viewBox="0 0 1238.64 409.94"
   version="1.1"
   id="svg252"
   sodipodi:docname="truth-13-pierrains-pipe.svg"
   inkscape:version="1.1.2 (0a00cf5339, 2022-02-04, custom)"
   xmlns:inkscape="http://www.inkscape.org/namespaces/inkscape"
   xmlns:sodipodi="http://sodipodi.sourceforge.net/DTD/sodipodi-0.dtd"
   xmlns:xlink="http://www.w3.org/1999/xlink"
   xmlns="http://www.w3.org/2000/svg"
   xmlns:svg="http://www.w3.org/2000/svg">
  <sodipodi:namedview
     id="namedview254"
     pagecolor="#505050"
     bordercolor="#ffffff"
     borderopacity="1"
     inkscape:pageshadow="0"
     inkscape:pageopacity="0"
     inkscape:pagecheckerboard="1"
     showgrid="false"
     inkscape:zoom="0.62245688"
     inkscape:cx="653.05728"
     inkscape:cy="-32.934008"
     inkscape:window-width="1920"
     inkscape:window-height="1003"
     inkscape:window-x="0"
     inkscape:window-y="0"
     inkscape:window-maximized="1"
     inkscape:current-layer="svg252" />
  <defs
     id="defs29">
    <style
       id="style2">.cls-1,.cls-10,.cls-11,.cls-12,.cls-13,.cls-15,.cls-2,.cls-3,.cls-4,.cls-9{stroke:#53dcf8;}.cls-1,.cls-10,.cls-11,.cls-12,.cls-13,.cls-15,.cls-2,.cls-3,.cls-4,.cls-7,.cls-9{stroke-miterlimit:10;}.cls-1{fill:url(#radial-gradient);}.cls-2{fill:url(#radial-gradient-2);}.cls-3{fill:url(#radial-gradient-3);}.cls-4{fill:url(#radial-gradient-4);}.cls-5{fill:url(#radial-gradient-5);}.cls-6{fill:#492767;}.cls-7{fill:#a7f4fe;stroke:#a0f5fe;stroke-width:0.75px;}.cls-8{fill:#54229a;}.cls-9{fill:url(#radial-gradient-6);}.cls-10{fill:url(#radial-gradient-7);}.cls-11{fill:url(#radial-gradient-8);}.cls-12{fill:url(#radial-gradient-9);}.cls-13{fill:url(#linear-gradient);}.cls-14{fill:#1d1d1d;}.cls-15{fill:url(#linear-gradient-2);}.cls-16{fill:#fff;}</style>
    <radialGradient
       id="radial-gradient"
       cx="1051.87"
       cy="310.38"
       r="44.62"
       gradientTransform="translate(0 0.01)"
       gradientUnits="userSpaceOnUse">
      <stop
         offset="0"
         stop-color="#1a0825"
         id="stop4" />
      <stop
         offset="1"
         stop-color="#2a023f"
         id="stop6" />
    </radialGradient>
    <radialGradient
       id="radial-gradient-2"
       cx="1051.87"
       cy="278.06"
       r="44.62"
       xlink:href="#radial-gradient" />
    <radialGradient
       id="radial-gradient-3"
       cx="1051.87"
       cy="244.46"
       r="44.62"
       xlink:href="#radial-gradient" />
    <radialGradient
       id="radial-gradient-4"
       cx="1051.87"
       cy="210.11"
       r="44.62"
       xlink:href="#radial-gradient" />
    <radialGradient
       id="radial-gradient-5"
       cx="645.88"
       cy="309.48"
       r="355.38"
       gradientTransform="matrix(-0.73, 0, 0, 0.4, 877.16, 185.36)"
       xlink:href="#radial-gradient" />
    <radialGradient
       id="radial-gradient-6"
       cx="1051.87"
       cy="177.16"
       r="44.62"
       gradientTransform="matrix(1, 0, 0, 1, 0, 0)"
       xlink:href="#radial-gradient" />
    <radialGradient
       id="radial-gradient-7"
       cx="1051.87"
       cy="146.16"
       r="44.62"
       gradientTransform="matrix(1, 0, 0, 1, 0, 0)"
       xlink:href="#radial-gradient" />
    <radialGradient
       id="radial-gradient-8"
       cx="1051.87"
       cy="107.25"
       r="44.62"
       gradientTransform="matrix(1, 0, 0, 1, 0, 0)"
       xlink:href="#radial-gradient" />
    <radialGradient
       id="radial-gradient-9"
       cx="1051.87"
       cy="77.55"
       r="44.62"
       gradientTransform="translate(0 20.4) scale(1 0.75)"
       xlink:href="#radial-gradient" />
    <linearGradient
       id="linear-gradient"
       x1="1002.19"
       y1="49.21"
       x2="1101.54"
       y2="49.21"
       gradientUnits="userSpaceOnUse">
      <stop
         offset="0"
         stop-color="#4a78a0"
         id="stop17" />
      <stop
         offset="0.09"
         stop-color="#4a6fa0"
         id="stop19" />
      <stop
         offset="0.49"
         stop-color="#4a47a0"
         id="stop21" />
      <stop
         offset="0.8"
         stop-color="#4a2fa0"
         id="stop23" />
      <stop
         offset="1"
         stop-color="#4a26a0"
         id="stop25" />
    </linearGradient>
    <linearGradient
       id="linear-gradient-2"
       x1="827.54"
       y1="211.84"
       x2="913.68"
       y2="211.84"
       xlink:href="#linear-gradient" />
  </defs>
  <rect
     style="fill:#ffffff;stroke-miterlimit:0"
     id="rect1479"
     width="1242.7379"
     height="410.06229"
     x="0"
     y="0"
     sodipodi:insensitive="true" />
  <g
     id="_ÎÓÈ_1"
     data-name="—ÎÓÈ_1">
    <path
       class="cls-1"
       d="M1002.19,332.64s48.82,37.34,99.35,0V271.42h-99.35Z"
       id="path31" />
    <path
       class="cls-2"
       d="M1002.19,300.33s48.82,37.35,99.35,0V239.12h-99.35Z"
       id="path33" />
    <path
       class="cls-3"
       d="M1002.19,266.74s48.82,37.34,99.35,0V205.52h-99.35Z"
       id="path35" />
    <path
       class="cls-4"
       d="M1002.19,232.39s48.82,37.34,99.35,0V171.17h-99.35Z"
       id="path37" />
    <path
       class="cls-5"
       d="M773.12,309.69,43.28,310"
       id="path39" />
    <polygon
       class="cls-6"
       points="43.28 309.95 48.46 300.98 53.95 300.98 50.15 307.56 773.12 307.31 773.12 312.07 50.16 312.32 53.96 318.91 48.47 318.91 43.28 309.95"
       id="polygon41" />
    <circle
       class="cls-7"
       cx="130.68"
       cy="309.95"
       r="11.03"
       id="circle43" />
    <circle
       class="cls-7"
       cx="213.56"
       cy="309.02"
       r="11.03"
       id="circle45" />
    <circle
       class="cls-7"
       cx="293.41"
       cy="309.95"
       r="11.03"
       id="circle47" />
    <circle
       class="cls-7"
       cx="372.27"
       cy="309.95"
       r="11.03"
       id="circle49" />
    <circle
       class="cls-7"
       cx="447.88"
       cy="309.48"
       r="11.03"
       id="circle51" />
    <circle
       class="cls-7"
       cx="526.75"
       cy="309.02"
       r="11.03"
       id="circle53" />
    <circle
       class="cls-7"
       cx="594.89"
       cy="309.95"
       r="11.03"
       id="circle55" />
    <circle
       class="cls-7"
       cx="665.36"
       cy="309.95"
       r="11.03"
       id="circle57" />
    <circle
       class="cls-7"
       cx="740.65"
       cy="309.95"
       r="11.03"
       id="circle59" />
    <path
       class="cls-8"
       d="M294.08,286.43a53.85,53.85,0,0,0-6.24-7.59,55.11,55.11,0,0,0-7.44-6.37,39.19,39.19,0,0,0-18.13-7.26,35.79,35.79,0,0,0-9.86.28A40.42,40.42,0,0,0,243,268.4a61.28,61.28,0,0,0-16.21,10.85c-1.24,1.06-2.35,2.25-3.53,3.37l-.72.71-.38.37c-.25.25-.48.52-.72.77L220,286c-.06-1.49-.11-3-.12-4.56-.53.56-1,1.14-1.57,1.71,0,1.91.12,3.79.23,5.63,1.89-.11,3.75-.18,5.58-.23.49-.53,1-1.07,1.46-1.59-1.46,0-2.92.06-4.41.11l1.41-1.53c.23-.26.46-.52.7-.77l.37-.36.72-.7c1.15-1.1,2.24-2.27,3.46-3.31a59.42,59.42,0,0,1,15.79-10.57,38.34,38.34,0,0,1,9-2.8,34.11,34.11,0,0,1,9.41-.28,37.69,37.69,0,0,1,17.39,7A52.55,52.55,0,0,1,286.7,280a51.25,51.25,0,0,1,6,7.33Z"
       id="path61" />
    <path
       class="cls-8"
       d="M373,288.46a202,202,0,0,1,10-22.71,170,170,0,0,1,12.83-21.24,96,96,0,0,1,16.6-18.25,55.52,55.52,0,0,1,10.25-6.75,38.63,38.63,0,0,1,11.59-3.73,34.77,34.77,0,0,1,12.12.32,43.84,43.84,0,0,1,11.47,4.17c7.25,3.85,13.56,9.32,19.24,15.29A152.15,152.15,0,0,1,492.47,255c4.66,6.85,8.86,14,12.83,21.29,2,3.62,3.87,7.34,5.79,11l1,2,.23.47.46.94.92,1.88-4.24-1.44,1,2,5.3,1.83,1.83-5.31-1-2L515.1,292l-.92-1.89-.46-.94-.23-.47-1-2c-1.93-3.7-3.78-7.43-5.81-11.07-4-7.31-8.22-14.52-12.92-21.42a154.46,154.46,0,0,0-15.49-19.68c-5.77-6.05-12.18-11.64-19.66-15.6a45.11,45.11,0,0,0-11.9-4.32,36.2,36.2,0,0,0-12.67-.34A40.16,40.16,0,0,0,422,218.09,56.52,56.52,0,0,0,411.46,225a96.88,96.88,0,0,0-16.89,18.55A171.62,171.62,0,0,0,381.62,265a205.34,205.34,0,0,0-10.1,22.92Z"
       id="path63" />
    <path
       class="cls-8"
       d="M737.83,281.12A395.12,395.12,0,0,0,716.58,235a327.57,327.57,0,0,0-27.3-42.84c-10.28-13.45-21.88-26.07-35.5-36.29a110.29,110.29,0,0,0-21.95-12.94,82.27,82.27,0,0,0-24.65-6.54,76.15,76.15,0,0,0-25.44,1.78A95.64,95.64,0,0,0,558,147.52a131.65,131.65,0,0,0-21,14.32l-2.48,2L532.12,166l-4.75,4.25-4.53,4.46c-1.52,1.49-3,3-4.45,4.54A327.66,327.66,0,0,0,486.77,219c-9.56,14-18.38,28.45-26.58,43.26-2.08,3.68-4,7.44-6,11.16l-3,5.6-2.87,5.66-2,3.86-.24.47-.48.93-.95,1.88-1.39-4.27-1,2,1.76,5.32,5.34-1.76,1-2-4.27,1.39.95-1.86.47-.94.24-.47,2-3.85,2.87-5.65,3-5.58c2-3.71,4-7.47,6-11.14,8.18-14.77,17-29.21,26.5-43.14a325,325,0,0,1,31.46-39.55c1.4-1.57,2.91-3,4.42-4.51l4.5-4.43,4.7-4.2,2.36-2.1,2.46-2a130.92,130.92,0,0,1,20.81-14.16,94.45,94.45,0,0,1,23.32-9.21A74.93,74.93,0,0,1,607,138a80.91,80.91,0,0,1,24.17,6.43,107.74,107.74,0,0,1,21.63,12.75c13.46,10.09,25,22.61,35.19,36a326,326,0,0,1,27.16,42.62,392.83,392.83,0,0,1,21.16,45.92Z"
       id="path65" />
    <path
       class="cls-8"
       d="M595.6,284.18A60.43,60.43,0,0,1,607.39,269a40,40,0,0,1,7.75-5.64,27.17,27.17,0,0,1,9-3.09,26.08,26.08,0,0,1,9.44.33,31.58,31.58,0,0,1,4.53,1.49,21.09,21.09,0,0,1,2.19,1l2.11,1.14a18.74,18.74,0,0,1,2,1.27l2,1.33c1.26,1,2.54,2,3.76,3s2.38,2.19,3.53,3.32l3.31,3.56,3.74,4.52.31.42.62.84,1.23,1.68c-1.47-.23-2.93-.43-4.37-.6l1.28,1.75q2.73.36,5.53.83c.3-1.83.58-3.68.83-5.57l-1.37-1.87c-.19,1.53-.39,3-.62,4.52L663,281.5l-.62-.85c-.11-.15-.21-.29-.32-.42l-3.8-4.6L654.84,272c-1.18-1.16-2.41-2.27-3.61-3.4s-2.58-2.09-3.87-3.13l-2.07-1.38a20.24,20.24,0,0,0-2.12-1.32l-2.2-1.19c-.73-.41-1.54-.66-2.3-1A33.28,33.28,0,0,0,633.9,259a27.57,27.57,0,0,0-10-.34,28.84,28.84,0,0,0-9.48,3.26,42,42,0,0,0-8.07,5.86,62.07,62.07,0,0,0-12.13,15.66Z"
       id="path67" />
    <path
       d="M97.41,280.52c0-1.52,0-2.81-.1-3.9h3.3l.17,1.69h.08a4.44,4.44,0,0,1,3.78-2c2.5,0,4.38,1.67,4.38,5.27v7.24h-3.81v-6.78c0-1.58-.56-2.66-1.93-2.66a2.06,2.06,0,0,0-1.93,1.44,2.67,2.67,0,0,0-.13.94v7.06H97.41Z"
       id="path69" />
    <path
       d="M119,288.85l-.23-1.22h-.08a4.35,4.35,0,0,1-3.49,1.5,3.73,3.73,0,0,1-4-3.75c0-3.18,2.85-4.69,7.18-4.69v-.16c0-.65-.35-1.58-2.24-1.57a7.07,7.07,0,0,0-3.38.91l-.7-2.43a9.86,9.86,0,0,1,4.76-1.1c4.07,0,5.36,2.41,5.36,5.28v4.27a18.13,18.13,0,0,0,.19,3Zm-.46-5.78c-2,0-3.55.47-3.55,1.92a1.37,1.37,0,0,0,1.51,1.47,2.08,2.08,0,0,0,2-1.41,2.7,2.7,0,0,0,.07-.65Z"
       id="path71" />
    <path
       d="M125.26,280.52c0-1.52-.05-2.81-.1-3.9h3.21l.17,1.65h.08a4.22,4.22,0,0,1,3.68-1.93,3.44,3.44,0,0,1,3.35,2.1h.06a4.94,4.94,0,0,1,1.58-1.49,4.37,4.37,0,0,1,2.33-.61c2.33,0,4.11,1.65,4.11,5.31v7.2H140v-6.64c0-1.78-.57-2.81-1.8-2.81a1.86,1.86,0,0,0-1.75,1.33,3.44,3.44,0,0,0-.13,1v7.15h-3.7V282c0-1.54-.55-2.59-1.77-2.59a2,2,0,0,0-1.78,1.37,2.87,2.87,0,0,0-.14,1v7.12h-3.7Z"
       id="path73" />
    <path
       d="M149.69,284c.11,1.57,1.67,2.32,3.45,2.32a10.31,10.31,0,0,0,3.36-.51l.52,2.57a11.84,11.84,0,0,1-4.44.77c-4.14,0-6.52-2.41-6.52-6.22,0-3.11,1.94-6.55,6.17-6.55,4,0,5.46,3.08,5.46,6.11a7.17,7.17,0,0,1-.14,1.51Zm4.46-2.61a2.21,2.21,0,0,0-2.13-2.48,2.51,2.51,0,0,0-2.36,2.48Z"
       id="path75" />
    <path
       d="M169.38,276h0l-3.09,1.47-.63-2.85,4.31-2h3.14v16.25h-3.68Z"
       id="path77" />
    <path
       d="M226.11,242.75c0-1.52-.05-2.81-.1-3.91h3.3l.17,1.7h.08a4.44,4.44,0,0,1,3.78-2c2.5,0,4.38,1.66,4.38,5.26v7.24h-3.81v-6.78c0-1.57-.56-2.65-1.93-2.65a2,2,0,0,0-1.93,1.44,2.64,2.64,0,0,0-.13.94v7h-3.81Z"
       id="path79" />
    <path
       d="M247.72,251.07l-.22-1.21h-.08a4.41,4.41,0,0,1-3.5,1.49,3.73,3.73,0,0,1-3.95-3.74c0-3.19,2.85-4.7,7.18-4.7v-.15c0-.65-.35-1.58-2.24-1.58a7.07,7.07,0,0,0-3.38.92l-.7-2.44a10,10,0,0,1,4.76-1.09c4.07,0,5.36,2.4,5.36,5.28v4.26a18,18,0,0,0,.19,3Zm-.46-5.78c-2,0-3.55.47-3.55,1.93a1.37,1.37,0,0,0,1.51,1.46,2.08,2.08,0,0,0,2-1.4,2.36,2.36,0,0,0,.07-.65Z"
       id="path81" />
    <path
       d="M254,242.75c0-1.52-.05-2.81-.1-3.91h3.21l.17,1.66h.08a4.2,4.2,0,0,1,3.69-1.93,3.46,3.46,0,0,1,3.35,2.09h.05a5.17,5.17,0,0,1,1.58-1.49,4.46,4.46,0,0,1,2.33-.6c2.33,0,4.11,1.65,4.11,5.3v7.2h-3.7v-6.64c0-1.77-.57-2.8-1.8-2.8a1.86,1.86,0,0,0-1.75,1.33,3.37,3.37,0,0,0-.13,1v7.15h-3.7v-6.85c0-1.54-.55-2.59-1.77-2.59A2,2,0,0,0,257.8,243a2.89,2.89,0,0,0-.14,1v7.11H254Z"
       id="path83" />
    <path
       d="M278.39,246.18c.11,1.58,1.67,2.33,3.45,2.33a10,10,0,0,0,3.36-.52l.52,2.57a11.82,11.82,0,0,1-4.43.78c-4.15,0-6.53-2.42-6.53-6.23,0-3.11,1.94-6.54,6.17-6.54,4,0,5.46,3.08,5.46,6.11a7,7,0,0,1-.14,1.5Zm4.46-2.6a2.2,2.2,0,0,0-2.13-2.48,2.51,2.51,0,0,0-2.36,2.48Z"
       id="path85" />
    <path
       d="M293.24,251.07v-2.3l2.1-1.88c3.55-3.2,5.28-5,5.31-6.91,0-1.32-.78-2.37-2.66-2.37a6,6,0,0,0-3.48,1.34l-1.06-2.72a9,9,0,0,1,5.31-1.68c3.69,0,5.69,2.16,5.69,5.1,0,2.72-1.95,4.91-4.32,7l-1.5,1.24v.05h6.14v3.13Z"
       id="path87" />
    <path
       d="M400.85,198.38c0-1.53-.05-2.81-.1-3.91H404l.18,1.69h.08a4.44,4.44,0,0,1,3.78-2c2.5,0,4.38,1.67,4.38,5.27v7.24h-3.81v-6.78c0-1.57-.56-2.65-1.93-2.65a2,2,0,0,0-1.93,1.43,2.66,2.66,0,0,0-.14.94v7.06h-3.8Z"
       id="path89" />
    <path
       d="M422.46,206.7l-.23-1.21h-.08a4.39,4.39,0,0,1-3.49,1.49,3.74,3.74,0,0,1-4-3.74c0-3.19,2.85-4.7,7.18-4.7v-.15c0-.65-.35-1.58-2.24-1.58a7.06,7.06,0,0,0-3.37.92l-.7-2.44a9.86,9.86,0,0,1,4.76-1.1c4.07,0,5.36,2.41,5.36,5.28v4.27a18,18,0,0,0,.19,3Zm-.46-5.78c-2,0-3.55.47-3.55,1.93a1.37,1.37,0,0,0,1.51,1.46,2.08,2.08,0,0,0,2-1.41,2.67,2.67,0,0,0,.07-.64Z"
       id="path91" />
    <path
       d="M428.7,198.38c0-1.53-.05-2.81-.1-3.91h3.21l.16,1.66h.08a4.24,4.24,0,0,1,3.69-1.94,3.46,3.46,0,0,1,3.35,2.1h.05a5.19,5.19,0,0,1,1.59-1.49,4.34,4.34,0,0,1,2.32-.61c2.34,0,4.12,1.66,4.12,5.31v7.2h-3.7v-6.64c0-1.77-.57-2.8-1.8-2.8a1.87,1.87,0,0,0-1.75,1.32,3.45,3.45,0,0,0-.14,1v7.15h-3.7v-6.85c0-1.55-.55-2.59-1.76-2.59a2,2,0,0,0-1.78,1.36,2.89,2.89,0,0,0-.14,1v7.11h-3.7Z"
       id="path93" />
    <path
       d="M453.13,201.81c.11,1.58,1.67,2.33,3.45,2.33a10.3,10.3,0,0,0,3.36-.52l.51,2.57A11.75,11.75,0,0,1,456,207c-4.14,0-6.52-2.42-6.52-6.23,0-3.11,1.94-6.55,6.17-6.55,4,0,5.46,3.09,5.46,6.11a7,7,0,0,1-.14,1.51Zm4.46-2.61a2.21,2.21,0,0,0-2.13-2.48,2.51,2.51,0,0,0-2.36,2.48Z"
       id="path95" />
    <path
       d="M468.65,203a8.88,8.88,0,0,0,3.78,1c2,0,3-.94,3-2.16,0-1.61-1.6-2.33-3.27-2.34h-1.55v-2.73h1.48c1.27,0,2.88-.49,2.88-1.86,0-1-.79-1.7-2.39-1.7a7.26,7.26,0,0,0-3.39,1l-.78-2.74a10.12,10.12,0,0,1,5-1.23c3.48,0,5.4,1.83,5.4,4.06a3.9,3.9,0,0,1-3,3.76v.05a4,4,0,0,1,3.52,4c0,2.87-2.53,5-6.65,5a9.56,9.56,0,0,1-4.82-1.14Z"
       id="path97" />
    <path
       d="M580.83,238.52c0-1.53,0-2.82-.1-3.91H584l.18,1.69h.08a4.43,4.43,0,0,1,3.78-2c2.5,0,4.38,1.67,4.38,5.27v7.24h-3.81v-6.78c0-1.57-.57-2.65-1.94-2.65a2.07,2.07,0,0,0-1.93,1.43,2.92,2.92,0,0,0-.13.94v7.06h-3.81Z"
       id="path99" />
    <path
       d="M602.44,246.84l-.22-1.21h-.08a4.41,4.41,0,0,1-3.5,1.49,3.73,3.73,0,0,1-3.95-3.75c0-3.18,2.85-4.69,7.18-4.69v-.15c0-.65-.35-1.58-2.24-1.58a7.11,7.11,0,0,0-3.37.91l-.7-2.43a9.84,9.84,0,0,1,4.75-1.1c4.07,0,5.36,2.41,5.36,5.28v4.27a17.79,17.79,0,0,0,.2,3Zm-.46-5.78c-2,0-3.55.47-3.55,1.93a1.37,1.37,0,0,0,1.51,1.46,2.07,2.07,0,0,0,2-1.41,2.25,2.25,0,0,0,.07-.64Z"
       id="path101" />
    <path
       d="M608.68,238.52c0-1.53,0-2.82-.1-3.91h3.22l.16,1.66H612a4.24,4.24,0,0,1,3.69-1.94,3.47,3.47,0,0,1,3.35,2.1h0a5.07,5.07,0,0,1,1.59-1.49,4.34,4.34,0,0,1,2.32-.61c2.34,0,4.12,1.66,4.12,5.31v7.2h-3.7V240.2c0-1.77-.57-2.8-1.8-2.8a1.86,1.86,0,0,0-1.75,1.32,3.12,3.12,0,0,0-.14,1v7.15h-3.7V240c0-1.55-.55-2.59-1.76-2.59a2,2,0,0,0-1.79,1.36,2.89,2.89,0,0,0-.14,1v7.11h-3.7Z"
       id="path103" />
    <path
       d="M633.11,242c.12,1.58,1.68,2.33,3.45,2.33a10.37,10.37,0,0,0,3.37-.52l.51,2.57a11.79,11.79,0,0,1-4.43.78c-4.15,0-6.53-2.42-6.53-6.23,0-3.11,1.94-6.55,6.17-6.55,4,0,5.46,3.09,5.46,6.11A7.94,7.94,0,0,1,641,242Zm4.47-2.61a2.21,2.21,0,0,0-2.13-2.48,2.53,2.53,0,0,0-2.37,2.48Z"
       id="path105" />
    <path
       d="M654.69,246.84V243h-7.2v-2.47l6.14-9.89h4.65v9.52h1.94V243h-1.94v3.88Zm0-6.72v-3.59c0-1,.06-2,.11-3h-.09c-.52,1.06-1,2-1.51,3L651,240.07l0,.05Z"
       id="path107" />
    <path
       d="M562.77,117.64c0-1.53,0-2.81-.1-3.91H566l.17,1.7h.08a4.44,4.44,0,0,1,3.78-2c2.5,0,4.38,1.66,4.38,5.26V126h-3.81v-6.78c0-1.57-.56-2.65-1.93-2.65a2,2,0,0,0-1.93,1.44,2.64,2.64,0,0,0-.13.94v7h-3.81Z"
       id="path109" />
    <path
       d="M584.38,126l-.22-1.21h-.08a4.41,4.41,0,0,1-3.5,1.49,3.73,3.73,0,0,1-4-3.74c0-3.19,2.85-4.7,7.18-4.7v-.15c0-.65-.35-1.58-2.24-1.58a7,7,0,0,0-3.37.92l-.7-2.44a10,10,0,0,1,4.75-1.09c4.07,0,5.36,2.4,5.36,5.28V123a16.77,16.77,0,0,0,.2,3Zm-.46-5.78c-2,0-3.55.47-3.55,1.93a1.37,1.37,0,0,0,1.51,1.46,2.08,2.08,0,0,0,2-1.4,2.36,2.36,0,0,0,.07-.65Z"
       id="path111" />
    <path
       d="M590.62,117.64c0-1.53,0-2.81-.1-3.91h3.22l.16,1.66H594a4.2,4.2,0,0,1,3.69-1.93,3.46,3.46,0,0,1,3.35,2.09h.05a5,5,0,0,1,1.59-1.49,4.33,4.33,0,0,1,2.32-.6c2.33,0,4.11,1.65,4.11,5.3V126h-3.7v-6.64c0-1.77-.57-2.8-1.8-2.8a1.86,1.86,0,0,0-1.75,1.33,3.37,3.37,0,0,0-.13,1V126H598v-6.85c0-1.54-.55-2.59-1.76-2.59a2,2,0,0,0-1.79,1.36,2.89,2.89,0,0,0-.14,1V126h-3.7Z"
       id="path113" />
    <path
       d="M615.05,121.07c.11,1.58,1.67,2.33,3.45,2.33a10.1,10.1,0,0,0,3.37-.52l.51,2.57a11.79,11.79,0,0,1-4.43.78c-4.15,0-6.53-2.42-6.53-6.23,0-3.11,1.94-6.54,6.17-6.54,4,0,5.46,3.08,5.46,6.11a7.9,7.9,0,0,1-.13,1.5Zm4.47-2.6a2.22,2.22,0,0,0-2.14-2.48,2.52,2.52,0,0,0-2.36,2.48Z"
       id="path115" />
    <path
       d="M640.74,112.85h-6.3l-.35,2.49a7.15,7.15,0,0,1,1-.06,7.67,7.67,0,0,1,4.29,1.17,4.68,4.68,0,0,1,2,4.09c0,3-2.6,5.7-7,5.7a10.52,10.52,0,0,1-4.53-.92l.7-2.86a9.06,9.06,0,0,0,3.66.81c1.58,0,3.25-.75,3.25-2.48s-1.34-2.7-4.58-2.7a15,15,0,0,0-2.18.15l1-8.52h9Z"
       id="path117" />
    <path
       d="M105.81,334.73h0l-2.47,1.17-.5-2.28,3.44-1.6h2.51v13h-2.94Z"
       id="path119" />
    <path
       d="M117.56,331.54h8.24V334h-5.19v3.09h4.85v2.47h-4.85V345h-3Z"
       id="path121" />
    <path
       d="M129.82,341.11c.09,1.26,1.34,1.86,2.76,1.86a8.31,8.31,0,0,0,2.69-.41l.41,2.05a9.33,9.33,0,0,1-3.55.62c-3.31,0-5.22-1.93-5.22-5,0-2.49,1.55-5.24,4.94-5.24,3.17,0,4.37,2.47,4.37,4.89a5.49,5.49,0,0,1-.11,1.21Zm3.57-2.09a1.76,1.76,0,0,0-1.71-2,2,2,0,0,0-1.89,2Z"
       id="path123" />
    <path
       d="M138,345c0-.64.08-1.81.08-2.92V330.82h3.05v5.58h0a3.43,3.43,0,0,1,2.95-1.39c2.35,0,4.06,1.95,4,4.95,0,3.52-2.23,5.28-4.48,5.28a3.22,3.22,0,0,1-2.93-1.58h0l-.13,1.36Zm3.13-4.15a2.22,2.22,0,0,0,0,.53,1.85,1.85,0,0,0,1.79,1.45c1.29,0,2.1-1,2.1-2.77,0-1.52-.68-2.72-2.09-2.72a1.87,1.87,0,0,0-1.79,1.5,2.62,2.62,0,0,0-.06.57Z"
       id="path125" />
    <path
       d="M183.91,345v-1.84l1.67-1.51c2.84-2.55,4.23-4,4.25-5.53,0-1.05-.62-1.89-2.13-1.89a4.82,4.82,0,0,0-2.78,1.07l-.85-2.18a7.23,7.23,0,0,1,4.25-1.34c3,0,4.55,1.72,4.55,4.08,0,2.18-1.56,3.93-3.45,5.6l-1.21,1v0h4.92V345Z"
       id="path127" />
    <path
       d="M199.53,331.54h8.23V334h-5.19v3.09h4.85v2.47h-4.85V345h-3Z"
       id="path129" />
    <path
       d="M211.78,341.11c.09,1.26,1.34,1.86,2.76,1.86a8.37,8.37,0,0,0,2.7-.41l.41,2.05a9.41,9.41,0,0,1-3.55.62c-3.32,0-5.22-1.93-5.22-5,0-2.49,1.55-5.24,4.93-5.24,3.18,0,4.38,2.47,4.38,4.89a6.2,6.2,0,0,1-.11,1.21Zm3.58-2.09a1.77,1.77,0,0,0-1.71-2,2,2,0,0,0-1.89,2Z"
       id="path131" />
    <path
       d="M219.92,345c0-.64.08-1.81.08-2.92V330.82h3v5.58h0A3.44,3.44,0,0,1,226,335c2.36,0,4.07,1.95,4,4.95,0,3.52-2.23,5.28-4.47,5.28a3.2,3.2,0,0,1-2.93-1.58h0L222.5,345Zm3.12-4.15a2.89,2.89,0,0,0,.05.53,1.86,1.86,0,0,0,1.8,1.45c1.29,0,2.09-1,2.09-2.77,0-1.52-.68-2.72-2.09-2.72a1.87,1.87,0,0,0-1.79,1.5,2.62,2.62,0,0,0-.06.57Z"
       id="path133" />
    <path
       d="M265.77,342.05a7.1,7.1,0,0,0,3,.79c1.58,0,2.38-.76,2.38-1.73,0-1.29-1.28-1.87-2.63-1.87H267.3v-2.19h1.19c1,0,2.31-.4,2.31-1.49,0-.78-.63-1.36-1.92-1.36a5.81,5.81,0,0,0-2.71.78l-.63-2.19a8.07,8.07,0,0,1,4-1c2.78,0,4.31,1.46,4.31,3.25a3.12,3.12,0,0,1-2.37,3v0a3.22,3.22,0,0,1,2.81,3.17c0,2.3-2,4-5.31,4a7.63,7.63,0,0,1-3.86-.91Z"
       id="path135" />
    <path
       d="M280.85,331.54h8.23V334H283.9v3.09h4.85v2.47H283.9V345h-3Z"
       id="path137" />
    <path
       d="M293.11,341.11c.09,1.26,1.33,1.86,2.76,1.86a8.35,8.35,0,0,0,2.69-.41l.41,2.05a9.37,9.37,0,0,1-3.55.62c-3.31,0-5.22-1.93-5.22-5,0-2.49,1.55-5.24,4.94-5.24,3.17,0,4.37,2.47,4.37,4.89a6.2,6.2,0,0,1-.11,1.21Zm3.57-2.09a1.77,1.77,0,0,0-1.71-2,2,2,0,0,0-1.89,2Z"
       id="path139" />
    <path
       d="M301.24,345c0-.64.08-1.81.08-2.92V330.82h3v5.58h0a3.45,3.45,0,0,1,3-1.39c2.35,0,4.06,1.95,4,4.95,0,3.52-2.24,5.28-4.48,5.28a3.21,3.21,0,0,1-2.93-1.58h0l-.13,1.36Zm3.12-4.15a2.2,2.2,0,0,0,.06.53,1.85,1.85,0,0,0,1.79,1.45c1.29,0,2.1-1,2.1-2.77,0-1.52-.68-2.72-2.1-2.72a1.89,1.89,0,0,0-1.79,1.5,3.43,3.43,0,0,0-.06.57Z"
       id="path141" />
    <path
       d="M347.61,345v-3.1h-5.76v-2l4.91-7.92h3.72v7.62H352v2.28h-1.56V345Zm0-5.38v-2.87c0-.78,0-1.59.09-2.43h-.08c-.41.85-.76,1.6-1.2,2.41l-1.73,2.85,0,0Z"
       id="path143" />
    <path
       d="M357.85,331.54h8.23V334H360.9v3.09h4.85v2.47H360.9V345h-3Z"
       id="path145" />
    <path
       d="M370.1,341.11c.1,1.26,1.34,1.86,2.76,1.86a8.37,8.37,0,0,0,2.7-.41l.41,2.05a9.37,9.37,0,0,1-3.55.62c-3.31,0-5.22-1.93-5.22-5,0-2.49,1.55-5.24,4.93-5.24,3.18,0,4.38,2.47,4.38,4.89a6.2,6.2,0,0,1-.11,1.21Zm3.58-2.09a1.77,1.77,0,0,0-1.71-2,2,2,0,0,0-1.89,2Z"
       id="path147" />
    <path
       d="M378.24,345c0-.64.08-1.81.08-2.92V330.82h3v5.58h0a3.45,3.45,0,0,1,3-1.39c2.35,0,4.06,1.95,4,4.95,0,3.52-2.24,5.28-4.48,5.28a3.2,3.2,0,0,1-2.93-1.58h0l-.13,1.36Zm3.12-4.15a2.89,2.89,0,0,0,.05.53,1.87,1.87,0,0,0,1.8,1.45c1.29,0,2.1-1,2.1-2.77,0-1.52-.68-2.72-2.1-2.72a1.88,1.88,0,0,0-1.79,1.5,3.43,3.43,0,0,0-.06.57Z"
       id="path149" />
    <path
       d="M414.92,345.7v-1.84l1.67-1.52c2.85-2.55,4.23-4,4.26-5.52,0-1.06-.63-1.9-2.13-1.9a4.83,4.83,0,0,0-2.79,1.07l-.85-2.17a7.17,7.17,0,0,1,4.25-1.35c2.95,0,4.56,1.73,4.56,4.08,0,2.18-1.57,3.93-3.46,5.6l-1.21,1v0h4.92v2.51Z"
       id="path151" />
    <path
       d="M425.81,342.3a3.47,3.47,0,0,1,2.32-3.27v0a3.2,3.2,0,0,1-1.88-2.86c0-2.2,2-3.66,4.58-3.66,3.05,0,4.31,1.77,4.31,3.34a3.19,3.19,0,0,1-1.89,2.87v.05a3.46,3.46,0,0,1,2.39,3.24c0,2.36-2,3.95-5,3.95C427.33,345.92,425.81,344.06,425.81,342.3Zm6.73-.11c0-1.13-.86-1.81-2.05-2.13a2,2,0,0,0-1.57,1.93,1.78,1.78,0,0,0,1.84,1.83A1.64,1.64,0,0,0,432.54,342.19ZM429.12,336c0,.88.78,1.45,1.84,1.77a1.8,1.8,0,0,0,1.32-1.66,1.51,1.51,0,0,0-1.59-1.61A1.45,1.45,0,0,0,429.12,336Z"
       id="path153" />
    <path
       d="M441.64,332.21h8.23v2.5h-5.18v3.09h4.85v2.48h-4.85v5.42h-3.05Z"
       id="path155" />
    <path
       d="M453.89,341.78c.1,1.26,1.34,1.86,2.76,1.86a8.1,8.1,0,0,0,2.7-.41l.41,2.06a9.57,9.57,0,0,1-3.55.62c-3.31,0-5.22-1.93-5.22-5,0-2.48,1.55-5.23,4.94-5.23,3.17,0,4.37,2.46,4.37,4.88a6.11,6.11,0,0,1-.11,1.21Zm3.58-2.08a1.77,1.77,0,0,0-1.71-2,2,2,0,0,0-1.89,2Z"
       id="path157" />
    <path
       d="M462,345.7c0-.65.08-1.82.08-2.93V331.49h3v5.58h0a3.44,3.44,0,0,1,3-1.38c2.35,0,4.06,1.94,4,4.94,0,3.53-2.24,5.29-4.48,5.29a3.21,3.21,0,0,1-2.93-1.59h0l-.13,1.37Zm3.12-4.16a2.23,2.23,0,0,0,.06.54,1.86,1.86,0,0,0,1.79,1.45c1.29,0,2.1-1,2.1-2.77,0-1.52-.68-2.73-2.1-2.73a1.88,1.88,0,0,0-1.79,1.5,3.43,3.43,0,0,0-.06.57Z"
       id="path159" />
    <path
       d="M501.49,346.72v-1.84l1.67-1.51c2.85-2.56,4.23-4,4.26-5.53,0-1.06-.63-1.9-2.13-1.9A4.83,4.83,0,0,0,502.5,337l-.85-2.17a7.16,7.16,0,0,1,4.25-1.34c3,0,4.56,1.72,4.56,4.07,0,2.18-1.57,3.94-3.46,5.61l-1.21,1v0h4.92v2.51Z"
       id="path161" />
    <path
       d="M528.5,341.56c-.06-1.63-.12-3.58-.11-5.55h-.06c-.43,1.72-1,3.64-1.5,5.23l-1.65,5.26h-2.37l-1.45-5.21c-.44-1.59-.89-3.5-1.22-5.28h0c-.07,1.83-.14,3.91-.23,5.59l-.25,5.12H516.8l.86-13.48h4.07l1.31,4.5c.43,1.55.84,3.24,1.15,4.82h.06c.37-1.56.83-3.34,1.28-4.84l1.44-4.48h4l.73,13.48h-3Z"
       id="path163" />
    <path
       d="M539.55,346.72l-.18-1h-.06a3.52,3.52,0,0,1-2.8,1.19,3,3,0,0,1-3.16-3c0-2.56,2.28-3.76,5.74-3.76v-.13c0-.52-.28-1.26-1.79-1.26a5.64,5.64,0,0,0-2.7.73l-.56-1.94a7.93,7.93,0,0,1,3.81-.88c3.25,0,4.28,1.92,4.28,4.22v3.42a14.82,14.82,0,0,0,.16,2.37Zm-.37-4.63c-1.6,0-2.84.38-2.84,1.54a1.1,1.1,0,0,0,1.21,1.17,1.67,1.67,0,0,0,1.58-1.12,2.24,2.24,0,0,0,0-.52Z"
       id="path165" />
    <path
       d="M544.54,340.16c0-1.44,0-2.39-.08-3.23h2.61l.11,1.81h.08a2.86,2.86,0,0,1,2.64-2,2.57,2.57,0,0,1,.65.06v2.86a3.66,3.66,0,0,0-.82-.09,2,2,0,0,0-2.09,1.55,3.49,3.49,0,0,0,0,.68v5h-3.05Z"
       id="path167" />
    <path
       d="M577.21,337.73h0l-2.47,1.17-.51-2.28,3.45-1.6h2.51v13h-2.94Z"
       id="path169" />
    <path
       d="M592.08,344.56l-1,3.46H588l4.11-13.48h4l4.2,13.48H597l-1-3.46Zm3.43-2.27-.84-2.86c-.23-.8-.47-1.81-.68-2.6h0c-.2.79-.4,1.82-.62,2.6l-.81,2.86Z"
       id="path171" />
    <path
       d="M601.85,341.52c0-1.28,0-2.37-.08-3.29h2.64l.14,1.37h0a3.8,3.8,0,0,1,3.26-1.59c2.15,0,4.07,1.87,4.07,5,0,3.57-2.27,5.24-4.45,5.24a3,3,0,0,1-2.54-1.11h0V352h-3Zm3,2.31a3.24,3.24,0,0,0,.06.64,1.85,1.85,0,0,0,1.78,1.44c1.32,0,2.1-1.11,2.1-2.77s-.69-2.74-2.05-2.74a1.9,1.9,0,0,0-1.82,1.54,2.35,2.35,0,0,0-.07.54Z"
       id="path173" />
    <path
       d="M613.81,341.46c0-1.44,0-2.38-.08-3.23h2.61l.11,1.82h.08a2.86,2.86,0,0,1,2.64-2,2.61,2.61,0,0,1,.65.06v2.86a3.72,3.72,0,0,0-.82-.08,2,2,0,0,0-2.09,1.54,3.56,3.56,0,0,0,0,.68V348h-3.05Z"
       id="path175" />
    <path
       d="M649.07,337.92h0l-2.47,1.17-.51-2.28,3.45-1.6H652v13h-2.94Z"
       id="path177" />
    <path
       d="M672.21,343.05c-.06-1.63-.12-3.58-.11-5.55H672c-.43,1.72-1,3.64-1.5,5.23L668.89,348h-2.37l-1.46-5.21c-.43-1.59-.88-3.5-1.21-5.28h0c-.07,1.83-.15,3.91-.23,5.59l-.25,5.12h-2.82l.86-13.48h4.07l1.31,4.5c.43,1.55.84,3.24,1.15,4.82H668c.37-1.56.83-3.34,1.28-4.84l1.44-4.48h4l.73,13.48h-3Z"
       id="path179" />
    <path
       d="M683.26,348.21l-.18-1H683a3.52,3.52,0,0,1-2.8,1.19,3,3,0,0,1-3.17-3c0-2.55,2.29-3.76,5.75-3.75v-.13c0-.52-.28-1.26-1.79-1.26a5.64,5.64,0,0,0-2.7.73l-.56-1.95a7.93,7.93,0,0,1,3.8-.87c3.26,0,4.29,1.92,4.29,4.22v3.42a13.73,13.73,0,0,0,.16,2.37Zm-.37-4.63c-1.6,0-2.84.38-2.84,1.54a1.1,1.1,0,0,0,1.21,1.17,1.68,1.68,0,0,0,1.58-1.12,2.24,2.24,0,0,0,0-.52Z"
       id="path181" />
    <path
       d="M690.28,338.42l1.47,4.81c.16.57.35,1.31.49,1.82h.06c.13-.53.29-1.26.43-1.82l1.21-4.81h3.25l-2.27,6.44c-1.41,3.89-2.34,5.44-3.45,6.42a5.39,5.39,0,0,1-2.93,1.34l-.65-2.57a4.4,4.4,0,0,0,1.32-.51,3.58,3.58,0,0,0,1.26-1.22.91.91,0,0,0,.17-.44,1.25,1.25,0,0,0-.14-.51l-3.59-8.95Z"
       id="path183" />
    <path
       d="M728.68,338.73h0l-2.48,1.17-.5-2.28,3.45-1.6h2.51v13h-2.94Z"
       id="path185" />
    <path
       d="M743.06,335.54h3.05v8.53c0,3.83-1.84,5.17-4.8,5.17a7.72,7.72,0,0,1-2.24-.32l.35-2.45a5.28,5.28,0,0,0,1.55.23c1.28,0,2.09-.57,2.09-2.67Z"
       id="path187" />
    <path
       d="M757.76,345.89c0,1.27,0,2.32.08,3.13H755.2l-.14-1.38H755a3.45,3.45,0,0,1-3,1.6c-2,0-3.44-1.24-3.44-4.25v-5.76h3v5.26c0,1.44.46,2.29,1.53,2.29a1.63,1.63,0,0,0,1.52-1.07,1.75,1.75,0,0,0,.11-.64v-5.84h3Z"
       id="path189" />
    <path
       d="M760.2,342.36c0-1.22,0-2.25-.08-3.13h2.64l.14,1.36H763a3.56,3.56,0,0,1,3-1.58c2,0,3.5,1.34,3.5,4.22V349h-3V343.6c0-1.26-.45-2.13-1.55-2.13a1.65,1.65,0,0,0-1.54,1.15,2.12,2.12,0,0,0-.11.75V349h-3Z"
       id="path191" />
    <path
       class="cls-9"
       d="M1002.19,199.47s48.82,37.35,99.35,0V138.25h-99.35Z"
       id="path193" />
    <path
       class="cls-10"
       d="M1002.19,168.47s48.82,37.35,99.35,0V107.25h-99.35Z"
       id="path195" />
    <path
       class="cls-11"
       d="M1002.19,129.56s48.82,37.35,99.35,0V68.33h-99.35Z"
       id="path197" />
    <path
       class="cls-12"
       d="M1002.19,94.87s48.82,27.85,99.35,0V49.21h-99.35Z"
       id="path199" />
    <ellipse
       class="cls-13"
       cx="1051.87"
       cy="49.21"
       rx="49.68"
       ry="20.2"
       id="ellipse201" />
    <path
       class="cls-14"
       d="M1105,152.42a89.44,89.44,0,0,0,14.1-5.83,50,50,0,0,0,6.53-4,23.42,23.42,0,0,0,5.55-5.47,11.43,11.43,0,0,0,1.69-3.68,8.92,8.92,0,0,0,0-4.11,13.87,13.87,0,0,0-4.26-6.66,35,35,0,0,0-6.24-4.56,70.22,70.22,0,0,0-6.79-3.5c-1.16-.51-2.32-1-3.5-1.51l-.77-.31-.49-.2-1-.39-2-.75c1.36-.61,2.75-1.22,4.16-1.8l-2.16-.83c-1.73.74-3.45,1.55-5.13,2.35.8,1.7,1.59,3.36,2.32,5.07l2,.78c-.56-1.36-1.16-2.71-1.77-4.08l2,.74,1,.38.48.2.77.31c1.16.46,2.3,1,3.44,1.48a68.2,68.2,0,0,1,6.64,3.43,33.09,33.09,0,0,1,6,4.34,12.27,12.27,0,0,1,3.8,5.87,8.21,8.21,0,0,1-1.49,6.53,21.79,21.79,0,0,1-5.18,5.09,50.47,50.47,0,0,1-6.33,3.9,89.59,89.59,0,0,1-13.82,5.72Z"
       id="path203" />
    <path
       class="cls-14"
       d="M1104.93,325.91c8.16-2.06,16.2-4.46,24.18-7.1s15.87-5.55,23.6-8.86a169.31,169.31,0,0,0,22.51-11.43,82.84,82.84,0,0,0,10.29-7.42,42.53,42.53,0,0,0,8.49-9.54,23,23,0,0,0,2.61-5.93,20.57,20.57,0,0,0,.62-3.22c0-.55,0-1.1,0-1.65,0-.27,0-.54,0-.82l-.09-.82a20.19,20.19,0,0,0-1.71-6.29c-.51-.95-1-1.94-1.56-2.84l-.91-1.34a11.07,11.07,0,0,0-1-1.29,48.26,48.26,0,0,0-9.24-8.77,94.21,94.21,0,0,0-10.65-6.87A192.22,192.22,0,0,0,1149.33,231q-11.7-4.67-23.72-8.49c-4-1.31-8-2.49-12-3.72l-2.17-.62-.51-.15-1-.29-2-.58,3.94-2.17-2.17-.63-4.91,2.72,2.72,4.91,2.14.62-2.16-3.93,2,.58,1,.29.5.15,2.17.62c4,1.22,8,2.4,12,3.71q12,3.81,23.62,8.45a191.62,191.62,0,0,1,22.65,10.64,92.55,92.55,0,0,1,10.47,6.76,46.79,46.79,0,0,1,9,8.48,9.09,9.09,0,0,1,.91,1.23l.86,1.26c.55.85,1,1.77,1.47,2.66a18.4,18.4,0,0,1,1.57,5.78l.08.75c0,.25,0,.5,0,.75l0,1.49a18.52,18.52,0,0,1-.57,2.95,21.54,21.54,0,0,1-2.43,5.52,41.14,41.14,0,0,1-8.17,9.17,81.59,81.59,0,0,1-10.1,7.27,169.65,169.65,0,0,1-22.29,11.33c-7.68,3.28-15.54,6.17-23.48,8.8s-16,5-24.06,7.07Z"
       id="path205" />
    <path
       class="cls-14"
       d="M1106.74,179.8a172.94,172.94,0,0,1,26.2,9.93,90,90,0,0,1,12.11,7c3.77,2.66,7.38,5.72,9.74,9.59a13.46,13.46,0,0,1,2.08,6.26,12.53,12.53,0,0,1-1.48,6.37,22,22,0,0,1-4.12,5.38,39.56,39.56,0,0,1-5.33,4.4c-7.61,5.33-16.29,9.08-25,12.46-2.2.82-4.39,1.65-6.61,2.4l-1.28.44-.5.18-1,.33-2,.65c.67-1.33,1.35-2.65,2-4-.7.25-1.4.47-2.1.7l-2.52,5,5,2.53c.72-.23,1.44-.46,2.15-.72-1.35-.64-2.7-1.33-4-2l2-.65,1-.34.5-.18,1.29-.44c2.23-.76,4.44-1.6,6.65-2.41,4.4-1.7,8.77-3.51,13-5.56a86.21,86.21,0,0,0,12.32-7.09,41.49,41.49,0,0,0,5.53-4.58,23.63,23.63,0,0,0,4.41-5.77,14.05,14.05,0,0,0,1.65-7.19,15.06,15.06,0,0,0-2.3-7,26.72,26.72,0,0,0-4.61-5.58,48.74,48.74,0,0,0-5.58-4.49,91.45,91.45,0,0,0-12.33-7.08,173.56,173.56,0,0,0-26.47-10Z"
       id="path207" />
    <path
       class="cls-14"
       d="M1107.52,257.66a23.76,23.76,0,0,1,8,11.2,14.83,14.83,0,0,1,.42,6.78,17.59,17.59,0,0,1-2.57,6.36c-.29.51-.67.95-1,1.43l-.29.4-.33.39-.66.78c-.42.54-.93,1-1.4,1.49,0-.74,0-1.46-.09-2.17s-.18-1.44-.3-2.12c-.43.49-.8,1-1.28,1.47a33,33,0,0,1,0,5.45,36.94,36.94,0,0,0,5.76,0c.6-.58,1.12-1.27,1.68-1.91-.8.13-1.58.23-2.35.31s-1.55.09-2.3.1c.48-.52,1-1,1.47-1.56l.69-.83.35-.41.31-.43a18.09,18.09,0,0,0,1.06-1.53,19,19,0,0,0,2.8-6.94,16.26,16.26,0,0,0-.46-7.5,22,22,0,0,0-3.38-6.65,27.56,27.56,0,0,0-5.15-5.37Z"
       id="path209" />
    <circle
       class="cls-15"
       cx="870.61"
       cy="211.84"
       r="43.07"
       id="circle211" />
    <path
       class="cls-16"
       d="M871.17,212c0,7.16-5.06,10.43-10.31,10.43-5.7,0-10.11-3.77-10.11-10.09S854.92,202,861.21,202C867.19,202,871.17,206.13,871.17,212Zm-14.15.2c0,3.34,1.41,5.88,4,5.88,2.37,0,3.87-2.38,3.87-5.91,0-2.88-1.11-5.85-3.87-5.85S857,209.34,857,212.24Z"
       id="path213" />
    <path
       class="cls-16"
       d="M875,208.9c0-2.87-.06-4.76-.16-6.45H880l.23,3.62h.14a5.74,5.74,0,0,1,5.29-4.06,5.18,5.18,0,0,1,1.3.12v5.72a7.47,7.47,0,0,0-1.65-.17,3.91,3.91,0,0,0-4.17,3.09,7.76,7.76,0,0,0-.11,1.35V222H875Z"
       id="path215" />
    <path
       d="M961.5,363a31.27,31.27,0,0,1,4.92-.36,9.51,9.51,0,0,1,5,.94,3.67,3.67,0,0,1,2,3.32,3.81,3.81,0,0,1-2.77,3.59v.06a4.2,4.2,0,0,1,3.36,4.13,4.46,4.46,0,0,1-1.76,3.58c-1.23,1-3.26,1.53-6.62,1.53a28.69,28.69,0,0,1-4.12-.25Zm3.78,6.45h1.23c2,0,3.07-.84,3.07-2.09s-1-1.95-2.69-1.95a8.61,8.61,0,0,0-1.61.11Zm0,7.45a8.39,8.39,0,0,0,1.46.07c1.73,0,3.25-.67,3.25-2.44s-1.51-2.36-3.41-2.36h-1.3Z"
       id="path217" />
    <path
       d="M980.38,364a2,2,0,1,1-2-1.91A1.88,1.88,0,0,1,980.38,364Zm-3.91,15.63V367.39h3.81v12.24Z"
       id="path219" />
    <path
       d="M989.08,371.79v2.53h-6.53v-2.53Z"
       id="path221" />
    <path
       d="M995.61,363.9v3.49h2.74v2.81h-2.74v4.43c0,1.48.36,2.15,1.5,2.15a5.14,5.14,0,0,0,1.13-.11l0,2.89a7.91,7.91,0,0,1-2.46.33,4,4,0,0,1-2.87-1.06,5,5,0,0,1-1.05-3.63v-5h-1.63v-2.81h1.63v-2.63Z"
       id="path223" />
    <path
       d="M1003.35,374.73c.11,1.58,1.67,2.33,3.44,2.33a10.1,10.1,0,0,0,3.37-.52l.51,2.57a11.75,11.75,0,0,1-4.43.78c-4.14,0-6.52-2.42-6.52-6.23,0-3.11,1.94-6.54,6.16-6.54,4,0,5.47,3.08,5.47,6.11a7,7,0,0,1-.14,1.5Zm4.46-2.6a2.2,2.2,0,0,0-2.13-2.48,2.5,2.5,0,0,0-2.36,2.48Z"
       id="path225" />
    <path
       d="M1013.62,371.3c0-1.52,0-2.81-.1-3.91h3.21l.16,1.66h.08a4.23,4.23,0,0,1,3.69-1.93,3.45,3.45,0,0,1,3.35,2.09h0a5.32,5.32,0,0,1,1.59-1.49,4.42,4.42,0,0,1,2.32-.6c2.34,0,4.12,1.65,4.12,5.31v7.2h-3.7V373c0-1.77-.57-2.8-1.8-2.8a1.86,1.86,0,0,0-1.75,1.33,3.37,3.37,0,0,0-.13,1v7.16H1021v-6.86c0-1.54-.54-2.59-1.76-2.59a2,2,0,0,0-1.78,1.37,2.79,2.79,0,0,0-.14,1v7.12h-3.7Z"
       id="path227" />
    <path
       d="M1035.12,371.5c0-1.6,0-3-.1-4.11h3.3l.18,1.72h0a4.7,4.7,0,0,1,4.07-2c2.68,0,5.08,2.33,5.08,6.23,0,4.46-2.84,6.55-5.56,6.55a3.79,3.79,0,0,1-3.17-1.39h0v6.06h-3.8Zm3.8,2.89a3.31,3.31,0,0,0,.08.79,2.3,2.3,0,0,0,2.22,1.81c1.64,0,2.62-1.39,2.62-3.46s-.87-3.43-2.56-3.43A2.37,2.37,0,0,0,1039,372a2.59,2.59,0,0,0-.09.68Z"
       id="path229" />
    <path
       d="M1062.21,373.39a6.12,6.12,0,0,1-6.45,6.51,6,6,0,0,1-6.32-6.3c0-4,2.61-6.48,6.54-6.48A5.94,5.94,0,0,1,1062.21,373.39Zm-8.85.12c0,2.09.89,3.67,2.51,3.67s2.42-1.48,2.42-3.69c0-1.8-.7-3.66-2.42-3.66S1053.36,371.7,1053.36,373.51Z"
       id="path231" />
    <path
       d="M1064.57,371.42c0-1.79,0-3-.11-4h3.27l.14,2.27h.09a3.59,3.59,0,0,1,3.31-2.54,3.35,3.35,0,0,1,.81.07v3.57a4.84,4.84,0,0,0-1-.1,2.43,2.43,0,0,0-2.6,1.93,4.36,4.36,0,0,0-.07.85v6.19h-3.81Z"
       id="path233" />
    <path
       d="M1080.75,379.63l-.22-1.22h-.08a4.41,4.41,0,0,1-3.49,1.49,3.73,3.73,0,0,1-4-3.74c0-3.19,2.85-4.7,7.18-4.69v-.16c0-.65-.35-1.58-2.24-1.58a7,7,0,0,0-3.37.92l-.7-2.44a10,10,0,0,1,4.75-1.09c4.08,0,5.36,2.4,5.36,5.28v4.26a17,17,0,0,0,.2,3Zm-.46-5.79c-2,0-3.55.47-3.55,1.93a1.37,1.37,0,0,0,1.51,1.46,2.07,2.07,0,0,0,2-1.4,2.36,2.36,0,0,0,.07-.65Z"
       id="path235" />
    <path
       d="M1087,361.88h3.81v17.75H1087Z"
       id="path237" />
    <path
       d="M1096.13,369.48a32.51,32.51,0,0,1,3-6.78l2.3-.2a39.56,39.56,0,0,0-1.75,6.74Zm4.89,0a32.51,32.51,0,0,1,3-6.78l2.3-.2a38.65,38.65,0,0,0-1.75,6.74Z"
       id="path239" />
    <path
       d="M1107.77,371.5c0-1.6,0-3-.1-4.11h3.3l.18,1.72h0a4.7,4.7,0,0,1,4.07-2c2.68,0,5.08,2.33,5.08,6.23,0,4.46-2.84,6.55-5.56,6.55a3.79,3.79,0,0,1-3.17-1.39h0v6.06h-3.8Zm3.8,2.89a3.31,3.31,0,0,0,.08.79,2.3,2.3,0,0,0,2.22,1.81c1.64,0,2.62-1.39,2.62-3.46s-.87-3.43-2.56-3.43a2.37,2.37,0,0,0-2.27,1.92,2.59,2.59,0,0,0-.09.68Z"
       id="path241" />
    <path
       d="M1126.63,364a2,2,0,1,1-2-1.91A1.88,1.88,0,0,1,1126.63,364Zm-3.91,15.63V367.39h3.81v12.24Z"
       id="path243" />
    <path
       d="M1129.57,371.5c0-1.6,0-3-.11-4.11h3.31l.18,1.72h0a4.7,4.7,0,0,1,4.07-2c2.68,0,5.08,2.33,5.08,6.23,0,4.46-2.84,6.55-5.56,6.55a3.79,3.79,0,0,1-3.17-1.39h-.05v6.06h-3.8Zm3.8,2.89a3.31,3.31,0,0,0,.08.79,2.3,2.3,0,0,0,2.22,1.81c1.64,0,2.62-1.39,2.62-3.46s-.87-3.43-2.56-3.43a2.37,2.37,0,0,0-2.27,1.92,2.59,2.59,0,0,0-.09.68Z"
       id="path245" />
    <path
       d="M1147.52,374.73c.12,1.58,1.68,2.33,3.45,2.33a10.1,10.1,0,0,0,3.37-.52l.51,2.57a11.79,11.79,0,0,1-4.43.78c-4.15,0-6.53-2.42-6.53-6.23,0-3.11,1.94-6.54,6.17-6.54,4,0,5.46,3.08,5.46,6.11a7.9,7.9,0,0,1-.13,1.5Zm4.47-2.6a2.21,2.21,0,0,0-2.13-2.48,2.52,2.52,0,0,0-2.37,2.48Z"
       id="path247" />
    <path
       d="M1161.62,362.5a32.18,32.18,0,0,1-3,6.77l-2.3.21a39.66,39.66,0,0,0,1.75-6.75Zm4.88,0a32.17,32.17,0,0,1-3,6.77l-2.3.21a39.66,39.66,0,0,0,1.75-6.75Z"
       id="path249" />
  </g>
</svg>
