<?xml version="1.0" encoding="UTF-8" standalone="no"?>
<svg
   id="_ÎÓÈ_1"
   data-name="—ÎÓÈ_1"
   viewBox="0 0 444 105"
   version="1.1"
   sodipodi:docname="truth-01a-train-05.svg"
   width="444"
   height="105"
   inkscape:version="1.1.2 (0a00cf5339, 2022-02-04, custom)"
   xmlns:inkscape="http://www.inkscape.org/namespaces/inkscape"
   xmlns:sodipodi="http://sodipodi.sourceforge.net/DTD/sodipodi-0.dtd"
   xmlns="http://www.w3.org/2000/svg"
   xmlns:svg="http://www.w3.org/2000/svg">
  <sodipodi:namedview
     id="namedview171"
     pagecolor="#505050"
     bordercolor="#ffffff"
     borderopacity="1"
     inkscape:pageshadow="0"
     inkscape:pageopacity="0"
     inkscape:pagecheckerboard="1"
     showgrid="false"
     fit-margin-top="0"
     fit-margin-left="0"
     fit-margin-right="0"
     fit-margin-bottom="0"
     inkscape:zoom="1.5452141"
     inkscape:cx="240.41976"
     inkscape:cy="-46.271906"
     inkscape:window-width="1920"
     inkscape:window-height="1003"
     inkscape:window-x="0"
     inkscape:window-y="0"
     inkscape:window-maximized="1"
     inkscape:current-layer="_ÎÓÈ_1" />
  <defs
     id="defs4">
    <style
       id="style2">.cls-1{fill:none;stroke:#1a1c19;stroke-miterlimit:10;stroke-width:1.71px;}.cls-2{fill:#2ed4f6;}.cls-3{fill:#53e5f8;}.cls-4{fill:#2efff6;}.cls-5{fill:#2a023f;}.cls-6{fill:#53a5f8;}.cls-7{fill:#1a1c19;}.cls-8{fill:#f7dda2;}.cls-9{fill:#535ef8;}.cls-10{fill:#5389f8;}.cls-11{fill:#5387f8;}.cls-12{fill:#53b2f8;}.cls-13{fill:#53dcf8;}.cls-14{fill:#fff;}.cls-15{fill:#66c6fe;}.cls-16{fill:#9cf5fe;}</style>
  </defs>
  <g
     id="g1252"
     transform="translate(9.7199936,9.9352195)">
    <path
       class="cls-1"
       d="m 113.04,67.51 a 3,3 0 1 0 -3,3 3,3 0 0 0 3,-3 z"
       id="path6" />
    <path
       class="cls-1"
       d="m 113.04,67.51 a 28.91,28.91 0 0 0 11,0"
       id="path8" />
    <rect
       class="cls-2"
       x="0"
       y="45.149998"
       width="3.6199999"
       height="11.51"
       id="rect10" />
    <path
       class="cls-3"
       d="m 40.150001,26.69 a 5.71,5.71 0 1 1 11.42,0 v 10.28 h -11.42 z"
       id="path12" />
    <path
       class="cls-2"
       d="m 11.300001,8.1500002 h 7.42 a 1.14,1.14 0 0 1 1.14,1.14 V 12.4 h -9.7 V 9.2900002 a 1.14,1.14 0 0 1 1.14,-1.14 z"
       id="path14" />
    <path
       class="cls-2"
       d="m 20.830001,22.7 c -2.9,9.89 -1.85,14.27 -1.85,14.27 h -7.93 c 0,0 1,-4.37 -1.8499999,-14.27 z"
       id="path16" />
    <path
       class="cls-4"
       d="m 18.440001,23.27 h -6.85 A 5.54,5.54 0 0 1 6.0700011,17.75 v 0 a 5.53,5.53 0 0 1 5.5199999,-5.52 h 6.85 a 5.53,5.53 0 0 1 5.52,5.52 v 0 a 5.54,5.54 0 0 1 -5.52,5.52 z"
       id="path18" />
    <path
       class="cls-4"
       d="M 9.8500011,34.4 H 20.180001 a 1.16,1.16 0 0 1 1.2,1.19 V 37 H 8.7000011 v -1.41 a 1.15,1.15 0 0 1 1.15,-1.19 z"
       id="path20" />
    <rect
       class="cls-5"
       x="3.6200027"
       y="36.970001"
       width="59.369999"
       height="26.07"
       id="rect22" />
    <rect
       class="cls-6"
       x="3.6200027"
       y="63.039997"
       width="99.910004"
       height="13.89"
       id="rect24" />
    <rect
       class="cls-6"
       x="62.990002"
       y="17.18"
       width="44.720001"
       height="48.150002"
       id="rect26" />
    <rect
       class="cls-3"
       x="78.180008"
       y="17.470001"
       width="14.25"
       height="14.25"
       id="rect28" />
    <rect
       class="cls-5"
       x="56.570004"
       y="0"
       width="57.470001"
       height="17.32"
       id="rect30" />
    <circle
       class="cls-7"
       cx="-1.9301889"
       cy="76.868324"
       r="9.8999996"
       transform="rotate(-13.44)"
       id="circle32" />
    <path
       class="cls-8"
       d="m 17.700001,75.22 a 1.72,1.72 0 1 0 -1.72,1.71 1.72,1.72 0 0 0 1.72,-1.71 z"
       id="path34" />
    <circle
       class="cls-7"
       cx="-24.881836"
       cy="84.518715"
       r="9.8999996"
       transform="rotate(-47.77)"
       id="circle36" />
    <circle
       class="cls-8"
       cx="45.860004"
       cy="75.220001"
       r="1.71"
       id="circle38" />
    <circle
       class="cls-7"
       cx="90.110001"
       cy="67.509995"
       r="17.6"
       id="circle40" />
    <circle
       class="cls-8"
       cx="90.110001"
       cy="67.509995"
       r="1.71"
       id="circle42" />
    <path
       class="cls-1"
       d="m 187.2,67.51 a 35.62,35.62 0 0 0 15.66,0"
       id="path44" />
    <path
       class="cls-1"
       d="m 187.2,67.51 a 3,3 0 1 0 -3,3 3,3 0 0 0 3,-3 z"
       id="path46" />
    <polygon
       class="cls-9"
       points="240.02,54.65 180.46,54.65 180.55,94.63 240.11,94.63 "
       id="polygon48"
       transform="translate(-57.619999,-19.41)" />
    <rect
       class="cls-10"
       x="116.84001"
       y="28.189999"
       width="71.550003"
       height="7.04"
       id="rect50" />
    <circle
       class="cls-7"
       cx="40.741348"
       cy="147.11147"
       r="9.8999996"
       transform="rotate(-45)"
       id="circle52" />
    <path
       class="cls-8"
       d="m 134.54,75.22 a 1.72,1.72 0 1 0 -1.71,1.71 1.72,1.72 0 0 0 1.71,-1.71 z"
       id="path54" />
    <circle
       class="cls-7"
       cx="68.858238"
       cy="175.24017"
       r="9.8999996"
       transform="rotate(-45)"
       id="circle56" />
    <path
       class="cls-8"
       d="m 174.31,75.22 a 1.71,1.71 0 1 0 -1.71,1.71 1.72,1.72 0 0 0 1.71,-1.71 z"
       id="path58" />
    <path
       class="cls-1"
       d="m 266.02,67.51 a 38.89,38.89 0 0 0 15.62,0"
       id="path60" />
    <path
       class="cls-1"
       d="m 266.02,67.51 a 3,3 0 1 0 -3,3 3,3 0 0 0 3,-3 z"
       id="path62" />
    <polygon
       class="cls-11"
       points="318.8,54.65 259.24,54.65 259.33,94.63 318.9,94.63 "
       id="polygon64"
       transform="translate(-57.619999,-19.41)" />
    <rect
       class="cls-12"
       x="195.62001"
       y="28.189999"
       width="71.550003"
       height="7.04"
       id="rect66" />
    <circle
       class="cls-7"
       cx="188.54504"
       cy="122.01246"
       r="9.8999996"
       transform="rotate(-13.34)"
       id="circle68" />
    <circle
       class="cls-8"
       cx="211.61002"
       cy="75.220001"
       r="1.71"
       id="circle70" />
    <circle
       class="cls-7"
       cx="227.23807"
       cy="131.19165"
       r="9.8999996"
       transform="rotate(-13.34)"
       id="circle72" />
    <circle
       class="cls-8"
       cx="251.38"
       cy="75.220001"
       r="1.71"
       id="circle74" />
    <path
       class="cls-1"
       d="m 344.44,67.51 a 3,3 0 1 0 -3.06,3.08 3,3 0 0 0 3.06,-3.08 z"
       id="path76" />
    <polygon
       class="cls-6"
       points="397.78,54.65 338.21,54.65 338.31,94.63 397.87,94.63 "
       id="polygon78"
       transform="translate(-57.619999,-19.41)" />
    <rect
       class="cls-13"
       x="274.60001"
       y="28.189999"
       width="71.550003"
       height="7.04"
       id="rect80" />
    <circle
       class="cls-7"
       cx="152.28194"
       cy="258.65756"
       r="9.8999996"
       transform="rotate(-45)"
       id="circle82" />
    <circle
       class="cls-8"
       cx="290.58002"
       cy="75.220001"
       r="1.71"
       id="circle84" />
    <circle
       class="cls-7"
       cx="180.40881"
       cy="286.78625"
       r="9.8999996"
       transform="rotate(-45)"
       id="circle86" />
    <circle
       class="cls-8"
       cx="330.36002"
       cy="75.220001"
       r="1.71"
       id="circle88" />
    <path
       class="cls-14"
       d="m 141.58,40.81 a 2.35,2.35 0 0 1 2.15,1.2 6.59,6.59 0 0 1 0.73,3.42 6.6,6.6 0 0 1 -0.73,3.43 2.52,2.52 0 0 1 -4.29,0 6.6,6.6 0 0 1 -0.73,-3.43 6.59,6.59 0 0 1 0.73,-3.42 2.35,2.35 0 0 1 2.14,-1.2 z m 0,0.88 a 1.4,1.4 0 0 0 -1.27,0.88 6.43,6.43 0 0 0 -0.47,2.86 13.75,13.75 0 0 0 0.1,1.72 4.07,4.07 0 0 0 0.32,1.16 1.33,1.33 0 0 0 1.32,0.86 1.27,1.27 0 0 0 0.94,-0.38 2.58,2.58 0 0 0 0.6,-1.21 9,9 0 0 0 0.21,-2.15 10.66,10.66 0 0 0 -0.18,-2.17 2.29,2.29 0 0 0 -0.57,-1.19 1.38,1.38 0 0 0 -1,-0.38 z m 1.3,0.32 0.28,1 -2.78,5.72 -0.4,-0.76 z"
       id="path90" />
    <path
       class="cls-14"
       d="m 150.17,40.96 v 8.69 h -1.07 v -7.51 l -2,1.25 -0.46,-0.78 2.61,-1.65 z m 1.84,8.06 v 0.89 h -5.07 v -0.89 z"
       id="path92" />
    <path
       class="cls-14"
       d="m 157.82,40.96 v 8.69 h -1.07 v -7.51 l -2,1.25 -0.46,-0.78 2.61,-1.65 z m 1.83,8.06 v 0.89 h -5.06 v -0.89 z"
       id="path94" />
    <path
       class="cls-14"
       d="m 165.47,40.96 v 8.69 h -1.09 v -7.51 l -2,1.25 -0.46,-0.78 2.61,-1.65 z m 1.83,8.06 v 0.89 h -5.06 v -0.89 z"
       id="path96" />
    <path
       class="cls-14"
       d="m 142.52,56.59 v 8.69 h -1.07 v -7.54 l -2,1.25 -0.46,-0.78 2.59,-1.62 z m 1.86,8 v 0.89 h -5.07 v -0.89 z"
       id="path98" />
    <path
       class="cls-14"
       d="m 149.23,56.41 a 2.35,2.35 0 0 1 2.15,1.18 8.4,8.4 0 0 1 0,6.85 2.52,2.52 0 0 1 -4.29,0 8.4,8.4 0 0 1 0,-6.85 2.35,2.35 0 0 1 2.14,-1.18 z m 0,0.88 a 1.4,1.4 0 0 0 -1.27,0.88 6.43,6.43 0 0 0 -0.47,2.86 13.75,13.75 0 0 0 0.1,1.72 4.07,4.07 0 0 0 0.32,1.16 1.33,1.33 0 0 0 1.32,0.86 1.27,1.27 0 0 0 0.94,-0.38 2.58,2.58 0 0 0 0.6,-1.21 9,9 0 0 0 0.21,-2.15 10.66,10.66 0 0 0 -0.18,-2.17 2.29,2.29 0 0 0 -0.57,-1.19 1.38,1.38 0 0 0 -1,-0.38 z m 1.3,0.32 0.28,1 -2.8,5.76 -0.39,-0.76 z"
       id="path100" />
    <path
       class="cls-14"
       d="m 156.88,56.41 a 2.35,2.35 0 0 1 2.15,1.2 8.4,8.4 0 0 1 0,6.85 2.52,2.52 0 0 1 -4.29,0 8.4,8.4 0 0 1 0,-6.85 2.35,2.35 0 0 1 2.14,-1.2 z m 0,0.88 a 1.4,1.4 0 0 0 -1.27,0.88 6.43,6.43 0 0 0 -0.47,2.86 13.75,13.75 0 0 0 0.1,1.72 4.07,4.07 0 0 0 0.32,1.16 1.33,1.33 0 0 0 1.32,0.86 1.27,1.27 0 0 0 0.94,-0.38 2.58,2.58 0 0 0 0.6,-1.21 9,9 0 0 0 0.21,-2.15 10.66,10.66 0 0 0 -0.18,-2.17 2.29,2.29 0 0 0 -0.57,-1.19 1.38,1.38 0 0 0 -1,-0.38 z m 1.3,0.32 0.28,1 -2.8,5.76 -0.39,-0.76 z"
       id="path102" />
    <path
       class="cls-14"
       d="m 164.53,56.41 a 2.36,2.36 0 0 1 2.15,1.18 8.4,8.4 0 0 1 0,6.85 2.52,2.52 0 0 1 -4.29,0 8.4,8.4 0 0 1 -0.01,-6.85 2.35,2.35 0 0 1 2.15,-1.18 z m 0,0.88 a 1.4,1.4 0 0 0 -1.27,0.88 6.43,6.43 0 0 0 -0.47,2.86 12.07,12.07 0 0 0 0.1,1.72 4.07,4.07 0 0 0 0.32,1.16 1.33,1.33 0 0 0 1.32,0.86 1.27,1.27 0 0 0 0.94,-0.38 2.58,2.58 0 0 0 0.6,-1.21 9,9 0 0 0 0.21,-2.15 10.66,10.66 0 0 0 -0.18,-2.17 2.36,2.36 0 0 0 -0.57,-1.19 1.38,1.38 0 0 0 -1,-0.38 z m 1.3,0.32 0.28,1 -2.8,5.76 -0.39,-0.76 z"
       id="path104" />
    <path
       class="cls-14"
       d="m 221.14,40.81 a 2.36,2.36 0 0 1 2.15,1.2 6.7,6.7 0 0 1 0.72,3.42 6.71,6.71 0 0 1 -0.72,3.43 2.53,2.53 0 0 1 -4.3,0 6.7,6.7 0 0 1 -0.73,-3.43 6.69,6.69 0 0 1 0.73,-3.42 2.37,2.37 0 0 1 2.15,-1.2 z m 0,0.88 a 1.41,1.41 0 0 0 -1.28,0.88 6.45,6.45 0 0 0 -0.46,2.86 12.07,12.07 0 0 0 0.1,1.72 3.77,3.77 0 0 0 0.32,1.16 1.33,1.33 0 0 0 1.32,0.86 1.28,1.28 0 0 0 0.94,-0.38 2.58,2.58 0 0 0 0.6,-1.21 9,9 0 0 0 0.21,-2.15 10.39,10.39 0 0 0 -0.19,-2.16 2.36,2.36 0 0 0 -0.56,-1.2 1.38,1.38 0 0 0 -1,-0.38 z m 1.29,0.32 0.28,1 -2.79,5.76 -0.39,-0.76 z"
       id="path106" />
    <path
       class="cls-14"
       d="m 229.72,40.96 v 8.69 h -1.07 v -7.51 l -2,1.25 -0.47,-0.78 2.62,-1.65 z m 1.84,8.06 v 0.89 h -5.07 v -0.89 z"
       id="path108" />
    <path
       class="cls-14"
       d="m 237.38,40.96 v 8.69 h -1.07 v -7.51 l -2,1.25 -0.47,-0.78 2.62,-1.65 z m 1.84,8.06 v 0.89 h -5.07 v -0.89 z"
       id="path110" />
    <path
       class="cls-14"
       d="m 245.02,40.96 v 8.69 h -1.07 v -7.51 l -2,1.25 -0.47,-0.78 2.62,-1.65 z m 1.84,8.06 v 0.89 h -5.07 v -0.89 z"
       id="path112" />
    <path
       class="cls-14"
       d="m 221.14,56.41 a 2.36,2.36 0 0 1 2.15,1.2 8.51,8.51 0 0 1 0,6.85 2.53,2.53 0 0 1 -4.3,0 8.4,8.4 0 0 1 0,-6.85 2.37,2.37 0 0 1 2.15,-1.2 z m 0,0.88 a 1.41,1.41 0 0 0 -1.28,0.88 6.45,6.45 0 0 0 -0.46,2.86 12.07,12.07 0 0 0 0.1,1.72 3.85,3.85 0 0 0 0.32,1.16 1.33,1.33 0 0 0 1.32,0.86 1.28,1.28 0 0 0 0.94,-0.38 2.58,2.58 0 0 0 0.6,-1.21 9.06,9.06 0 0 0 0.21,-2.15 10.49,10.49 0 0 0 -0.19,-2.17 2.32,2.32 0 0 0 -0.56,-1.19 1.38,1.38 0 0 0 -1,-0.38 z m 1.29,0.32 0.28,1 -2.79,5.76 -0.39,-0.76 z"
       id="path114" />
    <path
       class="cls-14"
       d="m 229.72,56.59 v 8.69 h -1.07 v -7.54 l -2,1.25 -0.47,-0.78 2.61,-1.62 z m 1.84,8 v 0.89 h -5.07 v -0.89 z"
       id="path116" />
    <path
       class="cls-14"
       d="m 236.44,56.41 a 2.36,2.36 0 0 1 2.15,1.2 8.51,8.51 0 0 1 0,6.85 2.53,2.53 0 0 1 -4.3,0 8.4,8.4 0 0 1 0,-6.85 2.36,2.36 0 0 1 2.15,-1.2 z m 0,0.88 a 1.41,1.41 0 0 0 -1.28,0.88 6.45,6.45 0 0 0 -0.46,2.86 12.07,12.07 0 0 0 0.1,1.72 4.19,4.19 0 0 0 0.31,1.16 1.6,1.6 0 0 0 0.55,0.66 1.51,1.51 0 0 0 0.78,0.2 1.28,1.28 0 0 0 0.94,-0.38 2.58,2.58 0 0 0 0.6,-1.21 9.69,9.69 0 0 0 0.2,-2.15 10.59,10.59 0 0 0 -0.18,-2.17 2.25,2.25 0 0 0 -0.57,-1.19 1.36,1.36 0 0 0 -0.99,-0.38 z m 1.29,0.32 0.28,1 -2.79,5.76 -0.4,-0.76 z"
       id="path118" />
    <path
       class="cls-14"
       d="m 244.09,56.41 a 2.35,2.35 0 0 1 2.14,1.2 8.4,8.4 0 0 1 0,6.85 2.52,2.52 0 0 1 -4.29,0 8.4,8.4 0 0 1 0,-6.85 2.36,2.36 0 0 1 2.15,-1.2 z m 0,0.88 a 1.41,1.41 0 0 0 -1.28,0.88 6.45,6.45 0 0 0 -0.46,2.86 12.07,12.07 0 0 0 0.1,1.72 4.19,4.19 0 0 0 0.31,1.16 1.6,1.6 0 0 0 0.55,0.66 1.48,1.48 0 0 0 0.78,0.2 1.28,1.28 0 0 0 0.94,-0.38 2.58,2.58 0 0 0 0.6,-1.21 9.69,9.69 0 0 0 0.2,-2.15 10.59,10.59 0 0 0 -0.18,-2.17 2.25,2.25 0 0 0 -0.57,-1.19 1.36,1.36 0 0 0 -0.99,-0.38 z m 1.29,0.3 0.28,1 -2.79,5.76 -0.4,-0.76 z"
       id="path120" />
    <path
       class="cls-14"
       d="m 299.51,40.96 a 2.36,2.36 0 0 1 2.15,1.19 6.59,6.59 0 0 1 0.72,3.44 6.6,6.6 0 0 1 -0.73,3.43 2.52,2.52 0 0 1 -4.29,0 6.6,6.6 0 0 1 -0.73,-3.43 6.59,6.59 0 0 1 0.73,-3.42 2.37,2.37 0 0 1 2.15,-1.21 z m 0,0.87 a 1.42,1.42 0 0 0 -1.27,0.88 6.46,6.46 0 0 0 -0.47,2.86 11.91,11.91 0 0 0 0.11,1.72 3.79,3.79 0 0 0 0.31,1.16 1.51,1.51 0 0 0 0.54,0.66 1.42,1.42 0 0 0 0.78,0.21 1.28,1.28 0 0 0 0.94,-0.39 2.37,2.37 0 0 0 0.6,-1.21 9,9 0 0 0 0.21,-2.15 10.49,10.49 0 0 0 -0.18,-2.16 2.32,2.32 0 0 0 -0.57,-1.2 1.37,1.37 0 0 0 -1,-0.38 z m 1.3,0.32 0.28,1 -2.79,5.76 -0.4,-0.76 z"
       id="path122" />
    <path
       class="cls-14"
       d="m 308.1,41.1 v 8.69 h -1.07 v -7.51 l -2,1.25 -0.47,-0.78 2.61,-1.65 z m 1.84,8.06 v 0.89 h -5.07 v -0.89 z"
       id="path124" />
    <path
       class="cls-14"
       d="m 315.75,41.1 v 8.69 h -1.07 v -7.51 l -2,1.25 -0.47,-0.78 2.61,-1.65 z m 1.84,8.06 v 0.89 h -5.07 v -0.89 z"
       id="path126" />
    <path
       class="cls-14"
       d="m 322.46,40.96 a 2.36,2.36 0 0 1 2.15,1.19 6.59,6.59 0 0 1 0.77,3.44 6.6,6.6 0 0 1 -0.73,3.43 2.52,2.52 0 0 1 -4.29,0 6.6,6.6 0 0 1 -0.73,-3.43 6.59,6.59 0 0 1 0.73,-3.42 2.36,2.36 0 0 1 2.1,-1.21 z m 0,0.87 a 1.42,1.42 0 0 0 -1.27,0.88 6.46,6.46 0 0 0 -0.47,2.86 13.75,13.75 0 0 0 0.1,1.72 4.07,4.07 0 0 0 0.32,1.16 1.51,1.51 0 0 0 0.54,0.66 1.42,1.42 0 0 0 0.78,0.21 1.28,1.28 0 0 0 0.94,-0.39 2.54,2.54 0 0 0 0.6,-1.21 9,9 0 0 0 0.21,-2.15 10.49,10.49 0 0 0 -0.18,-2.16 2.32,2.32 0 0 0 -0.57,-1.2 1.38,1.38 0 0 0 -1,-0.38 z m 1.3,0.32 0.28,1 -2.79,5.76 -0.4,-0.76 z"
       id="path128" />
    <path
       class="cls-14"
       d="m 299.51,56.59 a 2.36,2.36 0 0 1 2.15,1.19 8.4,8.4 0 0 1 0,6.85 2.52,2.52 0 0 1 -4.28,-0.04 8.4,8.4 0 0 1 0,-6.85 2.37,2.37 0 0 1 2.13,-1.15 z m 0,0.87 a 1.42,1.42 0 0 0 -1.27,0.88 6.46,6.46 0 0 0 -0.47,2.86 11.91,11.91 0 0 0 0.11,1.72 3.79,3.79 0 0 0 0.31,1.16 1.51,1.51 0 0 0 0.54,0.66 1.42,1.42 0 0 0 0.78,0.21 1.28,1.28 0 0 0 0.94,-0.39 2.37,2.37 0 0 0 0.6,-1.21 9,9 0 0 0 0.21,-2.15 10.49,10.49 0 0 0 -0.18,-2.16 2.32,2.32 0 0 0 -0.57,-1.2 1.37,1.37 0 0 0 -1,-0.41 z m 1.3,0.32 0.28,1 -2.79,5.76 -0.4,-0.76 z"
       id="path130" />
    <path
       class="cls-14"
       d="m 308.1,56.7 v 8.69 h -1.07 v -7.51 l -2,1.25 -0.47,-0.78 2.61,-1.65 z m 1.84,8.06 v 0.89 h -5.07 v -0.89 z"
       id="path132" />
    <path
       class="cls-14"
       d="m 314.81,56.59 a 2.36,2.36 0 0 1 2.15,1.19 8.4,8.4 0 0 1 0,6.85 2.52,2.52 0 0 1 -4.29,0 8.4,8.4 0 0 1 0,-6.85 2.36,2.36 0 0 1 2.14,-1.19 z m 0,0.87 a 1.42,1.42 0 0 0 -1.27,0.88 6.46,6.46 0 0 0 -0.47,2.86 11.91,11.91 0 0 0 0.11,1.72 3.79,3.79 0 0 0 0.31,1.16 1.51,1.51 0 0 0 0.54,0.66 1.42,1.42 0 0 0 0.78,0.21 1.28,1.28 0 0 0 0.94,-0.39 2.45,2.45 0 0 0 0.6,-1.21 9,9 0 0 0 0.21,-2.15 10.49,10.49 0 0 0 -0.18,-2.16 2.32,2.32 0 0 0 -0.57,-1.2 1.38,1.38 0 0 0 -1,-0.41 z m 1.3,0.32 0.28,1 -2.79,5.76 -0.4,-0.76 z"
       id="path134" />
    <path
       class="cls-14"
       d="m 322.46,56.59 a 2.36,2.36 0 0 1 2.15,1.19 8.4,8.4 0 0 1 0,6.85 2.52,2.52 0 0 1 -4.29,0 8.4,8.4 0 0 1 0,-6.85 2.36,2.36 0 0 1 2.14,-1.19 z m 0,0.87 a 1.42,1.42 0 0 0 -1.27,0.88 6.46,6.46 0 0 0 -0.47,2.86 13.75,13.75 0 0 0 0.1,1.72 4.07,4.07 0 0 0 0.32,1.16 1.51,1.51 0 0 0 0.54,0.66 1.42,1.42 0 0 0 0.78,0.21 1.28,1.28 0 0 0 0.94,-0.39 2.54,2.54 0 0 0 0.6,-1.21 9,9 0 0 0 0.21,-2.15 10.49,10.49 0 0 0 -0.18,-2.16 2.32,2.32 0 0 0 -0.57,-1.2 1.38,1.38 0 0 0 -1,-0.41 z m 1.3,0.32 0.28,1 -2.79,5.76 -0.4,-0.76 z"
       id="path136" />
    <path
       class="cls-1"
       d="m 344.44,67.5 a 38.83,38.83 0 0 0 15.61,0"
       id="path138" />
    <path
       class="cls-1"
       d="m 422.85,67.5 a 3,3 0 1 0 -3,3 3,3 0 0 0 3,-3 z"
       id="path140" />
    <polygon
       class="cls-15"
       points="476.19,54.63 416.63,54.63 416.72,94.61 476.29,94.61 "
       id="polygon142"
       transform="translate(-57.619999,-19.41)" />
    <rect
       class="cls-16"
       x="353.01001"
       y="28.18"
       width="71.550003"
       height="7.04"
       id="rect144" />
    <circle
       class="cls-7"
       cx="207.74216"
       cy="314.09595"
       r="9.8999996"
       transform="rotate(-45)"
       id="circle146" />
    <circle
       class="cls-8"
       cx="369"
       cy="75.199997"
       r="1.71"
       id="circle148" />
    <circle
       class="cls-7"
       cx="235.86613"
       cy="342.21759"
       r="9.8999996"
       transform="rotate(-45)"
       id="circle150" />
    <circle
       class="cls-8"
       cx="408.77002"
       cy="75.199997"
       r="1.71"
       id="circle152" />
    <path
       class="cls-14"
       d="m 377.93,40.94 a 2.36,2.36 0 0 1 2.15,1.2 6.7,6.7 0 0 1 0.72,3.42 6.71,6.71 0 0 1 -0.72,3.43 2.53,2.53 0 0 1 -4.3,0 6.7,6.7 0 0 1 -0.73,-3.43 6.69,6.69 0 0 1 0.73,-3.42 2.37,2.37 0 0 1 2.15,-1.2 z m 0,0.88 a 1.41,1.41 0 0 0 -1.28,0.88 6.45,6.45 0 0 0 -0.46,2.86 12.07,12.07 0 0 0 0.1,1.72 3.77,3.77 0 0 0 0.32,1.16 1.33,1.33 0 0 0 1.32,0.86 1.28,1.28 0 0 0 0.94,-0.38 2.58,2.58 0 0 0 0.6,-1.21 9.06,9.06 0 0 0 0.21,-2.12 10.32,10.32 0 0 0 -0.19,-2.16 2.32,2.32 0 0 0 -0.56,-1.2 1.38,1.38 0 0 0 -1,-0.41 z m 1.29,0.32 0.28,1 -2.79,5.76 -0.39,-0.76 z"
       id="path154" />
    <path
       class="cls-14"
       d="m 386.51,41.09 v 8.69 h -1.07 v -7.51 l -2,1.25 -0.47,-0.78 2.62,-1.65 z m 1.87,8.06 v 0.89 h -5.1 v -0.89 z"
       id="path156" />
    <path
       class="cls-14"
       d="m 394.16,41.09 v 8.69 h -1.07 v -7.51 l -2,1.25 -0.47,-0.78 2.62,-1.65 z m 1.84,8.06 v 0.89 h -5.07 v -0.89 z"
       id="path158" />
    <path
       class="cls-14"
       d="m 400.88,40.94 a 2.35,2.35 0 0 1 2.14,1.2 6.59,6.59 0 0 1 0.73,3.42 6.6,6.6 0 0 1 -0.73,3.43 2.52,2.52 0 0 1 -4.29,0 6.7,6.7 0 0 1 -0.73,-3.43 6.69,6.69 0 0 1 0.73,-3.42 2.36,2.36 0 0 1 2.15,-1.2 z m 0,0.88 a 1.41,1.41 0 0 0 -1.28,0.88 6.45,6.45 0 0 0 -0.46,2.86 12.07,12.07 0 0 0 0.1,1.72 4.1,4.1 0 0 0 0.31,1.16 1.6,1.6 0 0 0 0.55,0.66 1.48,1.48 0 0 0 0.78,0.2 1.28,1.28 0 0 0 0.94,-0.38 2.58,2.58 0 0 0 0.6,-1.21 9.69,9.69 0 0 0 0.2,-2.15 10.42,10.42 0 0 0 -0.18,-2.16 2.24,2.24 0 0 0 -0.57,-1.2 1.36,1.36 0 0 0 -0.99,-0.38 z m 1.29,0.32 0.28,1 -2.79,5.76 -0.4,-0.76 z"
       id="path160" />
    <path
       class="cls-14"
       d="m 377.93,56.59 a 2.36,2.36 0 0 1 2.15,1.2 8.51,8.51 0 0 1 0,6.85 2.53,2.53 0 0 1 -4.3,0 8.4,8.4 0 0 1 0,-6.85 2.37,2.37 0 0 1 2.15,-1.2 z m 0,0.88 a 1.41,1.41 0 0 0 -1.28,0.88 6.45,6.45 0 0 0 -0.46,2.86 12.16,12.16 0 0 0 0.1,1.72 3.85,3.85 0 0 0 0.32,1.16 1.37,1.37 0 0 0 1.32,0.86 1.28,1.28 0 0 0 0.94,-0.38 2.58,2.58 0 0 0 0.6,-1.21 9.06,9.06 0 0 0 0.21,-2.15 10.49,10.49 0 0 0 -0.19,-2.17 2.32,2.32 0 0 0 -0.56,-1.19 1.38,1.38 0 0 0 -1,-0.43 z m 1.29,0.32 0.28,0.95 -2.79,5.77 -0.39,-0.76 z"
       id="path162" />
    <path
       class="cls-14"
       d="m 385.58,56.59 a 2.36,2.36 0 0 1 2.15,1.2 8.51,8.51 0 0 1 0,6.85 2.53,2.53 0 0 1 -4.3,0 8.4,8.4 0 0 1 0,-6.85 2.37,2.37 0 0 1 2.15,-1.2 z m 0,0.88 a 1.41,1.41 0 0 0 -1.28,0.88 6.45,6.45 0 0 0 -0.46,2.86 12.16,12.16 0 0 0 0.1,1.72 3.85,3.85 0 0 0 0.32,1.16 1.37,1.37 0 0 0 1.32,0.86 1.28,1.28 0 0 0 0.94,-0.38 2.58,2.58 0 0 0 0.6,-1.21 9.12,9.12 0 0 0 0.2,-2.15 10.59,10.59 0 0 0 -0.18,-2.17 2.32,2.32 0 0 0 -0.56,-1.19 1.38,1.38 0 0 0 -1,-0.43 z m 1.29,0.32 0.28,0.95 -2.77,5.72 -0.39,-0.76 z"
       id="path164" />
    <path
       class="cls-14"
       d="m 394.16,56.69 v 8.69 h -1.07 v -7.51 l -2,1.25 -0.47,-0.78 2.62,-1.65 z m 1.84,8.06 v 0.89 h -5.07 v -0.89 z"
       id="path166" />
    <path
       class="cls-14"
       d="m 400.88,56.59 a 2.35,2.35 0 0 1 2.14,1.2 8.4,8.4 0 0 1 0,6.85 2.52,2.52 0 0 1 -4.29,0 8.4,8.4 0 0 1 0,-6.85 2.36,2.36 0 0 1 2.15,-1.2 z m 0,0.88 a 1.41,1.41 0 0 0 -1.28,0.88 6.45,6.45 0 0 0 -0.46,2.86 12.16,12.16 0 0 0 0.1,1.72 4.19,4.19 0 0 0 0.31,1.16 1.5,1.5 0 0 0 0.55,0.65 1.4,1.4 0 0 0 0.78,0.21 1.28,1.28 0 0 0 0.94,-0.38 2.58,2.58 0 0 0 0.6,-1.21 9.69,9.69 0 0 0 0.2,-2.15 10.59,10.59 0 0 0 -0.18,-2.17 2.25,2.25 0 0 0 -0.57,-1.19 1.36,1.36 0 0 0 -0.99,-0.43 z m 1.29,0.32 0.28,0.95 -2.79,5.77 -0.4,-0.76 z"
       id="path168" />
  </g>
</svg>
