<?xml version="1.0" encoding="UTF-8" standalone="no"?>
<svg
   viewBox="0 0 795.57 431.48"
   version="1.1"
   id="svg422"
   sodipodi:docname="truth-07a-world-events.svg"
   inkscape:version="1.2 (dc2aedaf03, 2022-05-15)"
   xmlns:inkscape="http://www.inkscape.org/namespaces/inkscape"
   xmlns:sodipodi="http://sodipodi.sourceforge.net/DTD/sodipodi-0.dtd"
   xmlns:xlink="http://www.w3.org/1999/xlink"
   xmlns="http://www.w3.org/2000/svg"
   xmlns:svg="http://www.w3.org/2000/svg">
  <sodipodi:namedview
     id="namedview424"
     pagecolor="#505050"
     bordercolor="#ffffff"
     borderopacity="1"
     inkscape:pageshadow="0"
     inkscape:pageopacity="0"
     inkscape:pagecheckerboard="1"
     showgrid="false"
     inkscape:zoom="1.1782928"
     inkscape:cx="437.49737"
     inkscape:cy="154.03642"
     inkscape:window-width="1920"
     inkscape:window-height="1003"
     inkscape:window-x="0"
     inkscape:window-y="0"
     inkscape:window-maximized="1"
     inkscape:current-layer="svg422"
     inkscape:showpageshadow="0"
     inkscape:deskcolor="#505050" />
  <defs
     id="defs82">
    <style
       id="style2">.cls-1{isolation:isolate;}.cls-2{fill:url(#_ÂÁ_Ï_ÌÌ_È_ËÂÌÚ_60);}.cls-3,.cls-4{fill:#fff;}.cls-4,.cls-9{stroke:#000;}.cls-11,.cls-14,.cls-16,.cls-18,.cls-21,.cls-4,.cls-9{stroke-miterlimit:10;}.cls-4{stroke-width:0.25px;}.cls-19,.cls-5,.cls-6,.cls-7,.cls-8{mix-blend-mode:lighten;}.cls-5,.cls-6,.cls-7{opacity:0.2;}.cls-5{fill:url(#_ÂÁ_Ï_ÌÌ_È_ËÂÌÚ_126);}.cls-6{fill:url(#_ÂÁ_Ï_ÌÌ_È_ËÂÌÚ_126-2);}.cls-7{fill:url(#radial-gradient);}.cls-13,.cls-8{opacity:0.5;}.cls-8{fill:url(#radial-gradient-2);}.cls-12,.cls-9{fill:#53a5f8;}.cls-9{opacity:0.1;}.cls-10{opacity:0.8;}.cls-11{fill:url(#radial-gradient-3);stroke:url(#radial-gradient-4);}.cls-14{fill:url(#radial-gradient-5);stroke:url(#radial-gradient-6);}.cls-15{opacity:0.3;}.cls-16{fill:url(#radial-gradient-7);stroke:url(#radial-gradient-8);}.cls-17{opacity:0.22;}.cls-18{fill:url(#radial-gradient-9);stroke:url(#radial-gradient-10);}.cls-19{opacity:0.7;fill:url(#linear-gradient);}.cls-20{opacity:0.81;}.cls-21{fill:url(#radial-gradient-11);stroke:url(#radial-gradient-12);}</style>
    <radialGradient
       id="_ÂÁ_Ï_ÌÌ_È_ËÂÌÚ_60"
       cx="531.77"
       cy="-96.9"
       r="462.75"
       gradientTransform="translate(-478.13) scale(1.59 1)"
       gradientUnits="userSpaceOnUse">
      <stop
         offset="0"
         stop-color="#31024a"
         id="stop4" />
      <stop
         offset="1"
         stop-color="#2a023f"
         id="stop6" />
    </radialGradient>
    <radialGradient
       id="_ÂÁ_Ï_ÌÌ_È_ËÂÌÚ_126"
       cx="499.19"
       cy="200.88"
       r="79.12"
       gradientUnits="userSpaceOnUse">
      <stop
         offset="0"
         stop-color="#fc2ffd"
         id="stop9" />
      <stop
         offset="0.28"
         stop-color="#be22c6"
         id="stop11" />
      <stop
         offset="0.78"
         stop-color="#560b69"
         id="stop13" />
      <stop
         offset="1"
         stop-color="#2d0244"
         id="stop15" />
    </radialGradient>
    <radialGradient
       id="_ÂÁ_Ï_ÌÌ_È_ËÂÌÚ_126-2"
       cx="689.04"
       cy="209.66"
       r="79.12"
       xlink:href="#_ÂÁ_Ï_ÌÌ_È_ËÂÌÚ_126" />
    <radialGradient
       id="radial-gradient"
       cx="-2696.32"
       cy="-747.04"
       r="106.72"
       gradientTransform="matrix(0.87,0.5,-0.87,0.5,2190.91,2065.86)"
       gradientUnits="userSpaceOnUse">
      <stop
         offset="0"
         stop-color="#fc2ffd"
         id="stop19" />
      <stop
         offset="0.11"
         stop-color="#d727dc"
         id="stop21" />
      <stop
         offset="0.27"
         stop-color="#a41cae"
         id="stop23" />
      <stop
         offset="0.44"
         stop-color="#791388"
         id="stop25" />
      <stop
         offset="0.59"
         stop-color="#580b6a"
         id="stop27" />
      <stop
         offset="0.74"
         stop-color="#400655"
         id="stop29" />
      <stop
         offset="0.88"
         stop-color="#320348"
         id="stop31" />
      <stop
         offset="1"
         stop-color="#2d0244"
         id="stop33" />
    </radialGradient>
    <radialGradient
       id="radial-gradient-2"
       cx="502.83"
       cy="413.3"
       r="317.93"
       gradientUnits="userSpaceOnUse">
      <stop
         offset="0"
         stop-color="#fe4dfe"
         id="stop36" />
      <stop
         offset="0.22"
         stop-color="#3874da"
         id="stop38" />
      <stop
         offset="0.26"
         stop-color="#3c7cdf"
         id="stop40" />
      <stop
         offset="0.44"
         stop-color="#53a5f8"
         id="stop42" />
      <stop
         offset="0.5"
         stop-color="#4c88d7"
         id="stop44" />
      <stop
         offset="0.58"
         stop-color="#435fab"
         id="stop46" />
      <stop
         offset="0.67"
         stop-color="#3b3d86"
         id="stop48" />
      <stop
         offset="0.75"
         stop-color="#352369"
         id="stop50" />
      <stop
         offset="0.84"
         stop-color="#301154"
         id="stop52" />
      <stop
         offset="0.92"
         stop-color="#2e0648"
         id="stop54" />
      <stop
         offset="1"
         stop-color="#2d0244"
         id="stop56" />
    </radialGradient>
    <radialGradient
       id="radial-gradient-3"
       cx="502.83"
       cy="322.16"
       r="41.2"
       gradientTransform="translate(0 161.08) scale(1 0.5)"
       gradientUnits="userSpaceOnUse">
      <stop
         offset="0"
         stop-color="#3e068d"
         id="stop59" />
      <stop
         offset="0.85"
         stop-color="#2a023f"
         id="stop61" />
    </radialGradient>
    <radialGradient
       id="radial-gradient-4"
       cx="502.83"
       cy="322.16"
       r="41.67"
       xlink:href="#_ÂÁ_Ï_ÌÌ_È_ËÂÌÚ_60" />
    <radialGradient
       id="radial-gradient-5"
       cx="502.83"
       cy="248.04"
       r="41.2"
       gradientTransform="matrix(1,0,0,0.5,0,124.02)"
       xlink:href="#radial-gradient-3" />
    <radialGradient
       id="radial-gradient-6"
       cx="502.83"
       cy="248.04"
       r="41.67"
       xlink:href="#_ÂÁ_Ï_ÌÌ_È_ËÂÌÚ_60" />
    <radialGradient
       id="radial-gradient-7"
       cx="502.83"
       cy="173.92"
       r="41.2"
       gradientTransform="matrix(1,0,0,0.5,0,86.96)"
       xlink:href="#radial-gradient-3" />
    <radialGradient
       id="radial-gradient-8"
       cx="502.83"
       cy="173.92"
       r="41.67"
       xlink:href="#_ÂÁ_Ï_ÌÌ_È_ËÂÌÚ_60" />
    <radialGradient
       id="radial-gradient-9"
       cx="502.19"
       cy="99.8"
       r="41.2"
       gradientTransform="matrix(1,0,0,0.5,0,49.9)"
       xlink:href="#radial-gradient-3" />
    <radialGradient
       id="radial-gradient-10"
       cx="502.19"
       cy="99.8"
       r="41.67"
       xlink:href="#_ÂÁ_Ï_ÌÌ_È_ËÂÌÚ_60" />
    <linearGradient
       id="linear-gradient"
       x1="689.79"
       y1="268.3"
       x2="689.79"
       y2="170.85"
       gradientUnits="userSpaceOnUse">
      <stop
         offset="0"
         stop-color="#3874da"
         id="stop71" />
      <stop
         offset="0.26"
         stop-color="#355ab8"
         id="stop73" />
      <stop
         offset="0.82"
         stop-color="#2f1861"
         id="stop75" />
      <stop
         offset="1"
         stop-color="#2d0244"
         id="stop77" />
    </linearGradient>
    <radialGradient
       id="radial-gradient-11"
       cx="689.79"
       cy="171.13"
       r="41.2"
       gradientTransform="matrix(1,0,0,0.5,0,85.57)"
       xlink:href="#radial-gradient-3" />
    <radialGradient
       id="radial-gradient-12"
       cx="689.79"
       cy="171.13"
       r="41.67"
       xlink:href="#_ÂÁ_Ï_ÌÌ_È_ËÂÌÚ_60" />
    <radialGradient
       inkscape:collect="always"
       xlink:href="#_ÂÁ_Ï_ÌÌ_È_ËÂÌÚ_60"
       id="radialGradient1429"
       gradientUnits="userSpaceOnUse"
       gradientTransform="matrix(1.59,0,0,1,-478.13,0)"
       cx="531.77"
       cy="-96.9"
       r="462.75" />
    <radialGradient
       inkscape:collect="always"
       xlink:href="#_ÂÁ_Ï_ÌÌ_È_ËÂÌÚ_126"
       id="radialGradient1431"
       gradientUnits="userSpaceOnUse"
       cx="499.19"
       cy="200.88"
       r="79.12" />
    <radialGradient
       inkscape:collect="always"
       xlink:href="#radial-gradient-3"
       id="radialGradient1433"
       gradientUnits="userSpaceOnUse"
       gradientTransform="matrix(1,0,0,0.5,0,161.08)"
       cx="502.83"
       cy="322.16"
       r="41.2" />
  </defs>
  <g
     id="Layer_2"
     data-name="Layer 2"
     style="isolation:isolate"
     transform="matrix(0.86721839,0,0,0.93778887,93.249922,13.383237)"
     sodipodi:insensitive="true">
    <rect
       class="cls-2"
       x="-114.46"
       y="-16.030001"
       width="931.03998"
       height="463.54999"
       id="rect84"
       style="fill:url(#radialGradient1429)" />
  </g>
  <g
     id="g1681"
     transform="translate(-8.237677)">
    <path
       class="cls-3"
       d="m 38.94,95.19 h 2.75 v 7.68 c 0,3.44 -1.66,4.66 -4.32,4.66 a 6.83,6.83 0 0 1 -2,-0.29 l 0.31,-2.21 a 5,5 0 0 0 1.4,0.21 c 1.15,0 1.87,-0.52 1.87,-2.4 z"
       id="path87"
       style="isolation:isolate" />
    <path
       class="cls-3"
       d="m 48.8,107.33 -0.16,-0.88 h -0.06 a 3.19,3.19 0 0 1 -2.52,1.08 2.7,2.7 0 0 1 -2.85,-2.7 c 0,-2.3 2.06,-3.38 5.17,-3.38 v -0.11 c 0,-0.47 -0.25,-1.14 -1.61,-1.14 a 5.1,5.1 0 0 0 -2.43,0.66 l -0.5,-1.75 a 7.1,7.1 0 0 1 3.42,-0.79 c 2.94,0 3.86,1.73 3.86,3.8 v 3.07 a 13.52,13.52 0 0 0 0.14,2.14 z m -0.33,-4.17 c -1.45,0 -2.56,0.34 -2.56,1.39 a 1,1 0 0 0 1.09,1 1.48,1.48 0 0 0 1.41,-1 1.44,1.44 0 0 0 0.06,-0.47 z"
       id="path89"
       style="isolation:isolate" />
    <path
       class="cls-3"
       d="m 55,98.52 0.71,3.61 c 0.18,0.9 0.35,1.88 0.5,2.89 v 0 c 0.17,-1 0.44,-2 0.65,-2.87 l 0.92,-3.63 H 60 l 0.89,3.51 c 0.23,1 0.47,2 0.64,3 v 0 c 0.12,-1 0.3,-2 0.51,-3 l 0.75,-3.49 h 2.67 l -2.69,8.81 h -2.58 l -0.83,-3.09 c -0.22,-0.87 -0.38,-1.66 -0.57,-2.75 v 0 a 23.85,23.85 0 0 1 -0.57,2.73 l -0.88,3.11 h -2.6 l -2.57,-8.81 z"
       id="path91"
       style="isolation:isolate" />
    <path
       class="cls-3"
       d="m 71.62,107.33 -0.16,-0.88 H 71.4 a 3.16,3.16 0 0 1 -2.52,1.08 2.69,2.69 0 0 1 -2.84,-2.7 c 0,-2.3 2,-3.38 5.17,-3.38 v -0.11 c 0,-0.47 -0.25,-1.14 -1.62,-1.14 a 5.06,5.06 0 0 0 -2.42,0.66 l -0.51,-1.75 a 7.18,7.18 0 0 1 3.43,-0.79 c 2.93,0 3.86,1.73 3.86,3.8 v 3.07 a 12.42,12.42 0 0 0 0.14,2.14 z m -0.33,-4.17 c -1.44,0 -2.56,0.34 -2.56,1.39 a 1,1 0 0 0 1.09,1 1.49,1.49 0 0 0 1.42,-1 1.78,1.78 0 0 0 0.05,-0.47 z"
       id="path93"
       style="isolation:isolate" />
    <path
       class="cls-3"
       d="m 76.11,94.54 h 2.74 v 5 0 A 3.13,3.13 0 0 1 80,98.67 3.09,3.09 0 0 1 81.43,98.32 c 1.75,0 3.09,1.21 3.09,3.87 v 5.14 h -2.79 v -4.84 c 0,-1.16 -0.4,-2 -1.41,-2 a 1.46,1.46 0 0 0 -1.38,1 1.68,1.68 0 0 0 -0.09,0.6 v 5.23 h -2.74 z"
       id="path95"
       style="isolation:isolate" />
    <path
       class="cls-3"
       d="m 91.67,107.33 -0.16,-0.88 h -0.06 a 3.15,3.15 0 0 1 -2.51,1.08 2.69,2.69 0 0 1 -2.85,-2.7 c 0,-2.3 2,-3.38 5.17,-3.38 v -0.11 c 0,-0.47 -0.25,-1.14 -1.61,-1.14 a 5.07,5.07 0 0 0 -2.43,0.66 l -0.51,-1.75 a 7.18,7.18 0 0 1 3.43,-0.79 c 2.93,0 3.86,1.73 3.86,3.8 v 3.07 a 12.42,12.42 0 0 0 0.14,2.14 z m -0.33,-4.17 c -1.44,0 -2.56,0.34 -2.56,1.39 a 1,1 0 0 0 1.09,1 1.49,1.49 0 0 0 1.42,-1 1.78,1.78 0 0 0 0,-0.47 z"
       id="path97"
       style="isolation:isolate" />
    <path
       class="cls-3"
       d="m 96.16,101.42 c 0,-1.29 0,-2.15 -0.07,-2.9 h 2.35 l 0.1,1.63 h 0.07 a 2.58,2.58 0 0 1 2.39,-1.83 2.09,2.09 0 0 1 0.58,0.05 v 2.57 a 3.71,3.71 0 0 0 -0.74,-0.07 1.75,1.75 0 0 0 -1.84,1.39 2.8,2.8 0 0 0 -0.06,0.61 v 4.46 h -2.78 z"
       id="path99"
       style="isolation:isolate" />
    <path
       class="cls-3"
       d="m 103,94.54 h 2.74 v 12.79 H 103 Z"
       id="path101"
       style="isolation:isolate" />
    <path
       class="cls-3"
       d="m 112.91,107.33 -0.16,-0.88 h -0.06 a 3.15,3.15 0 0 1 -2.51,1.08 2.69,2.69 0 0 1 -2.85,-2.7 c 0,-2.3 2,-3.38 5.17,-3.38 v -0.11 c 0,-0.47 -0.25,-1.14 -1.61,-1.14 a 5.07,5.07 0 0 0 -2.43,0.66 L 108,99.11 a 7.18,7.18 0 0 1 3.43,-0.79 c 2.93,0 3.86,1.73 3.86,3.8 v 3.07 a 12.42,12.42 0 0 0 0.14,2.14 z m -0.33,-4.17 c -1.44,0 -2.55,0.34 -2.55,1.39 a 1,1 0 0 0 1.08,1 1.49,1.49 0 0 0 1.42,-1 1.78,1.78 0 0 0 0,-0.47 z"
       id="path103"
       style="isolation:isolate" />
    <path
       class="cls-3"
       d="m 117.4,94.54 h 2.75 v 12.79 h -2.75 z"
       id="path105"
       style="isolation:isolate" />
    <path
       class="cls-3"
       d="M 126.09,107.33 V 95.19 h 3.19 l 2.52,4.45 a 35.41,35.41 0 0 1 2,4.17 v 0 a 47.72,47.72 0 0 1 -0.22,-5.07 v -3.55 h 2.52 v 12.14 h -2.87 l -2.61,-4.68 a 44.71,44.71 0 0 1 -2.1,-4.28 h -0.06 c 0.08,1.61 0.12,3.33 0.12,5.31 v 3.65 z"
       id="path107"
       style="isolation:isolate" />
    <path
       class="cls-3"
       d="m 140.47,103.8 c 0.08,1.14 1.2,1.68 2.48,1.68 a 7.24,7.24 0 0 0 2.42,-0.37 l 0.37,1.85 a 8.56,8.56 0 0 1 -3.19,0.56 c -3,0 -4.7,-1.74 -4.7,-4.49 a 4.42,4.42 0 0 1 4.44,-4.71 c 2.86,0 3.94,2.22 3.94,4.4 a 5,5 0 0 1 -0.1,1.08 z m 3.21,-1.87 a 1.59,1.59 0 0 0 -1.53,-1.79 1.83,1.83 0 0 0 -1.71,1.79 z"
       id="path109"
       style="isolation:isolate" />
    <path
       class="cls-3"
       d="m 147.86,94.54 h 2.74 v 5 0 a 3.13,3.13 0 0 1 1.07,-0.91 3.09,3.09 0 0 1 1.43,-0.35 c 1.75,0 3.09,1.21 3.09,3.87 v 5.14 h -2.75 v -4.84 c 0,-1.16 -0.4,-2 -1.41,-2 a 1.45,1.45 0 0 0 -1.38,1 1.68,1.68 0 0 0 -0.09,0.6 v 5.23 h -2.74 z"
       id="path111"
       style="isolation:isolate" />
    <path
       class="cls-3"
       d="m 158.41,101.42 c 0,-1.29 0,-2.15 -0.08,-2.9 h 2.36 l 0.1,1.63 h 0.07 a 2.57,2.57 0 0 1 2.37,-1.83 2.17,2.17 0 0 1 0.59,0.05 v 2.57 a 3.71,3.71 0 0 0 -0.74,-0.07 1.76,1.76 0 0 0 -1.88,1.39 3.67,3.67 0 0 0 0,0.61 v 4.46 h -2.74 z"
       id="path113"
       style="isolation:isolate" />
    <path
       class="cls-3"
       d="m 173.49,104.5 c 0,1.15 0,2.1 0.08,2.83 h -2.38 l -0.13,-1.25 H 171 a 3.13,3.13 0 0 1 -2.75,1.45 c -1.79,0 -3.1,-1.12 -3.1,-3.83 v -5.18 h 2.75 v 4.73 c 0,1.29 0.41,2.06 1.38,2.06 a 1.5,1.5 0 0 0 1.46,-1.54 v -5.25 h 2.74 z"
       id="path115"
       style="isolation:isolate" />
    <path
       class="cls-3"
       d="m 179.25,107.33 c 0,-0.58 0.07,-1.63 0.07,-2.63 V 94.54 h 2.74 v 5 0 a 3.08,3.08 0 0 1 2.66,-1.25 c 2.11,0 3.65,1.75 3.63,4.45 0,3.17 -2,4.76 -4,4.76 a 2.89,2.89 0 0 1 -2.63,-1.43 v 0 l -0.12,1.23 z m 2.81,-3.74 a 2.36,2.36 0 0 0 0.05,0.48 1.67,1.67 0 0 0 1.61,1.3 c 1.17,0 1.89,-0.9 1.89,-2.49 0,-1.37 -0.61,-2.45 -1.88,-2.45 a 1.67,1.67 0 0 0 -1.61,1.35 2.1,2.1 0 0 0 -0.06,0.51 z"
       id="path117"
       style="isolation:isolate" />
    <path
       class="cls-3"
       d="m 192.25,103.8 c 0.08,1.14 1.21,1.68 2.48,1.68 a 7.34,7.34 0 0 0 2.43,-0.37 l 0.37,1.85 a 8.56,8.56 0 0 1 -3.19,0.56 c -3,0 -4.7,-1.74 -4.7,-4.49 a 4.42,4.42 0 0 1 4.44,-4.71 c 2.86,0 3.93,2.22 3.93,4.4 a 6,6 0 0 1 -0.09,1.08 z m 3.22,-1.87 a 1.6,1.6 0 0 0 -1.54,-1.79 1.81,1.81 0 0 0 -1.7,1.79 z"
       id="path119"
       style="isolation:isolate" />
    <path
       class="cls-3"
       d="m 206.26,107.11 a 6.48,6.48 0 0 1 -2.46,0.41 c -2.85,0 -4.66,-1.75 -4.66,-4.51 0,-2.58 1.76,-4.69 5,-4.69 a 6.49,6.49 0 0 1 2.09,0.35 l -0.43,2 a 3.64,3.64 0 0 0 -1.53,-0.28 2.4701265,2.4701265 0 0 0 0.05,4.94 4.09,4.09 0 0 0 1.57,-0.28 z"
       id="path121"
       style="isolation:isolate" />
    <path
       class="cls-3"
       d="m 216.26,102.83 a 4.42,4.42 0 0 1 -4.65,4.7 4.32,4.32 0 0 1 -4.55,-4.54 4.4,4.4 0 0 1 4.71,-4.67 4.28,4.28 0 0 1 4.49,4.51 z m -6.38,0.09 c 0,1.51 0.64,2.65 1.81,2.65 1.17,0 1.74,-1.07 1.74,-2.66 0,-1.3 -0.5,-2.64 -1.74,-2.64 -1.24,0 -1.81,1.35 -1.81,2.65 z"
       id="path123"
       style="isolation:isolate" />
    <path
       class="cls-3"
       d="m 218,101.33 c 0,-1.1 0,-2 -0.07,-2.81 h 2.31 l 0.12,1.19 h 0.06 a 3,3 0 0 1 2.58,-1.39 2.48,2.48 0 0 1 2.41,1.51 v 0 a 3.53,3.53 0 0 1 1.14,-1.08 3.22,3.22 0 0 1 1.67,-0.43 c 1.69,0 3,1.19 3,3.82 v 5.19 h -2.67 v -4.79 c 0,-1.27 -0.41,-2 -1.29,-2 a 1.34,1.34 0 0 0 -1.26,1 2.32,2.32 0 0 0 -0.1,0.7 v 5.15 h -2.67 v -4.94 c 0,-1.11 -0.39,-1.87 -1.27,-1.87 a 1.4,1.4 0 0 0 -1.28,1 2,2 0 0 0 -0.11,0.69 v 5.13 H 218 Z"
       id="path125"
       style="isolation:isolate" />
    <path
       class="cls-3"
       d="m 235.54,103.8 c 0.08,1.14 1.21,1.68 2.48,1.68 a 7.34,7.34 0 0 0 2.43,-0.37 l 0.37,1.85 a 8.56,8.56 0 0 1 -3.19,0.56 c -3,0 -4.7,-1.74 -4.7,-4.49 a 4.42,4.42 0 0 1 4.44,-4.71 c 2.85,0 3.93,2.22 3.93,4.4 a 6,6 0 0 1 -0.09,1.08 z m 3.22,-1.87 a 1.6,1.6 0 0 0 -1.54,-1.79 1.81,1.81 0 0 0 -1.7,1.79 z"
       id="path127"
       style="isolation:isolate" />
    <path
       class="cls-3"
       d="m 242.92,104.94 a 5.28,5.28 0 0 0 2.35,0.66 c 0.83,0 1.18,-0.28 1.18,-0.73 0,-0.45 -0.28,-0.68 -1.29,-1 -1.83,-0.6 -2.52,-1.6 -2.51,-2.63 0,-1.66 1.39,-2.9 3.58,-2.9 a 5.86,5.86 0 0 1 2.48,0.51 l -0.48,1.89 a 4.41,4.41 0 0 0 -1.9,-0.5 c -0.67,0 -1.06,0.27 -1.06,0.71 0,0.44 0.35,0.65 1.43,1 1.68,0.57 2.38,1.43 2.39,2.71 0,1.64 -1.29,2.86 -3.81,2.86 a 6.27,6.27 0 0 1 -2.85,-0.62 z"
       id="path129"
       style="isolation:isolate" />
    <path
       class="cls-3"
       d="m 257.2,96.07 a 1.45,1.45 0 1 1 -1.45,-1.37 1.35,1.35 0 0 1 1.45,1.37 z m -2.82,11.26 v -8.81 h 2.74 v 8.81 z"
       id="path131"
       style="isolation:isolate" />
    <path
       class="cls-3"
       d="m 259.31,101.33 c 0,-1.1 0,-2 -0.07,-2.81 h 2.38 l 0.12,1.22 h 0.06 a 3.19,3.19 0 0 1 2.72,-1.42 c 1.8,0 3.16,1.2 3.16,3.79 v 5.22 h -2.75 v -4.89 c 0,-1.13 -0.4,-1.91 -1.39,-1.91 a 1.49,1.49 0 0 0 -1.39,1 1.94,1.94 0 0 0 -0.09,0.67 v 5.09 h -2.75 z"
       id="path133"
       style="isolation:isolate" />
    <path
       class="cls-3"
       d="m 272.81,96 v 2.52 h 2 v 2 h -2 v 3.19 c 0,1.06 0.26,1.55 1.08,1.55 a 3.26,3.26 0 0 0 0.81,-0.08 v 2.08 a 5.74,5.74 0 0 1 -1.78,0.24 2.85,2.85 0 0 1 -2.06,-0.77 3.6,3.6 0 0 1 -0.76,-2.61 v -3.6 H 269 v -2 h 1.17 v -1.9 z"
       id="path135"
       style="isolation:isolate" />
    <path
       class="cls-3"
       d="m 278.38,103.8 c 0.08,1.14 1.2,1.68 2.48,1.68 a 7.34,7.34 0 0 0 2.43,-0.37 l 0.37,1.85 a 8.58,8.58 0 0 1 -3.2,0.56 c -3,0 -4.69,-1.74 -4.69,-4.49 a 4.42,4.42 0 0 1 4.44,-4.71 c 2.85,0 3.93,2.22 3.93,4.4 a 5,5 0 0 1 -0.1,1.08 z m 3.22,-1.87 a 1.6,1.6 0 0 0 -1.54,-1.79 1.81,1.81 0 0 0 -1.7,1.79 z"
       id="path137"
       style="isolation:isolate" />
    <path
       class="cls-3"
       d="m 285.77,101.42 c 0,-1.29 0,-2.15 -0.07,-2.9 h 2.35 l 0.1,1.63 h 0.07 a 2.57,2.57 0 0 1 2.38,-1.83 2.09,2.09 0 0 1 0.58,0.05 v 2.57 a 3.71,3.71 0 0 0 -0.74,-0.07 1.75,1.75 0 0 0 -1.87,1.39 2.8,2.8 0 0 0 -0.06,0.61 v 4.46 h -2.74 z"
       id="path139"
       style="isolation:isolate" />
    <path
       class="cls-3"
       d="m 295.4,96.07 a 1.37,1.37 0 0 1 -1.48,1.37 1.37,1.37 0 1 1 1.48,-1.37 z m -2.82,11.26 v -8.81 h 2.74 v 8.81 z"
       id="path141"
       style="isolation:isolate" />
    <path
       class="cls-3"
       d="m 297.51,101.33 c 0,-1.1 0,-2 -0.07,-2.81 h 2.31 l 0.12,1.19 h 0.05 a 3.06,3.06 0 0 1 2.66,-1.39 2.49,2.49 0 0 1 2.42,1.51 v 0 a 3.66,3.66 0 0 1 1.15,-1.08 3.16,3.16 0 0 1 1.67,-0.43 c 1.68,0 3,1.19 3,3.82 v 5.19 h -2.67 v -4.79 c 0,-1.27 -0.41,-2 -1.3,-2 a 1.36,1.36 0 0 0 -1.26,1 2.69,2.69 0 0 0 -0.1,0.7 v 5.15 h -2.66 v -4.94 c 0,-1.11 -0.4,-1.87 -1.27,-1.87 a 1.4,1.4 0 0 0 -1.28,1 1.79,1.79 0 0 0 -0.11,0.69 v 5.13 h -2.66 z"
       id="path143"
       style="isolation:isolate" />
    <path
       class="cls-3"
       d="m 316.72,95.35 a 23,23 0 0 1 3.71,-0.25 5.83,5.83 0 0 1 3.71,1 3.49,3.49 0 0 1 1.29,2.81 3.84,3.84 0 0 1 -1.11,2.87 5.67,5.67 0 0 1 -3.94,1.29 6,6 0 0 1 -0.94,-0.07 v 4.35 h -2.72 z m 2.72,5.51 a 4.35,4.35 0 0 0 0.91,0.07 c 1.46,0 2.36,-0.74 2.36,-2 0,-1.26 -0.77,-1.78 -2.15,-1.78 a 6,6 0 0 0 -1.12,0.09 z"
       id="path145"
       style="isolation:isolate" />
    <path
       class="cls-3"
       d="m 326.92,101.42 c 0,-1.29 0,-2.15 -0.07,-2.9 h 2.35 l 0.1,1.63 h 0.07 a 2.57,2.57 0 0 1 2.38,-1.83 2.09,2.09 0 0 1 0.58,0.05 v 2.57 a 3.71,3.71 0 0 0 -0.74,-0.07 1.76,1.76 0 0 0 -1.88,1.39 3.67,3.67 0 0 0 0,0.61 v 4.46 h -2.74 z"
       id="path147"
       style="isolation:isolate" />
    <path
       class="cls-3"
       d="m 336.54,96.07 a 1.36,1.36 0 0 1 -1.47,1.37 1.37,1.37 0 1 1 1.47,-1.37 z m -2.82,11.26 v -8.81 h 2.75 v 8.81 z"
       id="path149"
       style="isolation:isolate" />
    <path
       class="cls-3"
       d="m 338.65,101.33 c 0,-1.1 0,-2 -0.07,-2.81 h 2.32 l 0.12,1.19 h 0.05 a 3,3 0 0 1 2.66,-1.39 2.47,2.47 0 0 1 2.41,1.51 v 0 a 3.74,3.74 0 0 1 1.14,-1.08 3.23,3.23 0 0 1 1.68,-0.43 c 1.68,0 3,1.19 3,3.82 v 5.19 h -2.66 v -4.79 c 0,-1.27 -0.41,-2 -1.3,-2 a 1.36,1.36 0 0 0 -1.26,1 2.32,2.32 0 0 0 -0.1,0.7 v 5.15 H 344 v -4.94 c 0,-1.11 -0.4,-1.87 -1.27,-1.87 a 1.41,1.41 0 0 0 -1.29,1 2,2 0 0 0 -0.1,0.69 v 5.13 h -2.67 z"
       id="path151"
       style="isolation:isolate" />
    <path
       class="cls-3"
       d="m 356.25,103.8 c 0.08,1.14 1.2,1.68 2.48,1.68 a 7.28,7.28 0 0 0 2.42,-0.37 l 0.37,1.85 a 8.56,8.56 0 0 1 -3.19,0.56 c -3,0 -4.7,-1.74 -4.7,-4.49 a 4.42,4.42 0 0 1 4.44,-4.71 c 2.86,0 3.94,2.22 3.94,4.4 a 5,5 0 0 1 -0.1,1.08 z m 3.21,-1.87 a 1.59,1.59 0 0 0 -1.53,-1.79 1.83,1.83 0 0 0 -1.71,1.79 z"
       id="path153"
       style="isolation:isolate" />
    <path
       class="cls-3"
       d="m 377.63,102.69 c -0.06,-1.47 -0.11,-3.22 -0.11,-5 v 0 c -0.38,1.55 -0.89,3.28 -1.35,4.71 l -1.49,4.73 h -2.18 l -1.31,-4.69 c -0.39,-1.43 -0.79,-3.15 -1.09,-4.75 v 0 c -0.06,1.65 -0.13,3.52 -0.2,5 l -0.23,4.61 h -2.57 l 0.77,-12.14 h 3.66 l 1.18,4.06 c 0.39,1.39 0.76,2.92 1,4.34 h 0.06 c 0.33,-1.41 0.74,-3 1.16,-4.36 l 1.28,-4 h 3.59 l 0.65,12.14 h -2.66 z"
       id="path155"
       style="isolation:isolate" />
    <path
       class="cls-3"
       d="M 385.43,96.07 A 1.45,1.45 0 1 1 384,94.7 a 1.35,1.35 0 0 1 1.43,1.37 z m -2.82,11.26 v -8.81 h 2.74 v 8.81 z"
       id="path157"
       style="isolation:isolate" />
    <path
       class="cls-3"
       d="m 387.54,101.33 c 0,-1.1 0,-2 -0.07,-2.81 h 2.37 l 0.13,1.22 H 390 a 3.17,3.17 0 0 1 2.72,-1.42 c 1.8,0 3.16,1.2 3.16,3.79 v 5.22 h -2.75 v -4.89 c 0,-1.13 -0.4,-1.91 -1.39,-1.91 a 1.49,1.49 0 0 0 -1.39,1 1.93,1.93 0 0 0 -0.1,0.67 v 5.09 h -2.74 z"
       id="path159"
       style="isolation:isolate" />
    <path
       class="cls-3"
       d="m 400.91,96.07 a 1.45,1.45 0 1 1 -1.45,-1.37 1.35,1.35 0 0 1 1.45,1.37 z m -2.82,11.26 v -8.81 h 2.74 v 8.81 z"
       id="path161"
       style="isolation:isolate" />
    <path
       class="cls-3"
       d="m 403,104.94 a 5.28,5.28 0 0 0 2.35,0.66 c 0.83,0 1.18,-0.28 1.18,-0.73 0,-0.45 -0.28,-0.68 -1.3,-1 -1.83,-0.6 -2.52,-1.6 -2.51,-2.63 0,-1.66 1.4,-2.9 3.59,-2.9 a 5.86,5.86 0 0 1 2.48,0.51 l -0.48,1.89 a 4.42,4.42 0 0 0 -1.91,-0.5 c -0.67,0 -1.05,0.27 -1.05,0.71 0,0.44 0.35,0.65 1.43,1 1.67,0.57 2.37,1.43 2.38,2.71 0,1.64 -1.28,2.86 -3.8,2.86 a 6.32,6.32 0 0 1 -2.86,-0.62 z"
       id="path163"
       style="isolation:isolate" />
    <path
       class="cls-3"
       d="m 413.89,96 v 2.52 h 2 v 2 h -2 v 3.19 c 0,1.06 0.26,1.55 1.08,1.55 a 3.32,3.32 0 0 0 0.81,-0.08 v 2.08 a 5.62,5.62 0 0 1 -1.77,0.24 2.86,2.86 0 0 1 -2.07,-0.77 3.65,3.65 0 0 1 -0.75,-2.61 v -3.6 H 410 v -2 h 1.17 v -1.9 z"
       id="path165"
       style="isolation:isolate" />
    <path
       class="cls-3"
       d="m 419.46,103.8 c 0.08,1.14 1.2,1.68 2.48,1.68 a 7.34,7.34 0 0 0 2.43,-0.37 l 0.37,1.85 a 8.62,8.62 0 0 1 -3.2,0.56 c -3,0 -4.7,-1.74 -4.7,-4.49 a 4.42,4.42 0 0 1 4.45,-4.71 c 2.85,0 3.93,2.22 3.93,4.4 a 5,5 0 0 1 -0.1,1.08 z m 3.21,-1.87 a 1.59,1.59 0 0 0 -1.53,-1.79 1.81,1.81 0 0 0 -1.7,1.79 z"
       id="path167"
       style="isolation:isolate" />
    <path
       class="cls-3"
       d="m 426.85,101.42 c 0,-1.29 0,-2.15 -0.07,-2.9 h 2.35 l 0.1,1.63 h 0.07 a 2.57,2.57 0 0 1 2.38,-1.83 2.09,2.09 0 0 1 0.58,0.05 v 2.57 a 3.71,3.71 0 0 0 -0.74,-0.07 1.77,1.77 0 0 0 -1.88,1.39 3.67,3.67 0 0 0 -0.05,0.61 v 4.46 h -2.74 z"
       id="path169"
       style="isolation:isolate" />
  </g>
  <g
     id="g1747"
     transform="translate(-0.317677)">
    <path
       class="cls-3"
       d="m 153.87,257.69 v -12.13 h 3.2 l 2.52,4.45 a 33,33 0 0 1 2,4.16 h 0.05 a 47.6,47.6 0 0 1 -0.22,-5.07 v -3.53 h 2.52 V 257.7 H 161 l -2.6,-4.67 a 46.15,46.15 0 0 1 -2.11,-4.29 h -0.06 c 0.09,1.61 0.12,3.32 0.12,5.3 v 3.65 z"
       id="path171"
       style="isolation:isolate" />
    <path
       class="cls-3"
       d="m 168.25,254.17 c 0.08,1.13 1.21,1.67 2.49,1.67 a 7.32,7.32 0 0 0 2.42,-0.37 l 0.37,1.85 a 8.37,8.37 0 0 1 -3.19,0.56 c -3,0 -4.7,-1.74 -4.7,-4.48 a 4.42,4.42 0 0 1 4.44,-4.72 c 2.86,0 3.94,2.22 3.94,4.4 a 6,6 0 0 1 -0.1,1.09 z m 3.22,-1.88 a 1.6,1.6 0 0 0 -1.54,-1.79 1.81,1.81 0 0 0 -1.7,1.79 z"
       id="path173"
       style="isolation:isolate" />
    <path
       class="cls-3"
       d="m 175.64,244.91 h 2.75 v 12.78 h -2.75 z"
       id="path175"
       style="isolation:isolate" />
    <path
       class="cls-3"
       d="m 180.58,255.3 a 5.28,5.28 0 0 0 2.35,0.66 c 0.83,0 1.18,-0.28 1.18,-0.73 0,-0.45 -0.28,-0.68 -1.29,-1 -1.83,-0.6 -2.52,-1.6 -2.51,-2.63 0,-1.66 1.39,-2.9 3.58,-2.9 a 5.7,5.7 0 0 1 2.48,0.52 l -0.47,1.88 a 4.5,4.5 0 0 0 -1.91,-0.5 c -0.67,0 -1.05,0.27 -1.05,0.71 0,0.44 0.34,0.65 1.42,1 1.68,0.57 2.38,1.43 2.39,2.72 0,1.64 -1.28,2.85 -3.81,2.85 a 6.27,6.27 0 0 1 -2.85,-0.62 z"
       id="path177"
       style="isolation:isolate" />
    <path
       class="cls-3"
       d="m 197.1,253.2 a 4.41,4.41 0 0 1 -4.65,4.69 4.32,4.32 0 0 1 -4.55,-4.54 4.41,4.41 0 0 1 4.71,-4.67 4.28,4.28 0 0 1 4.49,4.52 z m -6.37,0.09 c 0,1.5 0.63,2.64 1.8,2.64 1.17,0 1.75,-1.07 1.75,-2.66 0,-1.3 -0.51,-2.63 -1.75,-2.63 -1.24,0 -1.8,1.36 -1.8,2.65 z"
       id="path179"
       style="isolation:isolate" />
    <path
       class="cls-3"
       d="m 198.79,251.69 c 0,-1.09 0,-2 -0.07,-2.81 h 2.38 l 0.12,1.22 h 0.06 a 3.19,3.19 0 0 1 2.72,-1.42 c 1.8,0 3.16,1.2 3.16,3.8 v 5.21 h -2.75 v -4.88 c 0,-1.14 -0.4,-1.91 -1.39,-1.91 a 1.48,1.48 0 0 0 -1.39,1 2,2 0 0 0 -0.1,0.68 v 5.08 h -2.74 z"
       id="path181"
       style="isolation:isolate" />
    <path
       class="cls-3"
       d="m 223.33,253.05 c -0.06,-1.47 -0.11,-3.22 -0.11,-5 v 0 c -0.39,1.55 -0.9,3.28 -1.36,4.71 l -1.48,4.73 h -2.18 l -1.3,-4.69 c -0.4,-1.43 -0.8,-3.15 -1.1,-4.75 v 0 c -0.06,1.65 -0.13,3.52 -0.2,5 l -0.22,4.6 h -2.58 l 0.77,-12.13 h 3.66 l 1.19,4.05 c 0.38,1.39 0.75,2.92 1,4.34 h 0.06 c 0.33,-1.4 0.75,-3 1.16,-4.36 l 1.28,-4 h 3.59 l 0.66,12.13 h -2.67 z"
       id="path183"
       style="isolation:isolate" />
    <path
       class="cls-3"
       d="m 233.27,257.69 -0.16,-0.87 h -0.06 a 3.15,3.15 0 0 1 -2.52,1.07 2.69,2.69 0 0 1 -2.84,-2.7 c 0,-2.29 2.05,-3.38 5.17,-3.38 v -0.11 c 0,-0.47 -0.25,-1.14 -1.62,-1.13 a 5.06,5.06 0 0 0 -2.42,0.65 l -0.51,-1.75 a 7.18,7.18 0 0 1 3.43,-0.79 c 2.93,0 3.86,1.73 3.86,3.8 v 3.08 a 12.22,12.22 0 0 0 0.14,2.13 z m -0.33,-4.17 c -1.44,0 -2.56,0.34 -2.56,1.39 a 1,1 0 0 0 1.09,1.06 1.5,1.5 0 0 0 1.42,-1 1.88,1.88 0 0 0 0.05,-0.47 z"
       id="path185"
       style="isolation:isolate" />
    <path
       class="cls-3"
       d="m 237.76,251.69 c 0,-1.09 0,-2 -0.07,-2.81 h 2.37 l 0.13,1.22 h 0.06 a 3.19,3.19 0 0 1 2.72,-1.42 c 1.8,0 3.16,1.2 3.16,3.8 v 5.21 h -2.75 v -4.88 c 0,-1.14 -0.4,-1.91 -1.39,-1.91 a 1.48,1.48 0 0 0 -1.39,1 2,2 0 0 0 -0.1,0.68 v 5.08 h -2.74 z"
       id="path187"
       style="isolation:isolate" />
    <path
       class="cls-3"
       d="m 256.84,244.91 v 10.15 c 0,1 0,2 0.07,2.63 h -2.43 l -0.12,-1.29 v 0 a 3.09,3.09 0 0 1 -2.76,1.49 c -2.08,0 -3.76,-1.79 -3.76,-4.52 0,-3 1.84,-4.69 3.94,-4.69 a 2.68,2.68 0 0 1 2.32,1 v 0 -4.77 z m -2.74,7.71 a 2.85,2.85 0 0 0 0,-0.5 1.64,1.64 0 0 0 -1.59,-1.34 c -1.26,0 -1.89,1.12 -1.89,2.51 0,1.39 0.73,2.42 1.87,2.42 a 1.61,1.61 0 0 0 1.58,-1.32 2.46,2.46 0 0 0 0.06,-0.62 z"
       id="path189"
       style="isolation:isolate" />
    <path
       class="cls-3"
       d="m 261.15,254.17 c 0.08,1.13 1.2,1.67 2.48,1.67 a 7.34,7.34 0 0 0 2.43,-0.37 l 0.37,1.85 a 8.46,8.46 0 0 1 -3.2,0.56 c -3,0 -4.7,-1.74 -4.7,-4.48 a 4.43,4.43 0 0 1 4.45,-4.72 c 2.85,0 3.93,2.22 3.93,4.4 a 5.2,5.2 0 0 1 -0.1,1.09 z m 3.21,-1.88 a 1.59,1.59 0 0 0 -1.53,-1.79 1.83,1.83 0 0 0 -1.71,1.79 z"
       id="path191"
       style="isolation:isolate" />
    <path
       class="cls-3"
       d="m 268.54,244.91 h 2.74 v 12.78 h -2.74 z"
       id="path193"
       style="isolation:isolate" />
    <path
       class="cls-3"
       d="m 278.51,257.69 -0.17,-0.87 h -0.06 a 3.15,3.15 0 0 1 -2.51,1.07 2.69,2.69 0 0 1 -2.85,-2.7 c 0,-2.29 2.05,-3.38 5.17,-3.38 v -0.11 c 0,-0.47 -0.25,-1.14 -1.61,-1.13 a 5.07,5.07 0 0 0 -2.43,0.65 l -0.51,-1.75 a 7.18,7.18 0 0 1 3.43,-0.79 c 2.93,0 3.86,1.73 3.86,3.8 v 3.08 a 13.3,13.3 0 0 0 0.14,2.13 z m -0.34,-4.17 c -1.44,0 -2.55,0.34 -2.55,1.39 a 1,1 0 0 0 1.08,1.09 1.5,1.5 0 0 0 1.42,-1 1.88,1.88 0 0 0 0.05,-0.47 z"
       id="path195"
       style="isolation:isolate" />
    <path
       class="cls-3"
       d="m 288.74,254.17 c 0.08,1.13 1.21,1.67 2.48,1.67 a 7.34,7.34 0 0 0 2.43,-0.37 l 0.37,1.85 a 8.37,8.37 0 0 1 -3.19,0.56 c -3,0 -4.7,-1.74 -4.7,-4.48 a 4.42,4.42 0 0 1 4.44,-4.72 c 2.86,0 3.93,2.22 3.93,4.4 a 6.22,6.22 0 0 1 -0.09,1.09 z m 3.22,-1.88 a 1.6,1.6 0 0 0 -1.54,-1.79 1.81,1.81 0 0 0 -1.7,1.79 z"
       id="path197"
       style="isolation:isolate" />
    <path
       class="cls-3"
       d="m 296.13,244.91 h 2.75 v 12.78 h -2.75 z"
       id="path199"
       style="isolation:isolate" />
    <path
       class="cls-3"
       d="m 303.19,254.17 c 0.09,1.13 1.21,1.67 2.49,1.67 a 7.28,7.28 0 0 0 2.42,-0.37 l 0.37,1.85 a 8.37,8.37 0 0 1 -3.19,0.56 c -3,0 -4.7,-1.74 -4.7,-4.48 a 4.43,4.43 0 0 1 4.44,-4.72 c 2.86,0 3.94,2.22 3.94,4.4 a 5.2,5.2 0 0 1 -0.1,1.09 z m 3.22,-1.88 a 1.59,1.59 0 0 0 -1.54,-1.79 1.82,1.82 0 0 0 -1.7,1.79 z"
       id="path201"
       style="isolation:isolate" />
    <path
       class="cls-3"
       d="m 317.2,257.47 a 6.39,6.39 0 0 1 -2.45,0.41 c -2.85,0 -4.66,-1.74 -4.66,-4.51 0,-2.58 1.76,-4.68 5,-4.68 a 6.18,6.18 0 0 1 2.09,0.35 l -0.42,2 a 3.66,3.66 0 0 0 -1.54,-0.28 2.500125,2.500125 0 0 0 0.05,5 4.13,4.13 0 0 0 1.58,-0.29 z"
       id="path203"
       style="isolation:isolate" />
    <path
       class="cls-3"
       d="m 322.05,246.37 v 2.51 h 2 v 2 h -2 v 3.19 c 0,1.07 0.26,1.56 1.08,1.56 a 3.17,3.17 0 0 0 0.81,-0.09 v 2.09 a 6.13,6.13 0 0 1 -1.78,0.23 2.89,2.89 0 0 1 -2.06,-0.76 3.63,3.63 0 0 1 -0.76,-2.62 v -3.6 h -1.14 v -2 h 1.17 V 247 Z"
       id="path205"
       style="isolation:isolate" />
    <path
       class="cls-3"
       d="m 327.62,254.17 c 0.08,1.13 1.21,1.67 2.49,1.67 a 7.32,7.32 0 0 0 2.42,-0.37 l 0.37,1.85 a 8.37,8.37 0 0 1 -3.19,0.56 c -3,0 -4.7,-1.74 -4.7,-4.48 a 4.42,4.42 0 0 1 4.44,-4.72 c 2.85,0 3.93,2.22 3.93,4.4 a 6.22,6.22 0 0 1 -0.09,1.09 z m 3.22,-1.88 a 1.6,1.6 0 0 0 -1.54,-1.79 1.81,1.81 0 0 0 -1.7,1.79 z"
       id="path207"
       style="isolation:isolate" />
    <path
       class="cls-3"
       d="m 343.55,244.91 v 10.15 c 0,1 0,2 0.07,2.63 h -2.44 l -0.11,-1.29 v 0 a 3.06,3.06 0 0 1 -2.76,1.49 c -2.08,0 -3.76,-1.79 -3.76,-4.52 0,-3 1.85,-4.69 3.94,-4.69 a 2.67,2.67 0 0 1 2.32,1 v 0 -4.77 z m -2.74,7.71 a 2.89,2.89 0 0 0 0,-0.5 1.63,1.63 0 0 0 -1.59,-1.34 c -1.25,0 -1.89,1.12 -1.89,2.51 0,1.39 0.73,2.42 1.87,2.42 a 1.62,1.62 0 0 0 1.59,-1.32 3,3 0 0 0 0.06,-0.62 z"
       id="path209"
       style="isolation:isolate" />
    <path
       class="cls-3"
       d="m 349.48,245.72 a 22.58,22.58 0 0 1 3.7,-0.26 5.83,5.83 0 0 1 3.71,1 3.51,3.51 0 0 1 1.29,2.81 3.82,3.82 0 0 1 -1.11,2.87 5.66,5.66 0 0 1 -3.94,1.29 6.27,6.27 0 0 1 -0.94,-0.06 v 4.34 h -2.71 z m 2.71,5.5 a 4.39,4.39 0 0 0 0.92,0.07 c 1.45,0 2.35,-0.73 2.35,-2 0,-1.27 -0.76,-1.78 -2.15,-1.78 a 5.2,5.2 0 0 0 -1.12,0.09 z"
       id="path211"
       style="isolation:isolate" />
    <path
       class="cls-3"
       d="m 359.67,251.78 c 0,-1.29 0,-2.14 -0.07,-2.9 h 2.4 l 0.1,1.63 h 0.07 a 2.58,2.58 0 0 1 2.38,-1.83 2.71,2.71 0 0 1 0.59,0 v 2.58 a 3.16,3.16 0 0 0 -0.74,-0.08 1.77,1.77 0 0 0 -1.88,1.39 2.9,2.9 0 0 0 -0.05,0.61 v 4.46 h -2.75 z"
       id="path213"
       style="isolation:isolate" />
    <path
       class="cls-3"
       d="m 368.48,254.17 c 0.08,1.13 1.21,1.67 2.48,1.67 a 7.34,7.34 0 0 0 2.43,-0.37 l 0.37,1.85 a 8.37,8.37 0 0 1 -3.19,0.56 c -3,0 -4.7,-1.74 -4.7,-4.48 a 4.42,4.42 0 0 1 4.44,-4.72 c 2.85,0 3.93,2.22 3.93,4.4 a 6.22,6.22 0 0 1 -0.09,1.09 z m 3.22,-1.88 a 1.6,1.6 0 0 0 -1.54,-1.79 1.81,1.81 0 0 0 -1.7,1.79 z"
       id="path215"
       style="isolation:isolate" />
    <path
       class="cls-3"
       d="m 375.86,255.3 a 5.28,5.28 0 0 0 2.35,0.66 c 0.83,0 1.18,-0.28 1.18,-0.73 0,-0.45 -0.28,-0.68 -1.29,-1 -1.83,-0.6 -2.52,-1.6 -2.51,-2.63 0,-1.66 1.39,-2.9 3.58,-2.9 a 5.7,5.7 0 0 1 2.48,0.52 l -0.47,1.88 a 4.5,4.5 0 0 0 -1.91,-0.5 c -0.67,0 -1.06,0.27 -1.06,0.71 0,0.44 0.35,0.65 1.43,1 1.68,0.57 2.38,1.43 2.39,2.72 0,1.64 -1.29,2.85 -3.81,2.85 a 6.35,6.35 0 0 1 -2.86,-0.62 z"
       id="path217"
       style="isolation:isolate" />
    <path
       class="cls-3"
       d="m 386.51,246.43 a 1.37,1.37 0 0 1 -1.51,1.37 1.37,1.37 0 1 1 0,-2.74 1.36,1.36 0 0 1 1.51,1.37 z m -2.82,11.26 v -8.81 h 2.74 v 8.81 z"
       id="path219"
       style="isolation:isolate" />
    <path
       class="cls-3"
       d="m 397.15,244.91 v 10.15 c 0,1 0,2 0.07,2.63 h -2.43 l -0.12,-1.29 v 0 a 3.06,3.06 0 0 1 -2.76,1.49 c -2.07,0 -3.76,-1.79 -3.76,-4.52 0,-3 1.85,-4.69 3.95,-4.69 a 2.65,2.65 0 0 1 2.31,1 v 0 -4.77 z m -2.74,7.71 a 2.89,2.89 0 0 0 0,-0.5 1.62,1.62 0 0 0 -1.58,-1.34 c -1.26,0 -1.9,1.12 -1.9,2.51 0,1.39 0.73,2.42 1.88,2.42 a 1.61,1.61 0 0 0 1.58,-1.32 2.46,2.46 0 0 0 0.06,-0.62 z"
       id="path221"
       style="isolation:isolate" />
    <path
       class="cls-3"
       d="m 401.45,254.17 c 0.09,1.13 1.21,1.67 2.49,1.67 a 7.32,7.32 0 0 0 2.42,-0.37 l 0.37,1.85 a 8.37,8.37 0 0 1 -3.19,0.56 c -3,0 -4.7,-1.74 -4.7,-4.48 a 4.43,4.43 0 0 1 4.44,-4.72 c 2.86,0 3.94,2.22 3.94,4.4 a 5.2,5.2 0 0 1 -0.1,1.09 z m 3.22,-1.88 a 1.59,1.59 0 0 0 -1.54,-1.79 1.82,1.82 0 0 0 -1.7,1.79 z"
       id="path223"
       style="isolation:isolate" />
    <path
       class="cls-3"
       d="m 408.85,251.69 c 0,-1.09 0,-2 -0.07,-2.81 h 2.37 l 0.13,1.22 h 0.06 a 3.17,3.17 0 0 1 2.72,-1.42 c 1.8,0 3.15,1.2 3.15,3.8 v 5.21 h -2.74 v -4.88 c 0,-1.14 -0.41,-1.91 -1.39,-1.91 a 1.47,1.47 0 0 0 -1.39,1 2,2 0 0 0 -0.1,0.68 v 5.08 h -2.74 z"
       id="path225"
       style="isolation:isolate" />
    <path
       class="cls-3"
       d="m 422.34,246.37 v 2.51 h 2 v 2 h -2 v 3.19 c 0,1.07 0.27,1.56 1.08,1.56 a 3.26,3.26 0 0 0 0.82,-0.09 v 2.09 a 6,6 0 0 1 -1.77,0.23 2.89,2.89 0 0 1 -2.07,-0.76 3.63,3.63 0 0 1 -0.76,-2.62 v -3.6 h -1.17 v -2 h 1.17 V 247 Z"
       id="path227"
       style="isolation:isolate" />
  </g>
  <g
     id="g1716"
     transform="translate(-0.287677)">
    <path
       class="cls-3"
       d="m 136.54,182.89 a 44.67,44.67 0 0 1 -4.8,-1.7 2.7,2.7 0 0 0 -0.84,-0.19 c -2.74,-0.17 -5.3,-2.19 -5.3,-6.16 0,-3.64 2.3,-6.37 5.94,-6.37 3.64,0 5.73,2.81 5.73,6.12 0,2.76 -1.27,4.71 -2.87,5.42 v 0.07 c 0.93,0.28 2,0.5 2.92,0.69 z m -2.17,-8.18 c 0,-2.22 -1,-4.06 -2.91,-4.06 -1.91,0 -3,1.83 -3,4.11 0,2.28 1.1,4.06 2.93,4.06 1.83,0 2.98,-1.74 2.98,-4.11 z"
       id="path229"
       style="isolation:isolate" />
    <path
       class="cls-3"
       d="m 147.37,178 c 0,1.15 0,2.09 0.07,2.82 h -2.38 l -0.12,-1.24 h -0.06 a 3.11,3.11 0 0 1 -2.75,1.44 c -1.79,0 -3.09,-1.12 -3.09,-3.83 V 172 h 2.74 v 4.74 c 0,1.29 0.42,2.06 1.38,2.06 a 1.45,1.45 0 0 0 1.36,-1 1.52,1.52 0 0 0 0.1,-0.59 V 172 h 2.75 z"
       id="path231"
       style="isolation:isolate" />
    <path
       class="cls-3"
       d="m 151.67,177.28 c 0.08,1.14 1.21,1.68 2.49,1.68 a 7.31,7.31 0 0 0 2.42,-0.38 l 0.37,1.86 a 8.57,8.57 0 0 1 -3.19,0.55 c -3,0 -4.7,-1.73 -4.7,-4.48 a 4.43,4.43 0 0 1 4.44,-4.72 c 2.86,0 3.94,2.22 3.94,4.4 a 5.13,5.13 0 0 1 -0.1,1.09 z m 3.22,-1.88 a 1.59,1.59 0 0 0 -1.54,-1.78 1.81,1.81 0 0 0 -1.7,1.78 z"
       id="path233"
       style="isolation:isolate" />
    <path
       class="cls-3"
       d="m 161.18,177.28 c 0.08,1.14 1.2,1.68 2.48,1.68 a 7.33,7.33 0 0 0 2.43,-0.38 l 0.37,1.86 a 8.66,8.66 0 0 1 -3.2,0.55 c -3,0 -4.7,-1.73 -4.7,-4.48 a 4.43,4.43 0 0 1 4.44,-4.72 c 2.86,0 3.94,2.22 3.94,4.4 a 5.13,5.13 0 0 1 -0.1,1.09 z m 3.21,-1.88 a 1.58,1.58 0 0 0 -1.53,-1.78 1.82,1.82 0 0 0 -1.71,1.78 z"
       id="path235"
       style="isolation:isolate" />
    <path
       class="cls-3"
       d="m 168.57,174.81 c 0,-1.1 0,-2 -0.07,-2.82 h 2.37 l 0.13,1.22 h 0.06 a 3.2,3.2 0 0 1 2.72,-1.42 c 1.8,0 3.16,1.2 3.16,3.8 v 5.21 h -2.75 v -4.88 c 0,-1.13 -0.4,-1.91 -1.39,-1.91 a 1.48,1.48 0 0 0 -1.39,1 2,2 0 0 0 -0.1,0.68 v 5.08 h -2.74 z"
       id="path237"
       style="isolation:isolate" />
    <path
       class="cls-3"
       d="m 190.06,175.67 h -4.46 v 2.89 h 5 v 2.24 h -7.74 v -12.13 h 7.48 v 2.25 h -4.74 v 2.52 h 4.46 z"
       id="path239"
       style="isolation:isolate" />
    <path
       class="cls-3"
       d="m 192.44,168 h 2.74 v 12.8 h -2.74 z"
       id="path241"
       style="isolation:isolate" />
    <path
       class="cls-3"
       d="m 200.21,169.55 a 1.45,1.45 0 1 1 -1.45,-1.38 1.35,1.35 0 0 1 1.45,1.38 z m -2.82,11.25 V 172 h 2.74 v 8.81 z"
       id="path243"
       style="isolation:isolate" />
    <path
       class="cls-3"
       d="m 201.62,179.23 2.77,-3.47 c 0.51,-0.58 0.9,-1 1.4,-1.56 v 0 h -3.86 V 172 h 7.21 v 1.65 l -2.66,3.35 c -0.48,0.57 -0.94,1.12 -1.44,1.61 v 0 h 4.23 v 2.17 h -7.65 z"
       id="path245"
       style="isolation:isolate" />
    <path
       class="cls-3"
       d="m 215.78,180.8 -0.17,-0.87 h -0.05 A 3.18,3.18 0 0 1 213,181 a 2.69,2.69 0 0 1 -2.85,-2.69 c 0,-2.3 2.05,-3.39 5.17,-3.38 v -0.12 c 0,-0.46 -0.25,-1.13 -1.61,-1.13 a 5,5 0 0 0 -2.43,0.66 l -0.5,-1.76 a 7.1,7.1 0 0 1 3.42,-0.79 c 2.94,0 3.86,1.74 3.86,3.81 v 3.07 a 13.3,13.3 0 0 0 0.14,2.13 z m -0.34,-4.16 c -1.44,0 -2.55,0.34 -2.55,1.39 a 1,1 0 0 0 1.09,1.05 1.49,1.49 0 0 0 1.41,-1 1.45,1.45 0 0 0 0.05,-0.47 z"
       id="path247"
       style="isolation:isolate" />
    <path
       class="cls-3"
       d="m 220.19,180.8 c 0,-0.58 0.08,-1.63 0.08,-2.63 V 168 H 223 v 5 0 a 3.09,3.09 0 0 1 2.66,-1.25 c 2.12,0 3.66,1.75 3.64,4.45 0,3.18 -2,4.76 -4,4.76 a 2.89,2.89 0 0 1 -2.64,-1.42 v 0 l -0.11,1.22 z m 2.82,-3.74 a 2.49,2.49 0 0 0 0,0.49 1.67,1.67 0 0 0 1.62,1.3 c 1.16,0 1.89,-0.91 1.89,-2.49 0,-1.37 -0.62,-2.45 -1.89,-2.45 a 1.68,1.68 0 0 0 -1.61,1.35 2.67,2.67 0 0 0 -0.05,0.51 z"
       id="path249"
       style="isolation:isolate" />
    <path
       class="cls-3"
       d="m 233.19,177.28 c 0.09,1.14 1.21,1.68 2.49,1.68 a 7.27,7.27 0 0 0 2.42,-0.38 l 0.37,1.86 a 8.57,8.57 0 0 1 -3.19,0.55 c -3,0 -4.7,-1.73 -4.7,-4.48 a 4.43,4.43 0 0 1 4.44,-4.72 c 2.86,0 3.94,2.22 3.94,4.4 a 5.13,5.13 0 0 1 -0.1,1.09 z m 3.22,-1.88 a 1.58,1.58 0 0 0 -1.54,-1.78 1.82,1.82 0 0 0 -1.7,1.78 z"
       id="path251"
       style="isolation:isolate" />
    <path
       class="cls-3"
       d="M 243.64,169.48 V 172 h 2 v 2 h -2 v 3.2 c 0,1.06 0.27,1.55 1.08,1.55 a 3.94,3.94 0 0 0 0.82,-0.08 v 2.08 a 5.72,5.72 0 0 1 -1.77,0.23 2.85,2.85 0 0 1 -2.07,-0.76 3.6,3.6 0 0 1 -0.76,-2.61 V 174 h -1.17 v -2 H 241 v -1.9 z"
       id="path253"
       style="isolation:isolate" />
    <path
       class="cls-3"
       d="m 247.19,168 h 2.75 v 5 0 a 3.18,3.18 0 0 1 1.08,-0.91 3,3 0 0 1 1.42,-0.35 c 1.75,0 3.09,1.22 3.09,3.87 v 5.14 h -2.74 V 176 c 0,-1.16 -0.4,-2 -1.42,-2 a 1.43,1.43 0 0 0 -1.37,1 1.64,1.64 0 0 0 -0.09,0.6 v 5.22 h -2.75 z"
       id="path255"
       style="isolation:isolate" />
    <path
       class="cls-3"
       d="m 261.38,174.81 c 0,-1.1 0,-2 -0.08,-2.82 h 2.32 l 0.12,1.19 h 0.05 a 3.08,3.08 0 0 1 2.66,-1.39 2.5,2.5 0 0 1 2.42,1.51 v 0 a 3.74,3.74 0 0 1 1.15,-1.07 3.08,3.08 0 0 1 1.67,-0.44 c 1.68,0 3,1.19 3,3.83 v 5.18 H 272 V 176 c 0,-1.28 -0.41,-2 -1.3,-2 a 1.34,1.34 0 0 0 -1.26,1 2.56,2.56 0 0 0 -0.1,0.69 v 5.15 h -2.64 v -4.94 c 0,-1.11 -0.4,-1.86 -1.27,-1.86 a 1.42,1.42 0 0 0 -1.29,1 2.08,2.08 0 0 0 -0.1,0.7 v 5.12 h -2.66 z"
       id="path257"
       style="isolation:isolate" />
    <path
       class="cls-3"
       d="m 281.87,180.8 -0.16,-0.87 h -0.06 a 3.15,3.15 0 0 1 -2.52,1.07 2.69,2.69 0 0 1 -2.85,-2.69 c 0,-2.3 2.06,-3.39 5.18,-3.38 v -0.12 c 0,-0.46 -0.26,-1.13 -1.62,-1.13 a 5,5 0 0 0 -2.43,0.66 l -0.5,-1.76 a 7.15,7.15 0 0 1 3.43,-0.79 c 2.93,0 3.86,1.74 3.86,3.81 v 3.07 a 12.22,12.22 0 0 0 0.14,2.13 z m -0.33,-4.16 c -1.44,0 -2.56,0.34 -2.56,1.39 a 1,1 0 0 0 1.09,1.05 1.5,1.5 0 0 0 1.42,-1 1.78,1.78 0 0 0 0.05,-0.47 z"
       id="path259"
       style="isolation:isolate" />
    <path
       class="cls-3"
       d="m 286.36,174.9 c 0,-1.3 0,-2.15 -0.07,-2.91 h 2.35 l 0.1,1.63 h 0.07 a 2.57,2.57 0 0 1 2.38,-1.83 2.07,2.07 0 0 1 0.58,0.06 v 2.57 a 3.71,3.71 0 0 0 -0.74,-0.07 1.77,1.77 0 0 0 -1.88,1.39 3.58,3.58 0 0 0 0,0.61 v 4.45 h -2.74 z"
       id="path261"
       style="isolation:isolate" />
    <path
       class="cls-3"
       d="m 293.16,174.9 c 0,-1.3 0,-2.15 -0.07,-2.91 h 2.35 l 0.1,1.63 h 0.07 a 2.58,2.58 0 0 1 2.38,-1.83 2.19,2.19 0 0 1 0.59,0.06 v 2.57 a 3.88,3.88 0 0 0 -0.74,-0.07 1.76,1.76 0 0 0 -1.88,1.39 2.78,2.78 0 0 0 0,0.61 v 4.45 h -2.75 z"
       id="path263"
       style="isolation:isolate" />
    <path
       class="cls-3"
       d="m 302.79,169.55 a 1.45,1.45 0 1 1 -1.45,-1.38 1.35,1.35 0 0 1 1.45,1.38 z M 300,180.8 V 172 h 2.74 v 8.81 z"
       id="path265"
       style="isolation:isolate" />
    <path
       class="cls-3"
       d="m 307,177.28 c 0.08,1.14 1.21,1.68 2.48,1.68 a 7.33,7.33 0 0 0 2.43,-0.38 l 0.37,1.86 a 8.57,8.57 0 0 1 -3.19,0.55 c -3,0 -4.7,-1.73 -4.7,-4.48 a 4.42,4.42 0 0 1 4.44,-4.72 c 2.85,0 3.93,2.22 3.93,4.4 a 6.12,6.12 0 0 1 -0.09,1.09 z m 3.22,-1.88 a 1.59,1.59 0 0 0 -1.54,-1.78 1.8,1.8 0 0 0 -1.7,1.78 z"
       id="path267"
       style="isolation:isolate" />
    <path
       class="cls-3"
       d="m 314.39,178.42 a 5.42,5.42 0 0 0 2.35,0.65 c 0.83,0 1.18,-0.28 1.18,-0.72 0,-0.44 -0.28,-0.68 -1.29,-1 -1.83,-0.61 -2.52,-1.6 -2.51,-2.64 0,-1.65 1.39,-2.9 3.58,-2.9 a 5.84,5.84 0 0 1 2.48,0.52 l -0.48,1.88 a 4.56,4.56 0 0 0 -1.9,-0.49 c -0.67,0 -1.06,0.26 -1.06,0.71 0,0.45 0.35,0.64 1.43,1 1.68,0.57 2.38,1.43 2.39,2.72 0,1.64 -1.29,2.85 -3.81,2.85 a 6.27,6.27 0 0 1 -2.85,-0.62 z"
       id="path269"
       style="isolation:isolate" />
    <path
       class="cls-3"
       d="m 326,168.83 a 22.58,22.58 0 0 1 3.7,-0.26 5.87,5.87 0 0 1 3.72,1 3.55,3.55 0 0 1 1.28,2.81 3.79,3.79 0 0 1 -1.11,2.87 5.59,5.59 0 0 1 -3.94,1.29 6,6 0 0 1 -0.93,-0.06 v 4.34 H 326 Z m 2.72,5.5 a 3.67,3.67 0 0 0 0.91,0.08 c 1.46,0 2.36,-0.74 2.36,-2 0,-1.26 -0.77,-1.78 -2.15,-1.78 a 5.2,5.2 0 0 0 -1.12,0.09 z"
       id="path271"
       style="isolation:isolate" />
    <path
       class="cls-3"
       d="m 336.15,174.9 c 0,-1.3 0,-2.15 -0.08,-2.91 h 2.36 l 0.1,1.63 h 0.06 a 2.59,2.59 0 0 1 2.38,-1.83 2.14,2.14 0 0 1 0.59,0.06 v 2.57 a 3.71,3.71 0 0 0 -0.74,-0.07 1.76,1.76 0 0 0 -1.88,1.39 2.78,2.78 0 0 0 -0.05,0.61 v 4.45 h -2.74 z"
       id="path273"
       style="isolation:isolate" />
    <path
       class="cls-3"
       d="m 345.77,169.55 a 1.45,1.45 0 1 1 -1.45,-1.38 1.35,1.35 0 0 1 1.45,1.38 z M 343,180.8 V 172 h 2.74 v 8.81 z"
       id="path275"
       style="isolation:isolate" />
    <path
       class="cls-3"
       d="m 347.88,174.81 c 0,-1.1 0,-2 -0.07,-2.82 h 2.38 l 0.12,1.22 h 0.06 a 3.21,3.21 0 0 1 2.72,-1.42 c 1.8,0 3.16,1.2 3.16,3.8 v 5.21 h -2.75 v -4.88 c 0,-1.13 -0.4,-1.91 -1.39,-1.91 a 1.49,1.49 0 0 0 -1.39,1 2,2 0 0 0 -0.09,0.68 v 5.08 h -2.75 z"
       id="path277"
       style="isolation:isolate" />
    <path
       class="cls-3"
       d="m 365,180.58 a 6.39,6.39 0 0 1 -2.45,0.41 c -2.85,0 -4.66,-1.74 -4.66,-4.51 0,-2.57 1.76,-4.68 5,-4.68 a 6.27,6.27 0 0 1 2.09,0.35 l -0.43,2 a 3.8,3.8 0 0 0 -1.53,-0.28 2.48,2.48 0 0 0 0,4.95 4.09,4.09 0 0 0 1.58,-0.29 z"
       id="path279"
       style="isolation:isolate" />
    <path
       class="cls-3"
       d="m 368.46,177.28 c 0.08,1.14 1.21,1.68 2.48,1.68 a 7.33,7.33 0 0 0 2.43,-0.38 l 0.37,1.86 a 8.57,8.57 0 0 1 -3.19,0.55 c -3,0 -4.7,-1.73 -4.7,-4.48 a 4.42,4.42 0 0 1 4.44,-4.72 c 2.86,0 3.93,2.22 3.93,4.4 a 6.12,6.12 0 0 1 -0.09,1.09 z m 3.22,-1.88 a 1.59,1.59 0 0 0 -1.54,-1.78 1.8,1.8 0 0 0 -1.7,1.78 z"
       id="path281"
       style="isolation:isolate" />
    <path
       class="cls-3"
       d="m 379.59,168.83 a 22.58,22.58 0 0 1 3.7,-0.26 5.87,5.87 0 0 1 3.72,1 3.55,3.55 0 0 1 1.28,2.81 3.79,3.79 0 0 1 -1.11,2.87 5.59,5.59 0 0 1 -3.94,1.29 6,6 0 0 1 -0.93,-0.06 v 4.34 h -2.72 z m 2.72,5.5 a 3.62,3.62 0 0 0 0.91,0.08 c 1.46,0 2.35,-0.74 2.35,-2 0,-1.26 -0.76,-1.78 -2.14,-1.78 a 5.2,5.2 0 0 0 -1.12,0.09 z"
       id="path283"
       style="isolation:isolate" />
    <path
       class="cls-3"
       d="m 389.91,168 h 2.74 v 5 0 a 3.25,3.25 0 0 1 1.07,-0.91 3.09,3.09 0 0 1 1.43,-0.35 c 1.75,0 3.09,1.22 3.09,3.87 v 5.14 h -2.75 V 176 c 0,-1.16 -0.4,-2 -1.41,-2 a 1.46,1.46 0 0 0 -1.38,1 1.89,1.89 0 0 0 -0.09,0.6 v 5.22 h -2.74 z"
       id="path285"
       style="isolation:isolate" />
    <path
       class="cls-3"
       d="m 403.28,169.55 a 1.45,1.45 0 1 1 -1.45,-1.38 1.35,1.35 0 0 1 1.45,1.38 z m -2.82,11.25 V 172 h 2.74 v 8.81 z"
       id="path287"
       style="isolation:isolate" />
    <path
       class="cls-3"
       d="m 405.39,168 h 2.74 v 12.8 h -2.74 z"
       id="path289"
       style="isolation:isolate" />
    <path
       class="cls-3"
       d="m 413.16,169.55 a 1.45,1.45 0 1 1 -1.45,-1.38 1.35,1.35 0 0 1 1.45,1.38 z m -2.82,11.25 V 172 h 2.74 v 8.81 z"
       id="path291"
       style="isolation:isolate" />
    <path
       class="cls-3"
       d="m 415.27,175 c 0,-1.15 0,-2.13 -0.07,-3 h 2.38 l 0.13,1.24 v 0 a 3.43,3.43 0 0 1 2.94,-1.44 c 1.93,0 3.66,1.68 3.66,4.49 0,3.22 -2,4.72 -4,4.72 a 2.72,2.72 0 0 1 -2.28,-1 v 0 4.37 h -2.74 z m 2.73,2 a 2.49,2.49 0 0 0 0.06,0.57 1.65,1.65 0 0 0 1.6,1.3 c 1.18,0 1.89,-1 1.89,-2.49 0,-1.49 -0.63,-2.47 -1.85,-2.47 a 1.72,1.72 0 0 0 -1.64,1.38 2.05,2.05 0 0 0 -0.06,0.49 z"
       id="path293"
       style="isolation:isolate" />
  </g>
  <polygon
     class="cls-4"
     points="574.44,172.36 574.42,175.06 608.56,175.26 608.53,180.72 615.37,173.96 608.61,167.12 608.58,172.57 "
     id="polygon373"
     style="isolation:isolate" />
  <polygon
     class="cls-3"
     points="574.44,246.49 574.42,249.18 608.56,249.39 608.53,254.84 615.37,248.08 608.61,241.24 608.58,246.69 "
     id="polygon375"
     style="isolation:isolate" />
  <path
     class="cls-5"
     d="m 578.27,161 c 0,43.68 -35.41,119.08 -79.08,119.08 a 79.08,79.08 0 0 1 0,-158.16 c 43.67,-0.05 79.08,-4.64 79.08,39.08 z"
     id="path377"
     style="isolation:isolate;fill:url(#radialGradient1431)" />
  <path
     class="cls-6"
     d="m 768.12,169.73 c 0,43.67 -35.41,119.08 -79.08,119.08 a 79.08,79.08 0 1 1 0,-158.16 c 43.67,0 79.08,-4.6 79.08,39.08 z"
     id="path379"
     style="isolation:isolate;fill:url(#_%C3%82%C3%81_%C3%8F_%C3%8C%C3%8C_%C3%88_%C3%8B%C3%82%C3%8C%C3%9A_126-2)" />
  <ellipse
     class="cls-7"
     cx="502.82999"
     cy="344.17999"
     rx="130.7"
     ry="75.459999"
     id="ellipse381"
     style="isolation:isolate;fill:url(#radial-gradient)" />
  <path
     class="cls-8"
     d="M 555.72,11.84 H 450 v 346.78 0 c -0.35,8.07 4.76,16.2 15.43,22.36 20.65,11.93 54.14,11.93 74.79,0 10.32,-6 15.49,-13.77 15.49,-21.59 v 0 z"
     id="path383"
     style="isolation:isolate;fill:url(#radial-gradient-2)" />
  <ellipse
     class="cls-9"
     cx="502.82999"
     cy="362.26001"
     rx="52.880001"
     ry="30.530001"
     id="ellipse385"
     style="isolation:isolate" />
  <g
     class="cls-10"
     id="g391"
     style="isolation:isolate">
    <path
       class="cls-11"
       d="m 539.92,304.05 c -10.22,-5.07 -23.66,-7.61 -37.09,-7.61 -13.43,0 -26.83,2.56 -37.09,7.61 -9.79,4.87 -15.18,11.3 -15.18,18.12 0,6.82 5.39,13.25 15.18,18.1 20.46,10.16 53.73,10.15 74.18,0 9.8,-4.85 15.19,-11.29 15.19,-18.1 0,-6.81 -5.39,-13.25 -15.19,-18.12 z"
       id="path387"
       style="fill:url(#radialGradient1433);stroke:url(#radial-gradient-4)" />
    <path
       class="cls-12"
       d="m 540.53,303.15 c -20.79,-10.32 -54.61,-10.32 -75.4,0 -10.18,5.06 -15.79,11.8 -15.79,19 0,4.12 1.84,8.1 5.33,11.69 5.95,8.59 20.59,24.05 48.87,24.05 25.73,0 40.39,-14.65 46.87,-23.47 3.87,-3.74 5.92,-7.92 5.92,-12.27 0,-7.15 -5.61,-13.94 -15.8,-19 z m -0.61,37.12 c -20.45,10.15 -53.72,10.16 -74.18,0 -9.79,-4.85 -15.18,-11.29 -15.18,-18.1 0,-6.81 5.39,-13.25 15.18,-18.12 10.23,-5.07 23.66,-7.61 37.09,-7.61 13.43,0 26.87,2.54 37.09,7.61 9.8,4.87 15.19,11.3 15.19,18.12 0,6.82 -5.39,13.25 -15.19,18.1 z"
       id="path389" />
  </g>
  <g
     class="cls-13"
     id="g397"
     style="isolation:isolate">
    <path
       class="cls-14"
       d="m 539.92,229.93 c -10.22,-5.07 -23.66,-7.61 -37.09,-7.61 -13.43,0 -26.86,2.54 -37.09,7.61 -9.79,4.87 -15.18,11.3 -15.18,18.11 0,6.81 5.39,13.25 15.18,18.11 20.46,10.15 53.73,10.14 74.18,0 9.8,-4.86 15.19,-11.29 15.19,-18.11 0,-6.82 -5.39,-13.24 -15.19,-18.11 z"
       id="path393"
       style="fill:url(#radial-gradient-5);stroke:url(#radial-gradient-6)" />
    <path
       class="cls-12"
       d="m 540.53,229 c -20.79,-10.32 -54.61,-10.32 -75.4,0 -10.18,5.05 -15.79,11.8 -15.79,19 0,4.13 1.84,8.1 5.33,11.7 5.95,8.58 20.59,24 48.87,24 a 56.83,56.83 0 0 0 46.87,-23.46 c 3.87,-3.74 5.92,-7.93 5.92,-12.28 0,-7.12 -5.61,-13.88 -15.8,-18.96 z m -0.61,37.12 c -20.45,10.14 -53.72,10.15 -74.18,0 -9.79,-4.86 -15.18,-11.3 -15.18,-18.11 0,-6.81 5.39,-13.24 15.18,-18.11 10.23,-5.07 23.66,-7.61 37.09,-7.61 13.43,0 26.87,2.54 37.09,7.61 9.8,4.87 15.19,11.3 15.19,18.11 0,6.81 -5.39,13.28 -15.19,18.14 z"
       id="path395" />
  </g>
  <g
     class="cls-15"
     id="g403"
     style="isolation:isolate">
    <path
       class="cls-16"
       d="m 539.92,155.81 c -10.22,-5.08 -23.66,-7.61 -37.09,-7.61 -13.43,0 -26.86,2.53 -37.09,7.61 -9.79,4.86 -15.18,11.29 -15.18,18.11 0,6.82 5.44,13.25 15.18,18.08 20.46,10.15 53.73,10.14 74.18,0 9.8,-4.86 15.19,-11.29 15.19,-18.11 0,-6.82 -5.39,-13.22 -15.19,-18.08 z"
       id="path399"
       style="fill:url(#radial-gradient-7);stroke:url(#radial-gradient-8)" />
    <path
       class="cls-12"
       d="m 540.53,154.9 c -20.79,-10.31 -54.61,-10.31 -75.4,0 -10.18,5.06 -15.79,11.81 -15.79,19 0,4.13 1.84,8.1 5.33,11.69 5.95,8.59 20.59,24 48.87,24 a 56.83,56.83 0 0 0 46.87,-23.46 c 3.87,-3.74 5.92,-7.93 5.92,-12.28 0,-7.13 -5.61,-13.85 -15.8,-18.95 z m -0.61,37.1 c -20.45,10.14 -53.72,10.15 -74.18,0 -9.79,-4.86 -15.18,-11.3 -15.18,-18.11 0,-6.81 5.39,-13.25 15.18,-18.11 10.23,-5.08 23.66,-7.61 37.09,-7.61 13.43,0 26.87,2.53 37.09,7.61 9.8,4.86 15.19,11.29 15.19,18.11 0,6.82 -5.39,13.28 -15.19,18.11 z"
       id="path401" />
  </g>
  <g
     class="cls-17"
     id="g409"
     style="isolation:isolate">
    <path
       class="cls-18"
       d="m 539.27,81.68 c -10.22,-5.07 -23.66,-7.6 -37.09,-7.6 -13.43,0 -26.86,2.53 -37.09,7.6 -9.79,4.87 -15.18,11.32 -15.18,18.12 0,6.8 5.39,13.25 15.18,18.1 20.46,10.16 53.73,10.15 74.18,0 9.8,-4.85 15.19,-11.28 15.19,-18.1 0,-6.82 -5.39,-13.25 -15.19,-18.12 z"
       id="path405"
       style="fill:url(#radial-gradient-9);stroke:url(#radial-gradient-10)" />
    <path
       class="cls-12"
       d="m 539.88,80.78 c -20.79,-10.32 -54.61,-10.32 -75.4,0 -10.18,5.06 -15.79,11.8 -15.79,19 0,4.12 1.84,8.1 5.33,11.69 6,8.59 20.59,24 48.87,24 25.73,0 40.39,-14.65 46.87,-23.47 3.87,-3.74 5.92,-7.92 5.92,-12.27 0,-7.14 -5.61,-13.89 -15.8,-18.95 z m -0.61,37.12 c -20.45,10.15 -53.72,10.16 -74.18,0 -9.79,-4.85 -15.18,-11.29 -15.18,-18.1 0,-6.81 5.39,-13.25 15.18,-18.12 10.23,-5.07 23.66,-7.6 37.09,-7.6 13.43,0 26.87,2.53 37.09,7.6 9.8,4.87 16.41,11.3 16.41,18.12 0,6.82 -6.61,13.25 -16.41,18.1 z"
       id="path407" />
  </g>
  <path
     class="cls-19"
     d="m 741.56,177.6 a 17.75,17.75 0 0 1 -4.2,5.52 c 0,0 -11.94,14.55 -47.57,14.88 -35.63,0.33 -48.17,-15.45 -48.17,-15.45 -0.26,-0.27 -0.49,-0.54 -0.73,-0.81 -3,-3.38 -3.95,-7 -4.6,-10.88 v 71.73 c 0,-0.17 0,-0.34 0,-0.52 h 0.14 a 13.72,13.72 0 0 0 1,5.2 c 2,5 7,9.57 14.43,13.27 20.87,10.35 54.81,10.35 75.67,0 7.47,-3.7 12.42,-8.3 14.45,-13.28 a 13.67,13.67 0 0 0 1.05,-5.19 h 0.17 v -71.22 c -1.64,6.36 -0.78,4.88 -1.64,6.75 z"
     id="path411"
     style="isolation:isolate;fill:url(#linear-gradient)" />
  <g
     class="cls-20"
     id="g417"
     style="isolation:isolate">
    <path
       class="cls-21"
       d="m 726.87,153 c -10.22,-5.07 -23.66,-7.61 -37.09,-7.61 -13.43,0 -26.86,2.61 -37.09,7.61 -9.79,4.87 -15.18,11.3 -15.18,18.12 0,6.82 5.39,13.24 15.18,18.1 20.46,10.15 53.73,10.15 74.18,0 9.8,-4.86 15.19,-11.29 15.19,-18.1 0,-6.81 -5.39,-13.23 -15.19,-18.12 z"
       id="path413"
       style="fill:url(#radial-gradient-11);stroke:url(#radial-gradient-12)" />
    <path
       class="cls-12"
       d="m 727.48,152.12 c -20.79,-10.32 -54.61,-10.32 -75.4,0 -10.18,5 -15.79,11.8 -15.79,19 0,4.12 1.84,8.09 5.33,11.69 6,8.59 20.59,24 48.87,24 a 56.83,56.83 0 0 0 46.87,-23.46 c 3.87,-3.74 5.92,-7.92 5.92,-12.27 0,-7.15 -5.61,-13.91 -15.8,-18.96 z m -0.61,37.12 c -20.45,10.15 -53.72,10.15 -74.18,0 -9.79,-4.86 -15.18,-11.29 -15.18,-18.1 0,-6.81 5.39,-13.25 15.18,-18.12 10.23,-5.07 23.66,-7.61 37.09,-7.61 13.43,0 26.87,2.59 37.09,7.59 9.8,4.87 15.19,11.3 15.19,18.12 0,6.82 -5.39,13.26 -15.19,18.12 z"
       id="path415" />
  </g>
  <text
     xml:space="preserve"
     style="font-weight:bold;font-size:17.3333px;line-height:1.25;font-family:'Myriad Pro';-inkscape-font-specification:'Myriad Pro Bold'"
     x="160.66014"
     y="328.27884"
     id="text1587"><tspan
       sodipodi:role="line"
       id="tspan1585"
       x="160.66014"
       y="328.27884"
       style="font-size:17.3333px;fill:#ffffff">&quot;The Matrix&quot; premieres in theatres</tspan></text>
</svg>
