<?xml version="1.0" encoding="UTF-8" standalone="no"?>
<svg
   viewBox="0 0 1227.91 892.21"
   version="1.1"
   id="svg381"
   sodipodi:docname="truth-14-disentangling-data-from-time.svg"
   inkscape:version="1.1.2 (0a00cf5339, 2022-02-04, custom)"
   xmlns:inkscape="http://www.inkscape.org/namespaces/inkscape"
   xmlns:sodipodi="http://sodipodi.sourceforge.net/DTD/sodipodi-0.dtd"
   xmlns:xlink="http://www.w3.org/1999/xlink"
   xmlns="http://www.w3.org/2000/svg"
   xmlns:svg="http://www.w3.org/2000/svg">
  <sodipodi:namedview
     id="namedview383"
     pagecolor="#505050"
     bordercolor="#ffffff"
     borderopacity="1"
     inkscape:pageshadow="0"
     inkscape:pageopacity="0"
     inkscape:pagecheckerboard="1"
     showgrid="false"
     inkscape:zoom="0.52835088"
     inkscape:cx="483.58016"
     inkscape:cy="417.3363"
     inkscape:window-width="1920"
     inkscape:window-height="1003"
     inkscape:window-x="0"
     inkscape:window-y="0"
     inkscape:window-maximized="1"
     inkscape:current-layer="svg381" />
  <defs
     id="defs68">
    <style
       id="style2">.cls-1,.cls-11,.cls-12,.cls-13,.cls-14,.cls-15,.cls-16,.cls-17,.cls-18,.cls-19,.cls-2,.cls-20,.cls-21,.cls-22,.cls-23,.cls-24,.cls-25,.cls-26,.cls-27,.cls-28,.cls-29,.cls-3,.cls-30,.cls-31,.cls-32,.cls-33,.cls-34,.cls-35,.cls-36,.cls-37,.cls-38,.cls-39,.cls-4,.cls-40,.cls-41,.cls-42,.cls-43,.cls-44,.cls-46,.cls-47,.cls-48,.cls-49,.cls-5,.cls-51,.cls-53,.cls-54,.cls-6,.cls-7,.cls-8,.cls-9{stroke:#53dcf8;}.cls-1,.cls-11,.cls-12,.cls-13,.cls-14,.cls-15,.cls-16,.cls-17,.cls-18,.cls-19,.cls-2,.cls-20,.cls-21,.cls-22,.cls-23,.cls-24,.cls-25,.cls-26,.cls-27,.cls-28,.cls-29,.cls-3,.cls-30,.cls-31,.cls-32,.cls-33,.cls-34,.cls-35,.cls-36,.cls-37,.cls-38,.cls-39,.cls-4,.cls-40,.cls-41,.cls-42,.cls-43,.cls-44,.cls-46,.cls-47,.cls-48,.cls-49,.cls-5,.cls-50,.cls-51,.cls-53,.cls-54,.cls-6,.cls-7,.cls-8,.cls-9{stroke-miterlimit:10;}.cls-1{fill:url(#radial-gradient);}.cls-2{fill:url(#radial-gradient-2);}.cls-3{fill:url(#radial-gradient-3);}.cls-4{fill:url(#radial-gradient-4);}.cls-5{fill:url(#radial-gradient-5);}.cls-6{fill:url(#radial-gradient-6);}.cls-7{fill:url(#radial-gradient-7);}.cls-8{fill:url(#radial-gradient-8);}.cls-9{fill:url(#linear-gradient);}.cls-10{fill:#1d1d1d;}.cls-11{fill:url(#radial-gradient-9);}.cls-12{fill:url(#radial-gradient-10);}.cls-13{fill:url(#radial-gradient-11);}.cls-14{fill:url(#radial-gradient-12);}.cls-15{fill:url(#radial-gradient-13);}.cls-16{fill:url(#radial-gradient-14);}.cls-17{fill:url(#radial-gradient-15);}.cls-18{fill:url(#radial-gradient-16);}.cls-19{fill:url(#linear-gradient-2);}.cls-20{fill:url(#radial-gradient-17);}.cls-21{fill:url(#radial-gradient-18);}.cls-22{fill:url(#radial-gradient-19);}.cls-23{fill:url(#radial-gradient-20);}.cls-24{fill:url(#radial-gradient-21);}.cls-25{fill:url(#radial-gradient-22);}.cls-26{fill:url(#radial-gradient-23);}.cls-27{fill:url(#radial-gradient-24);}.cls-28{fill:url(#linear-gradient-3);}.cls-29{fill:url(#radial-gradient-25);}.cls-30{fill:url(#radial-gradient-26);}.cls-31{fill:url(#radial-gradient-27);}.cls-32{fill:url(#radial-gradient-28);}.cls-33{fill:url(#radial-gradient-29);}.cls-34{fill:url(#radial-gradient-30);}.cls-35{fill:url(#radial-gradient-31);}.cls-36{fill:url(#radial-gradient-32);}.cls-37{fill:url(#radial-gradient-33);}.cls-38{fill:url(#radial-gradient-34);}.cls-39{fill:url(#radial-gradient-35);}.cls-40{fill:url(#radial-gradient-36);}.cls-41{fill:url(#radial-gradient-37);}.cls-42{fill:url(#radial-gradient-38);}.cls-43{fill:url(#radial-gradient-39);}.cls-44{fill:url(#radial-gradient-40);}.cls-45{font-size:25.42px;font-family:Mshtakan;}.cls-45,.cls-52{fill:#fff;}.cls-46{fill:url(#radial-gradient-41);}.cls-47{fill:url(#linear-gradient-4);}.cls-48{fill:url(#radial-gradient-42);}.cls-49{fill:url(#linear-gradient-5);}.cls-50{fill:#a7f4fe;stroke:#2d0244;stroke-width:0.75px;}.cls-51{fill:url(#linear-gradient-6);}.cls-53{fill:url(#linear-gradient-7);}.cls-54{fill:url(#linear-gradient-8);}.cls-55{fill:#3c3839;}</style>
    <radialGradient
       id="radial-gradient"
       cx="176.38"
       cy="327.57"
       r="44.62"
       gradientTransform="translate(0 0.2)"
       gradientUnits="userSpaceOnUse">
      <stop
         offset="0"
         stop-color="#1a0825"
         id="stop4" />
      <stop
         offset="1"
         stop-color="#2a023f"
         id="stop6" />
    </radialGradient>
    <radialGradient
       id="radial-gradient-2"
       cx="176.38"
       cy="295.26"
       r="44.62"
       xlink:href="#radial-gradient" />
    <radialGradient
       id="radial-gradient-3"
       cx="176.38"
       cy="261.66"
       r="44.62"
       xlink:href="#radial-gradient" />
    <radialGradient
       id="radial-gradient-4"
       cx="176.38"
       cy="227.3"
       r="44.62"
       xlink:href="#radial-gradient" />
    <radialGradient
       id="radial-gradient-5"
       cx="176.38"
       cy="194.54"
       r="44.62"
       xlink:href="#radial-gradient" />
    <radialGradient
       id="radial-gradient-6"
       cx="176.38"
       cy="163.54"
       r="44.62"
       xlink:href="#radial-gradient" />
    <radialGradient
       id="radial-gradient-7"
       cx="176.38"
       cy="124.62"
       r="44.62"
       xlink:href="#radial-gradient" />
    <radialGradient
       id="radial-gradient-8"
       cx="176.38"
       cy="-240.86"
       r="44.62"
       gradientTransform="matrix(1,0,0,0.75,0,275.21)"
       xlink:href="#radial-gradient" />
    <linearGradient
       id="linear-gradient"
       x1="126.71"
       y1="66.59"
       x2="226.06"
       y2="66.59"
       gradientUnits="userSpaceOnUse">
      <stop
         offset="0"
         stop-color="#4a78a0"
         id="stop16" />
      <stop
         offset="0.09"
         stop-color="#4a6fa0"
         id="stop18" />
      <stop
         offset="0.49"
         stop-color="#4a47a0"
         id="stop20" />
      <stop
         offset="0.8"
         stop-color="#4a2fa0"
         id="stop22" />
      <stop
         offset="1"
         stop-color="#4a26a0"
         id="stop24" />
    </linearGradient>
    <radialGradient
       id="radial-gradient-9"
       cx="364.32"
       cy="730.22"
       r="44.62"
       xlink:href="#radial-gradient" />
    <radialGradient
       id="radial-gradient-10"
       cx="364.32"
       cy="697.9"
       r="44.62"
       xlink:href="#radial-gradient" />
    <radialGradient
       id="radial-gradient-11"
       cx="364.32"
       cy="664.31"
       r="44.62"
       xlink:href="#radial-gradient" />
    <radialGradient
       id="radial-gradient-12"
       cx="364.32"
       cy="629.95"
       r="44.62"
       xlink:href="#radial-gradient" />
    <radialGradient
       id="radial-gradient-13"
       cx="364.32"
       cy="597.11"
       r="44.62"
       xlink:href="#radial-gradient" />
    <radialGradient
       id="radial-gradient-14"
       cx="364.32"
       cy="566.11"
       r="44.62"
       xlink:href="#radial-gradient" />
    <radialGradient
       id="radial-gradient-15"
       cx="364.32"
       cy="527.2"
       r="44.62"
       xlink:href="#radial-gradient" />
    <radialGradient
       id="radial-gradient-16"
       cx="364.32"
       cy="299.02"
       r="44.62"
       gradientTransform="matrix(1,0,0,0.75,0,275.21)"
       xlink:href="#radial-gradient" />
    <linearGradient
       id="linear-gradient-2"
       x1="314.64"
       y1="469.16"
       x2="413.99"
       y2="469.16"
       xlink:href="#linear-gradient" />
    <radialGradient
       id="radial-gradient-17"
       cx="613.95"
       cy="730.22"
       r="44.62"
       xlink:href="#radial-gradient" />
    <radialGradient
       id="radial-gradient-18"
       cx="613.95"
       cy="697.9"
       r="44.62"
       xlink:href="#radial-gradient" />
    <radialGradient
       id="radial-gradient-19"
       cx="613.95"
       cy="664.31"
       r="44.62"
       xlink:href="#radial-gradient" />
    <radialGradient
       id="radial-gradient-20"
       cx="613.95"
       cy="629.95"
       r="44.62"
       xlink:href="#radial-gradient" />
    <radialGradient
       id="radial-gradient-21"
       cx="613.95"
       cy="597.11"
       r="44.62"
       xlink:href="#radial-gradient" />
    <radialGradient
       id="radial-gradient-22"
       cx="613.95"
       cy="566.11"
       r="44.62"
       xlink:href="#radial-gradient" />
    <radialGradient
       id="radial-gradient-23"
       cx="613.95"
       cy="527.2"
       r="44.62"
       xlink:href="#radial-gradient" />
    <radialGradient
       id="radial-gradient-24"
       cx="613.95"
       cy="299.02"
       r="44.62"
       gradientTransform="matrix(1,0,0,0.75,0,275.21)"
       xlink:href="#radial-gradient" />
    <linearGradient
       id="linear-gradient-3"
       x1="564.28"
       y1="469.16"
       x2="663.63"
       y2="469.16"
       xlink:href="#linear-gradient" />
    <radialGradient
       id="radial-gradient-25"
       cx="803.99"
       cy="328.95"
       r="44.62"
       xlink:href="#radial-gradient" />
    <radialGradient
       id="radial-gradient-26"
       cx="803.99"
       cy="296.63"
       r="44.62"
       xlink:href="#radial-gradient" />
    <radialGradient
       id="radial-gradient-27"
       cx="803.99"
       cy="263.04"
       r="44.62"
       xlink:href="#radial-gradient" />
    <radialGradient
       id="radial-gradient-28"
       cx="803.99"
       cy="228.68"
       r="44.62"
       xlink:href="#radial-gradient" />
    <radialGradient
       id="radial-gradient-29"
       cx="803.99"
       cy="195.92"
       r="44.62"
       xlink:href="#radial-gradient" />
    <radialGradient
       id="radial-gradient-30"
       cx="803.99"
       cy="164.92"
       r="44.62"
       xlink:href="#radial-gradient" />
    <radialGradient
       id="radial-gradient-31"
       cx="803.99"
       cy="126"
       r="44.62"
       xlink:href="#radial-gradient" />
    <radialGradient
       id="radial-gradient-32"
       cx="803.99"
       cy="-237.45"
       r="44.62"
       gradientTransform="matrix(1,0,0,0.75,0,275.21)"
       xlink:href="#radial-gradient" />
    <radialGradient
       id="radial-gradient-33"
       cx="859.44"
       cy="397.3"
       r="44.62"
       gradientTransform="rotate(90,866.795,406.645)"
       xlink:href="#radial-gradient" />
    <radialGradient
       id="radial-gradient-34"
       cx="859.44"
       cy="364.99"
       r="44.62"
       gradientTransform="rotate(90,866.795,406.645)"
       xlink:href="#radial-gradient" />
    <radialGradient
       id="radial-gradient-35"
       cx="859.44"
       cy="331.39"
       r="44.62"
       gradientTransform="rotate(90,866.795,406.645)"
       xlink:href="#radial-gradient" />
    <radialGradient
       id="radial-gradient-36"
       cx="859.44"
       cy="297.03"
       r="44.62"
       gradientTransform="rotate(90,866.795,406.645)"
       xlink:href="#radial-gradient" />
    <radialGradient
       id="radial-gradient-37"
       cx="859.44"
       cy="264.26"
       r="44.62"
       gradientTransform="rotate(90,866.895,406.745)"
       xlink:href="#radial-gradient" />
    <radialGradient
       id="radial-gradient-38"
       cx="859.44"
       cy="230.47"
       r="44.62"
       gradientTransform="rotate(90,866.895,406.745)"
       xlink:href="#radial-gradient" />
    <radialGradient
       id="radial-gradient-39"
       cx="859.44"
       cy="194.34"
       r="44.62"
       gradientTransform="rotate(90,866.895,406.745)"
       xlink:href="#radial-gradient" />
    <radialGradient
       id="radial-gradient-40"
       cx="859.44"
       cy="-147.36"
       r="44.62"
       gradientTransform="matrix(0,1,-0.75,0,998.43,-460.15)"
       xlink:href="#radial-gradient" />
    <radialGradient
       id="radial-gradient-41"
       cx="803.99"
       cy="-277.93"
       r="44.62"
       gradientTransform="matrix(1,0,0,0.64,0,250.46)"
       xlink:href="#radial-gradient" />
    <linearGradient
       id="linear-gradient-4"
       x1="754.31"
       y1="47.01"
       x2="853.66"
       y2="47.01"
       xlink:href="#linear-gradient" />
    <radialGradient
       id="radial-gradient-42"
       cx="859.59"
       cy="-197.42"
       r="44.62"
       gradientTransform="matrix(0,1,-0.75,0,998.43,-460.15)"
       xlink:href="#radial-gradient" />
    <linearGradient
       id="linear-gradient-5"
       x1="809.76"
       y1="98.98"
       x2="909.11"
       y2="98.98"
       gradientTransform="rotate(90,866.895,406.745)"
       xlink:href="#linear-gradient" />
    <linearGradient
       id="linear-gradient-6"
       x1="119.33"
       y1="475.11"
       x2="205.47"
       y2="475.11"
       xlink:href="#linear-gradient" />
    <linearGradient
       id="linear-gradient-7"
       x1="314.64"
       y1="829.78"
       x2="400.78"
       y2="829.78"
       xlink:href="#linear-gradient" />
    <linearGradient
       id="linear-gradient-8"
       x1="1060.31"
       y1="518.18"
       x2="1146.45"
       y2="518.18"
       xlink:href="#linear-gradient" />
    <radialGradient
       inkscape:collect="always"
       xlink:href="#radial-gradient"
       id="radialGradient1486"
       gradientUnits="userSpaceOnUse"
       gradientTransform="translate(0,0.2)"
       cx="176.38"
       cy="327.57"
       r="44.62" />
    <linearGradient
       inkscape:collect="always"
       xlink:href="#linear-gradient"
       id="linearGradient1488"
       gradientUnits="userSpaceOnUse"
       x1="126.71"
       y1="66.59"
       x2="226.06"
       y2="66.59" />
  </defs>
  <rect
     style="fill:#ffffff;stroke-miterlimit:0"
     id="rect1404"
     width="1228.6722"
     height="894.1507"
     x="0"
     y="0"
     sodipodi:insensitive="true" />
  <path
     class="cls-1"
     d="m 126.71,350 c 0,0 48.82,37.34 99.35,0 v -61.2 h -99.35 z"
     id="path70"
     style="fill:url(#radialGradient1486)" />
  <path
     class="cls-2"
     d="m 126.71,317.71 c 0,0 48.82,37.34 99.35,0 v -61.22 h -99.35 z"
     id="path72"
     style="fill:url(#radial-gradient-2)" />
  <path
     class="cls-3"
     d="m 126.71,284.12 c 0,0 48.82,37.34 99.35,0 V 222.9 h -99.35 z"
     id="path74"
     style="fill:url(#radial-gradient-3)" />
  <path
     class="cls-4"
     d="m 126.71,249.77 c 0,0 48.82,37.34 99.35,0 v -61.22 h -99.35 z"
     id="path76"
     style="fill:url(#radial-gradient-4)" />
  <path
     class="cls-5"
     d="m 126.71,216.85 c 0,0 48.82,37.35 99.35,0 v -61.23 h -99.35 z"
     id="path78"
     style="fill:url(#radial-gradient-5)" />
  <path
     class="cls-6"
     d="m 126.71,185.85 c 0,0 48.82,37.35 99.35,0 v -61.23 h -99.35 z"
     id="path80"
     style="fill:url(#radial-gradient-6)" />
  <path
     class="cls-7"
     d="m 126.71,146.94 c 0,0 48.82,37.35 99.35,0 V 85.71 h -99.35 z"
     id="path82"
     style="fill:url(#radial-gradient-7)" />
  <path
     class="cls-8"
     d="m 126.71,112.25 c 0,0 48.82,27.85 99.35,0 V 66.59 h -99.35 z"
     id="path84"
     style="fill:url(#radial-gradient-8)" />
  <ellipse
     class="cls-9"
     cx="176.38"
     cy="66.589996"
     rx="49.68"
     ry="20.200001"
     id="ellipse86"
     style="fill:url(#linearGradient1488)" />
  <path
     class="cls-10"
     d="m 229.48,169.8 a 89.44,89.44 0 0 0 14.1,-5.83 52.4,52.4 0 0 0 6.54,-4 23.46,23.46 0 0 0 5.55,-5.48 11.58,11.58 0 0 0 1.68,-3.67 8.78,8.78 0 0 0 0,-4.11 13.85,13.85 0 0 0 -4.25,-6.67 35.69,35.69 0 0 0 -6.24,-4.55 69.15,69.15 0 0 0 -6.79,-3.5 c -1.17,-0.51 -2.33,-1 -3.5,-1.51 l -0.78,-0.31 -0.49,-0.2 -1,-0.39 -2,-0.75 c 1.36,-0.61 2.75,-1.22 4.15,-1.8 l -2.15,-0.84 c -1.74,0.74 -3.46,1.56 -5.14,2.35 0.81,1.71 1.6,3.37 2.32,5.07 l 2,0.79 c -0.56,-1.36 -1.16,-2.71 -1.77,-4.08 l 1.94,0.74 1,0.38 0.49,0.2 0.76,0.31 c 1.17,0.46 2.31,1 3.45,1.48 a 67.15,67.15 0 0 1 6.64,3.43 33.81,33.81 0 0 1 6,4.34 12.27,12.27 0 0 1 3.79,5.87 8.13,8.13 0 0 1 -1.49,6.53 21.93,21.93 0 0 1 -5.17,5.09 48.7,48.7 0 0 1 -6.34,3.89 87.65,87.65 0 0 1 -13.78,5.7 z"
     id="path88" />
  <path
     class="cls-10"
     d="m 229.44,343.29 c 8.17,-2.06 16.21,-4.47 24.19,-7.1 7.98,-2.63 15.86,-5.56 23.6,-8.86 a 170.53,170.53 0 0 0 22.51,-11.43 83.78,83.78 0 0 0 10.26,-7.42 42.29,42.29 0 0 0 8.49,-9.54 23.06,23.06 0 0 0 2.62,-5.94 21.67,21.67 0 0 0 0.62,-3.21 c 0,-0.55 0,-1.1 0,-1.65 0,-0.27 0,-0.55 0,-0.82 l -0.09,-0.82 a 19.85,19.85 0 0 0 -1.71,-6.29 c -0.51,-0.95 -1,-1.94 -1.56,-2.84 l -0.91,-1.34 a 11,11 0 0 0 -0.95,-1.29 48.6,48.6 0 0 0 -9.25,-8.77 92.72,92.72 0 0 0 -10.64,-6.87 192.22,192.22 0 0 0 -22.84,-10.73 q -11.72,-4.67 -23.73,-8.49 c -4,-1.31 -8,-2.5 -12,-3.72 l -2.17,-0.63 -0.5,-0.14 -1,-0.29 -2,-0.59 3.94,-2.16 -2.17,-0.63 -4.91,2.71 2.72,4.92 2.14,0.62 -2.1,-3.97 2,0.58 1,0.29 0.51,0.15 2.16,0.62 c 4,1.22 8,2.4 12,3.71 q 12,3.8 23.62,8.45 a 190.78,190.78 0 0 1 22.65,10.64 91.46,91.46 0 0 1 10.46,6.75 47.17,47.17 0 0 1 9,8.48 11.82,11.82 0 0 1 0.91,1.23 l 0.86,1.27 c 0.55,0.85 1,1.77 1.46,2.66 a 18.4,18.4 0 0 1 1.57,5.78 l 0.09,0.75 c 0,0.25 0,0.5 0,0.74 v 1.5 a 20,20 0 0 1 -0.57,2.95 21.57,21.57 0 0 1 -2.44,5.52 41.11,41.11 0 0 1 -8.17,9.17 81.48,81.48 0 0 1 -10.09,7.27 168.37,168.37 0 0 1 -22.29,11.32 c -7.69,3.28 -15.54,6.17 -23.48,8.81 -7.94,2.64 -16,5 -24.06,7.07 z"
     id="path90" />
  <path
     class="cls-10"
     d="m 231.25,197.17 a 172.69,172.69 0 0 1 26.21,9.94 89.43,89.43 0 0 1 12.1,6.95 c 3.77,2.66 7.39,5.72 9.75,9.59 a 13.52,13.52 0 0 1 2.07,6.25 12.44,12.44 0 0 1 -1.48,6.38 22,22 0 0 1 -4.12,5.38 39.6,39.6 0 0 1 -5.32,4.4 c -7.62,5.33 -16.29,9.08 -25,12.46 -2.2,0.81 -4.39,1.64 -6.61,2.4 l -1.28,0.44 -0.49,0.17 -1,0.34 -2,0.65 c 0.67,-1.34 1.34,-2.65 2,-4 -0.69,0.25 -1.4,0.47 -2.1,0.7 l -2.52,5 5,2.53 c 0.72,-0.24 1.44,-0.46 2.16,-0.72 -1.35,-0.64 -2.71,-1.33 -4,-2 l 2,-0.66 1,-0.34 0.5,-0.17 1.29,-0.45 c 2.23,-0.75 4.43,-1.59 6.65,-2.41 4.4,-1.69 8.76,-3.5 13,-5.55 a 87.84,87.84 0 0 0 12.33,-7.09 41.54,41.54 0 0 0 5.52,-4.58 23.63,23.63 0 0 0 4.41,-5.77 14.08,14.08 0 0 0 1.66,-7.19 15.17,15.17 0 0 0 -2.3,-7 26.81,26.81 0 0 0 -4.62,-5.58 47.06,47.06 0 0 0 -5.58,-4.49 92,92 0 0 0 -12.32,-7.08 173.72,173.72 0 0 0 -26.48,-10 z"
     id="path92" />
  <path
     class="cls-10"
     d="m 232,275 a 23.76,23.76 0 0 1 8,11.19 14.74,14.74 0 0 1 0.42,6.79 17.48,17.48 0 0 1 -2.57,6.36 c -0.28,0.5 -0.67,0.95 -1,1.43 l -0.29,0.4 -0.32,0.39 -0.66,0.78 c -0.42,0.53 -0.94,1 -1.4,1.49 0,-0.74 0,-1.47 -0.1,-2.18 -0.1,-0.71 -0.18,-1.43 -0.29,-2.11 -0.43,0.49 -0.81,1 -1.29,1.46 a 33.12,33.12 0 0 1 0,5.46 35.65,35.65 0 0 0 5.75,0 c 0.6,-0.57 1.13,-1.26 1.68,-1.9 -0.8,0.13 -1.58,0.23 -2.34,0.31 -0.76,0.08 -1.56,0.09 -2.31,0.1 0.49,-0.52 1,-1 1.47,-1.57 l 0.7,-0.82 0.34,-0.41 0.31,-0.43 a 18.2,18.2 0 0 0 1.07,-1.53 19.33,19.33 0 0 0 2.8,-6.94 16.45,16.45 0 0 0 -0.47,-7.51 21.87,21.87 0 0 0 -3.38,-6.65 27.79,27.79 0 0 0 -5.15,-5.36 z"
     id="path94" />
  <path
     class="cls-11"
     d="m 314.64,752.59 c 0,0 48.82,37.35 99.35,0 v -61.21 h -99.35 z"
     id="path96"
     style="fill:url(#radial-gradient-9)" />
  <path
     class="cls-12"
     d="m 314.64,720.28 c 0,0 48.82,37.35 99.35,0 v -61.21 h -99.35 z"
     id="path98"
     style="fill:url(#radial-gradient-10)" />
  <path
     class="cls-13"
     d="m 314.64,686.69 c 0,0 48.82,37.35 99.35,0 v -61.21 h -99.35 z"
     id="path100"
     style="fill:url(#radial-gradient-11)" />
  <path
     class="cls-14"
     d="m 314.64,652.34 c 0,0 48.82,37.34 99.35,0 v -61.22 h -99.35 z"
     id="path102"
     style="fill:url(#radial-gradient-12)" />
  <path
     class="cls-15"
     d="m 314.64,619.43 c 0,0 48.82,37.35 99.35,0 V 558.2 h -99.35 z"
     id="path104"
     style="fill:url(#radial-gradient-13)" />
  <path
     class="cls-16"
     d="m 314.64,588.43 c 0,0 48.82,37.35 99.35,0 V 527.2 h -99.35 z"
     id="path106"
     style="fill:url(#radial-gradient-14)" />
  <path
     class="cls-17"
     d="m 314.64,549.51 c 0,0 48.82,37.35 99.35,0 v -61.23 h -99.35 z"
     id="path108"
     style="fill:url(#radial-gradient-15)" />
  <path
     class="cls-18"
     d="m 314.64,514.82 c 0,0 48.82,27.85 99.35,0 v -45.66 h -99.35 z"
     id="path110"
     style="fill:url(#radial-gradient-16)" />
  <ellipse
     class="cls-19"
     cx="364.32001"
     cy="469.16"
     rx="49.68"
     ry="20.200001"
     id="ellipse112"
     style="fill:url(#linear-gradient-2)" />
  <path
     class="cls-20"
     d="m 564.28,752.59 c 0,0 48.82,37.35 99.35,0 v -61.21 h -99.35 z"
     id="path114"
     style="fill:url(#radial-gradient-17)" />
  <path
     class="cls-21"
     d="m 564.28,720.28 c 0,0 48.82,37.35 99.35,0 v -61.21 h -99.35 z"
     id="path116"
     style="fill:url(#radial-gradient-18)" />
  <path
     class="cls-22"
     d="m 564.28,686.69 c 0,0 48.82,37.35 99.35,0 v -61.21 h -99.35 z"
     id="path118"
     style="fill:url(#radial-gradient-19)" />
  <path
     class="cls-23"
     d="m 564.28,652.34 c 0,0 48.82,37.34 99.35,0 v -61.22 h -99.35 z"
     id="path120"
     style="fill:url(#radial-gradient-20)" />
  <path
     class="cls-24"
     d="m 564.28,619.43 c 0,0 48.82,37.35 99.35,0 V 558.2 h -99.35 z"
     id="path122"
     style="fill:url(#radial-gradient-21)" />
  <path
     class="cls-25"
     d="m 564.28,588.43 c 0,0 48.82,37.35 99.35,0 V 527.2 h -99.35 z"
     id="path124"
     style="fill:url(#radial-gradient-22)" />
  <path
     class="cls-26"
     d="m 564.28,549.51 c 0,0 48.82,37.35 99.35,0 v -61.23 h -99.35 z"
     id="path126"
     style="fill:url(#radial-gradient-23)" />
  <path
     class="cls-27"
     d="m 564.28,514.82 c 0,0 48.82,27.85 99.35,0 v -45.66 h -99.35 z"
     id="path128"
     style="fill:url(#radial-gradient-24)" />
  <ellipse
     class="cls-28"
     cx="613.95001"
     cy="469.16"
     rx="49.68"
     ry="20.200001"
     id="ellipse130"
     style="fill:url(#linear-gradient-3)" />
  <polygon
     class="cls-10"
     points="554.84,527.2 549.91,524.52 547.76,525.16 551.7,527.3 423.13,565.35 423.58,566.87 552.15,528.82 550.01,532.76 552.16,532.13 "
     id="polygon132" />
  <polygon
     class="cls-10"
     points="554.84,673.53 553.15,668.17 551.16,667.14 552.51,671.42 423.73,604.32 422.99,605.73 551.78,672.83 547.5,674.17 549.49,675.21 "
     id="polygon134" />
  <polygon
     class="cls-10"
     points="554.84,639.28 549.29,638.46 547.49,639.79 551.93,640.45 422.88,736.25 423.83,737.52 552.87,641.72 552.22,646.16 554.02,644.83 "
     id="polygon136" />
  <polygon
     class="cls-10"
     points="554.84,703.29 551.85,698.54 549.66,698.05 552.05,701.85 423.53,672.75 423.18,674.3 551.7,703.39 547.91,705.79 550.1,706.28 "
     id="polygon138" />
  <path
     class="cls-29"
     d="m 754.31,351.4 c 0,0 48.82,37.34 99.35,0 v -61.22 h -99.35 z"
     id="path140"
     style="fill:url(#radial-gradient-25)" />
  <path
     class="cls-30"
     d="m 754.31,319.09 c 0,0 48.82,37.34 99.35,0 v -61.22 h -99.35 z"
     id="path142"
     style="fill:url(#radial-gradient-26)" />
  <path
     class="cls-31"
     d="m 754.31,285.5 c 0,0 48.82,37.34 99.35,0 v -61.22 h -99.35 z"
     id="path144"
     style="fill:url(#radial-gradient-27)" />
  <path
     class="cls-32"
     d="m 754.31,251.15 c 0,0 48.82,37.34 99.35,0 v -61.22 h -99.35 z"
     id="path146"
     style="fill:url(#radial-gradient-28)" />
  <path
     class="cls-33"
     d="m 754.31,218.23 c 0,0 48.82,37.35 99.35,0 V 157 h -99.35 z"
     id="path148"
     style="fill:url(#radial-gradient-29)" />
  <path
     class="cls-34"
     d="m 754.31,187.23 c 0,0 48.82,37.35 99.35,0 V 126 h -99.35 z"
     id="path150"
     style="fill:url(#radial-gradient-30)" />
  <path
     class="cls-35"
     d="m 754.31,148.32 c 0,0 48.82,37.35 99.35,0 V 87.09 h -99.35 z"
     id="path152"
     style="fill:url(#radial-gradient-31)" />
  <path
     class="cls-36"
     d="m 754.31,114.79 c 0,0 48.82,27.85 99.35,0 V 69.13 h -99.35 z"
     id="path154"
     style="fill:url(#radial-gradient-32)" />
  <path
     class="cls-37"
     d="m 853.9,349.61 c 0,0 -37.34,48.82 0,99.35 h 61.22 v -99.35 z"
     id="path156"
     style="fill:url(#radial-gradient-33)" />
  <path
     class="cls-38"
     d="m 886.21,349.61 c 0,0 -37.34,48.82 0,99.35 h 61.22 v -99.35 z"
     id="path158"
     style="fill:url(#radial-gradient-34)" />
  <path
     class="cls-39"
     d="m 919.8,349.61 c 0,0 -37.34,48.82 0,99.35 H 981 v -99.35 z"
     id="path160"
     style="fill:url(#radial-gradient-35)" />
  <path
     class="cls-40"
     d="m 954.16,349.61 c 0,0 -37.35,48.82 0,99.35 h 61.21 v -99.35 z"
     id="path162"
     style="fill:url(#radial-gradient-36)" />
  <path
     class="cls-41"
     d="m 987.07,349.61 c 0,0 -37.35,48.82 0,99.35 h 61.23 v -99.35 z"
     id="path164"
     style="fill:url(#radial-gradient-37)" />
  <path
     class="cls-42"
     d="m 1020.86,349.61 c 0,0 -37.35,48.82 0,99.35 h 61.23 v -99.35 z"
     id="path166"
     style="fill:url(#radial-gradient-38)" />
  <path
     class="cls-43"
     d="m 1057,349.61 c 0,0 -37.35,48.82 0,99.35 h 61.22 v -99.35 z"
     id="path168"
     style="fill:url(#radial-gradient-39)" />
  <path
     class="cls-44"
     d="m 1091.68,349.61 c 0,0 -27.85,48.82 0,99.35 h 45.65 v -99.35 z"
     id="path170"
     style="fill:url(#radial-gradient-40)" />
  <path
     d="m 86,390.58 a 30,30 0 0 1 4.92,-0.36 c 2.32,0 3.75,0.22 5,0.94 a 3.67,3.67 0 0 1 2,3.32 3.8,3.8 0 0 1 -2.77,3.58 v 0.07 a 4.19,4.19 0 0 1 3.35,4.13 4.49,4.49 0 0 1 -1.75,3.58 c -1.23,1 -3.27,1.53 -6.62,1.53 a 28.58,28.58 0 0 1 -4.12,-0.25 z M 89.79,397 H 91 c 2,0 3.07,-0.84 3.07,-2.09 0,-1.25 -1,-2 -2.69,-2 a 8.55,8.55 0 0 0 -1.62,0.12 z m 0,7.45 a 9.67,9.67 0 0 0 1.47,0.07 c 1.73,0 3.25,-0.67 3.25,-2.44 0,-1.77 -1.51,-2.36 -3.41,-2.36 h -1.31 z"
     id="path172" />
  <path
     d="m 104.9,391.56 a 1.89,1.89 0 0 1 -2,1.9 1.9,1.9 0 1 1 2,-1.9 z M 101,407.19 V 395 h 3.81 v 12.23 z"
     id="path174" />
  <path
     d="m 113.6,399.36 v 2.53 h -6.54 v -2.53 z"
     id="path176" />
  <path
     d="M 120.12,391.47 V 395 h 2.74 v 2.8 h -2.74 v 4.44 c 0,1.47 0.37,2.15 1.5,2.15 a 5.25,5.25 0 0 0 1.14,-0.11 v 2.89 a 8,8 0 0 1 -2.47,0.33 3.93,3.93 0 0 1 -2.86,-1.07 5,5 0 0 1 -1.06,-3.62 v -5 h -1.62 V 395 h 1.62 v -2.63 z"
     id="path178" />
  <path
     d="m 127.86,402.3 c 0.12,1.58 1.68,2.33 3.45,2.33 a 10.37,10.37 0 0 0 3.37,-0.52 l 0.51,2.57 a 11.79,11.79 0 0 1 -4.43,0.78 c -4.15,0 -6.53,-2.42 -6.53,-6.23 0,-3.11 1.94,-6.55 6.17,-6.55 4,0 5.46,3.09 5.46,6.11 a 7.94,7.94 0 0 1 -0.13,1.51 z m 4.47,-2.61 a 2.21,2.21 0 0 0 -2.13,-2.48 2.53,2.53 0 0 0 -2.37,2.48 z"
     id="path180" />
  <path
     d="m 138.13,398.87 c 0,-1.53 0,-2.81 -0.1,-3.91 h 3.22 l 0.16,1.66 h 0.08 a 4.24,4.24 0 0 1 3.69,-1.94 3.47,3.47 0 0 1 3.35,2.1 h 0.05 a 5.19,5.19 0 0 1 1.59,-1.49 4.34,4.34 0 0 1 2.32,-0.61 c 2.34,0 4.12,1.66 4.12,5.31 v 7.2 h -3.7 v -6.64 c 0,-1.77 -0.57,-2.8 -1.8,-2.8 a 1.86,1.86 0 0 0 -1.75,1.32 3.12,3.12 0 0 0 -0.14,1 v 7.15 h -3.7 v -6.85 c 0,-1.55 -0.55,-2.59 -1.76,-2.59 a 2,2 0 0 0 -1.79,1.36 2.89,2.89 0 0 0 -0.14,1 v 7.11 h -3.7 z"
     id="path182" />
  <path
     d="m 159.63,399.07 c 0,-1.61 0,-3 -0.1,-4.11 h 3.31 l 0.17,1.71 h 0.05 a 4.74,4.74 0 0 1 4.08,-2 c 2.67,0 5.08,2.33 5.08,6.24 0,4.46 -2.84,6.55 -5.56,6.55 a 3.77,3.77 0 0 1 -3.17,-1.4 h -0.05 v 6.07 h -3.81 z m 3.81,2.89 a 3.94,3.94 0 0 0 0.07,0.79 2.31,2.31 0 0 0 2.23,1.8 c 1.64,0 2.62,-1.38 2.62,-3.46 0,-2.08 -0.87,-3.43 -2.56,-3.43 a 2.39,2.39 0 0 0 -2.28,1.93 2.49,2.49 0 0 0 -0.08,0.68 z"
     id="path184" />
  <path
     d="m 186.72,401 a 6.12,6.12 0 0 1 -6.44,6.52 6,6 0 0 1 -6.32,-6.31 c 0,-3.94 2.6,-6.48 6.54,-6.48 a 5.93,5.93 0 0 1 6.22,6.27 z m -8.84,0.13 c 0,2.09 0.88,3.67 2.5,3.67 1.62,0 2.42,-1.48 2.42,-3.69 0,-1.8 -0.69,-3.66 -2.41,-3.66 -1.72,0 -2.51,1.82 -2.51,3.63 z"
     id="path186" />
  <path
     d="m 189.08,399 c 0,-1.79 0,-3 -0.1,-4 h 3.27 l 0.14,2.26 h 0.09 a 3.59,3.59 0 0 1 3.3,-2.54 3,3 0 0 1 0.82,0.08 v 3.57 a 4.91,4.91 0 0 0 -1,-0.1 2.45,2.45 0 0 0 -2.61,1.93 4.25,4.25 0 0 0 -0.07,0.84 v 6.19 h -3.81 z"
     id="path188" />
  <path
     d="m 205.27,407.19 -0.22,-1.21 H 205 a 4.38,4.38 0 0 1 -3.49,1.49 3.73,3.73 0 0 1 -3.95,-3.74 c 0,-3.19 2.85,-4.7 7.18,-4.7 v -0.15 c 0,-0.65 -0.35,-1.58 -2.24,-1.58 a 7.07,7.07 0 0 0 -3.38,0.92 l -0.7,-2.44 a 9.89,9.89 0 0 1 4.76,-1.1 c 4.07,0 5.36,2.41 5.36,5.28 v 4.27 a 18,18 0 0 0 0.19,3 z m -0.46,-5.78 c -2,0 -3.55,0.47 -3.55,1.93 a 1.37,1.37 0 0 0 1.51,1.46 2.08,2.08 0 0 0 2,-1.41 2.25,2.25 0 0 0 0.07,-0.64 z"
     id="path190" />
  <path
     d="m 211.51,389.45 h 3.81 v 17.74 h -3.81 z"
     id="path192" />
  <path
     d="m 220.65,397 a 32.41,32.41 0 0 1 3,-6.77 l 2.3,-0.2 a 38.65,38.65 0 0 0 -1.75,6.74 z m 4.89,0 a 32.4,32.4 0 0 1 3,-6.77 l 2.3,-0.2 a 39.56,39.56 0 0 0 -1.75,6.74 z"
     id="path194" />
  <path
     d="m 232.28,399.07 c 0,-1.61 -0.05,-3 -0.1,-4.11 h 3.31 l 0.17,1.71 h 0.05 a 4.74,4.74 0 0 1 4.08,-2 c 2.67,0 5.08,2.33 5.08,6.24 0,4.46 -2.84,6.55 -5.56,6.55 a 3.77,3.77 0 0 1 -3.17,-1.4 v 0 6.07 h -3.81 z m 3.81,2.89 a 3.94,3.94 0 0 0 0.07,0.79 2.31,2.31 0 0 0 2.23,1.8 c 1.64,0 2.62,-1.38 2.62,-3.46 0,-2.08 -0.87,-3.43 -2.56,-3.43 a 2.39,2.39 0 0 0 -2.28,1.93 3,3 0 0 0 -0.08,0.68 z"
     id="path196" />
  <path
     d="m 251.15,391.56 a 1.89,1.89 0 0 1 -2,1.9 1.9,1.9 0 1 1 2,-1.9 z m -3.92,15.63 V 395 H 251 v 12.23 z"
     id="path198" />
  <path
     d="m 254.08,399.07 c 0,-1.61 -0.05,-3 -0.1,-4.11 h 3.31 l 0.17,1.71 h 0.05 a 4.74,4.74 0 0 1 4.08,-2 c 2.67,0 5.08,2.33 5.08,6.24 0,4.46 -2.84,6.55 -5.56,6.55 a 3.77,3.77 0 0 1 -3.17,-1.4 h -0.05 v 6.07 h -3.81 z m 3.81,2.89 a 3.94,3.94 0 0 0 0.07,0.79 2.31,2.31 0 0 0 2.23,1.8 c 1.64,0 2.62,-1.38 2.62,-3.46 0,-2.08 -0.87,-3.43 -2.56,-3.43 a 2.39,2.39 0 0 0 -2.28,1.93 2.49,2.49 0 0 0 -0.08,0.68 z"
     id="path200" />
  <path
     d="m 272,402.3 c 0.11,1.58 1.67,2.33 3.45,2.33 a 10.3,10.3 0 0 0 3.36,-0.52 l 0.52,2.57 a 11.84,11.84 0 0 1 -4.44,0.78 c -4.14,0 -6.52,-2.42 -6.52,-6.23 0,-3.11 1.94,-6.55 6.17,-6.55 4,0 5.46,3.09 5.46,6.11 a 7,7 0 0 1 -0.14,1.51 z m 4.46,-2.61 a 2.21,2.21 0 0 0 -2.13,-2.48 2.51,2.51 0 0 0 -2.36,2.48 z"
     id="path202" />
  <path
     d="m 286.13,390.07 a 32.4,32.4 0 0 1 -3,6.77 l -2.3,0.2 a 39.42,39.42 0 0 0 1.75,-6.75 z m 4.89,0 a 32.41,32.41 0 0 1 -3,6.77 l -2.3,0.2 a 38.52,38.52 0 0 0 1.75,-6.75 z"
     id="path204" />
  <path
     d="m 421.85,828.64 h -4.54 v -3.19 h 13 v 3.19 h -4.61 v 13.65 h -3.81 z"
     id="path206" />
  <path
     d="m 433.49,830.06 1,5 c 0.24,1.26 0.49,2.62 0.69,4 h 0.06 c 0.23,-1.39 0.6,-2.79 0.89,-4 l 1.29,-5 h 3 l 1.22,4.87 c 0.33,1.4 0.66,2.76 0.9,4.16 v 0 c 0.17,-1.39 0.42,-2.77 0.71,-4.18 l 1,-4.85 h 3.71 l -3.74,12.23 h -3.56 L 439.6,838 c -0.31,-1.2 -0.54,-2.3 -0.79,-3.82 h -0.05 A 30.9,30.9 0 0 1 438,838 l -1.22,4.31 h -3.57 l -3.56,-12.23 z"
     id="path208" />
  <path
     d="m 461.53,836.05 a 6.13,6.13 0 0 1 -6.45,6.52 6,6 0 0 1 -6.31,-6.31 6.11,6.11 0 0 1 6.53,-6.48 5.94,5.94 0 0 1 6.23,6.27 z m -8.84,0.13 c 0,2.09 0.88,3.67 2.5,3.67 1.62,0 2.42,-1.49 2.42,-3.69 0,-1.81 -0.69,-3.66 -2.42,-3.66 -1.73,0 -2.5,1.86 -2.5,3.68 z"
     id="path210" />
  <path
     d="m 473.18,826.57 v 3.49 h 2.74 v 2.8 h -2.74 v 4.44 c 0,1.47 0.37,2.15 1.5,2.15 a 5.14,5.14 0 0 0 1.13,-0.11 v 2.89 a 8.29,8.29 0 0 1 -2.46,0.32 4,4 0 0 1 -2.87,-1.06 5,5 0 0 1 -1.05,-3.62 v -5 h -1.62 v -2.8 h 1.62 v -2.63 z"
     id="path212" />
  <path
     d="m 482,826.66 a 1.88,1.88 0 0 1 -2,1.9 1.9,1.9 0 1 1 2,-1.9 z m -3.92,15.63 v -12.23 h 3.81 v 12.23 z"
     id="path214" />
  <path
     d="m 485,834 c 0,-1.53 0,-2.82 -0.1,-3.91 h 3.22 l 0.16,1.65 h 0.08 a 4.25,4.25 0 0 1 3.69,-1.93 3.45,3.45 0 0 1 3.35,2.1 h 0.05 a 5.07,5.07 0 0 1 1.59,-1.49 4.34,4.34 0 0 1 2.32,-0.61 c 2.34,0 4.12,1.66 4.12,5.31 v 7.2 h -3.7 v -6.64 c 0,-1.77 -0.57,-2.8 -1.8,-2.8 a 1.87,1.87 0 0 0 -1.75,1.32 3.45,3.45 0 0 0 -0.14,1 v 7.15 h -3.7 v -6.86 c 0,-1.54 -0.55,-2.58 -1.76,-2.58 a 1.94,1.94 0 0 0 -1.78,1.36 2.89,2.89 0 0 0 -0.15,1 v 7.11 H 485 Z"
     id="path216" />
  <path
     d="m 509.39,837.4 c 0.12,1.58 1.68,2.33 3.45,2.33 a 10.37,10.37 0 0 0 3.37,-0.52 l 0.51,2.57 a 11.75,11.75 0 0 1 -4.43,0.77 c -4.14,0 -6.52,-2.41 -6.52,-6.22 0,-3.11 1.93,-6.55 6.16,-6.55 4,0 5.46,3.08 5.46,6.11 a 7.25,7.25 0 0 1 -0.13,1.51 z m 4.47,-2.61 a 2.21,2.21 0 0 0 -2.13,-2.48 2.53,2.53 0 0 0 -2.37,2.48 z"
     id="path218" />
  <path
     d="m 519.66,824.55 h 3.81 v 17.74 h -3.81 z"
     id="path220" />
  <path
     d="m 530.46,826.66 a 1.89,1.89 0 0 1 -2.05,1.9 1.9,1.9 0 1 1 2.05,-1.9 z m -3.92,15.63 v -12.23 h 3.81 v 12.23 z"
     id="path222" />
  <path
     d="m 533.39,834 c 0,-1.53 0,-2.82 -0.1,-3.91 h 3.3 l 0.17,1.69 h 0.08 a 4.46,4.46 0 0 1 3.78,-2 c 2.5,0 4.38,1.67 4.38,5.27 v 7.24 h -3.81 v -6.78 c 0,-1.57 -0.56,-2.65 -1.93,-2.65 a 2,2 0 0 0 -1.93,1.43 2.67,2.67 0 0 0 -0.13,0.94 v 7.06 h -3.81 z"
     id="path224" />
  <path
     d="m 551,837.4 c 0.11,1.58 1.67,2.33 3.45,2.33 a 10.3,10.3 0 0 0 3.36,-0.52 l 0.52,2.57 a 11.83,11.83 0 0 1 -4.43,0.77 c -4.15,0 -6.53,-2.41 -6.53,-6.22 0,-3.11 1.94,-6.55 6.17,-6.55 4,0 5.46,3.08 5.46,6.11 a 7.09,7.09 0 0 1 -0.14,1.51 z m 4.46,-2.61 a 2.21,2.21 0 0 0 -2.13,-2.48 2.52,2.52 0 0 0 -2.36,2.48 z"
     id="path226" />
  <path
     d="m 561.22,839 a 7.53,7.53 0 0 0 3.26,0.91 c 1.15,0 1.64,-0.39 1.64,-1 0,-0.61 -0.39,-0.94 -1.79,-1.42 -2.54,-0.83 -3.5,-2.22 -3.49,-3.65 0,-2.3 1.94,-4 5,-4 a 8,8 0 0 1 3.44,0.72 l -0.66,2.62 a 6.23,6.23 0 0 0 -2.65,-0.69 c -0.93,0 -1.46,0.37 -1.46,1 0,0.63 0.48,0.9 2,1.41 2.32,0.79 3.3,2 3.31,3.77 0,2.28 -1.78,4 -5.28,4 a 8.71,8.71 0 0 1 -4,-0.86 z"
     id="path228" />
  <path
     d="m 861.2,516.28 h -4.54 v -3.19 h 13 v 3.19 H 865 v 13.65 h -3.8 z"
     id="path230" />
  <path
     d="m 872.84,517.7 1,5 c 0.24,1.26 0.49,2.62 0.69,4 h 0.06 c 0.23,-1.39 0.6,-2.79 0.89,-4 l 1.29,-5 h 3 l 1.22,4.87 c 0.33,1.4 0.66,2.76 0.9,4.16 h 0.05 c 0.17,-1.39 0.42,-2.77 0.71,-4.18 l 1,-4.85 h 3.71 l -3.74,12.23 h -3.52 l -1.1,-4.29 c -0.31,-1.2 -0.54,-2.29 -0.79,-3.82 v 0 a 30.9,30.9 0 0 1 -0.79,3.8 l -1.22,4.31 h -3.57 L 869,517.7 Z"
     id="path232" />
  <path
     d="m 900.88,523.69 a 6.13,6.13 0 0 1 -6.45,6.52 6,6 0 0 1 -6.31,-6.31 6.11,6.11 0 0 1 6.53,-6.48 5.94,5.94 0 0 1 6.23,6.27 z m -8.84,0.13 c 0,2.09 0.88,3.67 2.5,3.67 1.62,0 2.46,-1.49 2.46,-3.69 0,-1.81 -0.69,-3.66 -2.42,-3.66 -1.73,0 -2.58,1.86 -2.58,3.68 z"
     id="path234" />
  <path
     d="m 920.14,512.19 v 14.09 c 0,1.39 0,2.83 0.1,3.65 h -3.39 l -0.16,-1.79 h -0.05 a 4.27,4.27 0 0 1 -3.83,2.07 c -2.88,0 -5.22,-2.48 -5.22,-6.28 0,-4.11 2.56,-6.51 5.48,-6.51 a 3.69,3.69 0 0 1 3.21,1.39 h 0.05 v -6.62 z m -3.81,10.7 a 4.08,4.08 0 0 0 -0.05,-0.69 2.25,2.25 0 0 0 -2.2,-1.86 c -1.75,0 -2.63,1.55 -2.63,3.48 0,1.93 1,3.36 2.6,3.36 a 2.24,2.24 0 0 0 2.2,-1.83 3.87,3.87 0 0 0 0.08,-0.86 z"
     id="path236" />
  <path
     d="m 927.1,514.3 a 2,2 0 1 1 -2,-1.9 1.88,1.88 0 0 1 2,1.9 z m -3.91,15.63 V 517.7 H 927 v 12.23 z"
     id="path238" />
  <path
     d="m 930,521.61 c 0,-1.53 0,-2.82 -0.1,-3.91 h 3.21 l 0.16,1.65 h 0.08 a 4.25,4.25 0 0 1 3.69,-1.93 3.44,3.44 0 0 1 3.35,2.1 h 0.05 a 5.07,5.07 0 0 1 1.59,-1.49 4.36,4.36 0 0 1 2.32,-0.61 c 2.34,0 4.12,1.66 4.12,5.31 v 7.2 h -3.7 v -6.64 c 0,-1.77 -0.57,-2.8 -1.8,-2.8 a 1.87,1.87 0 0 0 -1.75,1.32 3.44,3.44 0 0 0 -0.13,1 v 7.15 h -3.7 v -6.86 c 0,-1.54 -0.55,-2.58 -1.77,-2.58 a 2,2 0 0 0 -1.78,1.36 2.89,2.89 0 0 0 -0.14,1 v 7.11 H 930 Z"
     id="path240" />
  <path
     d="m 954.47,525 c 0.11,1.58 1.67,2.33 3.45,2.33 a 10.3,10.3 0 0 0 3.36,-0.52 l 0.52,2.57 a 11.84,11.84 0 0 1 -4.44,0.77 c -4.14,0 -6.52,-2.41 -6.52,-6.22 0,-3.11 1.94,-6.55 6.17,-6.55 4,0 5.46,3.09 5.46,6.11 a 7.09,7.09 0 0 1 -0.14,1.51 z m 4.46,-2.61 a 2.21,2.21 0 0 0 -2.13,-2.39 2.51,2.51 0 0 0 -2.36,2.48 z"
     id="path242" />
  <path
     d="m 964.74,521.61 c 0,-1.53 0,-2.82 -0.1,-3.91 h 3.3 l 0.17,1.69 h 0.08 a 4.46,4.46 0 0 1 3.78,-2 c 2.5,0 4.38,1.67 4.38,5.27 v 7.24 h -3.81 v -6.78 c 0,-1.57 -0.56,-2.65 -1.93,-2.65 a 2,2 0 0 0 -1.93,1.43 2.67,2.67 0 0 0 -0.13,0.94 v 7.06 h -3.81 z"
     id="path244" />
  <path
     d="m 979.37,526.62 a 7.53,7.53 0 0 0 3.26,0.91 c 1.15,0 1.64,-0.39 1.64,-1 0,-0.61 -0.39,-0.94 -1.79,-1.42 -2.55,-0.83 -3.5,-2.22 -3.49,-3.65 0,-2.3 1.94,-4 5,-4 a 8,8 0 0 1 3.45,0.72 l -0.66,2.62 a 6.23,6.23 0 0 0 -2.65,-0.69 c -0.93,0 -1.46,0.37 -1.46,1 0,0.63 0.48,0.9 2,1.41 2.32,0.79 3.3,2 3.31,3.77 0,2.28 -1.78,4 -5.28,4 a 8.79,8.79 0 0 1 -4,-0.86 z"
     id="path246" />
  <path
     d="m 994.15,514.3 a 2,2 0 1 1 -2,-1.9 1.88,1.88 0 0 1 2,1.9 z m -3.91,15.63 V 517.7 h 3.81 v 12.23 z"
     id="path248" />
  <path
     d="m 1009.15,523.69 a 6.12,6.12 0 0 1 -6.44,6.52 6,6 0 0 1 -6.32,-6.31 c 0,-3.94 2.6,-6.48 6.54,-6.48 a 5.93,5.93 0 0 1 6.22,6.27 z m -8.84,0.13 c 0,2.09 0.88,3.67 2.5,3.67 1.62,0 2.42,-1.48 2.42,-3.69 0,-1.81 -0.69,-3.66 -2.41,-3.66 -1.72,0 -2.51,1.86 -2.51,3.68 z"
     id="path250" />
  <path
     d="m 1011.51,521.61 c 0,-1.53 0,-2.82 -0.1,-3.91 h 3.3 l 0.18,1.69 h 0.08 a 4.44,4.44 0 0 1 3.78,-2 c 2.5,0 4.38,1.67 4.38,5.27 v 7.24 h -3.81 v -6.78 c 0,-1.57 -0.57,-2.65 -1.94,-2.65 a 2.07,2.07 0 0 0 -1.93,1.43 2.92,2.92 0 0 0 -0.13,0.94 v 7.06 h -3.81 z"
     id="path252" />
  <path
     d="m 1033.12,529.93 -0.22,-1.21 h -0.08 a 4.41,4.41 0 0 1 -3.49,1.49 3.74,3.74 0 0 1 -4,-3.75 c 0,-3.18 2.85,-4.69 7.18,-4.69 v -0.15 c 0,-0.65 -0.35,-1.58 -2.24,-1.58 a 7.11,7.11 0 0 0 -3.37,0.91 l -0.7,-2.43 a 9.84,9.84 0 0 1 4.75,-1.1 c 4.08,0 5.36,2.41 5.36,5.28 v 4.3 a 17.79,17.79 0 0 0 0.2,3 z m -0.46,-5.78 c -2,0 -3.54,0.47 -3.54,1.92 a 1.37,1.37 0 0 0 1.5,1.47 2.07,2.07 0 0 0 2,-1.41 2.28,2.28 0 0 0 0.07,-0.65 z"
     id="path254" />
  <path
     d="m 1039.36,512.19 h 3.81 v 17.74 h -3.81 z"
     id="path256" />
  <path
     class="cls-46"
     d="m 754.31,86.33 c 0,0 48.82,24 99.35,0 V 47 h -99.35 z"
     id="path284"
     style="fill:url(#radial-gradient-41)" />
  <ellipse
     class="cls-47"
     cx="803.98999"
     cy="47.009998"
     rx="49.68"
     ry="20.200001"
     id="ellipse286"
     style="fill:url(#linear-gradient-4)" />
  <path
     class="cls-48"
     d="m 1129,349.76 c 0,0 -27.85,48.81 0,99.35 h 45.66 v -99.35 z"
     id="path290"
     style="fill:url(#radial-gradient-42)" />
  <ellipse
     class="cls-49"
     cx="1174.67"
     cy="399.28"
     rx="20.200001"
     ry="49.68"
     id="ellipse292"
     style="fill:url(#linear-gradient-5)" />
  <circle
     class="cls-50"
     cx="942.57001"
     cy="310.12"
     r="11.03"
     id="circle302"
     style="fill:#495890;fill-opacity:1" />
  <circle
     class="cls-50"
     cx="970.46997"
     cy="168.03"
     r="11.03"
     id="circle304"
     style="fill:#495890;fill-opacity:1" />
  <circle
     class="cls-50"
     cx="1074.11"
     cy="72"
     r="11.03"
     id="circle306"
     style="fill:#495890;fill-opacity:1" />
  <circle
     class="cls-50"
     cx="1154.46"
     cy="210.21001"
     r="11.03"
     id="circle308"
     style="fill:#495890;fill-opacity:1" />
  <circle
     class="cls-51"
     cx="162.39999"
     cy="475.10999"
     r="43.07"
     id="circle310"
     style="fill:url(#linear-gradient-6)" />
  <path
     class="cls-52"
     d="m 159.32,465.67 h -0.12 l -7.41,3.52 -1.51,-6.84 10.34,-4.81 h 7.53 v 39 h -8.83 z"
     id="path312" />
  <circle
     class="cls-53"
     cx="357.70999"
     cy="829.78003"
     r="43.07"
     id="circle314"
     style="fill:url(#linear-gradient-7)" />
  <path
     class="cls-52"
     d="m 343,851.22 v -5.53 l 5,-4.53 c 8.53,-7.66 12.69,-12 12.76,-16.58 0,-3.17 -1.87,-5.69 -6.39,-5.69 a 14.39,14.39 0 0 0 -8.35,3.21 l -2.56,-6.52 a 21.61,21.61 0 0 1 12.75,-4 c 8.85,0 13.67,5.16 13.67,12.22 0,6.54 -4.69,11.8 -10.37,16.8 l -3.62,3 v 0.12 h 14.81 v 7.52 z"
     id="path316" />
  <circle
     class="cls-54"
     cx="1103.38"
     cy="518.17999"
     r="43.07"
     id="circle318"
     style="fill:url(#linear-gradient-8)" />
  <path
     class="cls-52"
     d="m 1090.3,530.69 a 21.37,21.37 0 0 0 9.08,2.37 c 4.72,0 7.13,-2.27 7.12,-5.18 0,-3.87 -3.84,-5.62 -7.86,-5.63 h -3.72 v -6.54 h 3.56 c 3.06,0 6.91,-1.2 6.91,-4.48 0,-2.33 -1.89,-4.08 -5.73,-4.08 a 17.46,17.46 0 0 0 -8.14,2.33 l -1.88,-6.57 c 2.36,-1.52 7,-3 12.07,-3 8.34,0 12.94,4.37 12.94,9.73 0,4.1 -2.35,7.37 -7.13,9 v 0.12 c 4.68,0.85 8.45,4.37 8.45,9.5 0,6.89 -6.07,11.92 -16,11.92 -5.06,0 -9.31,-1.3 -11.57,-2.73 z"
     id="path320" />
  <path
     class="cls-55"
     d="m 159.3,541.53 c -1.24,6 -2.15,11.82 -3,17.75 -0.85,5.93 -1.45,11.83 -2,17.77 -1,11.88 -1.54,23.8 -1.46,35.72 a 318.09,318.09 0 0 0 8,71.06 c 5.46,23.28 14.22,46 27,66.37 a 175,175 0 0 0 49.65,51.8 c 1.22,0.89 2.5,1.68 3.76,2.5 L 245,807 c 2.61,1.51 5.16,3.1 7.81,4.53 l 3.36,1.79 1.89,1 c 1.26,0.66 2.55,1.25 3.83,1.88 l 3.84,1.85 3.9,1.7 c -5.64,2.23 -11.42,4.08 -17.46,5.82 2.9,1.45 5.81,2.85 8.74,4.23 3.71,-1.28 7.32,-2.57 10.85,-4 3.53,-1.43 7,-2.94 10.4,-4.47 q -2.32,-5.16 -4.39,-10.21 c -1.34,-3.44 -2.57,-6.88 -3.71,-10.25 -2.49,-1.18 -5,-2.36 -7.43,-3.59 1.56,5.48 3.36,11.12 5.53,16.6 l -3.79,-1.64 -3.72,-1.79 c -1.23,-0.61 -2.49,-1.18 -3.71,-1.82 l -1.82,-1 -3.25,-1.73 c -2.56,-1.38 -5,-2.92 -7.54,-4.37 l -3.66,-2.36 c -1.22,-0.79 -2.46,-1.55 -3.63,-2.41 a 168.54,168.54 0 0 1 -47.78,-50 C 180.9,727.05 172.38,705.03 167.05,682.3 a 311.94,311.94 0 0 1 -7.85,-69.63 c -0.08,-11.72 0.43,-23.45 1.44,-35.14 q 0.76,-8.76 1.94,-17.47 c 0.8,-5.78 1.71,-11.63 2.88,-17.23 z"
     id="path322" />
  <path
     class="cls-55"
     d="m 623.23,841.13 c 20,-4.7 39.68,-9.93 59.37,-15.42 19.69,-5.49 39.27,-11.32 58.76,-17.46 39,-12.29 77.57,-25.82 115.53,-41 19,-7.64 37.8,-15.63 56.35,-24.26 9.3,-4.26 18.49,-8.77 27.66,-13.32 9.17,-4.55 18.22,-9.35 27.17,-14.32 8.95,-4.97 17.86,-10.07 26.58,-15.46 4.39,-2.64 8.68,-5.46 13,-8.21 4.32,-2.75 8.57,-5.64 12.75,-8.62 4.18,-2.98 8.36,-6 12.5,-9 2.06,-1.54 4.08,-3.13 6.12,-4.69 2.04,-1.56 4,-3.18 6,-4.81 4,-3.21 7.89,-6.62 11.78,-10 l 5.69,-5.23 c 1.91,-1.73 3.7,-3.59 5.56,-5.38 a 235,235 0 0 0 20.57,-23.19 l 3.52,-4.78 1.26,-1.73 2.36,-3.56 2.36,-3.56 2.18,-3.69 a 171.38,171.38 0 0 1 3.44,18.18 c 1.82,-2.72 3.64,-5.44 5.41,-8.2 q -1.14,-5.88 -2.5,-11.39 -1.55,-5.64 -3.31,-10.89 -5.4,1.82 -10.59,3.22 c -3.58,0.89 -7.11,1.65 -10.55,2.3 -1.46,2.26 -3,4.51 -4.47,6.77 a 152.64,152.64 0 0 0 17.1,-3.21 l -2.09,3.54 -2.27,3.43 -2.27,3.43 -1.22,1.66 -3.4,4.62 a 227.12,227.12 0 0 1 -20,22.55 c -1.81,1.75 -3.55,3.56 -5.43,5.26 l -5.57,5.12 c -3.81,3.3 -7.6,6.65 -11.56,9.79 -2,1.61 -3.91,3.21 -5.93,4.73 -2.02,1.52 -4,3.11 -6,4.63 -4.08,3 -8.15,6 -12.33,8.87 -4.18,2.87 -8.38,5.69 -12.59,8.52 -4.21,2.83 -8.52,5.5 -12.87,8.11 -8.62,5.34 -17.43,10.39 -26.31,15.31 -8.88,4.92 -17.9,9.6 -27,14.21 -9.1,4.61 -18.23,9 -27.47,13.23 -18.44,8.57 -37.18,16.53 -56.05,24.13 -37.78,15.13 -76.24,28.61 -115.08,40.85 q -29.13,9.18 -58.56,17.41 c -19.6,5.47 -39.32,10.69 -59.07,15.35 z"
     id="path324" />
  <g
     id="g1932"
     transform="translate(26.456871,15.661415)">
    <path
       d="m 961.51,769.46 v 19.73 c 0,1.95 0.06,4 0.14,5.12 h -4.74 l -0.22,-2.51 h -0.07 a 6,6 0 0 1 -5.37,2.89 c -4,0 -7.31,-3.47 -7.31,-8.79 0,-5.76 3.59,-9.11 7.67,-9.11 2.11,0 3.73,0.75 4.5,1.94 h 0.07 v -9.27 z m -5.33,15 a 5.34,5.34 0 0 0 -0.07,-1 3.15,3.15 0 0 0 -3.09,-2.6 c -2.44,0 -3.67,2.16 -3.67,4.86 0,2.88 1.42,4.71 3.64,4.71 a 3.15,3.15 0 0 0 3.08,-2.56 5.05,5.05 0 0 0 0.11,-1.2 z"
       id="path328" />
    <path
       d="m 971.26,772.42 a 2.82,2.82 0 1 1 -2.81,-2.67 2.64,2.64 0 0 1 2.81,2.67 z m -5.48,21.89 v -17.13 h 5.33 v 17.13 z"
       id="path330" />
    <path
       d="m 975.34,789.67 a 10.46,10.46 0 0 0 4.57,1.27 c 1.61,0 2.3,-0.54 2.3,-1.41 0,-0.87 -0.55,-1.32 -2.52,-2 -3.56,-1.17 -4.9,-3.1 -4.88,-5.12 0,-3.21 2.71,-5.63 7,-5.63 a 11.31,11.31 0 0 1 4.82,1 l -0.93,3.67 a 8.63,8.63 0 0 0 -3.71,-1 c -1.3,0 -2,0.52 -2,1.38 0,0.86 0.68,1.25 2.78,2 3.25,1.1 4.61,2.77 4.63,5.27 0,3.2 -2.49,5.56 -7.4,5.56 a 12.24,12.24 0 0 1 -5.55,-1.21 z"
       id="path332" />
    <path
       d="m 994.66,787.45 c 0.16,2.21 2.34,3.26 4.83,3.26 a 14.34,14.34 0 0 0 4.71,-0.72 l 0.72,3.6 a 16.66,16.66 0 0 1 -6.21,1.09 c -5.8,0 -9.13,-3.38 -9.13,-8.72 0,-4.36 2.71,-9.17 8.63,-9.17 5.56,0 7.65,4.32 7.65,8.56 a 9.74,9.74 0 0 1 -0.19,2.1 z m 6.25,-3.64 c 0,-1.29 -0.56,-3.48 -3,-3.48 -2.26,0 -3.17,2.06 -3.31,3.48 z"
       id="path334" />
    <path
       d="m 1009,782.65 c 0,-2.14 -0.07,-3.94 -0.14,-5.47 h 4.62 l 0.24,2.37 h 0.11 a 6.22,6.22 0 0 1 5.3,-2.76 c 3.5,0 6.13,2.33 6.13,7.38 v 10.14 H 1020 v -9.5 c 0,-2.21 -0.79,-3.72 -2.71,-3.72 a 2.86,2.86 0 0 0 -2.7,2 3.7,3.7 0 0 0 -0.19,1.31 v 9.89 h -5.4 z"
       id="path336" />
    <path
       d="m 1035.28,772.29 v 4.89 h 3.83 v 3.92 h -3.83 v 6.21 c 0,2.07 0.51,3 2.1,3 a 6.85,6.85 0 0 0 1.58,-0.16 v 4.05 a 11.14,11.14 0 0 1 -3.45,0.46 5.54,5.54 0 0 1 -4,-1.49 c -1,-1 -1.47,-2.65 -1.47,-5.08 v -7 h -2.28 v -3.92 h 2.28 v -3.69 z"
       id="path338" />
    <path
       d="m 1051.93,794.31 -0.31,-1.7 h -0.12 a 6.15,6.15 0 0 1 -4.89,2.08 5.23,5.23 0 0 1 -5.54,-5.24 c 0,-4.46 4,-6.58 10,-6.57 v -0.22 c 0,-0.91 -0.48,-2.21 -3.13,-2.2 a 9.88,9.88 0 0 0 -4.72,1.27 l -1,-3.4 a 13.71,13.71 0 0 1 6.65,-1.54 c 5.71,0 7.51,3.37 7.51,7.39 v 6 a 25.52,25.52 0 0 0 0.27,4.15 z m -0.65,-8.1 c -2.8,0 -5,0.66 -5,2.7 a 1.92,1.92 0 0 0 2.12,2.05 2.9,2.9 0 0 0 2.75,-2 3.07,3.07 0 0 0 0.1,-0.91 z"
       id="path340" />
    <path
       d="m 1060.66,782.65 c 0,-2.14 -0.07,-3.94 -0.14,-5.47 h 4.62 l 0.25,2.37 h 0.11 a 6.2,6.2 0 0 1 5.29,-2.76 c 3.5,0 6.14,2.33 6.14,7.38 v 10.14 h -5.34 v -9.5 c 0,-2.21 -0.79,-3.72 -2.71,-3.72 a 2.88,2.88 0 0 0 -2.7,2 3.71,3.71 0 0 0 -0.18,1.31 v 9.89 h -5.34 z"
       id="path342" />
    <path
       d="m 1097.53,777.18 c -0.08,1.1 -0.15,2.55 -0.15,5.1 v 9.54 c 0,3.29 -0.66,6 -2.6,7.7 a 10.39,10.39 0 0 1 -7,2.1 13.61,13.61 0 0 1 -6.16,-1.31 l 1.06,-4 a 10.53,10.53 0 0 0 5,1.29 c 2.52,0 4.45,-1.35 4.45,-4.51 v -1.11 h -0.07 a 5.51,5.51 0 0 1 -4.63,2.22 c -4.22,0 -7.24,-3.44 -7.24,-8.34 0,-5.53 3.56,-9 7.76,-9 a 5.14,5.14 0 0 1 4.7,2.43 h 0.06 l 0.18,-2 z m -5.48,7 a 4.43,4.43 0 0 0 -0.1,-1 2.89,2.89 0 0 0 -2.87,-2.35 c -1.93,0 -3.48,1.77 -3.48,4.87 0,2.55 1.26,4.55 3.48,4.55 a 2.91,2.91 0 0 0 2.82,-2.15 5.49,5.49 0 0 0 0.15,-1.41 z"
       id="path344" />
    <path
       d="m 1101.65,769.46 h 5.35 v 24.85 h -5.33 z"
       id="path346" />
    <path
       d="m 1116.75,772.42 a 2.82,2.82 0 1 1 -2.81,-2.67 2.63,2.63 0 0 1 2.81,2.67 z m -5.48,21.89 v -17.13 h 5.33 v 17.13 z"
       id="path348" />
    <path
       d="m 1120.86,782.65 c 0,-2.14 -0.07,-3.94 -0.14,-5.47 h 4.62 l 0.25,2.37 h 0.11 a 6.2,6.2 0 0 1 5.29,-2.76 c 3.5,0 6.13,2.33 6.13,7.38 v 10.14 h -5.33 v -9.5 c 0,-2.21 -0.79,-3.72 -2.71,-3.72 a 2.88,2.88 0 0 0 -2.7,2 3.7,3.7 0 0 0 -0.19,1.31 v 9.89 h -5.33 z"
       id="path350" />
    <path
       d="m 1157.73,777.18 c -0.08,1.1 -0.15,2.55 -0.15,5.1 v 9.54 c 0,3.29 -0.66,6 -2.6,7.7 a 10.39,10.39 0 0 1 -7,2.1 13.61,13.61 0 0 1 -6.16,-1.31 l 1.06,-4 a 10.53,10.53 0 0 0 5,1.29 c 2.52,0 4.45,-1.35 4.45,-4.51 v -1.11 h -0.07 a 5.51,5.51 0 0 1 -4.63,2.22 c -4.22,0 -7.24,-3.44 -7.24,-8.34 0,-5.53 3.56,-9 7.76,-9 a 5.11,5.11 0 0 1 4.69,2.43 h 0.07 l 0.18,-2 z m -5.48,7 a 4.43,4.43 0 0 0 -0.1,-1 2.89,2.89 0 0 0 -2.87,-2.35 c -1.93,0 -3.48,1.77 -3.48,4.87 0,2.55 1.26,4.55 3.47,4.55 a 2.92,2.92 0 0 0 2.83,-2.15 5.49,5.49 0 0 0 0.15,-1.41 z"
       id="path352" />
  </g>
  <g
     id="g1946"
     transform="translate(32.691062,15.661415)">
    <path
       d="m 947.86,811.46 v 19.73 c 0,1.95 0.06,4 0.14,5.12 h -4.74 L 943,833.8 v 0 a 6,6 0 0 1 -5.37,2.89 c -4,0 -7.31,-3.47 -7.31,-8.79 0,-5.76 3.59,-9.11 7.67,-9.11 2.11,0 3.73,0.75 4.5,1.94 h 0.07 v -9.27 z m -5.33,15 a 5.34,5.34 0 0 0 -0.07,-1 3.15,3.15 0 0 0 -3.09,-2.6 c -2.44,0 -3.67,2.16 -3.67,4.86 0,2.88 1.42,4.71 3.64,4.71 a 3.15,3.15 0 0 0 3.08,-2.56 5.05,5.05 0 0 0 0.11,-1.2 z"
       id="path354" />
    <path
       d="m 961.87,836.31 -0.31,-1.7 h -0.11 a 6.17,6.17 0 0 1 -4.9,2.08 5.22,5.22 0 0 1 -5.53,-5.24 c 0,-4.46 4,-6.58 10.05,-6.57 v -0.22 c 0,-0.91 -0.49,-2.21 -3.14,-2.2 a 9.92,9.92 0 0 0 -4.72,1.27 l -1,-3.4 a 13.76,13.76 0 0 1 6.66,-1.54 c 5.7,0 7.51,3.37 7.51,7.39 v 6 a 25.52,25.52 0 0 0 0.27,4.15 z m -0.64,-8.1 c -2.8,0 -5,0.66 -5,2.7 a 1.92,1.92 0 0 0 2.12,2.05 2.9,2.9 0 0 0 2.75,-2 3.43,3.43 0 0 0 0.1,-0.91 z"
       id="path356" />
    <path
       d="m 976.27,814.29 v 4.89 h 3.83 v 3.92 h -3.83 v 6.21 c 0,2.07 0.51,3 2.1,3 a 6.71,6.71 0 0 0 1.58,-0.16 v 4.05 a 11.21,11.21 0 0 1 -3.46,0.46 5.56,5.56 0 0 1 -4,-1.49 c -1,-1 -1.47,-2.65 -1.47,-5.08 v -7 h -2.28 v -3.92 h 2.28 v -3.69 z"
       id="path358" />
    <path
       d="m 992.92,836.31 -0.31,-1.7 h -0.12 a 6.13,6.13 0 0 1 -4.89,2.08 5.23,5.23 0 0 1 -5.54,-5.24 c 0,-4.46 4,-6.58 10.06,-6.57 v -0.22 c 0,-0.91 -0.49,-2.21 -3.14,-2.2 a 9.88,9.88 0 0 0 -4.72,1.27 l -1,-3.4 a 13.72,13.72 0 0 1 6.66,-1.54 c 5.7,0 7.5,3.37 7.5,7.39 v 6 a 24.28,24.28 0 0 0 0.28,4.15 z m -0.64,-8.1 c -2.81,0 -5,0.66 -5,2.7 a 1.92,1.92 0 0 0 2.11,2.05 2.92,2.92 0 0 0 2.76,-2 3.43,3.43 0 0 0 0.1,-0.91 z"
       id="path360" />
    <path
       d="M 1009.34,836.31 V 823.1 h -2.27 v -3.92 h 2.27 v -0.66 a 7.92,7.92 0 0 1 2.15,-5.74 7,7 0 0 1 4.74,-1.71 10.58,10.58 0 0 1 2.82,0.36 l -0.21,4.09 a 5.8,5.8 0 0 0 -1.72,-0.25 c -1.75,0 -2.49,1.38 -2.49,3 v 0.87 h 3.43 v 3.92 h -3.39 v 13.21 z"
       id="path362" />
    <path
       d="m 1020.66,824.82 c 0,-2.51 0,-4.17 -0.15,-5.64 h 4.58 l 0.2,3.17 h 0.13 a 5,5 0 0 1 4.62,-3.56 4.48,4.48 0 0 1 1.14,0.1 v 5 a 6.36,6.36 0 0 0 -1.44,-0.15 3.43,3.43 0 0 0 -3.65,2.7 6.15,6.15 0 0 0 -0.1,1.19 v 8.67 h -5.33 z"
       id="path364" />
    <path
       d="m 1050.58,827.57 c 0,6.26 -4.44,9.12 -9,9.12 -5,0 -8.85,-3.29 -8.85,-8.82 0,-5.53 3.65,-9.08 9.15,-9.08 5.21,0 8.7,3.61 8.7,8.78 z m -12.39,0.18 c 0,2.92 1.23,5.14 3.5,5.14 2.08,0 3.4,-2.08 3.4,-5.17 0,-2.53 -1,-5.12 -3.39,-5.12 -2.39,0 -3.51,2.61 -3.51,5.15 z"
       id="path366" />
    <path
       d="m 1053.87,824.65 c 0,-2.14 -0.06,-3.94 -0.14,-5.47 h 4.51 l 0.22,2.31 h 0.11 a 6,6 0 0 1 5.17,-2.7 4.84,4.84 0 0 1 4.69,2.94 h 0.07 a 7.09,7.09 0 0 1 2.23,-2.09 6.05,6.05 0 0 1 3.25,-0.85 c 3.27,0 5.77,2.31 5.77,7.43 v 10.09 h -5.19 V 827 c 0,-2.48 -0.79,-3.92 -2.52,-3.92 a 2.61,2.61 0 0 0 -2.45,1.86 4.59,4.59 0 0 0 -0.19,1.35 v 10 h -5.18 v -9.59 c 0,-2.15 -0.77,-3.62 -2.47,-3.62 a 2.73,2.73 0 0 0 -2.5,1.91 4.13,4.13 0 0 0 -0.2,1.35 v 10 h -5.18 z"
       id="path368" />
    <path
       d="m 1097,814.29 v 4.89 h 3.84 v 3.92 H 1097 v 6.21 c 0,2.07 0.52,3 2.1,3 a 6.88,6.88 0 0 0 1.59,-0.16 v 4.05 a 11.19,11.19 0 0 1 -3.45,0.46 5.54,5.54 0 0 1 -4,-1.49 c -1,-1 -1.48,-2.65 -1.48,-5.08 v -7 h -2.27 v -3.92 h 2.27 v -3.69 z"
       id="path370" />
    <path
       d="m 1109.37,814.42 a 2.64,2.64 0 0 1 -2.86,2.66 2.67,2.67 0 1 1 2.86,-2.66 z m -5.48,21.89 v -17.13 h 5.33 v 17.13 z"
       id="path372" />
    <path
       d="m 1113.48,824.65 c 0,-2.14 -0.07,-3.94 -0.14,-5.47 h 4.5 l 0.23,2.31 h 0.11 a 5.94,5.94 0 0 1 5.17,-2.7 4.85,4.85 0 0 1 4.69,2.94 h 0.07 a 7.06,7.06 0 0 1 2.22,-2.09 6.1,6.1 0 0 1 3.25,-0.85 c 3.28,0 5.77,2.31 5.77,7.43 v 10.09 h -5.18 V 827 c 0,-2.48 -0.8,-3.92 -2.52,-3.92 a 2.6,2.6 0 0 0 -2.45,1.86 4.59,4.59 0 0 0 -0.2,1.35 v 10 h -5.18 v -9.59 c 0,-2.15 -0.77,-3.62 -2.46,-3.62 a 2.73,2.73 0 0 0 -2.5,1.91 3.88,3.88 0 0 0 -0.2,1.35 v 10 h -5.18 z"
       id="path374" />
    <path
       d="m 1147.68,829.45 c 0.16,2.21 2.34,3.26 4.83,3.26 a 14.34,14.34 0 0 0 4.71,-0.72 l 0.72,3.6 a 16.64,16.64 0 0 1 -6.2,1.09 c -5.81,0 -9.14,-3.38 -9.14,-8.72 0,-4.36 2.71,-9.17 8.64,-9.17 5.55,0 7.64,4.32 7.64,8.56 a 9.74,9.74 0 0 1 -0.19,2.1 z m 6.25,-3.64 c 0,-1.29 -0.56,-3.48 -3,-3.48 -2.25,0 -3.16,2.06 -3.31,3.48 z"
       id="path376" />
  </g>
</svg>
