<?xml version="1.0" encoding="UTF-8" standalone="no"?>
<svg
   viewBox="0 0 475.89 607.14"
   version="1.1"
   id="svg308"
   sodipodi:docname="truth-application-events-21 (1).svg"
   inkscape:version="1.1.2 (0a00cf5339, 2022-02-04, custom)"
   xmlns:inkscape="http://www.inkscape.org/namespaces/inkscape"
   xmlns:sodipodi="http://sodipodi.sourceforge.net/DTD/sodipodi-0.dtd"
   xmlns:xlink="http://www.w3.org/1999/xlink"
   xmlns="http://www.w3.org/2000/svg"
   xmlns:svg="http://www.w3.org/2000/svg">
  <sodipodi:namedview
     id="namedview310"
     pagecolor="#505050"
     bordercolor="#ffffff"
     borderopacity="1"
     inkscape:pageshadow="0"
     inkscape:pageopacity="0"
     inkscape:pagecheckerboard="1"
     showgrid="false"
     inkscape:zoom="1.1842408"
     inkscape:cx="237.70503"
     inkscape:cy="303.57001"
     inkscape:window-width="1920"
     inkscape:window-height="1003"
     inkscape:window-x="0"
     inkscape:window-y="0"
     inkscape:window-maximized="1"
     inkscape:current-layer="svg308" />
  <defs
     id="defs82">
    <style
       id="style2">.cls-1{isolation:isolate;}.cls-2{fill:url(#_ÂÁ_Ï_ÌÌ_È_ËÂÌÚ_60);}.cls-3{fill:#fff;}.cls-4,.cls-5{stroke:#53dcf8;}.cls-11,.cls-14,.cls-16,.cls-18,.cls-4,.cls-5,.cls-9{stroke-miterlimit:10;}.cls-4{fill:url(#linear-gradient);}.cls-5{fill:url(#linear-gradient-2);}.cls-6,.cls-7,.cls-8{mix-blend-mode:lighten;}.cls-6,.cls-7{opacity:0.2;}.cls-6{fill:url(#_ÂÁ_Ï_ÌÌ_È_ËÂÌÚ_126);}.cls-7{fill:url(#radial-gradient);}.cls-13,.cls-8{opacity:0.5;}.cls-8{fill:url(#radial-gradient-2);}.cls-12,.cls-9{fill:#53a5f8;}.cls-9{stroke:#000;opacity:0.1;}.cls-10{opacity:0.8;}.cls-11{fill:url(#radial-gradient-3);stroke:url(#radial-gradient-4);}.cls-14{fill:url(#radial-gradient-5);stroke:url(#radial-gradient-6);}.cls-15{opacity:0.3;}.cls-16{fill:url(#radial-gradient-7);stroke:url(#radial-gradient-8);}.cls-17{opacity:0.22;}.cls-18{fill:url(#radial-gradient-9);stroke:url(#radial-gradient-10);}</style>
    <radialGradient
       id="_ÂÁ_Ï_ÌÌ_È_ËÂÌÚ_60"
       cx="232.54"
       cy="679.75"
       r="1383.98"
       gradientTransform="translate(0 -236.75) scale(1 1.37)"
       gradientUnits="userSpaceOnUse">
      <stop
         offset="0"
         stop-color="#31024a"
         id="stop4" />
      <stop
         offset="1"
         stop-color="#2a023f"
         id="stop6" />
    </radialGradient>
    <linearGradient
       id="linear-gradient"
       x1="231.52"
       y1="513.7"
       x2="330.87"
       y2="513.7"
       gradientUnits="userSpaceOnUse">
      <stop
         offset="0"
         stop-color="#4a78a0"
         id="stop9" />
      <stop
         offset="0.09"
         stop-color="#4a6fa0"
         id="stop11" />
      <stop
         offset="0.49"
         stop-color="#4a47a0"
         id="stop13" />
      <stop
         offset="0.8"
         stop-color="#4a2fa0"
         id="stop15" />
      <stop
         offset="1"
         stop-color="#4a26a0"
         id="stop17" />
    </linearGradient>
    <linearGradient
       id="linear-gradient-2"
       x1="231.52"
       y1="474.79"
       x2="330.87"
       y2="474.79"
       xlink:href="#linear-gradient" />
    <radialGradient
       id="_ÂÁ_Ï_ÌÌ_È_ËÂÌÚ_126"
       cx="277.55"
       cy="243.56"
       r="79.12"
       gradientUnits="userSpaceOnUse">
      <stop
         offset="0"
         stop-color="#fc2ffd"
         id="stop21" />
      <stop
         offset="0.28"
         stop-color="#be22c6"
         id="stop23" />
      <stop
         offset="0.78"
         stop-color="#560b69"
         id="stop25" />
      <stop
         offset="1"
         stop-color="#2d0244"
         id="stop27" />
    </radialGradient>
    <radialGradient
       id="radial-gradient"
       cx="-3541.21"
       cy="-1302.21"
       r="106.72"
       gradientTransform="matrix(0.87,0.5,-0.87,0.5,2220.17,2808.56)"
       gradientUnits="userSpaceOnUse">
      <stop
         offset="0"
         stop-color="#fc2ffd"
         id="stop30" />
      <stop
         offset="0.11"
         stop-color="#d727dc"
         id="stop32" />
      <stop
         offset="0.27"
         stop-color="#a41cae"
         id="stop34" />
      <stop
         offset="0.44"
         stop-color="#791388"
         id="stop36" />
      <stop
         offset="0.59"
         stop-color="#580b6a"
         id="stop38" />
      <stop
         offset="0.74"
         stop-color="#400655"
         id="stop40" />
      <stop
         offset="0.88"
         stop-color="#320348"
         id="stop42" />
      <stop
         offset="1"
         stop-color="#2d0244"
         id="stop44" />
    </radialGradient>
    <radialGradient
       id="radial-gradient-2"
       cx="281.2"
       cy="455.98"
       r="317.93"
       gradientUnits="userSpaceOnUse">
      <stop
         offset="0"
         stop-color="#fe4dfe"
         id="stop47" />
      <stop
         offset="0.22"
         stop-color="#3874da"
         id="stop49" />
      <stop
         offset="0.26"
         stop-color="#3c7cdf"
         id="stop51" />
      <stop
         offset="0.44"
         stop-color="#53a5f8"
         id="stop53" />
      <stop
         offset="0.5"
         stop-color="#4c88d7"
         id="stop55" />
      <stop
         offset="0.58"
         stop-color="#435fab"
         id="stop57" />
      <stop
         offset="0.67"
         stop-color="#3b3d86"
         id="stop59" />
      <stop
         offset="0.75"
         stop-color="#352369"
         id="stop61" />
      <stop
         offset="0.84"
         stop-color="#301154"
         id="stop63" />
      <stop
         offset="0.92"
         stop-color="#2e0648"
         id="stop65" />
      <stop
         offset="1"
         stop-color="#2d0244"
         id="stop67" />
    </radialGradient>
    <radialGradient
       id="radial-gradient-3"
       cx="281.2"
       cy="364.84"
       r="41.2"
       gradientTransform="translate(0 182.42) scale(1 0.5)"
       gradientUnits="userSpaceOnUse">
      <stop
         offset="0"
         stop-color="#3e068d"
         id="stop70" />
      <stop
         offset="0.85"
         stop-color="#2a023f"
         id="stop72" />
    </radialGradient>
    <radialGradient
       id="radial-gradient-4"
       cx="281.2"
       cy="364.84"
       r="41.67"
       xlink:href="#_ÂÁ_Ï_ÌÌ_È_ËÂÌÚ_60" />
    <radialGradient
       id="radial-gradient-5"
       cx="281.2"
       cy="290.72"
       r="41.2"
       gradientTransform="matrix(1,0,0,0.5,0,145.36)"
       xlink:href="#radial-gradient-3" />
    <radialGradient
       id="radial-gradient-6"
       cx="281.2"
       cy="290.72"
       r="41.67"
       xlink:href="#_ÂÁ_Ï_ÌÌ_È_ËÂÌÚ_60" />
    <radialGradient
       id="radial-gradient-7"
       cx="281.2"
       cy="216.6"
       r="41.2"
       gradientTransform="matrix(1,0,0,0.5,0,108.3)"
       xlink:href="#radial-gradient-3" />
    <radialGradient
       id="radial-gradient-8"
       cx="281.2"
       cy="216.6"
       r="41.67"
       xlink:href="#_ÂÁ_Ï_ÌÌ_È_ËÂÌÚ_60" />
    <radialGradient
       id="radial-gradient-9"
       cx="280.55"
       cy="142.47"
       r="41.2"
       gradientTransform="matrix(1,0,0,0.5,0,71.24)"
       xlink:href="#radial-gradient-3" />
    <radialGradient
       id="radial-gradient-10"
       cx="280.55"
       cy="142.47"
       r="41.67"
       xlink:href="#_ÂÁ_Ï_ÌÌ_È_ËÂÌÚ_60" />
    <radialGradient
       inkscape:collect="always"
       xlink:href="#_ÂÁ_Ï_ÌÌ_È_ËÂÌÚ_60"
       id="radialGradient1127"
       gradientUnits="userSpaceOnUse"
       gradientTransform="matrix(1,0,0,1.37,0,-236.75)"
       cx="232.54"
       cy="679.75"
       r="1383.98" />
    <linearGradient
       inkscape:collect="always"
       xlink:href="#linear-gradient"
       id="linearGradient1129"
       gradientUnits="userSpaceOnUse"
       x1="231.52"
       y1="513.7"
       x2="330.87"
       y2="513.7" />
    <radialGradient
       inkscape:collect="always"
       xlink:href="#radial-gradient-3"
       id="radialGradient1131"
       gradientUnits="userSpaceOnUse"
       gradientTransform="matrix(1,0,0,0.5,0,182.42)"
       cx="281.2"
       cy="364.84"
       r="41.2" />
  </defs>
  <g
     id="Layer_2"
     data-name="Layer 2"
     style="isolation:isolate"
     transform="matrix(0.96718081,0,0,0.89675851,10.990415,25.167016)"
     sodipodi:insensitive="true">
    <rect
       class="cls-2"
       x="-17.26"
       y="-32.16"
       width="499.57999"
       height="684.65997"
       id="rect84"
       style="fill:url(#radialGradient1127)" />
  </g>
  <g
     id="g1700">
    <path
       class="cls-3"
       d="m 26,40 -1.18,4.33 H 20.83 L 26,27.48 h 5 l 5.2,16.85 H 32.09 L 30.8,40 Z m 4.28,-2.84 -1.05,-3.58 c -0.28,-1 -0.58,-2.26 -0.84,-3.24 h -0.05 c -0.25,1 -0.51,2.27 -0.78,3.25 l -1,3.57 z"
       id="path87"
       style="isolation:isolate" />
    <path
       class="cls-3"
       d="m 38.16,36.2 c 0,-1.6 0,-3 -0.1,-4.11 h 3.31 l 0.17,1.72 h 0.05 a 4.72,4.72 0 0 1 4.08,-2 c 2.67,0 5.08,2.32 5.08,6.23 0,4.46 -2.84,6.55 -5.56,6.55 A 3.78,3.78 0 0 1 42,43.21 v 0 6.06 H 38.16 Z M 42,39.09 a 3.94,3.94 0 0 0 0.07,0.79 2.32,2.32 0 0 0 2.23,1.81 c 1.64,0 2.62,-1.39 2.62,-3.46 0,-2.07 -0.92,-3.43 -2.59,-3.43 a 2.38,2.38 0 0 0 -2.28,1.92 2.53,2.53 0 0 0 -0.08,0.68 z"
       id="path89"
       style="isolation:isolate" />
    <path
       class="cls-3"
       d="m 53.11,36.2 c 0,-1.6 0,-3 -0.1,-4.11 h 3.31 l 0.17,1.72 v 0 a 4.72,4.72 0 0 1 4.08,-2 c 2.67,0 5.08,2.32 5.08,6.23 0,4.46 -2.84,6.55 -5.56,6.55 A 3.79,3.79 0 0 1 57,43.21 v 0 6.06 h -3.89 z m 3.81,2.89 a 3.94,3.94 0 0 0 0.07,0.79 2.32,2.32 0 0 0 2.23,1.81 c 1.64,0 2.62,-1.39 2.62,-3.46 0,-2.07 -0.84,-3.43 -2.56,-3.43 A 2.38,2.38 0 0 0 57,36.72 2.53,2.53 0 0 0 56.92,37.4 Z"
       id="path91"
       style="isolation:isolate" />
    <path
       class="cls-3"
       d="m 68.06,26.58 h 3.81 v 17.75 h -3.81 z"
       id="path93"
       style="isolation:isolate" />
    <path
       class="cls-3"
       d="m 78.85,28.7 a 2,2 0 1 1 -2,-1.91 1.88,1.88 0 0 1 2,1.91 z M 74.94,44.33 V 32.09 h 3.81 v 12.24 z"
       id="path95"
       style="isolation:isolate" />
    <path
       class="cls-3"
       d="m 91,44 a 8.92,8.92 0 0 1 -3.41,0.57 c -4,0 -6.47,-2.42 -6.47,-6.26 0,-3.58 2.45,-6.5 7,-6.5 a 8.83,8.83 0 0 1 2.91,0.48 l -0.6,2.82 a 5.19,5.19 0 0 0 -2.12,-0.38 3.17,3.17 0 0 0 -3.31,3.44 3.2,3.2 0 0 0 3.35,3.44 5.64,5.64 0 0 0 2.19,-0.4 z"
       id="path97"
       style="isolation:isolate" />
    <path
       class="cls-3"
       d="M 100.12,44.33 99.9,43.11 h -0.08 a 4.41,4.41 0 0 1 -3.5,1.49 3.73,3.73 0 0 1 -3.95,-3.74 c 0,-3.19 2.85,-4.7 7.18,-4.69 V 36 c 0,-0.65 -0.35,-1.58 -2.24,-1.58 a 7,7 0 0 0 -3.37,0.92 L 93.24,32.9 A 10,10 0 0 1 98,31.82 c 4.07,0 5.36,2.4 5.36,5.28 v 4.26 a 18,18 0 0 0 0.2,3 z m -0.46,-5.79 c -2,0 -3.55,0.47 -3.55,1.93 a 1.37,1.37 0 0 0 1.51,1.46 2.07,2.07 0 0 0 2,-1.4 2.36,2.36 0 0 0 0.07,-0.65 z"
       id="path99"
       style="isolation:isolate" />
    <path
       class="cls-3"
       d="m 110.4,28.6 v 3.49 h 2.74 v 2.81 h -2.74 v 4.43 c 0,1.48 0.37,2.15 1.5,2.15 a 5.25,5.25 0 0 0 1.14,-0.11 v 2.89 a 8,8 0 0 1 -2.47,0.33 4,4 0 0 1 -2.86,-1.06 5,5 0 0 1 -1.06,-3.63 v -5 h -1.62 v -2.81 h 1.62 v -2.63 z"
       id="path101"
       style="isolation:isolate" />
    <path
       class="cls-3"
       d="m 119.25,28.7 a 2,2 0 1 1 -2,-1.91 1.88,1.88 0 0 1 2,1.91 z m -3.91,15.63 V 32.09 h 3.81 v 12.24 z"
       id="path103"
       style="isolation:isolate" />
    <path
       class="cls-3"
       d="m 134.25,38.09 a 6.11,6.11 0 0 1 -6.44,6.51 6,6 0 0 1 -6.32,-6.3 c 0,-3.95 2.6,-6.48 6.53,-6.48 a 5.93,5.93 0 0 1 6.23,6.27 z m -8.84,0.12 c 0,2.09 0.88,3.67 2.5,3.67 1.62,0 2.42,-1.48 2.42,-3.69 0,-1.8 -0.69,-3.66 -2.41,-3.66 -1.72,0 -2.51,1.87 -2.51,3.68 z"
       id="path105"
       style="isolation:isolate" />
    <path
       class="cls-3"
       d="m 136.61,36 c 0,-1.52 -0.05,-2.81 -0.1,-3.91 h 3.3 l 0.18,1.7 h 0.08 a 4.41,4.41 0 0 1 3.78,-2 c 2.5,0 4.37,1.66 4.37,5.26 v 7.25 h -3.8 v -6.75 c 0,-1.58 -0.57,-2.66 -1.94,-2.66 a 2.06,2.06 0 0 0 -1.93,1.44 2.88,2.88 0 0 0 -0.13,0.94 v 7.06 h -3.81 z"
       id="path107"
       style="isolation:isolate" />
    <path
       class="cls-3"
       d="m 166.46,37.2 h -6.2 v 4 h 6.93 v 3.12 H 156.45 V 27.48 h 10.38 v 3.12 h -6.57 v 3.51 h 6.2 z"
       id="path109"
       style="isolation:isolate" />
    <path
       class="cls-3"
       d="m 172.2,32.09 1.64,5.69 c 0.3,1 0.51,2 0.7,3 h 0.08 c 0.19,-1 0.4,-1.93 0.68,-3 l 1.57,-5.69 h 4 l -4.56,12.24 h -3.79 l -4.45,-12.24 z"
       id="path111"
       style="isolation:isolate" />
    <path
       class="cls-3"
       d="m 185.17,39.43 c 0.11,1.58 1.67,2.33 3.45,2.33 a 10,10 0 0 0 3.36,-0.52 l 0.51,2.57 a 11.75,11.75 0 0 1 -4.43,0.78 c -4.14,0 -6.52,-2.42 -6.52,-6.23 0,-3.11 1.94,-6.54 6.17,-6.54 4,0 5.46,3.08 5.46,6.11 a 7,7 0 0 1 -0.14,1.5 z m 4.46,-2.6 a 2.2,2.2 0 0 0 -2.13,-2.48 2.5,2.5 0 0 0 -2.36,2.48 z"
       id="path113"
       style="isolation:isolate" />
    <path
       class="cls-3"
       d="m 195.44,36 c 0,-1.52 -0.05,-2.81 -0.1,-3.91 h 3.3 l 0.17,1.7 h 0.08 a 4.44,4.44 0 0 1 3.78,-2 c 2.5,0 4.38,1.66 4.38,5.26 v 7.25 h -3.81 v -6.75 c 0,-1.58 -0.56,-2.66 -1.93,-2.66 a 2,2 0 0 0 -1.93,1.44 2.64,2.64 0 0 0 -0.13,0.94 v 7.06 h -3.81 z"
       id="path115"
       style="isolation:isolate" />
    <path
       class="cls-3"
       d="m 214.18,28.6 v 3.49 h 2.74 v 2.81 h -2.74 v 4.43 c 0,1.48 0.37,2.15 1.5,2.15 a 5.14,5.14 0 0 0 1.13,-0.11 v 2.89 a 7.91,7.91 0 0 1 -2.46,0.33 4,4 0 0 1 -2.87,-1.06 5.06,5.06 0 0 1 -1,-3.63 v -5 h -1.63 v -2.81 h 1.63 v -2.63 z"
       id="path117"
       style="isolation:isolate" />
    <path
       class="cls-3"
       d="m 219.1,41 a 7.31,7.31 0 0 0 3.26,0.91 c 1.15,0 1.64,-0.39 1.64,-1 0,-0.61 -0.39,-0.94 -1.8,-1.41 -2.54,-0.84 -3.5,-2.22 -3.48,-3.66 0,-2.3 1.93,-4 5,-4 a 8.09,8.09 0 0 1 3.45,0.71 l -0.67,2.62 a 6.19,6.19 0 0 0 -2.65,-0.69 c -0.93,0 -1.46,0.37 -1.46,1 0,0.63 0.49,0.9 2,1.42 2.32,0.78 3.29,2 3.3,3.76 0,2.29 -1.78,4 -5.28,4 a 8.71,8.71 0 0 1 -4,-0.86 z"
       id="path119"
       style="isolation:isolate" />
    <path
       class="cls-3"
       d="m 348.31,311 a 39.16,39.16 0 0 1 5.2,15.26 38.13,38.13 0 0 1 -1.5,16.06 14.7,14.7 0 0 1 -0.7,1.92 l -0.2,0.5 -0.18,0.48 -0.38,1 a 15,15 0 0 1 -0.9,1.85 c -0.23,-0.7 -0.46,-1.37 -0.73,-2 -0.27,-0.63 -0.61,-1.34 -0.93,-2 a 14.54,14.54 0 0 1 -0.79,1.87 q 1,2.44 1.77,5.21 c 1.75,-0.51 3.56,-1.12 5.41,-1.83 a 22.6,22.6 0 0 0 1,-2.26 c -0.71,0.34 -1.4,0.66 -2.09,1 -0.69,0.34 -1.47,0.54 -2.18,0.79 a 17.06,17.06 0 0 0 0.92,-1.93 l 0.4,-1 0.19,-0.5 0.21,-0.53 a 17.33,17.33 0 0 0 0.72,-2 39.58,39.58 0 0 0 1.53,-16.89 41.69,41.69 0 0 0 -1.88,-8.24 37.06,37.06 0 0 0 -3.58,-7.7 z"
       id="path121"
       style="isolation:isolate" />
    <path
       class="cls-4"
       d="m 231.52,536 c 0,0 48.82,37.34 99.35,0 v -61.21 h -99.35 z"
       id="path123"
       style="isolation:isolate;fill:url(#linearGradient1129)" />
    <ellipse
       class="cls-5"
       cx="281.20001"
       cy="474.79001"
       rx="49.68"
       ry="20.200001"
       id="ellipse125"
       style="isolation:isolate;fill:url(#linear-gradient-2)" />
    <path
       class="cls-3"
       d="m 153.31,133.73 v 14.1 c 0,1.38 0.05,2.83 0.1,3.65 H 150 l -0.16,-1.79 h -0.05 a 4.27,4.27 0 0 1 -3.83,2.06 c -2.89,0 -5.22,-2.47 -5.22,-6.28 0,-4.1 2.56,-6.5 5.47,-6.5 a 3.73,3.73 0 0 1 3.22,1.38 v 0 -6.62 z m -3.8,10.71 a 4.08,4.08 0 0 0 0,-0.69 2.27,2.27 0 0 0 -2.21,-1.86 c -1.74,0 -2.62,1.54 -2.62,3.47 0,1.93 1,3.36 2.59,3.36 a 2.26,2.26 0 0 0 2.21,-1.82 3.93,3.93 0 0 0 0.08,-0.86 z"
       id="path127"
       style="isolation:isolate" />
    <path
       class="cls-3"
       d="m 159.29,146.59 c 0.12,1.57 1.68,2.32 3.45,2.32 a 10.37,10.37 0 0 0 3.37,-0.51 l 0.51,2.57 a 12,12 0 0 1 -4.43,0.77 c -4.15,0 -6.53,-2.41 -6.53,-6.22 0,-3.11 1.94,-6.55 6.17,-6.55 4,0 5.46,3.08 5.46,6.11 a 8.11,8.11 0 0 1 -0.13,1.51 z m 4.47,-2.61 a 2.2,2.2 0 0 0 -2.13,-2.48 2.53,2.53 0 0 0 -2.37,2.48 z"
       id="path129"
       style="isolation:isolate" />
    <path
       class="cls-3"
       d="m 169.46,151.48 c 0,-0.81 0.1,-2.27 0.1,-3.65 v -14.1 h 3.81 v 7 0 a 4.28,4.28 0 0 1 3.69,-1.73 c 2.94,0 5.07,2.43 5,6.18 0,4.4 -2.79,6.6 -5.59,6.6 a 4,4 0 0 1 -3.66,-2 h -0.05 l -0.16,1.7 z m 3.91,-5.19 a 3.3,3.3 0 0 0 0.06,0.66 2.33,2.33 0 0 0 2.24,1.82 c 1.62,0 2.62,-1.26 2.62,-3.46 0,-1.9 -0.85,-3.41 -2.61,-3.41 a 2.34,2.34 0 0 0 -2.24,1.88 4,4 0 0 0 -0.07,0.7 z"
       id="path131"
       style="isolation:isolate" />
    <path
       class="cls-3"
       d="m 188.43,135.85 a 1.89,1.89 0 0 1 -2,1.9 1.9,1.9 0 1 1 2,-1.9 z m -3.92,15.63 v -12.23 h 3.81 v 12.23 z"
       id="path133"
       style="isolation:isolate" />
    <path
       class="cls-3"
       d="m 195.6,135.76 v 3.49 h 2.74 v 2.8 h -2.74 v 4.43 c 0,1.48 0.37,2.16 1.5,2.16 a 5.25,5.25 0 0 0 1.14,-0.11 v 2.88 a 8,8 0 0 1 -2.47,0.33 4,4 0 0 1 -2.86,-1.06 5,5 0 0 1 -1.06,-3.63 v -5 h -1.62 v -2.8 h 1.62 v -2.63 z"
       id="path135"
       style="isolation:isolate" />
    <path
       class="cls-3"
       d="m 145,225.86 a 8.92,8.92 0 0 1 -3.41,0.57 c -4,0 -6.47,-2.42 -6.47,-6.26 0,-3.58 2.45,-6.5 7,-6.5 a 8.81,8.81 0 0 1 2.9,0.48 l -0.59,2.82 a 5.25,5.25 0 0 0 -2.13,-0.38 3.4301312,3.4301312 0 0 0 0.06,6.86 5.8,5.8 0 0 0 2.19,-0.39 z"
       id="path137"
       style="isolation:isolate" />
    <path
       class="cls-3"
       d="m 147.11,218 c 0,-1.8 0,-3 -0.1,-4 h 3.27 l 0.14,2.27 h 0.09 a 3.59,3.59 0 0 1 3.3,-2.54 3.43,3.43 0 0 1 0.82,0.07 v 3.58 a 4.27,4.27 0 0 0 -1,-0.11 2.45,2.45 0 0 0 -2.61,1.93 4.36,4.36 0 0 0 -0.07,0.85 v 6.19 h -3.81 z"
       id="path139"
       style="isolation:isolate" />
    <path
       class="cls-3"
       d="m 159.34,221.27 c 0.12,1.58 1.68,2.33 3.45,2.33 a 10.1,10.1 0 0 0 3.37,-0.52 l 0.51,2.58 a 12,12 0 0 1 -4.43,0.77 c -4.14,0 -6.52,-2.42 -6.52,-6.23 0,-3.1 1.93,-6.54 6.16,-6.54 4,0 5.46,3.08 5.46,6.11 a 7.9,7.9 0 0 1 -0.13,1.5 z m 4.47,-2.6 a 2.2,2.2 0 0 0 -2.13,-2.48 2.53,2.53 0 0 0 -2.37,2.48 z"
       id="path141"
       style="isolation:isolate" />
    <path
       class="cls-3"
       d="m 181.46,208.42 v 14.09 c 0,1.39 0,2.84 0.1,3.66 h -3.38 l -0.16,-1.8 H 178 a 4.25,4.25 0 0 1 -3.83,2.07 c -2.89,0 -5.22,-2.48 -5.22,-6.28 0,-4.11 2.56,-6.5 5.47,-6.5 a 3.73,3.73 0 0 1 3.22,1.38 v 0 -6.62 z m -3.8,10.71 a 3.94,3.94 0 0 0 0,-0.69 2.27,2.27 0 0 0 -2.21,-1.86 c -1.74,0 -2.62,1.54 -2.62,3.47 0,1.93 1,3.36 2.6,3.36 a 2.25,2.25 0 0 0 2.2,-1.82 4,4 0 0 0 0.08,-0.86 z"
       id="path143"
       style="isolation:isolate" />
    <path
       class="cls-3"
       d="m 188.43,210.54 a 1.89,1.89 0 0 1 -2,1.9 1.91,1.91 0 1 1 0,-3.81 1.88,1.88 0 0 1 2,1.91 z m -3.92,15.63 v -12.24 h 3.81 v 12.24 z"
       id="path145"
       style="isolation:isolate" />
    <path
       class="cls-3"
       d="m 195.6,210.44 v 3.49 h 2.74 v 2.81 h -2.74 v 4.43 c 0,1.48 0.37,2.16 1.5,2.16 a 5.14,5.14 0 0 0 1.14,-0.12 v 2.89 a 8,8 0 0 1 -2.47,0.33 4,4 0 0 1 -2.86,-1.06 5,5 0 0 1 -1.06,-3.63 v -5 h -1.62 v -2.81 h 1.62 v -2.63 z"
       id="path147"
       style="isolation:isolate" />
    <path
       class="cls-3"
       d="m 116.71,285.57 v 3.49 h 2.73 v 2.8 h -2.73 v 4.44 c 0,1.47 0.36,2.15 1.5,2.15 a 5.14,5.14 0 0 0 1.13,-0.11 v 2.89 a 7.94,7.94 0 0 1 -2.47,0.33 3.93,3.93 0 0 1 -2.86,-1.07 5,5 0 0 1 -1.05,-3.62 v -5 h -1.63 v -2.8 H 113 v -2.63 z"
       id="path149"
       style="isolation:isolate" />
    <path
       class="cls-3"
       d="m 121.64,293.09 c 0,-1.79 0,-3 -0.1,-4 h 3.27 l 0.13,2.26 h 0.1 a 3.58,3.58 0 0 1 3.3,-2.54 2.89,2.89 0 0 1 0.81,0.08 v 3.57 a 4.84,4.84 0 0 0 -1,-0.1 2.44,2.44 0 0 0 -2.6,1.93 4.25,4.25 0 0 0 -0.07,0.84 v 6.19 h -3.81 z"
       id="path151"
       style="isolation:isolate" />
    <path
       class="cls-3"
       d="m 137.83,301.29 -0.23,-1.21 h -0.08 a 4.41,4.41 0 0 1 -3.49,1.49 3.74,3.74 0 0 1 -4,-3.74 c 0,-3.19 2.85,-4.7 7.18,-4.7 V 293 c 0,-0.65 -0.35,-1.58 -2.24,-1.58 a 7,7 0 0 0 -3.37,0.92 l -0.7,-2.44 a 9.84,9.84 0 0 1 4.75,-1.1 c 4.08,0 5.37,2.41 5.37,5.28 v 4.27 a 18,18 0 0 0 0.19,3 z m -0.47,-5.78 c -2,0 -3.54,0.47 -3.54,1.93 a 1.37,1.37 0 0 0 1.51,1.46 2.06,2.06 0 0 0 2,-1.41 2.25,2.25 0 0 0 0.07,-0.64 z"
       id="path153"
       style="isolation:isolate" />
    <path
       class="cls-3"
       d="m 144.06,293 c 0,-1.53 0,-2.81 -0.09,-3.91 h 3.29 l 0.18,1.69 h 0.08 a 4.44,4.44 0 0 1 3.78,-2 c 2.5,0 4.38,1.67 4.38,5.27 v 7.24 h -3.81 v -6.78 c 0,-1.57 -0.56,-2.65 -1.94,-2.65 a 2,2 0 0 0 -1.92,1.43 2.66,2.66 0 0 0 -0.14,0.94 v 7.06 h -3.81 z"
       id="path155"
       style="isolation:isolate" />
    <path
       class="cls-3"
       d="m 158.7,298 a 7.45,7.45 0 0 0 3.26,0.91 c 1.15,0 1.64,-0.39 1.64,-1 0,-0.61 -0.39,-0.94 -1.8,-1.42 -2.54,-0.83 -3.5,-2.22 -3.48,-3.65 0,-2.3 1.94,-4 5,-4 a 8.08,8.08 0 0 1 3.45,0.72 l -0.67,2.62 a 6.18,6.18 0 0 0 -2.64,-0.69 c -0.93,0 -1.46,0.37 -1.46,1 0,0.63 0.48,0.9 2,1.41 2.32,0.79 3.29,2 3.31,3.77 0,2.28 -1.78,4 -5.29,4 a 8.73,8.73 0 0 1 -4,-0.87 z"
       id="path157"
       style="isolation:isolate" />
    <path
       class="cls-3"
       d="m 170,301.29 v -9.43 h -1.61 v -2.8 H 170 v -0.46 a 5.64,5.64 0 0 1 1.54,-4.11 5,5 0 0 1 3.39,-1.22 7.27,7.27 0 0 1 2,0.26 l -0.15,2.92 a 4.1,4.1 0 0 0 -1.23,-0.18 c -1.25,0 -1.78,1 -1.78,2.17 v 0.62 h 2.45 v 2.8 h -2.42 v 9.43 z"
       id="path159"
       style="isolation:isolate" />
    <path
       class="cls-3"
       d="m 180.77,296.4 c 0.11,1.58 1.67,2.33 3.45,2.33 a 10.3,10.3 0 0 0 3.36,-0.52 l 0.52,2.57 a 11.79,11.79 0 0 1 -4.43,0.78 c -4.15,0 -6.53,-2.42 -6.53,-6.23 0,-3.11 1.94,-6.55 6.17,-6.55 4,0 5.46,3.09 5.46,6.11 a 7,7 0 0 1 -0.14,1.51 z m 4.46,-2.61 a 2.21,2.21 0 0 0 -2.13,-2.48 2.52,2.52 0 0 0 -2.36,2.48 z"
       id="path161"
       style="isolation:isolate" />
    <path
       class="cls-3"
       d="m 191,293.09 c 0,-1.79 0,-3 -0.1,-4 h 3.27 l 0.14,2.26 h 0.09 a 3.59,3.59 0 0 1 3.3,-2.54 2.89,2.89 0 0 1 0.81,0.08 v 3.57 a 4.84,4.84 0 0 0 -1,-0.1 2.44,2.44 0 0 0 -2.6,1.93 4.25,4.25 0 0 0 -0.07,0.84 v 6.19 H 191 Z"
       id="path163"
       style="isolation:isolate" />
    <path
       class="cls-3"
       d="m 153.31,356.1 v 14.09 c 0,1.39 0.05,2.84 0.1,3.66 H 150 l -0.16,-1.79 h -0.05 a 4.26,4.26 0 0 1 -3.83,2.06 c -2.89,0 -5.22,-2.48 -5.22,-6.28 0,-4.11 2.56,-6.5 5.47,-6.5 a 3.73,3.73 0 0 1 3.22,1.38 v 0 -6.62 z m -3.8,10.71 a 4,4 0 0 0 0,-0.69 2.27,2.27 0 0 0 -2.21,-1.86 c -1.74,0 -2.62,1.54 -2.62,3.47 0,1.93 1,3.36 2.6,3.36 a 2.25,2.25 0 0 0 2.2,-1.82 3.93,3.93 0 0 0 0.08,-0.86 z"
       id="path165"
       style="isolation:isolate" />
    <path
       class="cls-3"
       d="m 159.29,369 c 0.12,1.58 1.68,2.33 3.45,2.33 a 10.1,10.1 0 0 0 3.37,-0.52 l 0.51,2.58 a 12,12 0 0 1 -4.43,0.77 c -4.14,0 -6.52,-2.41 -6.52,-6.22 0,-3.11 1.93,-6.55 6.16,-6.55 4,0 5.46,3.08 5.46,6.11 a 7.9,7.9 0 0 1 -0.13,1.5 z m 4.47,-2.6 a 2.2,2.2 0 0 0 -2.13,-2.48 2.53,2.53 0 0 0 -2.37,2.48 z"
       id="path167"
       style="isolation:isolate" />
    <path
       class="cls-3"
       d="m 169.46,373.85 c 0.06,-0.81 0.1,-2.27 0.1,-3.66 V 356.1 h 3.81 v 7 0 a 4.28,4.28 0 0 1 3.69,-1.73 c 2.94,0 5.07,2.43 5,6.18 0,4.4 -2.8,6.6 -5.6,6.6 a 4,4 0 0 1 -3.66,-2 h -0.05 l -0.16,1.71 z m 3.91,-5.19 a 3.3,3.3 0 0 0 0.06,0.66 2.33,2.33 0 0 0 2.24,1.82 c 1.62,0 2.63,-1.26 2.63,-3.46 0,-1.91 -0.86,-3.41 -2.62,-3.41 a 2.34,2.34 0 0 0 -2.24,1.88 4,4 0 0 0 -0.07,0.7 z"
       id="path169"
       style="isolation:isolate" />
    <path
       class="cls-3"
       d="m 188.43,358.22 a 1.89,1.89 0 0 1 -2,1.9 1.91,1.91 0 1 1 2,-1.9 z m -3.92,15.63 v -12.23 h 3.81 v 12.23 z"
       id="path171"
       style="isolation:isolate" />
    <path
       class="cls-3"
       d="m 195.6,358.13 v 3.49 h 2.74 v 2.8 h -2.74 v 4.43 c 0,1.48 0.37,2.16 1.51,2.16 a 4.56,4.56 0 0 0 1.13,-0.12 v 2.89 a 7.94,7.94 0 0 1 -2.47,0.33 4,4 0 0 1 -2.86,-1.06 5,5 0 0 1 -1.05,-3.63 v -5 h -1.63 v -2.8 h 1.63 V 359 Z"
       id="path173"
       style="isolation:isolate" />
    <path
       class="cls-3"
       d="m 383.67,190.72 v -9.43 h -1.61 v -2.81 h 1.61 V 178 a 5.63,5.63 0 0 1 1.54,-4.1 4.93,4.93 0 0 1 3.39,-1.23 7.67,7.67 0 0 1 2,0.26 l -0.15,2.92 a 4.14,4.14 0 0 0 -1.23,-0.17 c -1.25,0 -1.78,1 -1.78,2.16 v 0.62 h 2.45 v 2.81 h -2.42 v 9.43 z"
       id="path175"
       style="isolation:isolate" />
    <path
       class="cls-3"
       d="m 403.57,184.48 a 6.11,6.11 0 0 1 -6.44,6.51 6,6 0 0 1 -6.32,-6.3 c 0,-3.95 2.6,-6.48 6.54,-6.48 a 5.93,5.93 0 0 1 6.22,6.27 z m -8.84,0.12 c 0,2.09 0.88,3.67 2.5,3.67 1.62,0 2.42,-1.48 2.42,-3.69 0,-1.8 -0.69,-3.66 -2.41,-3.66 -1.72,0 -2.51,1.87 -2.51,3.68 z"
       id="path177"
       style="isolation:isolate" />
    <path
       class="cls-3"
       d="m 405.93,173 h 3.81 v 17.75 h -3.81 z"
       id="path179"
       style="isolation:isolate" />
    <path
       class="cls-3"
       d="m 424.65,173 v 14.09 c 0,1.39 0.05,2.84 0.1,3.66 h -3.38 l -0.16,-1.8 v 0 a 4.25,4.25 0 0 1 -3.83,2.07 c -2.88,0 -5.22,-2.48 -5.22,-6.28 0,-4.11 2.56,-6.5 5.47,-6.5 a 3.69,3.69 0 0 1 3.22,1.38 h 0.05 V 173 Z m -3.8,10.7 a 4.08,4.08 0 0 0 -0.05,-0.69 2.25,2.25 0 0 0 -2.2,-1.85 c -1.75,0 -2.63,1.54 -2.63,3.47 0,1.93 1,3.36 2.6,3.36 a 2.25,2.25 0 0 0 2.2,-1.82 4,4 0 0 0 0.08,-0.87 z"
       id="path181"
       style="isolation:isolate" />
    <path
       class="cls-3"
       d="m 383.67,265.06 v -9.43 h -1.61 v -2.8 h 1.61 v -0.46 a 5.65,5.65 0 0 1 1.54,-4.11 5,5 0 0 1 3.39,-1.26 7.27,7.27 0 0 1 2,0.26 l -0.15,2.92 A 4.1,4.1 0 0 0 389.22,250 c -1.25,0 -1.78,1 -1.78,2.17 v 0.62 h 2.45 v 2.8 h -2.42 v 9.43 z"
       id="path185"
       style="isolation:isolate" />
    <path
       class="cls-3"
       d="m 403.57,258.82 a 6.12,6.12 0 0 1 -6.44,6.52 6,6 0 0 1 -6.32,-6.3 c 0,-4 2.6,-6.49 6.54,-6.49 a 5.93,5.93 0 0 1 6.22,6.27 z m -8.84,0.13 c 0,2.09 0.88,3.67 2.5,3.67 1.62,0 2.42,-1.48 2.42,-3.69 0,-1.8 -0.69,-3.66 -2.41,-3.66 -1.72,0 -2.51,1.87 -2.51,3.73 z"
       id="path187"
       style="isolation:isolate" />
    <path
       class="cls-3"
       d="m 405.93,247.32 h 3.81 v 17.74 h -3.81 z"
       id="path189"
       style="isolation:isolate" />
    <path
       class="cls-3"
       d="m 424.65,247.32 v 14.09 c 0,1.39 0.05,2.83 0.1,3.65 h -3.38 l -0.16,-1.79 v 0 a 4.27,4.27 0 0 1 -3.83,2.07 c -2.88,0 -5.22,-2.48 -5.22,-6.28 0,-4.11 2.56,-6.51 5.47,-6.51 a 3.69,3.69 0 0 1 3.22,1.39 h 0.05 v -6.62 z m -3.8,10.7 a 4.08,4.08 0 0 0 -0.05,-0.69 2.26,2.26 0 0 0 -2.2,-1.86 c -1.75,0 -2.63,1.55 -2.63,3.48 0,1.93 1,3.36 2.6,3.36 a 2.24,2.24 0 0 0 2.2,-1.83 3.87,3.87 0 0 0 0.08,-0.86 z"
       id="path191"
       style="isolation:isolate" />
    <path
       class="cls-3"
       d="m 383.67,339.52 v -9.43 h -1.61 v -2.81 h 1.61 v -0.46 a 5.63,5.63 0 0 1 1.54,-4.1 4.92,4.92 0 0 1 3.39,-1.22 7.27,7.27 0 0 1 2,0.26 l -0.15,2.91 a 4.14,4.14 0 0 0 -1.23,-0.17 c -1.25,0 -1.78,1 -1.78,2.16 v 0.62 h 2.45 v 2.81 h -2.42 v 9.43 z"
       id="path195"
       style="isolation:isolate" />
    <path
       class="cls-3"
       d="m 403.57,333.28 a 6.11,6.11 0 0 1 -6.44,6.51 6,6 0 0 1 -6.32,-6.3 c 0,-3.95 2.6,-6.48 6.54,-6.48 a 5.93,5.93 0 0 1 6.22,6.27 z m -8.84,0.12 c 0,2.09 0.88,3.67 2.5,3.67 1.62,0 2.42,-1.48 2.42,-3.69 0,-1.8 -0.69,-3.66 -2.41,-3.66 -1.72,0 -2.51,1.87 -2.51,3.68 z"
       id="path197"
       style="isolation:isolate" />
    <path
       class="cls-3"
       d="m 405.93,321.77 h 3.81 v 17.75 h -3.81 z"
       id="path199"
       style="isolation:isolate" />
    <path
       class="cls-3"
       d="m 424.65,321.77 v 14.09 c 0,1.39 0.05,2.84 0.1,3.66 h -3.38 l -0.16,-1.8 v 0 a 4.25,4.25 0 0 1 -3.83,2.07 c -2.88,0 -5.22,-2.48 -5.22,-6.28 0,-4.11 2.56,-6.5 5.47,-6.5 a 3.72,3.72 0 0 1 3.22,1.38 h 0.05 v -6.62 z m -3.8,10.71 a 3.94,3.94 0 0 0 -0.05,-0.69 2.26,2.26 0 0 0 -2.2,-1.86 c -1.75,0 -2.63,1.54 -2.63,3.47 0,1.93 1,3.36 2.6,3.36 a 2.25,2.25 0 0 0 2.2,-1.82 3.93,3.93 0 0 0 0.08,-0.86 z"
       id="path201"
       style="isolation:isolate" />
    <path
       class="cls-3"
       d="m 50.71,502.31 a 8.92,8.92 0 0 1 -3.41,0.57 c -3.95,0 -6.47,-2.42 -6.47,-6.26 0,-3.58 2.45,-6.5 7,-6.5 a 8.83,8.83 0 0 1 2.91,0.48 l -0.6,2.82 A 5.16,5.16 0 0 0 48,493 a 3.4301312,3.4301312 0 0 0 0.06,6.86 5.6,5.6 0 0 0 2.19,-0.4 z"
       id="path205"
       style="isolation:isolate" />
    <path
       class="cls-3"
       d="m 64.37,498.7 c 0,1.59 0,2.9 0.1,3.92 H 61.18 L 61,500.89 h -0.08 a 4.33,4.33 0 0 1 -3.81,2 c -2.49,0 -4.3,-1.55 -4.3,-5.31 v -7.2 h 3.81 V 497 c 0,1.79 0.57,2.86 1.92,2.86 a 2,2 0 0 0 1.89,-1.34 2.18,2.18 0 0 0 0.13,-0.81 v -7.29 h 3.81 z"
       id="path207"
       style="isolation:isolate" />
    <path
       class="cls-3"
       d="m 67.43,494.41 c 0,-1.79 0,-3 -0.1,-4 h 3.26 l 0.14,2.27 h 0.1 a 3.57,3.57 0 0 1 3.3,-2.54 3.35,3.35 0 0 1 0.81,0.07 v 3.57 a 4.84,4.84 0 0 0 -1,-0.1 2.44,2.44 0 0 0 -2.6,1.93 4.31,4.31 0 0 0 -0.08,0.85 v 6.19 h -3.8 z"
       id="path209"
       style="isolation:isolate" />
    <path
       class="cls-3"
       d="m 76.88,494.41 c 0,-1.79 0,-3 -0.1,-4 H 80 l 0.14,2.27 h 0.1 a 3.57,3.57 0 0 1 3.3,-2.54 3.35,3.35 0 0 1 0.81,0.07 v 3.57 a 4.84,4.84 0 0 0 -1,-0.1 2.44,2.44 0 0 0 -2.6,1.93 4.31,4.31 0 0 0 -0.08,0.85 v 6.19 h -3.8 z"
       id="path211"
       style="isolation:isolate" />
    <path
       class="cls-3"
       d="m 89.11,497.72 c 0.11,1.58 1.67,2.33 3.45,2.33 a 10,10 0 0 0 3.36,-0.52 l 0.51,2.58 A 12,12 0 0 1 92,502.88 c -4.14,0 -6.52,-2.42 -6.52,-6.23 0,-3.11 1.94,-6.54 6.17,-6.54 4,0 5.46,3.08 5.46,6.11 a 7,7 0 0 1 -0.14,1.5 z m 4.46,-2.6 a 2.2,2.2 0 0 0 -2.13,-2.48 2.51,2.51 0 0 0 -2.36,2.48 z"
       id="path213"
       style="isolation:isolate" />
    <path
       class="cls-3"
       d="m 99.38,494.29 c 0,-1.52 0,-2.81 -0.1,-3.91 h 3.3 l 0.17,1.7 h 0.08 a 4.44,4.44 0 0 1 3.78,-2 c 2.5,0 4.38,1.66 4.38,5.26 v 7.25 h -3.81 v -6.78 c 0,-1.58 -0.56,-2.66 -1.93,-2.66 a 2,2 0 0 0 -1.93,1.44 2.67,2.67 0 0 0 -0.13,0.94 v 7.06 h -3.81 z"
       id="path215"
       style="isolation:isolate" />
    <path
       class="cls-3"
       d="m 118.12,486.89 v 3.49 h 2.74 v 2.81 h -2.74 v 4.43 c 0,1.48 0.37,2.16 1.5,2.16 a 5,5 0 0 0 1.13,-0.12 v 2.89 a 7.91,7.91 0 0 1 -2.46,0.33 4,4 0 0 1 -2.87,-1.06 5.06,5.06 0 0 1 -1,-3.63 v -5 h -1.63 v -2.81 h 1.63 v -2.63 z"
       id="path217"
       style="isolation:isolate" />
    <path
       class="cls-3"
       d="m 128,502.62 c 0.05,-0.81 0.1,-2.27 0.1,-3.66 v -14.09 h 3.81 v 7 H 132 a 4.28,4.28 0 0 1 3.69,-1.73 c 2.94,0 5.07,2.43 5,6.17 0,4.41 -2.79,6.61 -5.59,6.61 a 4,4 0 0 1 -3.66,-2 h -0.05 l -0.16,1.71 z m 3.91,-5.2 a 3.4,3.4 0 0 0 0.06,0.67 2.32,2.32 0 0 0 2.24,1.81 c 1.62,0 2.62,-1.26 2.62,-3.45 0,-1.91 -0.85,-3.41 -2.61,-3.41 a 2.34,2.34 0 0 0 -2.24,1.88 3.86,3.86 0 0 0 -0.07,0.7 z"
       id="path219"
       style="isolation:isolate" />
    <path
       class="cls-3"
       d="m 150,502.62 -0.22,-1.22 h -0.08 a 4.41,4.41 0 0 1 -3.49,1.49 3.73,3.73 0 0 1 -4,-3.74 c 0,-3.19 2.85,-4.7 7.18,-4.69 v -0.16 c 0,-0.65 -0.35,-1.58 -2.24,-1.58 a 7,7 0 0 0 -3.37,0.92 l -0.7,-2.44 a 10,10 0 0 1 4.75,-1.09 c 4.08,0 5.36,2.4 5.36,5.28 v 4.26 a 18,18 0 0 0 0.2,3 z m -0.46,-5.79 c -2,0 -3.54,0.47 -3.54,1.93 a 1.37,1.37 0 0 0 1.51,1.46 2.07,2.07 0 0 0 2,-1.4 2.36,2.36 0 0 0 0.07,-0.65 z"
       id="path221"
       style="isolation:isolate" />
    <path
       class="cls-3"
       d="m 156.25,484.87 h 3.81 v 17.75 h -3.81 z"
       id="path223"
       style="isolation:isolate" />
    <path
       class="cls-3"
       d="m 170.09,502.62 -0.22,-1.22 h -0.09 a 4.38,4.38 0 0 1 -3.49,1.49 3.73,3.73 0 0 1 -3.95,-3.74 c 0,-3.19 2.85,-4.7 7.18,-4.69 v -0.16 c 0,-0.65 -0.35,-1.58 -2.25,-1.58 a 7.06,7.06 0 0 0 -3.37,0.92 l -0.7,-2.44 a 10,10 0 0 1 4.76,-1.09 c 4.07,0 5.36,2.4 5.36,5.28 v 4.26 a 18.18,18.18 0 0 0 0.19,3 z m -0.46,-5.79 c -2,0 -3.55,0.47 -3.55,1.93 a 1.37,1.37 0 0 0 1.51,1.46 2.08,2.08 0 0 0 2,-1.4 2.36,2.36 0 0 0 0.07,-0.65 z"
       id="path225"
       style="isolation:isolate" />
    <path
       class="cls-3"
       d="m 176.33,494.29 c 0,-1.52 -0.05,-2.81 -0.1,-3.91 h 3.3 l 0.17,1.7 h 0.08 a 4.44,4.44 0 0 1 3.78,-2 c 2.5,0 4.38,1.66 4.38,5.26 v 7.25 h -3.81 v -6.78 c 0,-1.58 -0.56,-2.66 -1.93,-2.66 a 2,2 0 0 0 -1.93,1.44 2.67,2.67 0 0 0 -0.13,0.94 v 7.06 h -3.81 z"
       id="path227"
       style="isolation:isolate" />
    <path
       class="cls-3"
       d="m 200.16,502.31 a 8.92,8.92 0 0 1 -3.41,0.57 c -3.95,0 -6.47,-2.42 -6.47,-6.26 0,-3.58 2.45,-6.5 7,-6.5 a 8.83,8.83 0 0 1 2.91,0.48 l -0.59,2.82 a 5.25,5.25 0 0 0 -2.13,-0.38 3.4301312,3.4301312 0 0 0 0.06,6.86 5.6,5.6 0 0 0 2.19,-0.4 z"
       id="path229"
       style="isolation:isolate" />
    <path
       class="cls-3"
       d="m 204.91,497.72 c 0.11,1.58 1.67,2.33 3.45,2.33 a 10,10 0 0 0 3.36,-0.52 l 0.52,2.58 a 12,12 0 0 1 -4.43,0.77 c -4.15,0 -6.53,-2.42 -6.53,-6.23 0,-3.11 1.94,-6.54 6.17,-6.54 4,0 5.46,3.08 5.46,6.11 a 7,7 0 0 1 -0.14,1.5 z m 4.46,-2.6 a 2.2,2.2 0 0 0 -2.13,-2.48 2.52,2.52 0 0 0 -2.36,2.48 z"
       id="path231"
       style="isolation:isolate" />
    <path
       class="cls-3"
       d="m 71.4,515.34 a 19.24,19.24 0 0 0 -2.52,10.12 19.51,19.51 0 0 0 2.52,10.07 h -2.65 a 17.63,17.63 0 0 1 -2.85,-10.08 17.82,17.82 0 0 1 2.85,-10.11 z"
       id="path233"
       style="isolation:isolate" />
    <path
       class="cls-3"
       d="m 76.41,520.38 1,5 c 0.24,1.26 0.49,2.61 0.69,4 h 0.06 c 0.23,-1.39 0.6,-2.78 0.9,-4 l 1.28,-5 h 3 l 1.23,4.88 c 0.33,1.39 0.65,2.76 0.89,4.15 v 0 c 0.17,-1.39 0.42,-2.77 0.71,-4.17 l 1,-4.86 H 91 l -3.74,12.24 h -3.6 l -1.14,-4.29 a 38.36,38.36 0 0 1 -0.8,-3.82 v 0 a 31.45,31.45 0 0 1 -0.78,3.8 l -1.23,4.31 h -3.62 l -3.56,-12.24 z"
       id="path235"
       style="isolation:isolate" />
    <path
       class="cls-3"
       d="m 96.67,517 a 1.89,1.89 0 0 1 -2,1.9 1.91,1.91 0 1 1 0,-3.81 1.88,1.88 0 0 1 2,1.91 z m -3.92,15.63 v -12.25 h 3.81 v 12.24 z"
       id="path237"
       style="isolation:isolate" />
    <path
       class="cls-3"
       d="m 103.84,516.89 v 3.49 h 2.74 v 2.81 h -2.74 v 4.43 c 0,1.48 0.37,2.16 1.51,2.16 a 5.11,5.11 0 0 0 1.13,-0.12 v 2.89 a 7.94,7.94 0 0 1 -2.47,0.33 4,4 0 0 1 -2.86,-1.06 5,5 0 0 1 -1.06,-3.63 v -5 H 98.5 v -2.81 h 1.62 v -2.63 z"
       id="path239"
       style="isolation:isolate" />
    <path
       class="cls-3"
       d="m 108.78,514.87 h 3.81 v 7 0 a 4.18,4.18 0 0 1 1.49,-1.27 4.28,4.28 0 0 1 2,-0.48 c 2.43,0 4.29,1.68 4.29,5.37 v 7.14 h -3.81 v -6.73 c 0,-1.61 -0.55,-2.72 -2,-2.72 a 2,2 0 0 0 -1.91,1.35 2.23,2.23 0 0 0 -0.12,0.83 v 7.26 h -3.81 z"
       id="path241"
       style="isolation:isolate" />
    <path
       class="cls-3"
       d="m 128.48,514.87 h 3.81 v 7 h 0.05 a 4.18,4.18 0 0 1 1.49,-1.27 4.29,4.29 0 0 1 2,-0.48 c 2.42,0 4.28,1.68 4.28,5.37 v 7.14 h -3.81 v -6.73 c 0,-1.61 -0.55,-2.72 -2,-2.72 a 2,2 0 0 0 -1.91,1.35 2.23,2.23 0 0 0 -0.12,0.83 v 7.26 h -3.81 z"
       id="path243"
       style="isolation:isolate" />
    <path
       class="cls-3"
       d="m 147,517 a 2,2 0 1 1 -2,-1.91 1.88,1.88 0 0 1 2,1.91 z m -3.91,15.63 v -12.25 h 3.81 v 12.24 z"
       id="path245"
       style="isolation:isolate" />
    <path
       class="cls-3"
       d="m 150,529.3 a 7.39,7.39 0 0 0 3.26,0.91 c 1.15,0 1.64,-0.38 1.64,-1 0,-0.62 -0.39,-0.94 -1.79,-1.41 -2.55,-0.84 -3.5,-2.22 -3.49,-3.66 0,-2.3 1.94,-4 5,-4 a 8.06,8.06 0 0 1 3.45,0.71 l -0.66,2.62 a 6.23,6.23 0 0 0 -2.65,-0.69 c -0.93,0 -1.46,0.37 -1.46,1 0,0.63 0.48,0.89 2,1.41 2.32,0.79 3.3,2 3.31,3.76 0,2.29 -1.78,4 -5.29,4 a 8.77,8.77 0 0 1 -4,-0.86 z"
       id="path247"
       style="isolation:isolate" />
    <path
       class="cls-3"
       d="m 165.07,516.89 v 3.49 h 2.74 v 2.81 h -2.74 v 4.43 c 0,1.48 0.37,2.16 1.5,2.16 a 5,5 0 0 0 1.13,-0.12 v 2.89 a 7.91,7.91 0 0 1 -2.46,0.33 4,4 0 0 1 -2.87,-1.06 5,5 0 0 1 -1.05,-3.63 v -5 h -1.63 v -2.81 h 1.63 v -2.63 z"
       id="path249"
       style="isolation:isolate" />
    <path
       class="cls-3"
       d="m 181.94,526.38 a 6.11,6.11 0 0 1 -6.44,6.51 6,6 0 0 1 -6.32,-6.3 c 0,-4 2.6,-6.48 6.54,-6.48 a 5.93,5.93 0 0 1 6.22,6.27 z m -8.84,0.12 c 0,2.09 0.88,3.67 2.5,3.67 1.62,0 2.42,-1.48 2.42,-3.69 0,-1.8 -0.69,-3.66 -2.41,-3.66 -1.72,0 -2.51,1.87 -2.51,3.68 z"
       id="path251"
       style="isolation:isolate" />
    <path
       class="cls-3"
       d="m 184.3,524.41 c 0,-1.79 0,-3 -0.1,-4 h 3.27 l 0.14,2.27 h 0.09 a 3.59,3.59 0 0 1 3.3,-2.54 3.48,3.48 0 0 1 0.82,0.07 v 3.57 a 5,5 0 0 0 -1,-0.1 2.45,2.45 0 0 0 -2.61,1.93 4.36,4.36 0 0 0 -0.07,0.85 v 6.19 h -3.84 z"
       id="path253"
       style="isolation:isolate" />
    <path
       class="cls-3"
       d="m 197.1,520.38 1.82,6 c 0.21,0.71 0.45,1.63 0.61,2.27 h 0.08 c 0.17,-0.66 0.37,-1.57 0.54,-2.28 l 1.51,-6 h 4.06 l -2.84,8 c -1.75,4.86 -2.92,6.8 -4.3,8 a 6.74,6.74 0 0 1 -3.66,1.68 l -0.82,-3.21 a 5.62,5.62 0 0 0 1.66,-0.64 4.31,4.31 0 0 0 1.56,-1.53 1,1 0 0 0 0.22,-0.55 1.67,1.67 0 0 0 -0.17,-0.63 l -4.48,-11.19 z"
       id="path255"
       style="isolation:isolate" />
    <path
       class="cls-3"
       d="m 206.67,535.53 a 19.55,19.55 0 0 0 2.53,-10.11 19.31,19.31 0 0 0 -2.53,-10.08 h 2.65 a 17.43,17.43 0 0 1 2.85,10.08 17.88,17.88 0 0 1 -2.85,10.11 z"
       id="path257"
       style="isolation:isolate" />
    <path
       class="cls-3"
       d="m 348.31,234.69 a 38.17,38.17 0 0 1 5.34,15.24 36.92,36.92 0 0 1 -1.55,16.07 16.22,16.22 0 0 1 -0.71,1.91 l -0.21,0.51 -0.19,0.47 -0.38,1 a 18.57,18.57 0 0 1 -0.92,1.84 c -0.23,-0.7 -0.46,-1.38 -0.71,-2.05 -0.25,-0.67 -0.6,-1.35 -0.91,-2 a 14.54,14.54 0 0 1 -0.81,1.86 c 0.62,1.63 1.2,3.38 1.71,5.23 1.75,-0.49 3.57,-1.08 5.43,-1.78 a 19.67,19.67 0 0 0 1,-2.25 c -0.7,0.34 -1.4,0.65 -2.09,0.95 -0.69,0.3 -1.48,0.52 -2.2,0.76 a 16.16,16.16 0 0 0 0.95,-1.91 l 0.4,-1 0.21,-0.5 0.21,-0.53 a 17.45,17.45 0 0 0 0.74,-2 38.73,38.73 0 0 0 1.62,-16.8 39.71,39.71 0 0 0 -5.61,-15.94 z"
       id="path259"
       style="isolation:isolate" />
    <path
       class="cls-3"
       d="m 345.91,393 a 87.84,87.84 0 0 1 3.63,13.85 105.52,105.52 0 0 1 1.67,14.28 103.08,103.08 0 0 1 -2.37,28.57 l -0.81,3.51 a 4.42,4.42 0 0 1 -0.16,0.65 v 0.12 l -0.15,0.5 -0.3,1 -0.61,2 c -0.7,-1.31 -1.42,-2.6 -2.14,-3.85 l -0.63,2.06 q 1.35,2.4 2.64,4.93 c 1.64,-0.83 3.29,-1.72 5,-2.65 l 0.68,-2.23 q -2,1.15 -4,2.21 l 0.61,-2 0.31,-1 0.15,-0.51 v -0.12 a 3.51,3.51 0 0 0 0.17,-0.66 l 0.82,-3.56 a 105.12,105.12 0 0 0 2.41,-29 108.31,108.31 0 0 0 -1.7,-14.48 89.1,89.1 0 0 0 -3.72,-14.15 z"
       id="path261"
       style="isolation:isolate" />
    <path
       class="cls-3"
       d="m 348.41,158.52 a 31.23,31.23 0 0 1 7.8,15.12 25.58,25.58 0 0 1 -2.56,16.68 c -0.35,0.63 -0.68,1.27 -1,1.89 l -0.3,0.47 -0.28,0.44 -0.55,0.86 -1.21,1.66 a 33.82,33.82 0 0 0 -0.9,-4.26 l -0.53,0.84 -0.6,0.82 a 40.82,40.82 0 0 1 0.74,5.43 42.27,42.27 0 0 0 5.67,-0.76 l 0.73,-1 0.67,-1.05 a 35.65,35.65 0 0 1 -4.52,0.94 l 1.26,-1.72 0.58,-0.91 0.28,-0.45 0.32,-0.5 c 0.39,-0.65 0.74,-1.32 1.1,-2 a 27.12,27.12 0 0 0 2.71,-17.69 30.76,30.76 0 0 0 -3,-8.55 33,33 0 0 0 -5.24,-7.41 z"
       id="path263"
       style="isolation:isolate" />
    <path
       class="cls-6"
       d="m 356.63,203.63 c 0,43.68 -35.4,119.08 -79.08,119.08 a 79.08,79.08 0 0 1 0,-158.16 c 43.68,0 79.08,-4.55 79.08,39.08 z"
       id="path265"
       style="isolation:isolate;fill:url(#_%C3%82%C3%81_%C3%8F_%C3%8C%C3%8C_%C3%88_%C3%8B%C3%82%C3%8C%C3%9A_126)" />
    <ellipse
       class="cls-7"
       cx="281.20001"
       cy="386.85999"
       rx="130.7"
       ry="75.459999"
       id="ellipse267"
       style="isolation:isolate;fill:url(#radial-gradient)" />
    <path
       class="cls-8"
       d="M 334.08,54.52 H 228.32 V 401.3 h 0.06 c -0.35,8.07 4.76,16.2 15.43,22.36 20.65,11.92 54.13,11.92 74.78,0 10.33,-6 15.49,-13.78 15.49,-21.59 v 0 z"
       id="path269"
       style="isolation:isolate;fill:url(#radial-gradient-2)" />
    <ellipse
       class="cls-9"
       cx="281.20001"
       cy="404.92999"
       rx="52.880001"
       ry="30.530001"
       id="ellipse271"
       style="isolation:isolate" />
    <g
       class="cls-10"
       id="g277"
       style="isolation:isolate">
      <path
         class="cls-11"
         d="m 318.28,346.73 c -10.22,-5.07 -23.66,-7.61 -37.09,-7.61 -13.43,0 -26.86,2.54 -37.09,7.61 -9.79,4.87 -15.18,11.3 -15.18,18.12 0,6.82 5.39,13.24 15.18,18.1 20.46,10.15 53.73,10.15 74.18,0 9.8,-4.86 15.19,-11.29 15.19,-18.1 0,-6.81 -5.39,-13.25 -15.19,-18.12 z"
         id="path273"
         style="fill:url(#radialGradient1131);stroke:url(#radial-gradient-4)" />
      <path
         class="cls-12"
         d="m 318.89,345.83 c -20.79,-10.32 -54.61,-10.32 -75.4,0 -10.18,5.05 -15.79,11.8 -15.79,19 0,4.12 1.84,8.09 5.33,11.69 5.95,8.59 20.59,24 48.87,24 a 56.83,56.83 0 0 0 46.87,-23.46 c 3.87,-3.74 5.92,-7.92 5.92,-12.27 0,-7.15 -5.61,-13.91 -15.8,-18.96 z M 318.28,383 c -20.45,10.15 -53.72,10.15 -74.18,0 -9.79,-4.86 -15.18,-11.3 -15.18,-18.1 0,-6.8 5.39,-13.25 15.18,-18.12 10.23,-5.07 23.66,-7.61 37.09,-7.61 13.43,0 26.87,2.54 37.09,7.61 9.8,4.87 15.19,11.3 15.19,18.12 0,6.82 -5.39,13.19 -15.19,18.1 z"
         id="path275" />
    </g>
    <g
       class="cls-13"
       id="g283"
       style="isolation:isolate">
      <path
         class="cls-14"
         d="M 318.28,272.61 C 308.06,267.54 294.62,265 281.19,265 c -13.43,0 -26.86,2.54 -37.09,7.61 -9.79,4.86 -15.18,11.3 -15.18,18.11 0,6.81 5.39,13.25 15.18,18.11 20.46,10.15 53.73,10.14 74.18,0 9.8,-4.86 15.19,-11.29 15.19,-18.11 0,-6.82 -5.39,-13.25 -15.19,-18.11 z"
         id="path279"
         style="fill:url(#radial-gradient-5);stroke:url(#radial-gradient-6)" />
      <path
         class="cls-12"
         d="m 318.89,271.71 c -20.79,-10.32 -54.61,-10.32 -75.4,0 -10.18,5.05 -15.79,11.8 -15.79,19 0,4.13 1.84,8.1 5.33,11.69 5.95,8.59 20.59,24 48.87,24 A 56.83,56.83 0 0 0 328.77,303 c 3.87,-3.74 5.92,-7.93 5.92,-12.28 0,-7.2 -5.61,-13.96 -15.8,-19.01 z m -0.61,37.12 c -20.45,10.14 -53.72,10.15 -74.18,0 -9.79,-4.86 -15.18,-11.3 -15.18,-18.11 0,-6.81 5.39,-13.25 15.18,-18.11 10.23,-5.07 23.66,-7.61 37.09,-7.61 13.43,0 26.87,2.54 37.09,7.61 9.8,4.86 15.19,11.3 15.19,18.11 0,6.81 -5.39,13.28 -15.19,18.11 z"
         id="path281" />
    </g>
    <g
       class="cls-15"
       id="g289"
       style="isolation:isolate">
      <path
         class="cls-16"
         d="m 318.28,198.49 c -10.22,-5.08 -23.66,-7.61 -37.09,-7.61 -13.43,0 -26.86,2.53 -37.09,7.61 -9.79,4.86 -15.18,11.29 -15.18,18.11 0,6.82 5.39,13.25 15.18,18.11 20.46,10.15 53.73,10.14 74.18,0 9.8,-4.86 15.19,-11.29 15.19,-18.11 0,-6.82 -5.39,-13.25 -15.19,-18.11 z"
         id="path285"
         style="fill:url(#radial-gradient-7);stroke:url(#radial-gradient-8)" />
      <path
         class="cls-12"
         d="m 318.89,197.58 c -20.79,-10.31 -54.61,-10.31 -75.4,0 -10.18,5.06 -15.79,11.81 -15.79,19 0,4.13 1.84,8.1 5.33,11.69 5.95,8.59 20.59,24.05 48.87,24.05 a 56.83,56.83 0 0 0 46.87,-23.46 c 3.87,-3.74 5.92,-7.93 5.92,-12.28 0,-7.18 -5.61,-13.94 -15.8,-19 z m -0.61,37.13 c -20.45,10.14 -53.72,10.15 -74.18,0 -9.79,-4.86 -15.18,-11.3 -15.18,-18.11 0,-6.81 5.39,-13.25 15.18,-18.11 10.23,-5.08 23.66,-7.61 37.09,-7.61 13.43,0 26.87,2.53 37.09,7.61 9.8,4.86 15.19,11.29 15.19,18.11 0,6.82 -5.39,13.25 -15.19,18.11 z"
         id="path287" />
    </g>
    <g
       class="cls-17"
       id="g295"
       style="isolation:isolate">
      <path
         class="cls-18"
         d="m 317.64,124.36 c -10.22,-5.07 -23.66,-7.61 -37.09,-7.61 -13.43,0 -26.86,2.54 -37.09,7.61 -9.79,4.87 -15.18,11.3 -15.18,18.12 0,6.82 5.39,13.24 15.18,18.1 20.46,10.16 53.73,10.15 74.18,0 9.8,-4.86 15.19,-11.29 15.19,-18.1 0,-6.81 -5.39,-13.25 -15.19,-18.12 z"
         id="path291"
         style="fill:url(#radial-gradient-9);stroke:url(#radial-gradient-10)" />
      <path
         class="cls-12"
         d="m 318.25,123.46 c -20.79,-10.32 -54.61,-10.32 -75.4,0 -10.18,5 -15.79,11.8 -15.79,19 0,4.12 1.84,8.1 5.33,11.69 6,8.59 20.59,24 48.87,24 25.73,0 40.39,-14.64 46.87,-23.46 3.87,-3.74 5.92,-7.92 5.92,-12.27 0,-7.15 -5.61,-13.91 -15.8,-18.96 z m -0.61,37.12 c -20.45,10.15 -53.72,10.16 -74.18,0 -9.79,-4.86 -15.18,-11.29 -15.18,-18.1 0,-6.81 5.39,-13.25 15.18,-18.12 10.23,-5.07 23.66,-7.61 37.09,-7.61 13.43,0 26.87,2.54 37.09,7.61 9.8,4.87 16.41,11.3 16.41,18.12 0,6.82 -6.61,13.24 -16.41,18.1 z"
         id="path293" />
    </g>
    <path
       class="cls-3"
       d="m 383.67,435 v -9.43 h -1.61 v -2.8 h 1.61 v -0.46 a 5.65,5.65 0 0 1 1.54,-4.11 5,5 0 0 1 3.39,-1.2 7.27,7.27 0 0 1 2,0.26 l -0.15,2.92 A 4.16,4.16 0 0 0 389.22,420 c -1.25,0 -1.78,1 -1.78,2.17 v 0.62 h 2.45 v 2.8 h -2.42 V 435 Z"
       id="path297"
       style="isolation:isolate" />
    <path
       class="cls-3"
       d="m 403.57,428.78 a 6.12,6.12 0 0 1 -6.44,6.52 6,6 0 0 1 -6.32,-6.31 c 0,-3.94 2.6,-6.48 6.54,-6.48 a 5.93,5.93 0 0 1 6.22,6.27 z m -8.84,0.13 c 0,2.09 0.88,3.67 2.5,3.67 1.62,0 2.42,-1.48 2.42,-3.69 0,-1.8 -0.69,-3.66 -2.41,-3.66 -1.72,0 -2.51,1.87 -2.51,3.68 z"
       id="path299"
       style="isolation:isolate" />
    <path
       class="cls-3"
       d="m 405.93,417.28 h 3.81 V 435 h -3.81 z"
       id="path301"
       style="isolation:isolate" />
    <path
       class="cls-3"
       d="m 424.65,417.28 v 14.09 c 0,1.39 0.05,2.83 0.1,3.65 h -3.38 l -0.16,-1.79 v 0 a 4.27,4.27 0 0 1 -3.83,2.07 c -2.89,0 -5.22,-2.48 -5.22,-6.28 0,-4.11 2.56,-6.51 5.47,-6.51 a 3.69,3.69 0 0 1 3.22,1.39 h 0.05 v -6.62 z m -3.8,10.7 a 4.08,4.08 0 0 0 -0.05,-0.69 2.26,2.26 0 0 0 -2.2,-1.86 c -1.75,0 -2.63,1.55 -2.63,3.48 0,1.93 1,3.36 2.6,3.36 a 2.24,2.24 0 0 0 2.2,-1.83 3.87,3.87 0 0 0 0.08,-0.86 z"
       id="path303"
       style="isolation:isolate" />
  </g>
</svg>
