<?xml version="1.0" encoding="UTF-8" standalone="no"?>
<!-- Created with Inkscape (http://www.inkscape.org/) -->

<svg
   version="1.1"
   id="svg2"
   xml:space="preserve"
   width="213.82481"
   height="466.86493"
   viewBox="0 0 213.82482 466.86493"
   sodipodi:docname="pipes-06-ai-pipe-of-bits.svg"
   inkscape:version="1.1.2 (0a00cf5339, 2022-02-04, custom)"
   xmlns:inkscape="http://www.inkscape.org/namespaces/inkscape"
   xmlns:sodipodi="http://sodipodi.sourceforge.net/DTD/sodipodi-0.dtd"
   xmlns="http://www.w3.org/2000/svg"
   xmlns:svg="http://www.w3.org/2000/svg"><defs
     id="defs6"><radialGradient
       fx="0"
       fy="0"
       cx="0"
       cy="0"
       r="1"
       gradientUnits="userSpaceOnUse"
       gradientTransform="matrix(454.40173,0,0,-454.40173,208.98981,484.65134)"
       spreadMethod="pad"
       id="radialGradient26"><stop
         style="stop-opacity:1;stop-color:#31024a"
         offset="0"
         id="stop22" /><stop
         style="stop-opacity:1;stop-color:#2a023f"
         offset="1"
         id="stop24" /></radialGradient><clipPath
       clipPathUnits="userSpaceOnUse"
       id="clipPath36"><path
         d="M 0,400 H 400 V 0 H 0 Z"
         id="path34" /></clipPath><clipPath
       clipPathUnits="userSpaceOnUse"
       id="clipPath44"><path
         d="M 116.232,328.382 H 274.394 V 170.22 H 116.232 Z"
         id="path42" /></clipPath><radialGradient
       fx="0"
       fy="0"
       cx="0"
       cy="0"
       r="1"
       gradientUnits="userSpaceOnUse"
       gradientTransform="matrix(79.081078,0,0,-79.081078,195.31329,249.30098)"
       spreadMethod="pad"
       id="radialGradient56"><stop
         style="stop-opacity:1;stop-color:#fc2ffd"
         offset="0"
         id="stop50" /><stop
         style="stop-opacity:1;stop-color:#2d0244"
         offset="0.93602284"
         id="stop52" /><stop
         style="stop-opacity:1;stop-color:#2d0244"
         offset="1"
         id="stop54" /></radialGradient><clipPath
       clipPathUnits="userSpaceOnUse"
       id="clipPath78"><path
         d="M 68.2575,141.538 H 329.662 V -9.38359 H 68.2575 Z"
         id="path76" /></clipPath><radialGradient
       fx="0"
       fy="0"
       cx="0"
       cy="0"
       r="1"
       gradientUnits="userSpaceOnUse"
       gradientTransform="matrix(92.419151,-53.359787,-92.419151,-53.359787,198.95975,66.077431)"
       spreadMethod="pad"
       id="radialGradient90"><stop
         style="stop-opacity:1;stop-color:#fc2ffd"
         offset="0"
         id="stop84" /><stop
         style="stop-opacity:1;stop-color:#2d0244"
         offset="0.57032052"
         id="stop86" /><stop
         style="stop-opacity:1;stop-color:#2d0244"
         offset="1"
         id="stop88" /></radialGradient><clipPath
       clipPathUnits="userSpaceOnUse"
       id="clipPath112"><path
         d="M 146.076,319.843 H 251.843 V 52.4757 H 146.076 Z"
         id="path110" /></clipPath><radialGradient
       fx="0"
       fy="0"
       cx="0"
       cy="0"
       r="1"
       gradientUnits="userSpaceOnUse"
       gradientTransform="matrix(304.6655,0,0,-304.6655,198.95975,35.945412)"
       spreadMethod="pad"
       id="radialGradient130"><stop
         style="stop-opacity:1;stop-color:#fe4dfe"
         offset="0"
         id="stop118" /><stop
         style="stop-opacity:1;stop-color:#3874da"
         offset="0.222222"
         id="stop120" /><stop
         style="stop-opacity:1;stop-color:#53a5f8"
         offset="0.4283698"
         id="stop122" /><stop
         style="stop-opacity:1;stop-color:#53a5f8"
         offset="0.44246"
         id="stop124" /><stop
         style="stop-opacity:1;stop-color:#2d0244"
         offset="0.72662342"
         id="stop126" /><stop
         style="stop-opacity:1;stop-color:#2d0244"
         offset="1"
         id="stop128" /></radialGradient><clipPath
       clipPathUnits="userSpaceOnUse"
       id="clipPath152"><path
         d="M 145.576,114.04 H 252.343 V 51.9757 H 145.576 Z"
         id="path150" /></clipPath><clipPath
       clipPathUnits="userSpaceOnUse"
       id="clipPath176"><path
         d="M 145.467,189.807 H 252.452 V 127.57 H 145.467 Z"
         id="path174" /></clipPath><clipPath
       clipPathUnits="userSpaceOnUse"
       id="clipPath192"><path
         d="M 145.467,220.339 H 252.452 V 158.103 H 145.467 Z"
         id="path190" /></clipPath><clipPath
       clipPathUnits="userSpaceOnUse"
       id="clipPath208"><path
         d="M 145.467,250.872 H 252.452 V 188.635 H 145.467 Z"
         id="path206" /></clipPath><clipPath
       clipPathUnits="userSpaceOnUse"
       id="clipPath352"><path
         d="m 167.325,303.194 h 5.227 v -5.226 h -5.227 z"
         id="path350" /></clipPath><clipPath
       clipPathUnits="userSpaceOnUse"
       id="clipPath368"><path
         d="m 231.239,290.453 h 5.227 v -5.226 h -5.227 z"
         id="path366" /></clipPath><clipPath
       clipPathUnits="userSpaceOnUse"
       id="clipPath384"><path
         d="m 203.308,281.404 h 5.227 v -5.227 h -5.227 z"
         id="path382" /></clipPath></defs><sodipodi:namedview
     id="namedview4"
     pagecolor="#505050"
     bordercolor="#ffffff"
     borderopacity="1"
     inkscape:pageshadow="0"
     inkscape:pageopacity="0"
     inkscape:pagecheckerboard="1"
     showgrid="false"
     fit-margin-top="0"
     fit-margin-left="0"
     fit-margin-right="0"
     fit-margin-bottom="0"
     inkscape:zoom="1.3481251"
     inkscape:cx="110.15299"
     inkscape:cy="215.48446"
     inkscape:window-width="1920"
     inkscape:window-height="1003"
     inkscape:window-x="0"
     inkscape:window-y="0"
     inkscape:window-maximized="1"
     inkscape:current-layer="g8" /><g
     id="g8"
     inkscape:groupmode="layer"
     inkscape:label="pipes-06"
     transform="matrix(1.3333333,0,0,-1.3333333,-156.1769,482.28441)"><g
       id="g10"
       transform="matrix(0.40125001,0,0,0.87562502,117.13268,11.463306)"><g
         id="g12"><g
           id="g18"><g
             id="g20"><path
               d="M 0,0 H 400 V 400 H 0 Z"
               style="fill:url(#radialGradient26);stroke:none"
               id="path28" /></g></g></g></g><g
       id="g30"><g
         id="g32"
         clip-path="url(#clipPath36)"><g
           id="g38"><g
             id="g40" /><g
             id="g70"><g
               clip-path="url(#clipPath44)"
               opacity="0.199997"
               id="g68"><g
                 id="g66"><g
                   id="g64"><g
                     id="g62"><g
                       id="g60"><path
                         d="m 274.394,249.301 c 0,-43.675 -35.405,-79.081 -79.081,-79.081 -43.675,0 -79.081,35.406 -79.081,79.081 0,43.675 35.406,79.081 79.081,79.081 43.676,0 79.081,-35.406 79.081,-79.081"
                         style="fill:url(#radialGradient56);stroke:none"
                         id="path58" /></g></g></g></g></g></g></g><g
           id="g72"><g
             id="g74" /><g
             id="g104"><g
               clip-path="url(#clipPath78)"
               opacity="0.199997"
               id="g102"><g
                 id="g100"><g
                   id="g98"><g
                     id="g96"><g
                       id="g94"><path
                         d="m 291.382,12.718 c -51.042,-29.469 -133.798,-29.469 -184.841,10e-4 -51.044,29.47 -51.045,77.249 -0.003,106.718 51.042,29.469 133.798,29.468 184.841,-10e-4 51.043,-29.47 51.044,-77.249 0.003,-106.718"
                         style="fill:url(#radialGradient90);stroke:none"
                         id="path92" /></g></g></g></g></g></g></g><g
           id="g106"><g
             id="g108" /><g
             id="g144"><g
               clip-path="url(#clipPath112)"
               opacity="0.5"
               id="g142"><g
                 id="g140"><g
                   id="g138"><g
                     id="g136"><g
                       id="g134"><path
                         d="M 251.843,319.843 H 146.076 V 83.778 l 0.064,-0.001 c -0.35,-8.068 4.761,-16.201 15.426,-22.358 20.653,-11.924 54.137,-11.924 74.789,-10e-4 10.326,5.962 15.489,13.776 15.488,21.59 z"
                         style="fill:url(#radialGradient130);stroke:none"
                         id="path132" /></g></g></g></g></g></g></g><g
           id="g146"><g
             id="g148" /><g
             id="g164"><g
               clip-path="url(#clipPath152)"
               opacity="0.100006"
               id="g162"><g
                 transform="translate(236.3546,61.418)"
                 id="g156"><path
                   d="M 0,0 C -20.652,-11.923 -54.136,-11.923 -74.789,0.001 -95.441,11.924 -95.442,31.256 -74.79,43.18 -54.138,55.103 -20.654,55.103 -0.001,43.179 20.651,31.256 20.652,11.924 0,0"
                   style="fill:#53a5f8;fill-opacity:1;fill-rule:nonzero;stroke:none"
                   id="path154" /></g><g
                 transform="translate(236.3546,61.418)"
                 id="g160"><path
                   d="M 0,0 C -20.652,-11.923 -54.136,-11.923 -74.789,0.001 -95.441,11.924 -95.442,31.256 -74.79,43.18 -54.138,55.103 -20.654,55.103 -0.001,43.179 20.651,31.256 20.652,11.924 0,0 Z"
                   style="fill:none;stroke:#000000;stroke-width:1;stroke-linecap:butt;stroke-linejoin:miter;stroke-miterlimit:10;stroke-dasharray:none;stroke-opacity:1"
                   id="path158" /></g></g></g></g><g
           id="g166"
           transform="translate(198.9583,158.0733)"><path
             d="m 0,0 c -13.433,0 -26.863,-2.951 -37.089,-8.855 -9.792,-5.653 -15.185,-13.133 -15.185,-21.062 10e-4,-7.929 5.394,-15.409 15.186,-21.063 20.452,-11.807 53.73,-11.805 74.18,0 9.792,5.654 15.184,13.133 15.184,21.061 0,7.93 -5.392,15.409 -15.185,21.064 C 26.865,-2.952 13.432,0 0,0 m 0.002,-61.035 c -13.652,0 -27.305,3 -37.699,9.001 -10.185,5.88 -15.794,13.735 -15.794,22.117 0,8.382 5.609,16.237 15.793,22.117 20.787,12.002 54.609,11.999 75.398,-0.001 10.185,-5.881 15.794,-13.735 15.794,-22.118 0,-8.382 -5.609,-16.235 -15.793,-22.115 -10.393,-6.001 -24.046,-9.001 -37.699,-9.001"
             style="fill:#53a5f8;fill-opacity:1;fill-rule:nonzero;stroke:none"
             id="path168" /></g><g
           id="g170"><g
             id="g172" /><g
             id="g184"><g
               clip-path="url(#clipPath176)"
               opacity="0.5"
               id="g182"><g
                 transform="translate(198.9573,188.6065)"
                 id="g180"><path
                   d="m 0,0 c -13.432,0 -26.863,-2.952 -37.088,-8.855 -9.792,-5.654 -15.185,-13.134 -15.185,-21.063 0.001,-7.929 5.394,-15.409 15.186,-21.062 20.452,-11.807 53.73,-11.807 74.18,0 9.792,5.653 15.184,13.132 15.184,21.06 0,7.93 -5.392,15.409 -15.185,21.064 C 26.866,-2.952 13.433,0 0,0 m 0.003,-61.036 c -13.652,0 -27.305,3 -37.699,9.001 -10.185,5.88 -15.794,13.735 -15.794,22.117 0,8.382 5.609,16.237 15.793,22.117 20.787,12.001 54.609,12.002 75.398,-10e-4 10.185,-5.881 15.794,-13.735 15.794,-22.118 0,-8.382 -5.609,-16.235 -15.793,-22.115 -10.393,-6.001 -24.046,-9.001 -37.699,-9.001"
                   style="fill:#53a5f8;fill-opacity:1;fill-rule:nonzero;stroke:none"
                   id="path178" /></g></g></g></g><g
           id="g186"><g
             id="g188" /><g
             id="g200"><g
               clip-path="url(#clipPath192)"
               opacity="0.300003"
               id="g198"><g
                 transform="translate(198.9573,219.1387)"
                 id="g196"><path
                   d="m 0,0 c -13.432,0 -26.863,-2.952 -37.088,-8.855 -9.792,-5.654 -15.185,-13.134 -15.185,-21.063 0.001,-7.929 5.394,-15.408 15.186,-21.062 20.451,-11.808 53.731,-11.807 74.18,0 9.792,5.653 15.184,13.132 15.184,21.06 0,7.93 -5.392,15.409 -15.185,21.063 C 26.866,-2.952 13.433,0 0,0 m 0.005,-61.036 c -13.654,0 -27.306,3 -37.701,9.002 -10.185,5.88 -15.793,13.734 -15.794,22.116 0,8.382 5.608,16.237 15.793,22.117 20.787,12.001 54.609,12.002 75.398,-10e-4 10.185,-5.881 15.794,-13.735 15.794,-22.118 0,-8.382 -5.609,-16.235 -15.793,-22.115 -10.392,-6 -24.046,-9.001 -37.697,-9.001"
                   style="fill:#53a5f8;fill-opacity:1;fill-rule:nonzero;stroke:none"
                   id="path194" /></g></g></g></g><g
           id="g202"><g
             id="g204" /><g
             id="g216"><g
               clip-path="url(#clipPath208)"
               opacity="0.100006"
               id="g214"><g
                 transform="translate(198.9583,249.6709)"
                 id="g212"><path
                   d="m 0,0 c -13.433,0 -26.864,-2.952 -37.089,-8.855 -9.792,-5.654 -15.184,-13.133 -15.185,-21.062 0,-7.929 5.394,-15.409 15.186,-21.063 20.45,-11.808 53.73,-11.807 74.18,0 9.792,5.653 15.184,13.133 15.184,21.061 0,7.93 -5.392,15.41 -15.185,21.064 C 26.864,-2.952 13.432,0 0,0 m 0.004,-61.036 c -13.654,0 -27.306,3 -37.701,9.002 -10.185,5.88 -15.794,13.735 -15.794,22.117 0,8.382 5.609,16.236 15.793,22.116 20.787,12.002 54.609,12.002 75.398,0 10.185,-5.881 15.794,-13.735 15.794,-22.118 0,-8.382 -5.608,-16.236 -15.793,-22.116 -10.392,-6 -24.046,-9.001 -37.697,-9.001"
                   style="fill:#53a5f8;fill-opacity:1;fill-rule:nonzero;stroke:none"
                   id="path210" /></g></g></g></g><g
           id="g218"
           transform="translate(223.9635,100.5758)"><path
             d="m 0,0 c 0,-1.443 -1.17,-2.613 -2.613,-2.613 -1.444,0 -2.614,1.17 -2.614,2.613 0,1.443 1.17,2.613 2.614,2.613 C -1.17,2.613 0,1.443 0,0"
             style="fill:#6bd2fe;fill-opacity:1;fill-rule:nonzero;stroke:none"
             id="path220" /></g><g
           id="g222"
           transform="translate(231.9541,103.189)"><path
             d="m 0,0 c 0,-1.443 -1.17,-2.613 -2.613,-2.613 -1.444,0 -2.614,1.17 -2.614,2.613 0,1.443 1.17,2.613 2.614,2.613 C -1.17,2.613 0,1.443 0,0"
             style="fill:#6bd2fe;fill-opacity:1;fill-rule:nonzero;stroke:none"
             id="path224" /></g><g
           id="g226"
           transform="translate(239.0273,106.5381)"><path
             d="m 0,0 c 0,-1.443 -1.17,-2.613 -2.613,-2.613 -1.444,0 -2.614,1.17 -2.614,2.613 0,1.443 1.17,2.613 2.614,2.613 C -1.17,2.613 0,1.443 0,0"
             style="fill:#6bd2fe;fill-opacity:1;fill-rule:nonzero;stroke:none"
             id="path228" /></g><g
           id="g230"
           transform="translate(245.0341,110.9271)"><path
             d="m 0,0 c 0,-1.443 -1.17,-2.613 -2.613,-2.613 -1.444,0 -2.614,1.17 -2.614,2.613 0,1.443 1.17,2.613 2.614,2.613 C -1.17,2.613 0,1.443 0,0"
             style="fill:#6bd2fe;fill-opacity:1;fill-rule:nonzero;stroke:none"
             id="path232" /></g><g
           id="g234"
           transform="translate(250.6085,116.5772)"><path
             d="m 0,0 c 0,-1.443 -1.17,-2.613 -2.613,-2.613 -1.444,0 -2.614,1.17 -2.614,2.613 0,1.443 1.17,2.613 2.614,2.613 C -1.17,2.613 0,1.443 0,0"
             style="fill:#6bd2fe;fill-opacity:1;fill-rule:nonzero;stroke:none"
             id="path236" /></g><g
           id="g238"
           transform="translate(207.2175,98.2389)"><path
             d="m 0,0 c 0,-1.443 -1.17,-2.613 -2.613,-2.613 -1.444,0 -2.614,1.17 -2.614,2.613 0,1.443 1.17,2.613 2.614,2.613 C -1.17,2.613 0,1.443 0,0"
             style="fill:#6bd2fe;fill-opacity:1;fill-rule:nonzero;stroke:none"
             id="path240" /></g><g
           id="g242"
           transform="translate(215.4555,99.1846)"><path
             d="m 0,0 c 0,-1.443 -1.17,-2.613 -2.613,-2.613 -1.443,0 -2.613,1.17 -2.613,2.613 0,1.443 1.17,2.613 2.613,2.613 C -1.17,2.613 0,1.443 0,0"
             style="fill:#6bd2fe;fill-opacity:1;fill-rule:nonzero;stroke:none"
             id="path244" /></g><g
           id="g246"
           transform="translate(198.9597,97.5174)"><path
             d="m 0,0 c 0,-1.443 -1.17,-2.613 -2.613,-2.613 -1.443,0 -2.613,1.17 -2.613,2.613 0,1.443 1.17,2.613 2.613,2.613 C -1.17,2.613 0,1.443 0,0"
             style="fill:#6bd2fe;fill-opacity:1;fill-rule:nonzero;stroke:none"
             id="path248" /></g><g
           id="g250"
           transform="translate(171.1125,133.5114)"><path
             d="m 0,0 c 0,-1.443 -1.17,-2.613 -2.613,-2.613 -1.443,0 -2.613,1.17 -2.613,2.613 0,1.443 1.17,2.613 2.613,2.613 C -1.17,2.613 0,1.443 0,0"
             style="fill:#6bd2fe;fill-opacity:1;fill-rule:nonzero;stroke:none"
             id="path252" /></g><g
           id="g254"
           transform="translate(151.9113,180.1087)"><path
             d="m 0,0 c 0,-1.443 -1.17,-2.613 -2.613,-2.613 -1.443,0 -2.613,1.17 -2.613,2.613 0,1.443 1.17,2.613 2.613,2.613 C -1.17,2.613 0,1.443 0,0"
             style="fill:#53a5f8;fill-opacity:1;fill-rule:nonzero;stroke:none"
             id="path256" /></g><g
           id="g258"
           transform="translate(155.5179,173.9543)"><path
             d="m 0,0 c 0,-1.443 -1.17,-2.613 -2.613,-2.613 -1.443,0 -2.613,1.17 -2.613,2.613 0,1.443 1.17,2.613 2.613,2.613 C -1.17,2.613 0,1.443 0,0"
             style="fill:#53a5f8;fill-opacity:1;fill-rule:nonzero;stroke:none"
             id="path260" /></g><g
           id="g262"
           transform="translate(160.7443,170.2034)"><path
             d="m 0,0 c 0,-1.443 -1.17,-2.613 -2.613,-2.613 -1.443,0 -2.613,1.17 -2.613,2.613 0,1.443 1.17,2.613 2.613,2.613 C -1.17,2.613 0,1.443 0,0"
             style="fill:#53a5f8;fill-opacity:1;fill-rule:nonzero;stroke:none"
             id="path264" /></g><g
           id="g266"
           transform="translate(165.9708,166.5968)"><path
             d="m 0,0 c 0,-1.443 -1.17,-2.613 -2.613,-2.613 -1.443,0 -2.613,1.17 -2.613,2.613 0,1.443 1.17,2.613 2.613,2.613 C -1.17,2.613 0,1.443 0,0"
             style="fill:#53a5f8;fill-opacity:1;fill-rule:nonzero;stroke:none"
             id="path268" /></g><g
           id="g270"
           transform="translate(172.5516,163.9836)"><path
             d="m 0,0 c 0,-1.443 -1.17,-2.613 -2.613,-2.613 -1.443,0 -2.613,1.17 -2.613,2.613 0,1.443 1.17,2.613 2.613,2.613 C -1.17,2.613 0,1.443 0,0"
             style="fill:#53a5f8;fill-opacity:1;fill-rule:nonzero;stroke:none"
             id="path272" /></g><g
           id="g274"
           transform="translate(179.5134,161.9162)"><path
             d="m 0,0 c 0,-1.443 -1.17,-2.613 -2.613,-2.613 -1.443,0 -2.613,1.17 -2.613,2.613 0,1.443 1.17,2.613 2.613,2.613 C -1.17,2.613 0,1.443 0,0"
             style="fill:#53a5f8;fill-opacity:1;fill-rule:nonzero;stroke:none"
             id="path276" /></g><g
           id="g278"
           transform="translate(186.0052,160.7158)"><path
             d="m 0,0 c 0,-1.443 -1.17,-2.613 -2.613,-2.613 -1.443,0 -2.613,1.17 -2.613,2.613 0,1.443 1.17,2.613 2.613,2.613 C -1.17,2.613 0,1.443 0,0"
             style="fill:#53a5f8;fill-opacity:1;fill-rule:nonzero;stroke:none"
             id="path280" /></g><g
           id="g282"
           transform="translate(192.9299,159.2737)"><path
             d="m 0,0 c 0,-1.443 -1.17,-2.613 -2.613,-2.613 -1.443,0 -2.613,1.17 -2.613,2.613 0,1.443 1.17,2.613 2.613,2.613 C -1.17,2.613 0,1.443 0,0"
             style="fill:#53a5f8;fill-opacity:1;fill-rule:nonzero;stroke:none"
             id="path284" /></g><g
           id="g286"
           transform="translate(177.778,132.0302)"><path
             d="m 0,0 c 0,-1.443 -1.17,-2.613 -2.613,-2.613 -1.443,0 -2.613,1.17 -2.613,2.613 0,1.443 1.17,2.613 2.613,2.613 C -1.17,2.613 0,1.443 0,0"
             style="fill:#6bd2fe;fill-opacity:1;fill-rule:nonzero;stroke:none"
             id="path288" /></g><g
           id="g290"
           transform="translate(184.7398,130.1835)"><path
             d="m 0,0 c 0,-1.443 -1.17,-2.613 -2.613,-2.613 -1.443,0 -2.613,1.17 -2.613,2.613 0,1.443 1.17,2.613 2.613,2.613 C -1.17,2.613 0,1.443 0,0"
             style="fill:#6bd2fe;fill-opacity:1;fill-rule:nonzero;stroke:none"
             id="path292" /></g><g
           id="g294"
           transform="translate(191.9979,129.417)"><path
             d="m 0,0 c 0,-1.443 -1.17,-2.613 -2.613,-2.613 -1.443,0 -2.613,1.17 -2.613,2.613 0,1.443 1.17,2.613 2.613,2.613 C -1.17,2.613 0,1.443 0,0"
             style="fill:#6bd2fe;fill-opacity:1;fill-rule:nonzero;stroke:none"
             id="path296" /></g><g
           id="g298"
           transform="translate(198.9597,128.7711)"><path
             d="m 0,0 c 0,-1.443 -1.17,-2.613 -2.613,-2.613 -1.443,0 -2.613,1.17 -2.613,2.613 0,1.443 1.17,2.613 2.613,2.613 C -1.17,2.613 0,1.443 0,0"
             style="fill:#6bd2fe;fill-opacity:1;fill-rule:nonzero;stroke:none"
             id="path300" /></g><g
           id="g302"
           transform="translate(205.9215,128.7711)"><path
             d="m 0,0 c 0,-1.443 -1.17,-2.613 -2.613,-2.613 -1.443,0 -2.613,1.17 -2.613,2.613 0,1.443 1.17,2.613 2.613,2.613 C -1.17,2.613 0,1.443 0,0"
             style="fill:#6bd2fe;fill-opacity:1;fill-rule:nonzero;stroke:none"
             id="path304" /></g><g
           id="g306"
           transform="translate(212.8423,129.417)"><path
             d="m 0,0 c 0,-1.443 -1.17,-2.613 -2.613,-2.613 -1.443,0 -2.613,1.17 -2.613,2.613 0,1.443 1.17,2.613 2.613,2.613 C -1.17,2.613 0,1.443 0,0"
             style="fill:#6bd2fe;fill-opacity:1;fill-rule:nonzero;stroke:none"
             id="path308" /></g><g
           id="g310"
           transform="translate(219.8041,130.1835)"><path
             d="m 0,0 c 0,-1.443 -1.17,-2.613 -2.613,-2.613 -1.443,0 -2.613,1.17 -2.613,2.613 0,1.443 1.17,2.613 2.613,2.613 C -1.17,2.613 0,1.443 0,0"
             style="fill:#6bd2fe;fill-opacity:1;fill-rule:nonzero;stroke:none"
             id="path312" /></g><g
           id="g314"
           transform="translate(242.2263,200.3555)"><path
             d="m 0,0 c 0,-1.443 -1.17,-2.613 -2.613,-2.613 -1.443,0 -2.613,1.17 -2.613,2.613 0,1.443 1.17,2.613 2.613,2.613 C -1.17,2.613 0,1.443 0,0"
             style="fill:#6bd2fe;fill-opacity:1;fill-rule:nonzero;stroke:none"
             id="path316" /></g><g
           id="g318"
           transform="translate(236.4658,196.3754)"><path
             d="m 0,0 c 0,-1.443 -1.17,-2.613 -2.613,-2.613 -1.443,0 -2.613,1.17 -2.613,2.613 0,1.443 1.17,2.613 2.613,2.613 C -1.17,2.613 0,1.443 0,0"
             style="fill:#6bd2fe;fill-opacity:1;fill-rule:nonzero;stroke:none"
             id="path320" /></g><g
           id="g322"
           transform="translate(230.0217,193.7622)"><path
             d="m 0,0 c 0,-1.443 -1.17,-2.613 -2.613,-2.613 -1.443,0 -2.613,1.17 -2.613,2.613 0,1.443 1.17,2.613 2.613,2.613 C -1.17,2.613 0,1.443 0,0"
             style="fill:#6bd2fe;fill-opacity:1;fill-rule:nonzero;stroke:none"
             id="path324" /></g><g
           id="g326"
           transform="translate(223.5777,191.8341)"><path
             d="m 0,0 c 0,-1.443 -1.17,-2.613 -2.613,-2.613 -1.443,0 -2.613,1.17 -2.613,2.613 0,1.443 1.17,2.613 2.613,2.613 C -1.17,2.613 0,1.443 0,0"
             style="fill:#6bd2fe;fill-opacity:1;fill-rule:nonzero;stroke:none"
             id="path328" /></g><g
           id="g330"
           transform="translate(216.8408,190.2719)"><path
             d="m 0,0 c 0,-1.443 -1.17,-2.613 -2.613,-2.613 -1.443,0 -2.613,1.17 -2.613,2.613 0,1.443 1.17,2.613 2.613,2.613 C -1.17,2.613 0,1.443 0,0"
             style="fill:#6bd2fe;fill-opacity:1;fill-rule:nonzero;stroke:none"
             id="path332" /></g><g
           id="g334"
           transform="translate(210.0687,189.8067)"><path
             d="m 0,0 c 0,-1.443 -1.17,-2.613 -2.613,-2.613 -1.443,0 -2.613,1.17 -2.613,2.613 0,1.443 1.17,2.613 2.613,2.613 C -1.17,2.613 0,1.443 0,0"
             style="fill:#6bd2fe;fill-opacity:1;fill-rule:nonzero;stroke:none"
             id="path336" /></g><g
           id="g338"
           transform="translate(203.2967,189.2208)"><path
             d="m 0,0 c 0,-1.443 -1.17,-2.613 -2.613,-2.613 -1.443,0 -2.613,1.17 -2.613,2.613 0,1.443 1.17,2.613 2.613,2.613 C -1.17,2.613 0,1.443 0,0"
             style="fill:#6bd2fe;fill-opacity:1;fill-rule:nonzero;stroke:none"
             id="path340" /></g><g
           id="g342"
           transform="translate(195.5432,189.2208)"><path
             d="m 0,0 c 0,-1.443 -1.17,-2.613 -2.613,-2.613 -1.443,0 -2.613,1.17 -2.613,2.613 0,1.443 1.17,2.613 2.613,2.613 C -1.17,2.613 0,1.443 0,0"
             style="fill:#6bd2fe;fill-opacity:1;fill-rule:nonzero;stroke:none"
             id="path344" /></g><g
           id="g346"><g
             id="g348" /><g
             id="g360"><g
               clip-path="url(#clipPath352)"
               opacity="0.320007"
               id="g358"><g
                 transform="translate(172.5516,300.5812)"
                 id="g356"><path
                   d="m 0,0 c 0,-1.443 -1.17,-2.613 -2.613,-2.613 -1.443,0 -2.613,1.17 -2.613,2.613 0,1.443 1.17,2.613 2.613,2.613 C -1.17,2.613 0,1.443 0,0"
                   style="fill:#6bd2fe;fill-opacity:1;fill-rule:nonzero;stroke:none"
                   id="path354" /></g></g></g></g><g
           id="g362"><g
             id="g364" /><g
             id="g376"><g
               clip-path="url(#clipPath368)"
               opacity="0.570007"
               id="g374"><g
                 transform="translate(236.4658,287.8402)"
                 id="g372"><path
                   d="m 0,0 c 0,-1.443 -1.17,-2.613 -2.613,-2.613 -1.443,0 -2.613,1.17 -2.613,2.613 0,1.443 1.17,2.613 2.613,2.613 C -1.17,2.613 0,1.443 0,0"
                   style="fill:#6bd2fe;fill-opacity:1;fill-rule:nonzero;stroke:none"
                   id="path370" /></g></g></g></g><g
           id="g378"><g
             id="g380" /><g
             id="g392"><g
               clip-path="url(#clipPath384)"
               opacity="0.610001"
               id="g390"><g
                 transform="translate(208.5347,278.7907)"
                 id="g388"><path
                   d="m 0,0 c 0,-1.443 -1.17,-2.613 -2.613,-2.613 -1.443,0 -2.613,1.17 -2.613,2.613 0,1.443 1.17,2.613 2.613,2.613 C -1.17,2.613 0,1.443 0,0"
                   style="fill:#6bd2fe;fill-opacity:1;fill-rule:nonzero;stroke:none"
                   id="path386" /></g></g></g></g></g></g></g></svg>
