<svg id="_ÎÓÈ_1" data-name="—ÎÓÈ_1" xmlns="http://www.w3.org/2000/svg" viewBox="0 0 377.27 210.2"><defs><style>.cls-1,.cls-12{fill:#fff;}.cls-2{fill:#ffb27d;}.cls-3{fill:#2c3a64;}.cls-4{fill:#afcdfb;}.cls-5{fill:#233862;}.cls-6{fill:#ed985f;}.cls-7{fill:#f99746;}.cls-8{fill:#535ef8;}.cls-9{fill:#5375f8;}.cls-10{fill:#ed7d2b;}.cls-11{fill:#2a023f;}.cls-12{font-size:14.4px;font-family:MyriadPro-Regular, Myriad Pro;}.cls-13{fill:#1d1d1d;}</style></defs><rect class="cls-1" x="-13.68" y="-14.22" width="407.88" height="236.59"/><path class="cls-2" d="M28.94,112.27s.28-1.38-.15-1.48-.5.87-.5.87-1.38-2-2.27-.88,1.75,2.57,1.75,2.57Z"/><path class="cls-2" d="M42.56,117.06c-2.35,0-6.66-2.6-6.66-5.77v-5c0-3.16,3.37-5.39,6.94-5.39,5.24,0,6.38,4.23,6.38,5.39V111C49.22,114.34,45.25,117.1,42.56,117.06Z"/><rect class="cls-2" x="35.49" y="115.78" width="14.11" height="17.39" rx="7.05"/><path class="cls-2" d="M39.56,116.13a4.22,4.22,0,0,1-2.67.21c-1.73-.61-3.7-.8-4.09-1.15-.67-.58-3.86-2.92-3.86-2.92l-1.17,1.08s2.1,4.94,3.27,5.7,3.53,3.71,6.69,3.68C39.38,122.71,39.56,116.13,39.56,116.13Z"/><path class="cls-1" d="M40.14,112.86a3,3,0,0,0,2.22,1.27,3.14,3.14,0,0,0,2.19-1.27A4.29,4.29,0,0,0,40.14,112.86Z"/><path class="cls-3" d="M40.67,101.74s-.85,1.64,0,2.7,3.12.42,3.12.42-.9-.37-.9-.74c0,0,1.38.69,2.12-.05s.25-3-.46-3.44S41,100.39,40.67,101.74Z"/><path class="cls-2" d="M45.62,116.13a4.21,4.21,0,0,0,2.67.21c1.72-.61,3.69-.8,4.09-1.15.67-.58,3.85-2.92,3.85-2.92l1.17,1.08s-2.09,4.94-3.26,5.7-3.53,3.71-6.7,3.68C45.8,122.71,45.62,116.13,45.62,116.13Z"/><path class="cls-2" d="M56.23,112.27s-.27-1.38.15-1.48.5.87.5.87,1.38-2,2.28-.88-1.76,2.57-1.76,2.57Z"/><path class="cls-2" d="M35,126.18s-3.24,2.4-5,3.39a13.38,13.38,0,0,0-3.56,2.87c0,.22.38,2,1.35,2.12s11-.68,12.36-1.57C40.13,133,37.5,126.24,35,126.18Z"/><path class="cls-1" d="M25.73,128.75a4.36,4.36,0,0,1,3,.77,1.06,1.06,0,0,0,1.21,0,3.73,3.73,0,0,1,2.11,4.76s-3.69.6-4.32.23S25.73,128.75,25.73,128.75Z"/><path class="cls-4" d="M27.77,134.56a3,3,0,0,1-2.65-1.76c-.74-1.75-.8-3.55.37-4a2.08,2.08,0,0,1,2.59.85C28.6,130.47,30.43,134.05,27.77,134.56Z"/><path class="cls-2" d="M49.68,126.18s3.24,2.4,5,3.39a13.38,13.38,0,0,1,3.56,2.87c0,.22-.38,2-1.35,2.12s-11-.68-12.36-1.57C44.55,133,47.17,126.24,49.68,126.18Z"/><path class="cls-1" d="M59,128.75a4.36,4.36,0,0,0-3,.77,1.06,1.06,0,0,1-1.21,0,3.74,3.74,0,0,0-2.12,4.76s3.7.6,4.33.23S59,128.75,59,128.75Z"/><path class="cls-4" d="M56.91,134.56a3,3,0,0,0,2.65-1.76c.74-1.75.8-3.55-.37-4a2.08,2.08,0,0,0-2.59.85C56.07,130.47,54.25,134.05,56.91,134.56Z"/><path class="cls-1" d="M35.49,123.94s5.64,3.16,14.1.53a8.25,8.25,0,0,1,1,1.11,2.3,2.3,0,0,1,.44,1.56s-5,2.47-5.38,6.23c0,0-4.21,1.54-6.06-.14,0,0-2.72-6.13-5.38-6.45A6.22,6.22,0,0,1,35.49,123.94Z"/><path class="cls-5" d="M171.51,151.41a12,12,0,0,1,.31-2.92c.31-.73,1.45-3.69,1.45-3.69h4.48a28.35,28.35,0,0,1,.89,3.59c.05.88,0,3,0,3Z"/><path class="cls-5" d="M199.92,151.41a12,12,0,0,0-.31-2.92c-.31-.73-1.45-3.69-1.45-3.69h-4.48a28.35,28.35,0,0,0-.89,3.59c0,.88,0,3,0,3Z"/><path class="cls-2" d="M182,28.42a42.41,42.41,0,0,1-.78,7.07l-4.94,3.44,18.6,2.79-4.43-6.13s-1.34-6.54-.64-9S182,28.42,182,28.42Z"/><path class="cls-6" d="M182,29.09s1.47,3.55,4.24,3.47,3.4-3.21,3.4-3.21Z"/><path class="cls-3" d="M180.31,26.23a43.49,43.49,0,0,0-1.52-5.82c-.62-1.36-1.14-7.4,5.78-7.71,0,0,2.65.31,4.11-.57,0,0,0,.88-.36,1.2a4.56,4.56,0,0,1,4.26,1.51c1.88,2.08-1.24,9.36-1.09,11.08Z"/><path class="cls-2" d="M191.59,20v4.88a5.67,5.67,0,0,1-.5,2.31h0a7.45,7.45,0,0,1-2.5,3,4.84,4.84,0,0,1-2.7,1,5.22,5.22,0,0,1-2.57-1,7.23,7.23,0,0,1-2.88-3.55v0l0-.07a4.72,4.72,0,0,1-.22-1.41V20a2.06,2.06,0,0,1,1.87-2.2h7.66A2.06,2.06,0,0,1,191.59,20Z"/><path class="cls-3" d="M180.19,22.76s0-3.1,2.47-3.58,8,1.51,8.74-.75-10.64-2.23-11.21-.78S180.19,22.76,180.19,22.76Z"/><path class="cls-7" d="M172.07,75.53s.78,23.91-.39,37.55,0,32.64,0,32.64a8.86,8.86,0,0,0,7.8,0s4.45-26.36,4.43-32.64c0-6.68,4.84-36.51,4.84-36.51Z"/><path class="cls-7" d="M199.76,145.72a8.86,8.86,0,0,1-7.8,0s-4.45-26.36-4.42-32.64c0-2.82-.85-9.77-1.85-16.86-1.37-9.7-3-19.65-3-19.65L200,75.48s-1.43,24-.26,37.6S199.76,145.72,199.76,145.72Z"/><path class="cls-8" d="M199.82,79.5a86.23,86.23,0,0,1-14.13,1.44,68.48,68.48,0,0,1-8.69-.67c-2.81-.37-4.83-.77-4.83-.77s-1.5.13-.61-7.26a104.19,104.19,0,0,0,.31-15.92c0-.58,0-1.27,0-2,.29-6.1,2.13-17.06,3.53-17.65a25.37,25.37,0,0,1,5.78-1.15c0,.07,2.14,3.2,4.68,3.55a8.87,8.87,0,0,0,4.55-3.45A49.7,49.7,0,0,1,197.56,37s.27,1.16,1.27,21.32C199.23,66.26,202,79.53,199.82,79.5Z"/><path class="cls-9" d="M177,80.27c-2.81-.37-4.83-.77-4.83-.77s-1.5.13-.61-7.26a104.19,104.19,0,0,0,.31-15.92c0-.58,0-1.27,0-2,.43.69,5.23,8.44,6.53,14.21C179.37,72.7,178,77.66,177,80.27Z"/><path class="cls-10" d="M187.54,113.08c0-2.82-.85-9.77-1.85-16.86a33.26,33.26,0,0,1,3.56-8.31C192.45,96.89,187.54,113.08,187.54,113.08Z"/><path class="cls-8" d="M165,60.63c-.18.15.44,1.67,1.34,3.66,1.87,4.08,5,10.1,5,10.1a18.08,18.08,0,0,1-.94,2.75A65.29,65.29,0,0,1,159.69,66.9c-3-3.76-3.63-5.91-3.63-5.91,11.6-23.61,19.76-24.48,19.76-24.48l-1,15.61Z"/><path class="cls-2" d="M170.72,74.69s2.81-2.6,4-1.14,1.35,3.74.47,3.59-2.71-1-3-.58-1.42,1.22-1.78.58S170.72,74.69,170.72,74.69Z"/><path class="cls-2" d="M171.34,74.39a18.08,18.08,0,0,1-.94,2.75A65.29,65.29,0,0,1,159.69,66.9a13.36,13.36,0,0,0,6.69-2.61C168.25,68.37,171.34,74.39,171.34,74.39Z"/><path class="cls-8" d="M216.14,61s-.62,2.15-3.63,5.91a65.86,65.86,0,0,1-10.72,10.24,18.08,18.08,0,0,1-.94-2.75s3.1-6,5-10.1c.91-2,1.53-3.51,1.35-3.66-.42-.35-6.09-5.27-8.62-7.47l-1.2-1-.58-15.38S204.54,37.38,216.14,61Z"/><path class="cls-2" d="M201.47,74.69s-2.81-2.6-3.95-1.14-1.36,3.74-.47,3.59,2.7-1,3-.58,1.43,1.22,1.78.58S201.47,74.69,201.47,74.69Z"/><path class="cls-2" d="M200.85,74.39a18.08,18.08,0,0,0,.94,2.75A65.29,65.29,0,0,0,212.5,66.9a13.43,13.43,0,0,1-6.69-2.61C204,68.37,200.85,74.39,200.85,74.39Z"/><path class="cls-3" d="M188.59,28.06v2.15a4.84,4.84,0,0,1-2.7,1,5.22,5.22,0,0,1-2.57-1V28.06a2.19,2.19,0,0,1,2.18-2.18h.91A2.19,2.19,0,0,1,188.59,28.06Z"/><path class="cls-3" d="M191.09,27.19c-1,2.35-3.44,4-5.2,4s-4.59-1.94-5.45-4.52v0l0-.07s1.82,1.56,3,.79h5.06A2.5,2.5,0,0,0,191.09,27.19Z"/><path class="cls-2" d="M186.5,27.8h-1.09c-.25,0-.57-.41-.57-.66a1.21,1.21,0,0,1,.57-.25h1.09a.92.92,0,0,1,.68.35A.75.75,0,0,1,186.5,27.8Z"/><path class="cls-1" d="M184.3,27a2.1,2.1,0,0,0,1.71,1,2,2,0,0,0,1.61-1A8.68,8.68,0,0,0,184.3,27Z"/><rect class="cls-11" x="297.58" y="120.88" width="48.68" height="13.62"/><path class="cls-11" d="M321.92,83.51c-7.78,0-16.64,6.89-16.64,18.53v18.84h33.28V102C338.56,90.4,329.7,83.51,321.92,83.51Z"/><text class="cls-12" transform="translate(312.72 109.06)">RIP</text><path class="cls-13" d="M89.63,120.11a45.82,45.82,0,0,1,18.8-5.78,47.3,47.3,0,0,1,9.88.25l1.23.16c.41.06.81.15,1.22.22.81.17,1.62.29,2.42.52l1.2.31a12.34,12.34,0,0,1,1.19.33l.9.29,1.7-5.24a42.7,42.7,0,0,1,4.22,9.16,37.29,37.29,0,0,0-8.46,3.92l1.7-5.25-.84-.27c-.37-.13-.75-.22-1.12-.32l-1.13-.29c-.75-.21-1.52-.32-2.28-.48-.38-.07-.76-.15-1.14-.21l-1.16-.15a45.18,45.18,0,0,0-9.3-.24A43.14,43.14,0,0,0,91,122.47Z"/><polygon class="cls-13" points="236.71 186.96 270.85 186.75 270.81 181.29 277.66 188.05 270.9 194.9 270.86 189.44 236.72 189.65 236.71 186.96"/><polygon class="cls-13" points="90.54 186.96 124.68 186.75 124.64 181.29 131.49 188.05 124.73 194.9 124.69 189.44 90.56 189.65 90.54 186.96"/><path d="M304,180.65h2.56v7.16c0,3.22-1.55,4.35-4,4.35a6.33,6.33,0,0,1-1.88-.27l.29-2.06a4.46,4.46,0,0,0,1.31.2c1.07,0,1.75-.49,1.75-2.25Z"/><path d="M316.7,187.78a4.12,4.12,0,0,1-4.34,4.38,4,4,0,0,1-4.24-4.24,4.1,4.1,0,0,1,4.39-4.35A4,4,0,0,1,316.7,187.78Zm-5.95.09c0,1.4.59,2.46,1.68,2.46s1.63-1,1.63-2.48c0-1.21-.47-2.46-1.62-2.46S310.75,186.65,310.75,187.87Z"/><path d="M318.28,180.05h2.56v4.69h0a3,3,0,0,1,1-.85,2.93,2.93,0,0,1,1.33-.32c1.64,0,2.89,1.13,2.89,3.61V192h-2.56v-4.52c0-1.08-.38-1.82-1.33-1.82a1.34,1.34,0,0,0-1.28.9,1.65,1.65,0,0,0-.08.56V192h-2.56Z"/><path d="M328.13,186.38c0-1,0-1.89-.07-2.63h2.21l.12,1.14h.06a3,3,0,0,1,2.54-1.32c1.68,0,2.94,1.12,2.94,3.54V192h-2.56v-4.56c0-1.06-.38-1.79-1.3-1.79a1.4,1.4,0,0,0-1.3,1,2,2,0,0,0-.09.63V192h-2.55Z"/><path d="M171.26,180.65h2.56v7.16c0,3.22-1.54,4.35-4,4.35a6.26,6.26,0,0,1-1.87-.27l.29-2.06a4.38,4.38,0,0,0,1.3.2c1.08,0,1.75-.49,1.75-2.25Z"/><path d="M183.94,187.78a4.11,4.11,0,0,1-4.33,4.38,4,4,0,0,1-4.25-4.24,4.11,4.11,0,0,1,4.4-4.35A4,4,0,0,1,183.94,187.78Zm-5.94.09c0,1.4.59,2.46,1.68,2.46s1.63-1,1.63-2.48c0-1.21-.47-2.46-1.63-2.46S178,186.65,178,187.87Z"/><path d="M185.53,180.05h2.56v4.69h0a2.89,2.89,0,0,1,2.33-1.17c1.63,0,2.88,1.13,2.88,3.61V192h-2.56v-4.52c0-1.08-.37-1.82-1.32-1.82a1.34,1.34,0,0,0-1.28.9,1.43,1.43,0,0,0-.08.56V192h-2.56Z"/><path d="M195.37,186.38c0-1,0-1.89-.07-2.63h2.22l.12,1.14h.05a3,3,0,0,1,2.54-1.32c1.68,0,3,1.12,3,3.54V192h-2.56v-4.56c0-1.06-.38-1.79-1.3-1.79a1.39,1.39,0,0,0-1.3,1,2,2,0,0,0-.09.63V192h-2.56Z"/><path d="M28.56,180.65h2.56v7.16c0,3.22-1.55,4.35-4,4.35a6.33,6.33,0,0,1-1.88-.27l.29-2.06a4.46,4.46,0,0,0,1.31.2c1.07,0,1.75-.49,1.75-2.25Z"/><path d="M41.24,187.78a4.12,4.12,0,0,1-4.34,4.38,4,4,0,0,1-4.24-4.24,4.1,4.1,0,0,1,4.39-4.35A4,4,0,0,1,41.24,187.78Zm-6,.09c0,1.4.59,2.46,1.68,2.46s1.63-1,1.63-2.48c0-1.21-.47-2.46-1.62-2.46S35.29,186.65,35.29,187.87Z"/><path d="M42.82,180.05h2.56v4.69h0a3,3,0,0,1,1-.85,2.87,2.87,0,0,1,1.33-.32c1.63,0,2.88,1.13,2.88,3.61V192H48.07v-4.52c0-1.08-.38-1.82-1.32-1.82a1.34,1.34,0,0,0-1.29.9,1.65,1.65,0,0,0-.08.56V192H42.82Z"/><path d="M52.67,186.38c0-1,0-1.89-.07-2.63h2.22l.11,1.14H55a3,3,0,0,1,2.54-1.32c1.68,0,2.94,1.12,2.94,3.54V192H57.91v-4.56c0-1.06-.38-1.79-1.3-1.79a1.38,1.38,0,0,0-1.29,1,1.71,1.71,0,0,0-.09.63V192H52.67Z"/><path class="cls-13" d="M232.78,120.11a45.82,45.82,0,0,1,18.8-5.78,47.3,47.3,0,0,1,9.88.25l1.23.16c.4.06.81.15,1.21.22.81.17,1.63.29,2.42.52l1.21.31c.39.1.8.19,1.19.33l.89.29,1.71-5.24a43.19,43.19,0,0,1,4.22,9.16,37.57,37.57,0,0,0-8.47,3.92l1.7-5.25-.84-.27c-.36-.13-.74-.22-1.12-.32l-1.13-.29c-.74-.21-1.51-.32-2.27-.48-.38-.07-.76-.15-1.15-.21l-1.15-.15a45.27,45.27,0,0,0-9.31-.24,43.23,43.23,0,0,0-17.66,5.43Z"/></svg>